<svg width="605" height="76" viewBox="0 0 605 76" fill="none" xmlns="http://www.w3.org/2000/svg">
<g filter="url(#filter0_d_310_16)">
<mask id="path-1-outside-1_310_16" maskUnits="userSpaceOnUse" x="4" y="0" width="597" height="68" fill="black">
<rect fill="white" x="4" width="597" height="68"/>
<path d="M27.0048 52.43C26.9114 53.7833 26.1881 54.7167 24.8348 55.23C23.5281 55.7433 21.1481 56 17.6948 56C14.2414 56 11.3481 55.6967 9.01477 55.09C6.7281 54.4367 5.58477 53.62 5.58477 52.64C5.58477 51.52 7.66143 44.38 11.8148 31.22C15.9681 18.0133 18.3481 10.4067 18.9548 8.4C19.1881 7.79333 21.0548 7.30333 24.5548 6.93C28.1014 6.51 31.8814 6.3 35.8948 6.3C39.9548 6.3 42.1948 7 42.6148 8.4C51.4348 37.7067 55.8448 52.5933 55.8448 53.06C55.8448 53.5267 55.5648 53.9933 55.0048 54.46C53.6981 55.4867 51.1081 56 47.2348 56C38.9748 56 34.7514 55.02 34.5648 53.06L34.0748 48.51H27.3548L27.0048 52.43ZM32.6048 35.21L31.5548 22.61H30.0148L28.8248 35.21H32.6048ZM70.0553 56.63C68.3286 56.63 66.7186 56.3733 65.2253 55.86C63.732 55.3467 62.4953 54.7167 61.5153 53.97C60.582 53.2233 59.7653 52.22 59.0653 50.96C58.3653 49.7 57.8286 48.51 57.4553 47.39C57.082 46.2233 56.802 44.8 56.6153 43.12C56.3353 40.6467 56.1953 37.8233 56.1953 34.65C56.1953 28.1633 57.3853 23.24 59.7653 19.88C62.1453 16.4733 65.412 14.77 69.5653 14.77C73.812 14.77 76.892 15.7733 78.8053 17.78C79.2253 18.2467 79.552 18.8067 79.7853 19.46H80.3453L79.5053 14.63V5.88C79.5053 4.85333 80.812 3.85 83.4253 2.87C86.0386 1.89 88.862 1.4 91.8953 1.4C95.0686 1.4 97.0986 2.00667 97.9853 3.22C98.312 3.68667 98.4753 4.15333 98.4753 4.62V54.32C98.4753 54.8333 97.1686 55.2533 94.5553 55.58C91.9886 55.86 89.492 56 87.0653 56C84.6853 56 83.1453 55.93 82.4453 55.79C81.792 55.6033 81.372 55.4167 81.1853 55.23C81.0453 55.0433 80.952 54.74 80.9053 54.32L80.3453 50.33H79.7853C79.3653 51.9633 78.5253 53.34 77.2653 54.46C75.6786 55.9067 73.2753 56.63 70.0553 56.63ZM77.8953 46.41C78.642 46.41 79.202 45.9433 79.5753 45.01V26.32C79.5753 25.8533 79.3186 25.5033 78.8053 25.27C78.3386 24.99 77.9186 24.85 77.5453 24.85C75.9586 24.85 75.1653 28.49 75.1653 35.77C75.1653 39.6433 75.3753 42.3967 75.7953 44.03C76.262 45.6167 76.962 46.41 77.8953 46.41ZM124.94 56.63C121.44 56.63 118.43 56.3267 115.91 55.72C113.39 55.1133 111.103 54.04 109.05 52.5C104.803 49.42 102.68 43.68 102.68 35.28C102.68 27.8133 104.85 22.47 109.19 19.25C113.25 16.2633 118.5 14.77 124.94 14.77C127.693 14.77 130.05 14.91 132.01 15.19C133.97 15.4233 135.953 15.96 137.96 16.8C140.013 17.64 141.646 18.7833 142.86 20.23C144.12 21.6767 145.146 23.6833 145.94 26.25C146.733 28.77 147.13 31.78 147.13 35.28C147.13 42.3733 145.123 47.7167 141.11 51.31C137.096 54.8567 131.706 56.63 124.94 56.63ZM122.49 42.98C122.816 44.66 123.143 45.6633 123.47 45.99C123.843 46.3167 124.31 46.48 124.87 46.48C125.476 46.48 125.943 46.3167 126.27 45.99C126.643 45.6633 126.97 44.66 127.25 42.98C127.576 41.3 127.74 39.2 127.74 36.68C127.74 34.1133 127.67 32.1533 127.53 30.8C127.436 29.4 127.296 28.3267 127.11 27.58C126.97 26.8333 126.76 26.25 126.48 25.83C126.06 25.2233 125.546 24.92 124.94 24.92C124.38 24.92 123.913 25.1067 123.54 25.48C123.166 25.8067 122.816 26.8333 122.49 28.56C122.163 30.24 122 32.6433 122 35.77C122 38.8967 122.163 41.3 122.49 42.98ZM151.3 64.47V19.95C151.3 18.97 152.606 17.9667 155.22 16.94C157.833 15.9133 160.656 15.4 163.69 15.4C165.09 15.4 166.186 15.5633 166.98 15.89C167.773 16.2167 168.263 16.5433 168.45 16.87C168.636 17.1967 168.986 18.5967 169.5 21.07H170.06C170.153 20.65 170.573 19.9967 171.32 19.11C172.066 18.2233 172.813 17.5 173.56 16.94C174.353 16.38 175.473 15.89 176.92 15.47C178.366 15.0033 180.046 14.77 181.96 14.77C183.92 14.77 185.693 15.2133 187.28 16.1C188.866 16.94 190.033 17.9433 190.78 19.11C191.573 20.23 192.18 21.6767 192.6 23.45C193.066 25.1767 193.323 26.5767 193.37 27.65C193.463 28.6767 193.51 30.1933 193.51 32.2C193.51 34.16 193.44 36.12 193.3 38.08C193.16 39.9933 192.903 41.9533 192.53 43.96C192.156 45.9667 191.62 47.6933 190.92 49.14C190.22 50.5867 189.333 51.8933 188.26 53.06C186.113 55.3933 182.963 56.56 178.81 56.56C177.316 56.56 175.986 56.35 174.82 55.93C173.7 55.4633 172.86 54.9267 172.3 54.32C171.133 53.06 170.456 51.94 170.27 50.96L170.2 50.26H169.64L170.62 56.56V64.47C170.62 64.9833 169.266 65.38 166.56 65.66C163.9 65.9867 161.146 66.15 158.3 66.15C155.5 66.15 153.633 66.01 152.7 65.73C151.766 65.4967 151.3 65.0767 151.3 64.47ZM174.54 35.49C174.54 31.5233 174.33 28.7467 173.91 27.16C173.49 25.5733 172.86 24.78 172.02 24.78C171.18 24.78 170.573 25.2467 170.2 26.18V44.52C170.2 45.7333 170.83 46.34 172.09 46.34C173.723 46.34 174.54 42.7233 174.54 35.49ZM225.226 55.37C224.386 56.1633 222.472 56.56 219.486 56.56C216.499 56.56 214.026 56.3733 212.066 56C210.106 55.58 208.239 54.7867 206.466 53.62C203.059 51.3333 201.356 46.5733 201.356 39.34V28.42H197.856C197.342 28.42 196.899 27.8833 196.526 26.81C196.152 25.7367 195.966 24.2667 195.966 22.4C195.966 20.5333 196.246 18.9 196.806 17.5C197.412 16.0533 198.182 15.33 199.116 15.33H201.356V6.86C201.356 5.41333 202.756 4.24666 205.556 3.36C208.402 2.47333 211.179 2.03 213.886 2.03C218.132 2.03 220.256 3.08 220.256 5.18V15.33H225.436C226.649 15.33 227.256 17.08 227.256 20.58C227.256 22.8667 226.976 24.7567 226.416 26.25C225.902 27.6967 225.226 28.42 224.386 28.42H220.256V41.23C220.256 42.49 220.792 43.4 221.866 43.96C222.939 44.4733 223.872 44.73 224.666 44.73C225.506 44.73 226.019 45.1267 226.206 45.92C226.392 46.7133 226.486 47.9033 226.486 49.49C226.486 52.6167 226.066 54.5767 225.226 55.37ZM249.895 40.18C249.895 43.2133 251.342 44.73 254.235 44.73C255.915 44.73 258.108 44.17 260.815 43.05C263.522 41.8833 264.945 41.3 265.085 41.3C265.972 41.3 267.138 42.63 268.585 45.29C270.032 47.95 270.755 49.91 270.755 51.17C270.755 52.99 268.888 54.3667 265.155 55.3C261.422 56.2333 257.758 56.7 254.165 56.7C250.618 56.7 247.632 56.42 245.205 55.86C242.825 55.3 240.865 54.6 239.325 53.76C237.832 52.8733 236.502 51.8 235.335 50.54C234.215 49.28 233.375 48.09 232.815 46.97C232.255 45.8033 231.812 44.52 231.485 43.12C231.018 41.0667 230.785 38.9433 230.785 36.75C230.785 28.2567 233.002 22.4 237.435 19.18C239.628 17.5467 242.078 16.4033 244.785 15.75C247.492 15.0967 250.688 14.77 254.375 14.77C266.182 14.77 272.085 18.8767 272.085 27.09C272.085 35.8167 265.458 40.18 252.205 40.18H249.895ZM249.755 29.96V34.58C251.108 34.58 252.205 34.0433 253.045 32.97C253.932 31.8967 254.375 30.59 254.375 29.05C254.375 26.25 253.652 24.85 252.205 24.85C250.572 24.85 249.755 26.5533 249.755 29.96ZM295.161 33.88V54.32C295.161 54.8333 293.831 55.2533 291.171 55.58C288.557 55.86 285.827 56 282.981 56C280.181 56 278.361 55.8833 277.521 55.65C276.681 55.37 276.261 54.9267 276.261 54.32V19.81C276.261 18.9233 277.544 17.9667 280.111 16.94C282.724 15.9133 285.547 15.4 288.581 15.4C291.661 15.4 293.387 16.24 293.761 17.92L294.461 21.14H294.951C295.604 19.3667 297.167 17.8733 299.641 16.66C302.114 15.4 304.587 14.77 307.061 14.77C309.534 14.77 311.261 15.1667 312.241 15.96C313.267 16.7533 313.781 17.78 313.781 19.04C313.781 20.2533 313.687 21.8167 313.501 23.73C313.314 25.6433 312.847 27.72 312.101 29.96C311.401 32.2 310.467 33.32 309.301 33.32C308.834 33.32 307.364 32.97 304.891 32.27C302.417 31.57 300.364 31.22 298.731 31.22C297.144 31.22 296.141 31.4533 295.721 31.92C295.347 32.3867 295.161 33.04 295.161 33.88ZM352.809 53.97C352.809 54.5767 351.385 55.0667 348.539 55.44C345.692 55.8133 342.845 56 339.999 56C337.152 56 335.332 55.8367 334.539 55.51C333.745 55.1833 333.349 54.67 333.349 53.97V8.96C333.349 6.72 340.069 5.6 353.509 5.6C361.629 5.6 366.995 6.16 369.609 7.28C372.782 8.58666 374.929 10.36 376.049 12.6C377.542 15.4933 378.289 19.2033 378.289 23.73C378.289 29.9367 377.215 34.44 375.069 37.24C373.529 39.2933 371.989 40.6233 370.449 41.23C368.909 41.8367 367.625 42.28 366.599 42.56C365.619 42.7933 364.382 42.98 362.889 43.12C360.835 43.3067 358.035 43.4 354.489 43.4L352.809 43.33V53.97ZM352.879 31.71H354.559C355.445 31.71 356.145 31.5933 356.659 31.36C357.172 31.08 357.615 30.38 357.989 29.26C358.409 28.0933 358.619 26.4833 358.619 24.43C358.619 22.33 358.385 20.7433 357.919 19.67C357.499 18.55 357.055 17.8967 356.589 17.71C356.169 17.4767 355.655 17.36 355.049 17.36H352.879V31.71ZM401.391 33.88V54.32C401.391 54.8333 400.061 55.2533 397.401 55.58C394.788 55.86 392.058 56 389.211 56C386.411 56 384.591 55.8833 383.751 55.65C382.911 55.37 382.491 54.9267 382.491 54.32V19.81C382.491 18.9233 383.774 17.9667 386.341 16.94C388.954 15.9133 391.778 15.4 394.811 15.4C397.891 15.4 399.618 16.24 399.991 17.92L400.691 21.14H401.181C401.834 19.3667 403.398 17.8733 405.871 16.66C408.344 15.4 410.818 14.77 413.291 14.77C415.764 14.77 417.491 15.1667 418.471 15.96C419.498 16.7533 420.011 17.78 420.011 19.04C420.011 20.2533 419.918 21.8167 419.731 23.73C419.544 25.6433 419.078 27.72 418.331 29.96C417.631 32.2 416.698 33.32 415.531 33.32C415.064 33.32 413.594 32.97 411.121 32.27C408.648 31.57 406.594 31.22 404.961 31.22C403.374 31.22 402.371 31.4533 401.951 31.92C401.578 32.3867 401.391 33.04 401.391 33.88ZM445.067 56.63C441.567 56.63 438.557 56.3267 436.037 55.72C433.517 55.1133 431.23 54.04 429.177 52.5C424.93 49.42 422.807 43.68 422.807 35.28C422.807 27.8133 424.977 22.47 429.317 19.25C433.377 16.2633 438.627 14.77 445.067 14.77C447.82 14.77 450.177 14.91 452.137 15.19C454.097 15.4233 456.08 15.96 458.087 16.8C460.14 17.64 461.773 18.7833 462.987 20.23C464.247 21.6767 465.273 23.6833 466.067 26.25C466.86 28.77 467.257 31.78 467.257 35.28C467.257 42.3733 465.25 47.7167 461.237 51.31C457.223 54.8567 451.833 56.63 445.067 56.63ZM442.617 42.98C442.943 44.66 443.27 45.6633 443.597 45.99C443.97 46.3167 444.437 46.48 444.997 46.48C445.603 46.48 446.07 46.3167 446.397 45.99C446.77 45.6633 447.097 44.66 447.377 42.98C447.703 41.3 447.867 39.2 447.867 36.68C447.867 34.1133 447.797 32.1533 447.657 30.8C447.563 29.4 447.423 28.3267 447.237 27.58C447.097 26.8333 446.887 26.25 446.607 25.83C446.187 25.2233 445.673 24.92 445.067 24.92C444.507 24.92 444.04 25.1067 443.667 25.48C443.293 25.8067 442.943 26.8333 442.617 28.56C442.29 30.24 442.127 32.6433 442.127 35.77C442.127 38.8967 442.29 41.3 442.617 42.98ZM494.037 32.9V54.32C494.037 54.8333 492.753 55.2533 490.187 55.58C487.62 55.86 484.47 56 480.737 56C477.003 56 475.137 55.44 475.137 54.32V32.9H471.567C470.307 32.9 469.677 30.7767 469.677 26.53C469.677 24.85 469.957 23.2867 470.517 21.84C471.123 20.3467 471.893 19.6 472.827 19.6H475.137C475.137 16.4733 475.58 13.7433 476.467 11.41C477.4 9.07666 478.497 7.30333 479.757 6.09C481.063 4.83 482.627 3.82667 484.447 3.08C487.153 1.96 490.233 1.4 493.687 1.4C502.367 1.4 506.707 2.82333 506.707 5.67C506.707 8.75 506.403 11.27 505.797 13.23C505.19 15.19 504.373 16.17 503.347 16.17C502.927 16.17 502.133 16.03 500.967 15.75C499.847 15.4233 498.773 15.26 497.747 15.26C495.04 15.26 493.687 16.1933 493.687 18.06C493.687 18.5267 493.803 19.04 494.037 19.6H503.347C504.607 19.6 505.237 21.6533 505.237 25.76C505.237 27.58 504.957 29.2367 504.397 30.73C503.883 32.1767 503.183 32.9 502.297 32.9H494.037ZM529.778 19.81V54.32C529.778 54.8333 528.425 55.2533 525.718 55.58C523.058 55.86 520.305 56 517.458 56C514.658 56 512.838 55.8833 511.998 55.65C511.205 55.37 510.808 54.9267 510.808 54.32V21.07C510.808 20.0433 512.115 19.04 514.728 18.06C517.388 17.0333 520.281 16.52 523.408 16.52C527.655 16.52 529.778 17.6167 529.778 19.81ZM520.258 1.4C523.338 1.4 525.741 1.86666 527.468 2.8C529.241 3.68666 530.128 5.32 530.128 7.7C530.128 11.9 526.861 14 520.328 14C513.795 14 510.528 11.9 510.528 7.7C510.528 3.5 513.771 1.4 520.258 1.4ZM553.901 4.62V54.32C553.901 54.8333 552.571 55.2533 549.911 55.58C547.251 55.86 544.497 56 541.651 56C538.851 56 537.031 55.8833 536.191 55.65C535.397 55.37 535.001 54.9267 535.001 54.32V5.88C535.001 4.85333 536.307 3.85 538.921 2.87C541.581 1.89 544.427 1.4 547.461 1.4C551.754 1.4 553.901 2.47333 553.901 4.62ZM577.2 40.18C577.2 43.2133 578.647 44.73 581.54 44.73C583.22 44.73 585.413 44.17 588.12 43.05C590.827 41.8833 592.25 41.3 592.39 41.3C593.277 41.3 594.443 42.63 595.89 45.29C597.337 47.95 598.06 49.91 598.06 51.17C598.06 52.99 596.193 54.3667 592.46 55.3C588.727 56.2333 585.063 56.7 581.47 56.7C577.923 56.7 574.937 56.42 572.51 55.86C570.13 55.3 568.17 54.6 566.63 53.76C565.137 52.8733 563.807 51.8 562.64 50.54C561.52 49.28 560.68 48.09 560.12 46.97C559.56 45.8033 559.117 44.52 558.79 43.12C558.323 41.0667 558.09 38.9433 558.09 36.75C558.09 28.2567 560.307 22.4 564.74 19.18C566.933 17.5467 569.383 16.4033 572.09 15.75C574.797 15.0967 577.993 14.77 581.68 14.77C593.487 14.77 599.39 18.8767 599.39 27.09C599.39 35.8167 592.763 40.18 579.51 40.18H577.2ZM577.06 29.96V34.58C578.413 34.58 579.51 34.0433 580.35 32.97C581.237 31.8967 581.68 30.59 581.68 29.05C581.68 26.25 580.957 24.85 579.51 24.85C577.877 24.85 577.06 26.5533 577.06 29.96Z"/>
</mask>
<path d="M27.0048 52.43C26.9114 53.7833 26.1881 54.7167 24.8348 55.23C23.5281 55.7433 21.1481 56 17.6948 56C14.2414 56 11.3481 55.6967 9.01477 55.09C6.7281 54.4367 5.58477 53.62 5.58477 52.64C5.58477 51.52 7.66143 44.38 11.8148 31.22C15.9681 18.0133 18.3481 10.4067 18.9548 8.4C19.1881 7.79333 21.0548 7.30333 24.5548 6.93C28.1014 6.51 31.8814 6.3 35.8948 6.3C39.9548 6.3 42.1948 7 42.6148 8.4C51.4348 37.7067 55.8448 52.5933 55.8448 53.06C55.8448 53.5267 55.5648 53.9933 55.0048 54.46C53.6981 55.4867 51.1081 56 47.2348 56C38.9748 56 34.7514 55.02 34.5648 53.06L34.0748 48.51H27.3548L27.0048 52.43ZM32.6048 35.21L31.5548 22.61H30.0148L28.8248 35.21H32.6048ZM70.0553 56.63C68.3286 56.63 66.7186 56.3733 65.2253 55.86C63.732 55.3467 62.4953 54.7167 61.5153 53.97C60.582 53.2233 59.7653 52.22 59.0653 50.96C58.3653 49.7 57.8286 48.51 57.4553 47.39C57.082 46.2233 56.802 44.8 56.6153 43.12C56.3353 40.6467 56.1953 37.8233 56.1953 34.65C56.1953 28.1633 57.3853 23.24 59.7653 19.88C62.1453 16.4733 65.412 14.77 69.5653 14.77C73.812 14.77 76.892 15.7733 78.8053 17.78C79.2253 18.2467 79.552 18.8067 79.7853 19.46H80.3453L79.5053 14.63V5.88C79.5053 4.85333 80.812 3.85 83.4253 2.87C86.0386 1.89 88.862 1.4 91.8953 1.4C95.0686 1.4 97.0986 2.00667 97.9853 3.22C98.312 3.68667 98.4753 4.15333 98.4753 4.62V54.32C98.4753 54.8333 97.1686 55.2533 94.5553 55.58C91.9886 55.86 89.492 56 87.0653 56C84.6853 56 83.1453 55.93 82.4453 55.79C81.792 55.6033 81.372 55.4167 81.1853 55.23C81.0453 55.0433 80.952 54.74 80.9053 54.32L80.3453 50.33H79.7853C79.3653 51.9633 78.5253 53.34 77.2653 54.46C75.6786 55.9067 73.2753 56.63 70.0553 56.63ZM77.8953 46.41C78.642 46.41 79.202 45.9433 79.5753 45.01V26.32C79.5753 25.8533 79.3186 25.5033 78.8053 25.27C78.3386 24.99 77.9186 24.85 77.5453 24.85C75.9586 24.85 75.1653 28.49 75.1653 35.77C75.1653 39.6433 75.3753 42.3967 75.7953 44.03C76.262 45.6167 76.962 46.41 77.8953 46.41ZM124.94 56.63C121.44 56.63 118.43 56.3267 115.91 55.72C113.39 55.1133 111.103 54.04 109.05 52.5C104.803 49.42 102.68 43.68 102.68 35.28C102.68 27.8133 104.85 22.47 109.19 19.25C113.25 16.2633 118.5 14.77 124.94 14.77C127.693 14.77 130.05 14.91 132.01 15.19C133.97 15.4233 135.953 15.96 137.96 16.8C140.013 17.64 141.646 18.7833 142.86 20.23C144.12 21.6767 145.146 23.6833 145.94 26.25C146.733 28.77 147.13 31.78 147.13 35.28C147.13 42.3733 145.123 47.7167 141.11 51.31C137.096 54.8567 131.706 56.63 124.94 56.63ZM122.49 42.98C122.816 44.66 123.143 45.6633 123.47 45.99C123.843 46.3167 124.31 46.48 124.87 46.48C125.476 46.48 125.943 46.3167 126.27 45.99C126.643 45.6633 126.97 44.66 127.25 42.98C127.576 41.3 127.74 39.2 127.74 36.68C127.74 34.1133 127.67 32.1533 127.53 30.8C127.436 29.4 127.296 28.3267 127.11 27.58C126.97 26.8333 126.76 26.25 126.48 25.83C126.06 25.2233 125.546 24.92 124.94 24.92C124.38 24.92 123.913 25.1067 123.54 25.48C123.166 25.8067 122.816 26.8333 122.49 28.56C122.163 30.24 122 32.6433 122 35.77C122 38.8967 122.163 41.3 122.49 42.98ZM151.3 64.47V19.95C151.3 18.97 152.606 17.9667 155.22 16.94C157.833 15.9133 160.656 15.4 163.69 15.4C165.09 15.4 166.186 15.5633 166.98 15.89C167.773 16.2167 168.263 16.5433 168.45 16.87C168.636 17.1967 168.986 18.5967 169.5 21.07H170.06C170.153 20.65 170.573 19.9967 171.32 19.11C172.066 18.2233 172.813 17.5 173.56 16.94C174.353 16.38 175.473 15.89 176.92 15.47C178.366 15.0033 180.046 14.77 181.96 14.77C183.92 14.77 185.693 15.2133 187.28 16.1C188.866 16.94 190.033 17.9433 190.78 19.11C191.573 20.23 192.18 21.6767 192.6 23.45C193.066 25.1767 193.323 26.5767 193.37 27.65C193.463 28.6767 193.51 30.1933 193.51 32.2C193.51 34.16 193.44 36.12 193.3 38.08C193.16 39.9933 192.903 41.9533 192.53 43.96C192.156 45.9667 191.62 47.6933 190.92 49.14C190.22 50.5867 189.333 51.8933 188.26 53.06C186.113 55.3933 182.963 56.56 178.81 56.56C177.316 56.56 175.986 56.35 174.82 55.93C173.7 55.4633 172.86 54.9267 172.3 54.32C171.133 53.06 170.456 51.94 170.27 50.96L170.2 50.26H169.64L170.62 56.56V64.47C170.62 64.9833 169.266 65.38 166.56 65.66C163.9 65.9867 161.146 66.15 158.3 66.15C155.5 66.15 153.633 66.01 152.7 65.73C151.766 65.4967 151.3 65.0767 151.3 64.47ZM174.54 35.49C174.54 31.5233 174.33 28.7467 173.91 27.16C173.49 25.5733 172.86 24.78 172.02 24.78C171.18 24.78 170.573 25.2467 170.2 26.18V44.52C170.2 45.7333 170.83 46.34 172.09 46.34C173.723 46.34 174.54 42.7233 174.54 35.49ZM225.226 55.37C224.386 56.1633 222.472 56.56 219.486 56.56C216.499 56.56 214.026 56.3733 212.066 56C210.106 55.58 208.239 54.7867 206.466 53.62C203.059 51.3333 201.356 46.5733 201.356 39.34V28.42H197.856C197.342 28.42 196.899 27.8833 196.526 26.81C196.152 25.7367 195.966 24.2667 195.966 22.4C195.966 20.5333 196.246 18.9 196.806 17.5C197.412 16.0533 198.182 15.33 199.116 15.33H201.356V6.86C201.356 5.41333 202.756 4.24666 205.556 3.36C208.402 2.47333 211.179 2.03 213.886 2.03C218.132 2.03 220.256 3.08 220.256 5.18V15.33H225.436C226.649 15.33 227.256 17.08 227.256 20.58C227.256 22.8667 226.976 24.7567 226.416 26.25C225.902 27.6967 225.226 28.42 224.386 28.42H220.256V41.23C220.256 42.49 220.792 43.4 221.866 43.96C222.939 44.4733 223.872 44.73 224.666 44.73C225.506 44.73 226.019 45.1267 226.206 45.92C226.392 46.7133 226.486 47.9033 226.486 49.49C226.486 52.6167 226.066 54.5767 225.226 55.37ZM249.895 40.18C249.895 43.2133 251.342 44.73 254.235 44.73C255.915 44.73 258.108 44.17 260.815 43.05C263.522 41.8833 264.945 41.3 265.085 41.3C265.972 41.3 267.138 42.63 268.585 45.29C270.032 47.95 270.755 49.91 270.755 51.17C270.755 52.99 268.888 54.3667 265.155 55.3C261.422 56.2333 257.758 56.7 254.165 56.7C250.618 56.7 247.632 56.42 245.205 55.86C242.825 55.3 240.865 54.6 239.325 53.76C237.832 52.8733 236.502 51.8 235.335 50.54C234.215 49.28 233.375 48.09 232.815 46.97C232.255 45.8033 231.812 44.52 231.485 43.12C231.018 41.0667 230.785 38.9433 230.785 36.75C230.785 28.2567 233.002 22.4 237.435 19.18C239.628 17.5467 242.078 16.4033 244.785 15.75C247.492 15.0967 250.688 14.77 254.375 14.77C266.182 14.77 272.085 18.8767 272.085 27.09C272.085 35.8167 265.458 40.18 252.205 40.18H249.895ZM249.755 29.96V34.58C251.108 34.58 252.205 34.0433 253.045 32.97C253.932 31.8967 254.375 30.59 254.375 29.05C254.375 26.25 253.652 24.85 252.205 24.85C250.572 24.85 249.755 26.5533 249.755 29.96ZM295.161 33.88V54.32C295.161 54.8333 293.831 55.2533 291.171 55.58C288.557 55.86 285.827 56 282.981 56C280.181 56 278.361 55.8833 277.521 55.65C276.681 55.37 276.261 54.9267 276.261 54.32V19.81C276.261 18.9233 277.544 17.9667 280.111 16.94C282.724 15.9133 285.547 15.4 288.581 15.4C291.661 15.4 293.387 16.24 293.761 17.92L294.461 21.14H294.951C295.604 19.3667 297.167 17.8733 299.641 16.66C302.114 15.4 304.587 14.77 307.061 14.77C309.534 14.77 311.261 15.1667 312.241 15.96C313.267 16.7533 313.781 17.78 313.781 19.04C313.781 20.2533 313.687 21.8167 313.501 23.73C313.314 25.6433 312.847 27.72 312.101 29.96C311.401 32.2 310.467 33.32 309.301 33.32C308.834 33.32 307.364 32.97 304.891 32.27C302.417 31.57 300.364 31.22 298.731 31.22C297.144 31.22 296.141 31.4533 295.721 31.92C295.347 32.3867 295.161 33.04 295.161 33.88ZM352.809 53.97C352.809 54.5767 351.385 55.0667 348.539 55.44C345.692 55.8133 342.845 56 339.999 56C337.152 56 335.332 55.8367 334.539 55.51C333.745 55.1833 333.349 54.67 333.349 53.97V8.96C333.349 6.72 340.069 5.6 353.509 5.6C361.629 5.6 366.995 6.16 369.609 7.28C372.782 8.58666 374.929 10.36 376.049 12.6C377.542 15.4933 378.289 19.2033 378.289 23.73C378.289 29.9367 377.215 34.44 375.069 37.24C373.529 39.2933 371.989 40.6233 370.449 41.23C368.909 41.8367 367.625 42.28 366.599 42.56C365.619 42.7933 364.382 42.98 362.889 43.12C360.835 43.3067 358.035 43.4 354.489 43.4L352.809 43.33V53.97ZM352.879 31.71H354.559C355.445 31.71 356.145 31.5933 356.659 31.36C357.172 31.08 357.615 30.38 357.989 29.26C358.409 28.0933 358.619 26.4833 358.619 24.43C358.619 22.33 358.385 20.7433 357.919 19.67C357.499 18.55 357.055 17.8967 356.589 17.71C356.169 17.4767 355.655 17.36 355.049 17.36H352.879V31.71ZM401.391 33.88V54.32C401.391 54.8333 400.061 55.2533 397.401 55.58C394.788 55.86 392.058 56 389.211 56C386.411 56 384.591 55.8833 383.751 55.65C382.911 55.37 382.491 54.9267 382.491 54.32V19.81C382.491 18.9233 383.774 17.9667 386.341 16.94C388.954 15.9133 391.778 15.4 394.811 15.4C397.891 15.4 399.618 16.24 399.991 17.92L400.691 21.14H401.181C401.834 19.3667 403.398 17.8733 405.871 16.66C408.344 15.4 410.818 14.77 413.291 14.77C415.764 14.77 417.491 15.1667 418.471 15.96C419.498 16.7533 420.011 17.78 420.011 19.04C420.011 20.2533 419.918 21.8167 419.731 23.73C419.544 25.6433 419.078 27.72 418.331 29.96C417.631 32.2 416.698 33.32 415.531 33.32C415.064 33.32 413.594 32.97 411.121 32.27C408.648 31.57 406.594 31.22 404.961 31.22C403.374 31.22 402.371 31.4533 401.951 31.92C401.578 32.3867 401.391 33.04 401.391 33.88ZM445.067 56.63C441.567 56.63 438.557 56.3267 436.037 55.72C433.517 55.1133 431.23 54.04 429.177 52.5C424.93 49.42 422.807 43.68 422.807 35.28C422.807 27.8133 424.977 22.47 429.317 19.25C433.377 16.2633 438.627 14.77 445.067 14.77C447.82 14.77 450.177 14.91 452.137 15.19C454.097 15.4233 456.08 15.96 458.087 16.8C460.14 17.64 461.773 18.7833 462.987 20.23C464.247 21.6767 465.273 23.6833 466.067 26.25C466.86 28.77 467.257 31.78 467.257 35.28C467.257 42.3733 465.25 47.7167 461.237 51.31C457.223 54.8567 451.833 56.63 445.067 56.63ZM442.617 42.98C442.943 44.66 443.27 45.6633 443.597 45.99C443.97 46.3167 444.437 46.48 444.997 46.48C445.603 46.48 446.07 46.3167 446.397 45.99C446.77 45.6633 447.097 44.66 447.377 42.98C447.703 41.3 447.867 39.2 447.867 36.68C447.867 34.1133 447.797 32.1533 447.657 30.8C447.563 29.4 447.423 28.3267 447.237 27.58C447.097 26.8333 446.887 26.25 446.607 25.83C446.187 25.2233 445.673 24.92 445.067 24.92C444.507 24.92 444.04 25.1067 443.667 25.48C443.293 25.8067 442.943 26.8333 442.617 28.56C442.29 30.24 442.127 32.6433 442.127 35.77C442.127 38.8967 442.29 41.3 442.617 42.98ZM494.037 32.9V54.32C494.037 54.8333 492.753 55.2533 490.187 55.58C487.62 55.86 484.47 56 480.737 56C477.003 56 475.137 55.44 475.137 54.32V32.9H471.567C470.307 32.9 469.677 30.7767 469.677 26.53C469.677 24.85 469.957 23.2867 470.517 21.84C471.123 20.3467 471.893 19.6 472.827 19.6H475.137C475.137 16.4733 475.58 13.7433 476.467 11.41C477.4 9.07666 478.497 7.30333 479.757 6.09C481.063 4.83 482.627 3.82667 484.447 3.08C487.153 1.96 490.233 1.4 493.687 1.4C502.367 1.4 506.707 2.82333 506.707 5.67C506.707 8.75 506.403 11.27 505.797 13.23C505.19 15.19 504.373 16.17 503.347 16.17C502.927 16.17 502.133 16.03 500.967 15.75C499.847 15.4233 498.773 15.26 497.747 15.26C495.04 15.26 493.687 16.1933 493.687 18.06C493.687 18.5267 493.803 19.04 494.037 19.6H503.347C504.607 19.6 505.237 21.6533 505.237 25.76C505.237 27.58 504.957 29.2367 504.397 30.73C503.883 32.1767 503.183 32.9 502.297 32.9H494.037ZM529.778 19.81V54.32C529.778 54.8333 528.425 55.2533 525.718 55.58C523.058 55.86 520.305 56 517.458 56C514.658 56 512.838 55.8833 511.998 55.65C511.205 55.37 510.808 54.9267 510.808 54.32V21.07C510.808 20.0433 512.115 19.04 514.728 18.06C517.388 17.0333 520.281 16.52 523.408 16.52C527.655 16.52 529.778 17.6167 529.778 19.81ZM520.258 1.4C523.338 1.4 525.741 1.86666 527.468 2.8C529.241 3.68666 530.128 5.32 530.128 7.7C530.128 11.9 526.861 14 520.328 14C513.795 14 510.528 11.9 510.528 7.7C510.528 3.5 513.771 1.4 520.258 1.4ZM553.901 4.62V54.32C553.901 54.8333 552.571 55.2533 549.911 55.58C547.251 55.86 544.497 56 541.651 56C538.851 56 537.031 55.8833 536.191 55.65C535.397 55.37 535.001 54.9267 535.001 54.32V5.88C535.001 4.85333 536.307 3.85 538.921 2.87C541.581 1.89 544.427 1.4 547.461 1.4C551.754 1.4 553.901 2.47333 553.901 4.62ZM577.2 40.18C577.2 43.2133 578.647 44.73 581.54 44.73C583.22 44.73 585.413 44.17 588.12 43.05C590.827 41.8833 592.25 41.3 592.39 41.3C593.277 41.3 594.443 42.63 595.89 45.29C597.337 47.95 598.06 49.91 598.06 51.17C598.06 52.99 596.193 54.3667 592.46 55.3C588.727 56.2333 585.063 56.7 581.47 56.7C577.923 56.7 574.937 56.42 572.51 55.86C570.13 55.3 568.17 54.6 566.63 53.76C565.137 52.8733 563.807 51.8 562.64 50.54C561.52 49.28 560.68 48.09 560.12 46.97C559.56 45.8033 559.117 44.52 558.79 43.12C558.323 41.0667 558.09 38.9433 558.09 36.75C558.09 28.2567 560.307 22.4 564.74 19.18C566.933 17.5467 569.383 16.4033 572.09 15.75C574.797 15.0967 577.993 14.77 581.68 14.77C593.487 14.77 599.39 18.8767 599.39 27.09C599.39 35.8167 592.763 40.18 579.51 40.18H577.2ZM577.06 29.96V34.58C578.413 34.58 579.51 34.0433 580.35 32.97C581.237 31.8967 581.68 30.59 581.68 29.05C581.68 26.25 580.957 24.85 579.51 24.85C577.877 24.85 577.06 26.5533 577.06 29.96Z" fill="#A06EB1"/>
<path d="M27.0048 52.43L26.0087 52.3411L26.0078 52.3511L26.0071 52.3612L27.0048 52.43ZM24.8348 55.23L24.4801 54.2949L24.4691 54.2992L24.8348 55.23ZM9.01477 55.09L8.74004 56.0515L8.75155 56.0548L8.76313 56.0578L9.01477 55.09ZM11.8148 31.22L12.7684 31.521L12.7687 31.52L11.8148 31.22ZM18.9548 8.4L18.0214 8.04102L18.0082 8.07538L17.9976 8.11061L18.9548 8.4ZM24.5548 6.93L24.6608 7.92442L24.6724 7.92306L24.5548 6.93ZM42.6148 8.4L41.6569 8.68735L41.6572 8.68819L42.6148 8.4ZM55.0048 54.46L55.6226 55.2463L55.6339 55.2374L55.645 55.2282L55.0048 54.46ZM34.5648 53.06L35.5603 52.9652L35.559 52.9529L34.5648 53.06ZM34.0748 48.51L35.069 48.4029L34.9729 47.51H34.0748V48.51ZM27.3548 48.51V47.51H26.4401L26.3587 48.4211L27.3548 48.51ZM32.6048 35.21V36.21H33.6916L33.6013 35.127L32.6048 35.21ZM31.5548 22.61L32.5513 22.527L32.4749 21.61H31.5548V22.61ZM30.0148 22.61V21.61H29.1048L29.0192 22.516L30.0148 22.61ZM28.8248 35.21L27.8292 35.116L27.7259 36.21H28.8248V35.21ZM27.0048 52.43L26.0071 52.3612C25.972 52.8704 25.8247 53.2449 25.6019 53.5324C25.376 53.8239 25.0235 54.0889 24.4801 54.295L24.8348 55.23L25.1894 56.165C25.9994 55.8578 26.6852 55.3995 27.1827 54.7576C27.6832 54.1118 27.9442 53.343 28.0024 52.4988L27.0048 52.43ZM24.8348 55.23L24.4691 54.2992C23.3583 54.7356 21.1538 55 17.6948 55V56V57C21.1424 57 23.6979 56.751 25.2004 56.1608L24.8348 55.23ZM17.6948 56V55C14.2931 55 11.4906 54.7005 9.2664 54.1222L9.01477 55.09L8.76313 56.0578C11.2056 56.6929 14.1898 57 17.6948 57V56ZM9.01477 55.09L9.28949 54.1285C8.19088 53.8146 7.45962 53.4853 7.0235 53.1738C6.59328 52.8665 6.58477 52.6823 6.58477 52.64H5.58477H4.58477C4.58477 53.5777 5.14791 54.2919 5.86103 54.8012C6.56824 55.3064 7.55199 55.7121 8.74004 56.0515L9.01477 55.09ZM5.58477 52.64H6.58477C6.58477 52.6416 6.58477 52.6308 6.58711 52.6038C6.58937 52.5777 6.59329 52.5425 6.59963 52.4968C6.61239 52.4047 6.63299 52.2841 6.66311 52.1318C6.72337 51.8272 6.81621 51.4232 6.94396 50.9151C7.19916 49.9 7.58462 48.5048 8.10248 46.7243C9.13762 43.1652 10.6924 38.0987 12.7684 31.521L11.8148 31.22L10.8611 30.919C8.78376 37.5013 7.22357 42.5848 6.18206 46.1657C5.66158 47.9552 5.26829 49.3775 5.00432 50.4274C4.87249 50.9518 4.77065 51.3922 4.70111 51.7438C4.63614 52.0723 4.58477 52.3921 4.58477 52.64H5.58477ZM11.8148 31.22L12.7687 31.52C16.9209 18.3169 19.3032 10.7029 19.912 8.68939L18.9548 8.4L17.9976 8.11061C17.393 10.1104 15.0153 17.7097 10.8608 30.92L11.8148 31.22ZM18.9548 8.4L19.8881 8.75898C19.8112 8.95893 19.6939 8.96035 19.8989 8.85328C20.0668 8.76564 20.3503 8.65849 20.7837 8.54473C21.6442 8.31884 22.9272 8.10927 24.6608 7.92436L24.5548 6.93L24.4487 5.93564C22.6823 6.12405 21.282 6.34615 20.2759 6.61027C19.7759 6.7415 19.3303 6.89395 18.9731 7.08047C18.6531 7.24757 18.215 7.53774 18.0214 8.04102L18.9548 8.4ZM24.5548 6.93L24.6724 7.92306C28.1756 7.5082 31.916 7.3 35.8948 7.3V6.3V5.3C31.8469 5.3 28.0273 5.51179 24.4372 5.93694L24.5548 6.93ZM35.8948 6.3V7.3C37.886 7.3 39.3435 7.47386 40.3215 7.77948C41.3215 8.09198 41.5894 8.4621 41.6569 8.68735L42.6148 8.4L43.5726 8.11265C43.2202 6.9379 42.1581 6.25802 40.918 5.87052C39.656 5.47613 37.9636 5.3 35.8948 5.3V6.3ZM42.6148 8.4L41.6572 8.68819C46.0671 23.3412 49.3741 34.3878 51.5785 41.829C52.6808 45.55 53.5067 48.3672 54.0568 50.2823C54.332 51.2405 54.537 51.9689 54.6728 52.4704C54.7409 52.722 54.79 52.9104 54.8214 53.0396C54.8372 53.105 54.8467 53.1474 54.8516 53.1715C54.8635 53.2308 54.8448 53.1617 54.8448 53.06H55.8448H56.8448C56.8448 52.9291 56.8174 52.8027 56.8121 52.7765C56.7998 52.7151 56.7834 52.6439 56.7648 52.5675C56.7273 52.413 56.673 52.2051 56.6033 51.9477C56.4635 51.4313 56.2551 50.6912 55.979 49.7302C55.4266 47.8069 54.5988 44.9833 53.4961 41.261C51.2904 33.8155 47.9824 22.7655 43.5723 8.11181L42.6148 8.4ZM55.8448 53.06H54.8448C54.8448 53.0959 54.8248 53.3082 54.3646 53.6918L55.0048 54.46L55.645 55.2282C56.3047 54.6784 56.8448 53.9575 56.8448 53.06H55.8448ZM55.0048 54.46L54.3869 53.6737C53.9095 54.0489 53.1099 54.3919 51.8879 54.6341C50.679 54.8737 49.1334 55 47.2348 55V56V57C49.2095 57 50.8956 56.8697 52.2767 56.5959C53.6447 56.3248 54.7934 55.8978 55.6226 55.2463L55.0048 54.46ZM47.2348 56V55C43.1256 55 40.0965 54.7546 38.0983 54.2909C37.0948 54.058 36.424 53.786 36.0163 53.5142C35.6232 53.2521 35.5693 53.0604 35.5603 52.9652L34.5648 53.06L33.5693 53.1548C33.6535 54.0396 34.1976 54.7054 34.9069 55.1783C35.6018 55.6415 36.5381 55.982 37.6462 56.2391C39.8714 56.7554 43.084 57 47.2348 57V56ZM34.5648 53.06L35.559 52.9529L35.069 48.4029L34.0748 48.51L33.0805 48.6171L33.5705 53.1671L34.5648 53.06ZM34.0748 48.51V47.51H27.3548V48.51V49.51H34.0748V48.51ZM27.3548 48.51L26.3587 48.4211L26.0087 52.3411L27.0048 52.43L28.0008 52.5189L28.3508 48.5989L27.3548 48.51ZM32.6048 35.21L33.6013 35.127L32.5513 22.527L31.5548 22.61L30.5582 22.693L31.6082 35.293L32.6048 35.21ZM31.5548 22.61V21.61H30.0148V22.61V23.61H31.5548V22.61ZM30.0148 22.61L29.0192 22.516L27.8292 35.116L28.8248 35.21L29.8203 35.304L31.0103 22.704L30.0148 22.61ZM28.8248 35.21V36.21H32.6048V35.21V34.21H28.8248V35.21ZM65.2253 55.86L65.5504 54.9143L65.5504 54.9143L65.2253 55.86ZM61.5153 53.97L60.8906 54.7509L60.8999 54.7583L60.9093 54.7654L61.5153 53.97ZM59.0653 50.96L58.1912 51.4456L58.1912 51.4456L59.0653 50.96ZM57.4553 47.39L56.5028 47.6948L56.5066 47.7062L57.4553 47.39ZM56.6153 43.12L57.6092 43.0096L57.609 43.0075L56.6153 43.12ZM59.7653 19.88L60.5814 20.458L60.5851 20.4527L59.7653 19.88ZM78.8053 17.78L79.5486 17.111L79.539 17.1003L79.5291 17.0899L78.8053 17.78ZM79.7853 19.46L78.8436 19.7963L79.0806 20.46H79.7853V19.46ZM80.3453 19.46V20.46H81.5342L81.3305 19.2887L80.3453 19.46ZM79.5053 14.63H78.5053V14.7163L78.5201 14.8013L79.5053 14.63ZM83.4253 2.87L83.0742 1.93367L83.0742 1.93367L83.4253 2.87ZM97.9853 3.22L98.8045 2.64654L98.7987 2.6382L98.7927 2.62998L97.9853 3.22ZM94.5553 55.58L94.6638 56.5741L94.6716 56.5733L94.6793 56.5723L94.5553 55.58ZM82.4453 55.79L82.1706 56.7515L82.2095 56.7626L82.2492 56.7706L82.4453 55.79ZM81.1853 55.23L80.3853 55.83L80.428 55.8869L80.4782 55.9371L81.1853 55.23ZM80.9053 54.32L81.8992 54.2096L81.8976 54.1953L81.8956 54.181L80.9053 54.32ZM80.3453 50.33L81.3356 50.191L81.2148 49.33H80.3453V50.33ZM79.7853 50.33V49.33H79.0099L78.8168 50.081L79.7853 50.33ZM77.2653 54.46L76.6009 53.7125L76.5916 53.721L77.2653 54.46ZM79.5753 45.01L80.5038 45.3814L80.5753 45.2026V45.01H79.5753ZM78.8053 25.27L78.2908 26.1275L78.3397 26.1568L78.3915 26.1804L78.8053 25.27ZM75.7953 44.03L74.8268 44.279L74.8311 44.2957L74.8359 44.3122L75.7953 44.03ZM70.0553 56.63V55.63C68.429 55.63 66.9298 55.3885 65.5504 54.9143L65.2253 55.86L64.9002 56.8057C66.5075 57.3582 68.2283 57.63 70.0553 57.63V56.63ZM65.2253 55.86L65.5504 54.9143C64.1311 54.4264 62.9963 53.8412 62.1214 53.1746L61.5153 53.97L60.9093 54.7654C61.9944 55.5922 63.3328 56.2669 64.9002 56.8057L65.2253 55.86ZM61.5153 53.97L62.14 53.1891C61.3268 52.5386 60.589 51.6435 59.9395 50.4744L59.0653 50.96L58.1912 51.4456C58.9416 52.7965 59.8371 53.9081 60.8906 54.7509L61.5153 53.97ZM59.0653 50.96L59.9395 50.4744C59.2632 49.257 58.7541 48.124 58.404 47.0738L57.4553 47.39L56.5066 47.7062C56.9032 48.896 57.4674 50.143 58.1912 51.4456L59.0653 50.96ZM57.4553 47.39L58.4077 47.0852C58.0606 46.0005 57.7911 44.6465 57.6092 43.0096L56.6153 43.12L55.6214 43.2304C55.8129 44.9535 56.1033 46.4461 56.5029 47.6948L57.4553 47.39ZM56.6153 43.12L57.609 43.0075C57.3342 40.58 57.1953 37.7954 57.1953 34.65H56.1953H55.1953C55.1953 37.8513 55.3365 40.7133 55.6217 43.2325L56.6153 43.12ZM56.1953 34.65H57.1953C57.1953 28.2601 58.372 23.5771 60.5813 20.458L59.7653 19.88L58.9493 19.302C56.3986 22.9029 55.1953 28.0666 55.1953 34.65H56.1953ZM59.7653 19.88L60.5851 20.4527C62.7781 17.3136 65.7388 15.77 69.5653 15.77V14.77V13.77C65.0851 13.77 61.5125 15.633 58.9456 19.3073L59.7653 19.88ZM69.5653 14.77V15.77C73.682 15.77 76.4372 16.7455 78.0816 18.4701L78.8053 17.78L79.5291 17.0899C77.3467 14.8012 73.9419 13.77 69.5653 13.77V14.77ZM78.8053 17.78L78.062 18.449C78.3861 18.8091 78.6495 19.2528 78.8436 19.7963L79.7853 19.46L80.7271 19.1237C80.4545 18.3605 80.0645 17.6843 79.5486 17.111L78.8053 17.78ZM79.7853 19.46V20.46H80.3453V19.46V18.46H79.7853V19.46ZM80.3453 19.46L81.3305 19.2887L80.4905 14.4587L79.5053 14.63L78.5201 14.8013L79.3601 19.6313L80.3453 19.46ZM79.5053 14.63H80.5053V5.88H79.5053H78.5053V14.63H79.5053ZM79.5053 5.88H80.5053C80.5053 5.82689 80.5379 5.57788 81.0943 5.15065C81.6335 4.73666 82.5076 4.28212 83.7764 3.80632L83.4253 2.87L83.0742 1.93367C81.7297 2.43787 80.6438 2.975 79.8763 3.56435C79.126 4.14045 78.5053 4.90644 78.5053 5.88H79.5053ZM83.4253 2.87L83.7764 3.80632C86.2681 2.87194 88.9715 2.4 91.8953 2.4V1.4V0.399998C88.7525 0.399998 85.8092 0.90805 83.0742 1.93367L83.4253 2.87ZM91.8953 1.4V2.4C93.4282 2.4 94.6232 2.54768 95.5115 2.81313C96.4008 3.07891 96.9068 3.43905 97.1779 3.81002L97.9853 3.22L98.7927 2.62998C98.1771 1.78762 97.2248 1.23775 96.0842 0.896869C94.9424 0.55565 93.5358 0.399998 91.8953 0.399998V1.4ZM97.9853 3.22L97.1661 3.79346C97.4014 4.12968 97.4753 4.4001 97.4753 4.62H98.4753H99.4753C99.4753 3.90657 99.2225 3.24365 98.8045 2.64654L97.9853 3.22ZM98.4753 4.62H97.4753V54.32H98.4753H99.4753V4.62H98.4753ZM98.4753 54.32H97.4753C97.4753 53.9752 97.7019 53.836 97.6491 53.8738C97.6087 53.9026 97.4769 53.9755 97.1893 54.068C96.6269 54.2487 95.7215 54.4264 94.4313 54.5877L94.5553 55.58L94.6793 56.5723C96.0025 56.4069 97.0571 56.2113 97.8013 55.972C98.1671 55.8545 98.5252 55.7057 98.8116 55.5012C99.0854 55.3057 99.4753 54.9215 99.4753 54.32H98.4753ZM94.5553 55.58L94.4469 54.5859C91.9139 54.8622 89.4535 55 87.0653 55V56V57C89.5304 57 92.0634 56.8578 94.6638 56.5741L94.5553 55.58ZM87.0653 56V55C84.6606 55 83.2257 54.9263 82.6414 54.8094L82.4453 55.79L82.2492 56.7706C83.0649 56.9337 84.71 57 87.0653 57V56ZM82.4453 55.79L82.72 54.8285C82.4192 54.7425 82.1989 54.6639 82.0465 54.5962C81.8781 54.5214 81.8574 54.4879 81.8924 54.5229L81.1853 55.23L80.4782 55.9371C80.6999 56.1588 80.9825 56.312 81.2342 56.4238C81.5017 56.5427 81.8181 56.6508 82.1706 56.7515L82.4453 55.79ZM81.1853 55.23L81.9853 54.63C82.0044 54.6555 81.9902 54.6469 81.9661 54.5684C81.9428 54.4926 81.9177 54.3764 81.8992 54.2096L80.9053 54.32L79.9114 54.4304C79.9641 54.9046 80.0824 55.4261 80.3853 55.83L81.1853 55.23ZM80.9053 54.32L81.8956 54.181L81.3356 50.191L80.3453 50.33L79.355 50.469L79.915 54.459L80.9053 54.32ZM80.3453 50.33V49.33H79.7853V50.33V51.33H80.3453V50.33ZM79.7853 50.33L78.8168 50.081C78.4463 51.5217 77.7122 52.7248 76.6009 53.7126L77.2653 54.46L77.9297 55.2074C79.3384 53.9552 80.2843 52.405 80.7538 50.579L79.7853 50.33ZM77.2653 54.46L76.5916 53.721C75.2625 54.9328 73.1475 55.63 70.0553 55.63V56.63V57.63C73.4032 57.63 76.0948 56.8805 77.9391 55.199L77.2653 54.46ZM77.8953 46.41V47.41C78.4964 47.41 79.0511 47.2152 79.5155 46.8282C79.9622 46.456 80.2777 45.9467 80.5038 45.3814L79.5753 45.01L78.6468 44.6386C78.4996 45.0066 78.3484 45.1974 78.2351 45.2918C78.1395 45.3714 78.0409 45.41 77.8953 45.41V46.41ZM79.5753 45.01H80.5753V26.32H79.5753H78.5753V45.01H79.5753ZM79.5753 26.32H80.5753C80.5753 25.8909 80.453 25.4758 80.1892 25.1161C79.9336 24.7676 79.5864 24.5266 79.2191 24.3596L78.8053 25.27L78.3915 26.1804C78.5376 26.2468 78.5753 26.2974 78.5764 26.2989C78.5767 26.2992 78.5745 26.2957 78.5732 26.2917C78.5722 26.2884 78.5753 26.2959 78.5753 26.32H79.5753ZM78.8053 25.27L79.3198 24.4125C78.7645 24.0793 78.1645 23.85 77.5453 23.85V24.85V25.85C77.6728 25.85 77.9128 25.9007 78.2908 26.1275L78.8053 25.27ZM77.5453 24.85V23.85C76.6934 23.85 76.074 24.363 75.6671 24.9852C75.2717 25.5899 74.9917 26.4105 74.7832 27.367C74.363 29.2952 74.1653 32.1126 74.1653 35.77H75.1653H76.1653C76.1653 32.1474 76.3643 29.5048 76.7374 27.7929C76.9256 26.9295 77.1414 26.3851 77.341 26.0797C77.4367 25.9334 77.507 25.8758 77.5357 25.857C77.5486 25.8485 77.553 25.8479 77.5496 25.8489C77.5459 25.8501 77.5433 25.85 77.5453 25.85V24.85ZM75.1653 35.77H74.1653C74.1653 39.6474 74.3725 42.5124 74.8268 44.279L75.7953 44.03L76.7638 43.781C76.3781 42.281 76.1653 39.6392 76.1653 35.77H75.1653ZM75.7953 44.03L74.8359 44.3122C75.0897 45.1749 75.4345 45.9259 75.9205 46.4766C76.4321 47.0565 77.1017 47.41 77.8953 47.41V46.41V45.41C77.7556 45.41 77.6085 45.3669 77.4202 45.1534C77.2061 44.9108 76.9676 44.4717 76.7547 43.7478L75.7953 44.03ZM115.91 55.72L116.144 54.7478L116.144 54.7478L115.91 55.72ZM109.05 52.5L109.65 51.7L109.643 51.6952L109.637 51.6905L109.05 52.5ZM109.19 19.25L108.597 18.4445L108.594 18.4469L109.19 19.25ZM132.01 15.19L131.868 16.1799L131.88 16.1816L131.891 16.183L132.01 15.19ZM137.96 16.8L137.574 17.7225L137.581 17.7255L137.96 16.8ZM142.86 20.23L142.093 20.8726L142.099 20.8798L142.106 20.8868L142.86 20.23ZM145.94 26.25L144.984 26.5453L144.986 26.5503L145.94 26.25ZM141.11 51.31L141.772 52.0593L141.777 52.055L141.11 51.31ZM122.49 42.98L121.508 43.1709L121.508 43.1709L122.49 42.98ZM123.47 45.99L122.763 46.6971L122.786 46.7207L122.811 46.7426L123.47 45.99ZM126.27 45.99L125.611 45.2374L125.586 45.2593L125.563 45.2829L126.27 45.99ZM127.25 42.98L126.268 42.7891L126.266 42.8023L126.263 42.8156L127.25 42.98ZM127.53 30.8L126.532 30.8665L126.533 30.8847L126.535 30.9029L127.53 30.8ZM127.11 27.58L126.127 27.7643L126.132 27.7936L126.14 27.8225L127.11 27.58ZM126.48 25.83L127.312 25.2753L127.307 25.268L127.302 25.2608L126.48 25.83ZM123.54 25.48L124.198 26.2326L124.223 26.2106L124.247 26.1871L123.54 25.48ZM122.49 28.56L123.471 28.7509L123.472 28.7459L122.49 28.56ZM124.94 56.63V55.63C121.493 55.63 118.566 55.3308 116.144 54.7478L115.91 55.72L115.676 56.6922C118.294 57.3225 121.386 57.63 124.94 57.63V56.63ZM115.91 55.72L116.144 54.7478C113.755 54.1727 111.593 53.1574 109.65 51.7L109.05 52.5L108.45 53.3C110.613 54.9226 113.025 56.054 115.676 56.6922L115.91 55.72ZM109.05 52.5L109.637 51.6905C105.775 48.8896 103.68 43.555 103.68 35.28H102.68H101.68C101.68 43.805 103.831 49.9504 108.463 53.3095L109.05 52.5ZM102.68 35.28H103.68C103.68 28.0003 105.788 23.0187 109.786 20.0531L109.19 19.25L108.594 18.4469C103.911 21.9213 101.68 27.6263 101.68 35.28H102.68ZM109.19 19.25L109.782 20.0555C113.628 17.2264 118.653 15.77 124.94 15.77V14.77V13.77C118.346 13.77 112.871 15.3002 108.597 18.4445L109.19 19.25ZM124.94 14.77V15.77C127.662 15.77 129.969 15.9087 131.868 16.1799L132.01 15.19L132.151 14.2001C130.13 13.9113 127.724 13.77 124.94 13.77V14.77ZM132.01 15.19L131.891 16.183C133.75 16.4043 135.644 16.9147 137.574 17.7224L137.96 16.8L138.346 15.8776C136.262 15.0053 134.189 14.4424 132.128 14.197L132.01 15.19ZM137.96 16.8L137.581 17.7255C139.51 18.5148 141.001 19.5704 142.093 20.8726L142.86 20.23L143.626 19.5874C142.291 17.9963 140.516 16.7652 138.338 15.8745L137.96 16.8ZM142.86 20.23L142.106 20.8868C143.245 22.1951 144.217 24.0621 144.984 26.5453L145.94 26.25L146.895 25.9547C146.076 23.3045 144.994 21.1582 143.614 19.5732L142.86 20.23ZM145.94 26.25L144.986 26.5503C145.74 28.9474 146.13 31.8509 146.13 35.28H147.13H148.13C148.13 31.7091 147.726 28.5926 146.894 25.9497L145.94 26.25ZM147.13 35.28H146.13C146.13 42.1841 144.182 47.2167 140.443 50.565L141.11 51.31L141.777 52.055C146.064 48.2166 148.13 42.5626 148.13 35.28H147.13ZM141.11 51.31L140.447 50.5607C136.661 53.9067 131.529 55.63 124.94 55.63V56.63V57.63C131.884 57.63 137.531 55.8066 141.772 52.0593L141.11 51.31ZM122.49 42.98L121.508 43.1709C121.675 44.0297 121.848 44.7452 122.029 45.3021C122.194 45.8082 122.415 46.3495 122.763 46.6971L123.47 45.99L124.177 45.2829C124.198 45.3038 124.092 45.1801 123.931 44.6829C123.785 44.2365 123.631 43.6103 123.471 42.7891L122.49 42.98ZM123.47 45.99L122.811 46.7426C123.39 47.2494 124.101 47.48 124.87 47.48V46.48V45.48C124.519 45.48 124.296 45.3839 124.128 45.2374L123.47 45.99ZM124.87 46.48V47.48C125.655 47.48 126.409 47.2646 126.977 46.6971L126.27 45.99L125.563 45.2829C125.477 45.3687 125.297 45.48 124.87 45.48V46.48ZM126.27 45.99L126.928 46.7426C127.335 46.3869 127.576 45.8219 127.746 45.3021C127.931 44.7332 128.092 44.0077 128.236 43.1444L127.25 42.98L126.263 42.8156C126.127 43.6323 125.985 44.2484 125.844 44.6829C125.686 45.1664 125.578 45.2665 125.611 45.2374L126.27 45.99ZM127.25 42.98L128.231 43.1709C128.574 41.4061 128.74 39.2371 128.74 36.68H127.74H126.74C126.74 39.1629 126.578 41.1939 126.268 42.7891L127.25 42.98ZM127.74 36.68H128.74C128.74 34.1034 128.67 32.1024 128.524 30.6971L127.53 30.8L126.535 30.9029C126.67 32.2042 126.74 34.1233 126.74 36.68H127.74ZM127.53 30.8L128.527 30.7335C128.433 29.314 128.288 28.1708 128.08 27.3375L127.11 27.58L126.14 27.8225C126.305 28.4825 126.44 29.486 126.532 30.8665L127.53 30.8ZM127.11 27.58L128.093 27.3957C127.939 26.5772 127.694 25.8492 127.312 25.2753L126.48 25.83L125.648 26.3847C125.825 26.6508 126 27.0895 126.127 27.7643L127.11 27.58ZM126.48 25.83L127.302 25.2608C126.741 24.4506 125.948 23.92 124.94 23.92V24.92V25.92C125.145 25.92 125.378 25.9961 125.657 26.3992L126.48 25.83ZM124.94 24.92V23.92C124.132 23.92 123.406 24.1998 122.833 24.7729L123.54 25.48L124.247 26.1871C124.42 26.0136 124.627 25.92 124.94 25.92V24.92ZM123.54 25.48L122.881 24.7274C122.479 25.0798 122.23 25.6466 122.051 26.1723C121.854 26.7491 121.675 27.489 121.507 28.3741L122.49 28.56L123.472 28.7459C123.631 27.9043 123.79 27.2676 123.944 26.8177C124.114 26.3167 124.228 26.2069 124.198 26.2326L123.54 25.48ZM122.49 28.56L121.508 28.3691C121.163 30.1436 121 32.6225 121 35.77H122H123C123 32.6642 123.163 30.3364 123.471 28.7509L122.49 28.56ZM122 35.77H121C121 38.9175 121.163 41.3964 121.508 43.1709L122.49 42.98L123.471 42.7891C123.163 41.2036 123 38.8758 123 35.77H122ZM155.22 16.94L155.585 17.8707L155.585 17.8707L155.22 16.94ZM166.98 15.89L166.599 16.8147L166.599 16.8147L166.98 15.89ZM168.45 16.87L167.581 17.3661L167.581 17.3661L168.45 16.87ZM169.5 21.07L168.52 21.2732L168.686 22.07H169.5V21.07ZM170.06 21.07V22.07H170.862L171.036 21.2869L170.06 21.07ZM173.56 16.94L172.983 16.123L172.971 16.1313L172.96 16.14L173.56 16.94ZM176.92 15.47L177.198 16.4303L177.213 16.4262L177.227 16.4217L176.92 15.47ZM187.28 16.1L186.792 16.9729L186.802 16.9785L186.812 16.9838L187.28 16.1ZM190.78 19.11L189.937 19.6491L189.95 19.6688L189.964 19.688L190.78 19.11ZM192.6 23.45L191.627 23.6805L191.63 23.6957L191.634 23.7109L192.6 23.45ZM193.37 27.65L192.371 27.6934L192.372 27.717L192.374 27.7405L193.37 27.65ZM193.3 38.08L194.297 38.153L194.297 38.1512L193.3 38.08ZM192.53 43.96L191.546 43.7771L191.546 43.7771L192.53 43.96ZM190.92 49.14L190.019 48.7044L190.019 48.7044L190.92 49.14ZM188.26 53.06L187.524 52.3829L187.524 52.3829L188.26 53.06ZM174.82 55.93L174.435 56.8531L174.458 56.8625L174.481 56.8709L174.82 55.93ZM172.3 54.32L173.034 53.6417L173.033 53.6406L172.3 54.32ZM170.27 50.96L169.275 51.0595L169.279 51.1036L169.287 51.1471L170.27 50.96ZM170.2 50.26L171.195 50.1605L171.105 49.26H170.2V50.26ZM169.64 50.26V49.26H168.472L168.651 50.4137L169.64 50.26ZM170.62 56.56H171.62V56.4827L171.608 56.4063L170.62 56.56ZM166.56 65.66L166.457 64.6653L166.447 64.6663L166.438 64.6675L166.56 65.66ZM152.7 65.73L152.987 64.7722L152.965 64.7655L152.942 64.7599L152.7 65.73ZM173.91 27.16L174.876 26.9041L174.876 26.9041L173.91 27.16ZM170.2 26.18L169.271 25.8086L169.2 25.9874V26.18H170.2ZM151.3 64.47H152.3V19.95H151.3H150.3V64.47H151.3ZM151.3 19.95H152.3C152.3 19.9321 152.317 19.6948 152.889 19.2556C153.434 18.8372 154.314 18.3703 155.585 17.8707L155.22 16.94L154.854 16.0092C153.512 16.5364 152.432 17.0844 151.671 17.6693C150.936 18.2336 150.3 18.9879 150.3 19.95H151.3ZM155.22 16.94L155.585 17.8707C158.073 16.8934 160.771 16.4 163.69 16.4V15.4V14.4C160.541 14.4 157.593 14.9333 154.854 16.0092L155.22 16.94ZM163.69 15.4V16.4C165.031 16.4 165.979 16.5593 166.599 16.8147L166.98 15.89L167.36 14.9653C166.394 14.5673 165.148 14.4 163.69 14.4V15.4ZM166.98 15.89L166.599 16.8147C166.96 16.9632 167.216 17.0977 167.387 17.212C167.569 17.3331 167.596 17.3926 167.581 17.3661L168.45 16.87L169.318 16.3739C169.116 16.0208 168.805 15.7536 168.497 15.5479C168.178 15.3357 167.793 15.1435 167.36 14.9653L166.98 15.89ZM168.45 16.87L167.581 17.3661C167.568 17.3431 167.598 17.3971 167.665 17.6131C167.725 17.8036 167.797 18.0664 167.882 18.4075C168.052 19.0883 168.265 20.0415 168.52 21.2732L169.5 21.07L170.479 20.8668C170.221 19.6251 170.002 18.6417 169.822 17.9225C169.733 17.5636 169.65 17.2605 169.575 17.0194C169.508 16.8038 169.424 16.5603 169.318 16.3739L168.45 16.87ZM169.5 21.07V22.07H170.06V21.07V20.07H169.5V21.07ZM170.06 21.07L171.036 21.2869C171.044 21.2498 171.097 21.0998 171.286 20.8058C171.464 20.528 171.727 20.179 172.085 19.7541L171.32 19.11L170.555 18.4659C170.166 18.9277 169.845 19.3486 169.603 19.7242C169.372 20.0835 169.169 20.4702 169.083 20.8531L170.06 21.07ZM171.32 19.11L172.085 19.7541C172.794 18.9122 173.486 18.2451 174.16 17.74L173.56 16.94L172.96 16.14C172.14 16.7549 171.339 17.5345 170.555 18.4659L171.32 19.11ZM173.56 16.94L174.136 17.757C174.803 17.2861 175.806 16.8345 177.198 16.4303L176.92 15.47L176.641 14.5096C175.14 14.9455 173.903 15.4739 172.983 16.123L173.56 16.94ZM176.92 15.47L177.227 16.4217C178.552 15.9941 180.125 15.77 181.96 15.77V14.77V13.77C179.968 13.77 178.18 14.0126 176.613 14.5183L176.92 15.47ZM181.96 14.77V15.77C183.763 15.77 185.366 16.1761 186.792 16.9729L187.28 16.1L187.767 15.2271C186.02 14.2506 184.077 13.77 181.96 13.77V14.77ZM187.28 16.1L186.812 16.9838C188.29 17.7664 189.307 18.6645 189.937 19.6491L190.78 19.11L191.622 18.5709C190.759 17.2222 189.443 16.1136 187.747 15.2162L187.28 16.1ZM190.78 19.11L189.964 19.688C190.663 20.6751 191.227 21.9933 191.627 23.6805L192.6 23.45L193.573 23.2195C193.132 21.36 192.483 19.7849 191.596 18.532L190.78 19.11ZM192.6 23.45L191.634 23.7109C192.093 25.4068 192.328 26.726 192.371 27.6934L193.37 27.65L194.369 27.6066C194.317 26.4273 194.04 24.9466 193.565 23.1891L192.6 23.45ZM193.37 27.65L192.374 27.7405C192.463 28.7208 192.51 30.201 192.51 32.2H193.51H194.51C194.51 30.1857 194.463 28.6325 194.366 27.5595L193.37 27.65ZM193.51 32.2H192.51C192.51 34.1362 192.44 36.0724 192.302 38.0088L193.3 38.08L194.297 38.1512C194.439 36.1676 194.51 34.1838 194.51 32.2H193.51ZM193.3 38.08L192.302 38.007C192.165 39.8812 191.913 41.8045 191.546 43.7771L192.53 43.96L193.513 44.1429C193.892 42.1022 194.154 40.1054 194.297 38.153L193.3 38.08ZM192.53 43.96L191.546 43.7771C191.185 45.7186 190.672 47.3561 190.019 48.7044L190.92 49.14L191.82 49.5756C192.567 48.0306 193.127 46.2148 193.513 44.1429L192.53 43.96ZM190.92 49.14L190.019 48.7044C189.361 50.0642 188.53 51.2893 187.524 52.3829L188.26 53.06L188.996 53.7371C190.136 52.4974 191.078 51.1091 191.82 49.5756L190.92 49.14ZM188.26 53.06L187.524 52.3829C185.62 54.4517 182.775 55.56 178.81 55.56V56.56V57.56C183.151 57.56 186.605 56.335 188.996 53.7371L188.26 53.06ZM178.81 56.56V55.56C177.409 55.56 176.197 55.3629 175.158 54.9891L174.82 55.93L174.481 56.8709C175.776 57.3371 177.224 57.56 178.81 57.56V56.56ZM174.82 55.93L175.204 55.0069C174.16 54.5718 173.462 54.1048 173.034 53.6417L172.3 54.32L171.565 54.9983C172.257 55.7485 173.239 56.3549 174.435 56.8531L174.82 55.93ZM172.3 54.32L173.033 53.6406C171.913 52.4308 171.386 51.4791 171.252 50.7729L170.27 50.96L169.287 51.1471C169.526 52.4009 170.353 53.6892 171.566 54.9994L172.3 54.32ZM170.27 50.96L171.265 50.8605L171.195 50.1605L170.2 50.26L169.205 50.3595L169.275 51.0595L170.27 50.96ZM170.2 50.26V49.26H169.64V50.26V51.26H170.2V50.26ZM169.64 50.26L168.651 50.4137L169.631 56.7137L170.62 56.56L171.608 56.4063L170.628 50.1063L169.64 50.26ZM170.62 56.56H169.62V64.47H170.62H171.62V56.56H170.62ZM170.62 64.47H169.62C169.62 64.1044 169.869 63.9625 169.808 64.0033C169.764 64.0329 169.624 64.1048 169.323 64.1929C168.736 64.365 167.794 64.5269 166.457 64.6653L166.56 65.66L166.663 66.6547C168.032 66.5131 169.12 66.3367 169.886 66.1121C170.262 66.0019 170.63 65.8608 170.924 65.663C171.202 65.4762 171.62 65.0923 171.62 64.47H170.62ZM166.56 65.66L166.438 64.6675C163.821 64.9889 161.108 65.15 158.3 65.15V66.15V67.15C161.185 67.15 163.979 66.9845 166.682 66.6525L166.56 65.66ZM158.3 66.15V65.15C155.478 65.15 153.758 65.0034 152.987 64.7722L152.7 65.73L152.412 66.6878C153.508 67.0166 155.521 67.15 158.3 67.15V66.15ZM152.7 65.73L152.942 64.7599C152.557 64.6636 152.383 64.5544 152.319 64.4967C152.293 64.4733 152.293 64.4658 152.297 64.4762C152.303 64.4875 152.3 64.4899 152.3 64.47H151.3H150.3C150.3 65.0679 150.545 65.5912 150.981 65.9833C151.383 66.3456 151.909 66.5631 152.457 66.7001L152.7 65.73ZM174.54 35.49H175.54C175.54 31.5244 175.333 28.6298 174.876 26.9041L173.91 27.16L172.943 27.4159C173.326 28.8635 173.54 31.5223 173.54 35.49H174.54ZM173.91 27.16L174.876 26.9041C174.65 26.0502 174.343 25.3043 173.905 24.7531C173.444 24.1722 172.808 23.78 172.02 23.78V24.78V25.78C172.071 25.78 172.17 25.7844 172.339 25.9969C172.531 26.239 172.749 26.6831 172.943 27.4159L173.91 27.16ZM172.02 24.78V23.78C171.402 23.78 170.82 23.9563 170.325 24.3374C169.842 24.7091 169.504 25.2263 169.271 25.8086L170.2 26.18L171.128 26.5514C171.268 26.2004 171.421 26.0175 171.544 25.9226C171.656 25.837 171.797 25.78 172.02 25.78V24.78ZM170.2 26.18H169.2V44.52H170.2H171.2V26.18H170.2ZM170.2 44.52H169.2C169.2 45.2906 169.402 46.0499 169.978 46.6053C170.548 47.154 171.315 47.34 172.09 47.34V46.34V45.34C171.605 45.34 171.426 45.2227 171.366 45.1647C171.313 45.1134 171.2 44.9627 171.2 44.52H170.2ZM172.09 46.34V47.34C172.937 47.34 173.566 46.8472 173.989 46.2227C174.398 45.6196 174.687 44.8008 174.903 43.8478C175.336 41.9277 175.54 39.1248 175.54 35.49H174.54H173.54C173.54 39.0885 173.335 41.7106 172.952 43.4072C172.759 44.2626 172.537 44.8 172.334 45.101C172.236 45.245 172.163 45.304 172.129 45.3254C172.105 45.341 172.098 45.34 172.09 45.34V46.34ZM225.226 55.37L225.912 56.097L225.912 56.097L225.226 55.37ZM212.066 56L211.856 56.9778L211.867 56.9802L211.879 56.9823L212.066 56ZM206.466 53.62L205.908 54.4503L205.916 54.4554L206.466 53.62ZM201.356 28.42H202.356V27.42H201.356V28.42ZM196.526 26.81L197.47 26.4815L197.47 26.4815L196.526 26.81ZM196.806 17.5L195.883 17.1133L195.88 17.1209L195.877 17.1286L196.806 17.5ZM201.356 15.33V16.33H202.356V15.33H201.356ZM205.556 3.36L205.258 2.40523L205.254 2.40666L205.556 3.36ZM220.256 15.33H219.256V16.33H220.256V15.33ZM226.416 26.25L225.479 25.8989L225.476 25.9072L225.473 25.9156L226.416 26.25ZM220.256 28.42V27.42H219.256V28.42H220.256ZM221.866 43.96L221.403 44.8466L221.418 44.8546L221.434 44.8621L221.866 43.96ZM226.206 45.92L227.179 45.691L227.179 45.691L226.206 45.92ZM225.226 55.37L224.539 54.643C224.318 54.8522 223.844 55.0996 222.958 55.2833C222.093 55.4626 220.942 55.56 219.486 55.56V56.56V57.56C221.015 57.56 222.315 57.4591 223.364 57.2417C224.391 57.0288 225.294 56.6812 225.912 56.097L225.226 55.37ZM219.486 56.56V55.56C216.534 55.56 214.129 55.375 212.253 55.0177L212.066 56L211.879 56.9823C213.922 57.3717 216.464 57.56 219.486 57.56V56.56ZM212.066 56L212.275 55.0222C210.443 54.6297 208.691 53.8872 207.015 52.7846L206.466 53.62L205.916 54.4554C207.787 55.6862 209.768 56.5303 211.856 56.9778L212.066 56ZM206.466 53.62L207.023 52.7897C204.051 50.7946 202.356 46.4904 202.356 39.34H201.356H200.356C200.356 46.6563 202.067 51.8721 205.908 54.4503L206.466 53.62ZM201.356 39.34H202.356V28.42H201.356H200.356V39.34H201.356ZM201.356 28.42V27.42H197.856V28.42V29.42H201.356V28.42ZM197.856 28.42V27.42C197.994 27.42 198.012 27.5057 197.909 27.3806C197.796 27.2436 197.639 26.9677 197.47 26.4815L196.526 26.81L195.581 27.1385C195.785 27.7256 196.037 28.2547 196.367 28.6544C196.707 29.0659 197.204 29.42 197.856 29.42V28.42ZM196.526 26.81L197.47 26.4815C197.15 25.5598 196.966 24.2171 196.966 22.4H195.966H194.966C194.966 24.3163 195.155 25.9135 195.581 27.1385L196.526 26.81ZM195.966 22.4H196.966C196.966 20.6313 197.231 19.1288 197.734 17.8714L196.806 17.5L195.877 17.1286C195.26 18.6712 194.966 20.4354 194.966 22.4H195.966ZM196.806 17.5L197.728 17.8867C198.295 16.5347 198.818 16.33 199.116 16.33V15.33V14.33C197.546 14.33 196.53 15.572 195.883 17.1133L196.806 17.5ZM199.116 15.33V16.33H201.356V15.33V14.33H199.116V15.33ZM201.356 15.33H202.356V6.86H201.356H200.356V15.33H201.356ZM201.356 6.86H202.356C202.356 6.50804 202.51 6.11513 203.046 5.66822C203.604 5.20327 204.515 4.73856 205.858 4.31334L205.556 3.36L205.254 2.40666C203.797 2.8681 202.607 3.43006 201.765 4.13178C200.902 4.85153 200.356 5.76529 200.356 6.86H201.356ZM205.556 3.36L205.853 4.31476C208.613 3.45506 211.289 3.03 213.886 3.03V2.03V1.03C211.068 1.03 208.191 1.4916 205.258 2.40524L205.556 3.36ZM213.886 2.03V3.03C215.959 3.03 217.366 3.29153 218.22 3.71389C218.633 3.91816 218.881 4.14268 219.028 4.36082C219.171 4.57215 219.256 4.83227 219.256 5.18H220.256H221.256C221.256 4.47773 221.075 3.8191 220.687 3.24293C220.303 2.67356 219.755 2.24184 219.106 1.92111C217.837 1.29347 216.059 1.03 213.886 1.03V2.03ZM220.256 5.18H219.256V15.33H220.256H221.256V5.18H220.256ZM220.256 15.33V16.33H225.436V15.33V14.33H220.256V15.33ZM225.436 15.33V16.33C225.469 16.33 225.489 16.3313 225.539 16.379C225.612 16.4492 225.733 16.6173 225.856 16.97C226.103 17.6837 226.256 18.8607 226.256 20.58H227.256H228.256C228.256 18.7993 228.105 17.3513 227.745 16.315C227.389 15.2878 226.684 14.33 225.436 14.33V15.33ZM227.256 20.58H226.256C226.256 22.7944 225.983 24.5552 225.479 25.8989L226.416 26.25L227.352 26.6011C227.968 24.9582 228.256 22.9389 228.256 20.58H227.256ZM226.416 26.25L225.473 25.9156C224.975 27.3197 224.52 27.42 224.386 27.42V28.42V29.42C225.932 29.42 226.83 28.0736 227.358 26.5844L226.416 26.25ZM224.386 28.42V27.42H220.256V28.42V29.42H224.386V28.42ZM220.256 28.42H219.256V41.23H220.256H221.256V28.42H220.256ZM220.256 41.23H219.256C219.256 42.0041 219.422 42.7293 219.797 43.3655C220.173 44.0039 220.725 44.493 221.403 44.8466L221.866 43.96L222.328 43.0734C221.933 42.867 221.68 42.6211 221.519 42.3495C221.358 42.0757 221.256 41.7159 221.256 41.23H220.256ZM221.866 43.96L221.434 44.8621C222.581 45.4105 223.667 45.73 224.666 45.73V44.73V43.73C224.077 43.73 223.297 43.5362 222.297 43.0579L221.866 43.96ZM224.666 44.73V45.73C224.93 45.73 225.033 45.7911 225.069 45.8188C225.102 45.8439 225.178 45.9172 225.232 46.149L226.206 45.92L227.179 45.691C227.047 45.1295 226.773 44.6077 226.292 44.2362C225.815 43.8673 225.241 43.73 224.666 43.73V44.73ZM226.206 45.92L225.232 46.149C225.392 46.8264 225.486 47.9224 225.486 49.49H226.486H227.486C227.486 47.8843 227.393 46.6002 227.179 45.691L226.206 45.92ZM226.486 49.49H225.486C225.486 51.0174 225.382 52.2114 225.193 53.0955C224.998 54.0064 224.739 54.4545 224.539 54.643L225.226 55.37L225.912 56.097C226.553 55.4922 226.924 54.5636 227.148 53.5145C227.379 52.4386 227.486 51.0893 227.486 49.49H226.486ZM249.895 40.18V39.18H248.895V40.18H249.895ZM260.815 43.05L261.198 43.974L261.204 43.9712L261.211 43.9683L260.815 43.05ZM268.585 45.29L267.707 45.7678L267.707 45.7678L268.585 45.29ZM265.155 55.3L265.398 56.2701L265.398 56.2701L265.155 55.3ZM245.205 55.86L244.976 56.8334L244.98 56.8344L245.205 55.86ZM239.325 53.76L238.815 54.6199L238.83 54.6292L238.846 54.6379L239.325 53.76ZM235.335 50.54L234.588 51.2044L234.594 51.212L234.601 51.2194L235.335 50.54ZM232.815 46.97L231.914 47.4027L231.917 47.41L231.921 47.4172L232.815 46.97ZM231.485 43.12L230.51 43.3416L230.511 43.3472L231.485 43.12ZM237.435 19.18L238.023 19.9892L238.032 19.982L237.435 19.18ZM244.785 15.75L244.551 14.7779L244.551 14.7779L244.785 15.75ZM249.755 34.58H248.755V35.58H249.755V34.58ZM253.045 32.97L252.274 32.3331L252.266 32.3433L252.258 32.3537L253.045 32.97ZM249.895 40.18H248.895C248.895 41.8393 249.29 43.2694 250.257 44.2827C251.231 45.3048 252.622 45.73 254.235 45.73V44.73V43.73C252.955 43.73 252.176 43.3969 251.704 42.9023C251.224 42.3989 250.895 41.554 250.895 40.18H249.895ZM254.235 44.73V45.73C256.11 45.73 258.446 45.1124 261.198 43.974L260.815 43.05L260.433 42.126C257.771 43.2276 255.721 43.73 254.235 43.73V44.73ZM260.815 43.05L261.211 43.9683C262.563 43.3856 263.589 42.951 264.292 42.6628C264.645 42.5183 264.909 42.4136 265.089 42.3463C265.181 42.3122 265.24 42.2915 265.274 42.2807C265.292 42.2751 265.292 42.2757 265.28 42.2786C265.274 42.2801 265.256 42.2842 265.232 42.2883C265.212 42.2915 265.158 42.3 265.085 42.3V41.3V40.3C264.948 40.3 264.834 40.3287 264.808 40.3351C264.758 40.3471 264.711 40.3613 264.671 40.3739C264.59 40.3996 264.494 40.4337 264.39 40.4725C264.18 40.551 263.892 40.6651 263.533 40.8122C262.813 41.1073 261.774 41.5477 260.419 42.1317L260.815 43.05ZM265.085 41.3V42.3C265.059 42.3 265.313 42.3175 265.873 42.9569C266.385 43.5406 266.998 44.4639 267.707 45.7678L268.585 45.29L269.464 44.8122C268.726 43.4561 268.032 42.3843 267.377 41.6381C266.771 40.9475 265.998 40.3 265.085 40.3V41.3ZM268.585 45.29L267.707 45.7678C268.416 47.0724 268.935 48.1816 269.275 49.1012C269.619 50.0335 269.755 50.7106 269.755 51.17H270.755H271.755C271.755 50.3694 271.53 49.4365 271.151 48.4088C270.767 47.3684 270.201 46.1676 269.464 44.8122L268.585 45.29ZM270.755 51.17H269.755C269.755 51.677 269.517 52.2057 268.762 52.7627C267.98 53.3389 266.725 53.8767 264.913 54.3299L265.155 55.3L265.398 56.2701C267.318 55.7899 268.863 55.1727 269.949 54.3723C271.06 53.5526 271.755 52.483 271.755 51.17H270.755ZM265.155 55.3L264.913 54.3299C261.253 55.2448 257.671 55.7 254.165 55.7V56.7V57.7C257.846 57.7 261.591 57.2219 265.398 56.2701L265.155 55.3ZM254.165 56.7V55.7C250.665 55.7 247.759 55.4231 245.43 54.8856L245.205 55.86L244.98 56.8344C247.504 57.4169 250.572 57.7 254.165 57.7V56.7ZM245.205 55.86L245.434 54.8866C243.11 54.3397 241.241 53.6661 239.804 52.8821L239.325 53.76L238.846 54.6379C240.489 55.5339 242.54 56.2603 244.976 56.8334L245.205 55.86ZM239.325 53.76L239.836 52.9001C238.424 52.062 237.169 51.0492 236.069 49.8606L235.335 50.54L234.601 51.2194C235.834 52.5508 237.24 53.6847 238.815 54.6199L239.325 53.76ZM235.335 50.54L236.083 49.8756C235.002 48.6602 234.219 47.5425 233.71 46.5228L232.815 46.97L231.921 47.4172C232.531 48.6375 233.428 49.8998 234.588 51.2044L235.335 50.54ZM232.815 46.97L233.717 46.5373C233.191 45.443 232.771 44.2296 232.459 42.8928L231.485 43.12L230.511 43.3472C230.853 44.8104 231.319 46.1636 231.914 47.4027L232.815 46.97ZM231.485 43.12L232.46 42.8984C232.011 40.9207 231.785 38.8719 231.785 36.75H230.785H229.785C229.785 39.0148 230.026 41.2126 230.51 43.3416L231.485 43.12ZM230.785 36.75H231.785C231.785 28.3957 233.967 22.9352 238.023 19.9891L237.435 19.18L236.847 18.3709C232.037 21.8648 229.785 28.1176 229.785 36.75H230.785ZM237.435 19.18L238.032 19.982C240.116 18.4308 242.442 17.3444 245.02 16.7221L244.785 15.75L244.551 14.7779C241.715 15.4623 239.141 16.6626 236.838 18.378L237.435 19.18ZM244.785 15.75L245.02 16.7221C247.629 16.0922 250.744 15.77 254.375 15.77V14.77V13.77C250.633 13.77 247.354 14.1012 244.551 14.7779L244.785 15.75ZM254.375 14.77V15.77C260.193 15.77 264.379 16.7874 267.087 18.6709C269.728 20.5085 271.085 23.2568 271.085 27.09H272.085H273.085C273.085 22.7098 271.49 19.2981 268.229 17.0291C265.033 14.8059 260.364 13.77 254.375 13.77V14.77ZM272.085 27.09H271.085C271.085 31.1567 269.566 34.0965 266.565 36.0723C263.491 38.0962 258.754 39.18 252.205 39.18V40.18V41.18C258.91 41.18 264.112 40.0821 267.665 37.7427C271.291 35.3552 273.085 31.75 273.085 27.09H272.085ZM252.205 40.18V39.18H249.895V40.18V41.18H252.205V40.18ZM249.755 29.96H248.755V34.58H249.755H250.755V29.96H249.755ZM249.755 34.58V35.58C251.419 35.58 252.805 34.8998 253.833 33.5863L253.045 32.97L252.258 32.3537C251.606 33.1869 250.798 33.58 249.755 33.58V34.58ZM253.045 32.97L253.816 33.6069C254.867 32.335 255.375 30.7961 255.375 29.05H254.375H253.375C253.375 30.3839 252.997 31.4583 252.274 32.3331L253.045 32.97ZM254.375 29.05H255.375C255.375 27.5964 255.193 26.354 254.721 25.441C254.478 24.9699 254.144 24.5607 253.697 24.2722C253.245 23.9807 252.735 23.85 252.205 23.85V24.85V25.85C252.398 25.85 252.522 25.8943 252.612 25.9528C252.708 26.0143 252.826 26.1301 252.944 26.359C253.196 26.846 253.375 27.7036 253.375 29.05H254.375ZM252.205 24.85V23.85C251.613 23.85 251.052 24.0078 250.562 24.3483C250.081 24.683 249.725 25.1541 249.466 25.6952C248.96 26.7505 248.755 28.2086 248.755 29.96H249.755H250.755C250.755 28.3047 250.959 27.2079 251.269 26.5598C251.418 26.2492 251.573 26.0816 251.704 25.9904C251.827 25.9051 251.981 25.85 252.205 25.85V24.85ZM291.171 55.58L291.277 56.5743L291.285 56.5735L291.292 56.5725L291.171 55.58ZM277.521 55.65L277.204 56.5987L277.228 56.6067L277.253 56.6135L277.521 55.65ZM280.111 16.94L279.745 16.0092L279.739 16.0115L280.111 16.94ZM293.761 17.92L294.738 17.7076L294.737 17.7031L293.761 17.92ZM294.461 21.14L293.483 21.3524L293.655 22.14H294.461V21.14ZM294.951 21.14V22.14H295.648L295.889 21.4857L294.951 21.14ZM299.641 16.66L300.081 17.5578L300.088 17.5545L300.094 17.551L299.641 16.66ZM312.241 15.96L311.611 16.7372L311.62 16.7444L311.629 16.7513L312.241 15.96ZM313.501 23.73L312.505 23.6329L313.501 23.73ZM312.101 29.96L311.152 29.6438L311.149 29.6527L311.146 29.6617L312.101 29.96ZM304.891 32.27L305.163 31.3078L305.163 31.3078L304.891 32.27ZM295.721 31.92L294.977 31.251L294.958 31.2726L294.94 31.2953L295.721 31.92ZM295.161 33.88H294.161V54.32H295.161H296.161V33.88H295.161ZM295.161 54.32H294.161C294.161 53.9671 294.396 53.8276 294.337 53.8689C294.293 53.8995 294.156 53.9735 293.862 54.0664C293.287 54.2481 292.363 54.4261 291.049 54.5875L291.171 55.58L291.292 56.5725C292.639 56.4072 293.71 56.2119 294.464 55.9736C294.835 55.8565 295.197 55.7088 295.486 55.5061C295.759 55.314 296.161 54.9296 296.161 54.32H295.161ZM291.171 55.58L291.064 54.5857C288.489 54.8616 285.795 55 282.981 55V56V57C285.86 57 288.626 56.8584 291.277 56.5743L291.171 55.58ZM282.981 56V55C281.592 55 280.46 54.971 279.58 54.9145C278.681 54.8569 278.103 54.7738 277.788 54.6865L277.521 55.65L277.253 56.6135C277.778 56.7595 278.53 56.8514 279.452 56.9105C280.391 56.9707 281.569 57 282.981 57V56ZM277.521 55.65L277.837 54.7013C277.507 54.5915 277.359 54.4805 277.301 54.4198C277.276 54.3932 277.27 54.3778 277.268 54.373C277.266 54.3682 277.261 54.3538 277.261 54.32H276.261H275.261C275.261 54.8811 275.465 55.3892 275.85 55.7952C276.212 56.1779 276.694 56.4285 277.204 56.5987L277.521 55.65ZM276.261 54.32H277.261V19.81H276.261H275.261V54.32H276.261ZM276.261 19.81H277.261C277.261 19.8648 277.237 19.6641 277.821 19.2292C278.36 18.8271 279.23 18.3693 280.482 17.8685L280.111 16.94L279.739 16.0115C278.425 16.5374 277.369 17.0713 276.625 17.6258C275.925 18.1475 275.261 18.8686 275.261 19.81H276.261ZM280.111 16.94L280.476 17.8707C282.964 16.8934 285.662 16.4 288.581 16.4V15.4V14.4C285.432 14.4 282.484 14.9333 279.745 16.0092L280.111 16.94ZM288.581 15.4V16.4C290.05 16.4 291.079 16.6038 291.748 16.9292C292.373 17.2334 292.672 17.6317 292.784 18.1369L293.761 17.92L294.737 17.7031C294.476 16.5283 293.724 15.6666 292.623 15.1308C291.565 14.6162 290.191 14.4 288.581 14.4V15.4ZM293.761 17.92L292.783 18.1324L293.483 21.3524L294.461 21.14L295.438 20.9276L294.738 17.7076L293.761 17.92ZM294.461 21.14V22.14H294.951V21.14V20.14H294.461V21.14ZM294.951 21.14L295.889 21.4857C296.42 20.0445 297.734 18.7093 300.081 17.5578L299.641 16.66L299.2 15.7622C296.601 17.0373 294.788 18.6889 294.012 20.7943L294.951 21.14ZM299.641 16.66L300.094 17.551C302.445 16.3538 304.763 15.77 307.061 15.77V14.77V13.77C304.411 13.77 301.783 14.4462 299.187 15.769L299.641 16.66ZM307.061 14.77V15.77C309.492 15.77 310.915 16.1732 311.611 16.7372L312.241 15.96L312.87 15.1828C311.606 14.1601 309.575 13.77 307.061 13.77V14.77ZM312.241 15.96L311.629 16.7513C312.419 17.3618 312.781 18.1003 312.781 19.04H313.781H314.781C314.781 17.4597 314.115 16.1448 312.852 15.1687L312.241 15.96ZM313.781 19.04H312.781C312.781 20.2079 312.69 21.7356 312.505 23.6329L313.501 23.73L314.496 23.8271C314.684 21.8978 314.781 20.2988 314.781 19.04H313.781ZM313.501 23.73L312.505 23.6329C312.327 25.457 311.88 27.4594 311.152 29.6438L312.101 29.96L313.049 30.2762C313.814 27.9806 314.3 25.8296 314.496 23.8271L313.501 23.73ZM312.101 29.96L311.146 29.6617C310.814 30.7238 310.455 31.4232 310.107 31.8398C309.779 32.2338 309.515 32.32 309.301 32.32V33.32V34.32C310.253 34.32 311.039 33.8462 311.644 33.1202C312.23 32.4168 312.687 31.4362 313.055 30.2583L312.101 29.96ZM309.301 33.32V32.32C309.302 32.32 309.294 32.32 309.275 32.3186C309.257 32.3173 309.232 32.3149 309.2 32.3109C309.134 32.303 309.049 32.2899 308.94 32.2703C308.723 32.2311 308.438 32.1699 308.08 32.0847C307.364 31.9144 306.394 31.6562 305.163 31.3078L304.891 32.27L304.618 33.2322C305.86 33.5838 306.862 33.8506 307.616 34.0303C308.325 34.1991 308.928 34.32 309.301 34.32V33.32ZM304.891 32.27L305.163 31.3078C302.645 30.5953 300.493 30.22 298.731 30.22V31.22V32.22C300.235 32.22 302.189 32.5447 304.618 33.2322L304.891 32.27ZM298.731 31.22V30.22C297.897 30.22 297.166 30.2804 296.562 30.421C295.977 30.557 295.387 30.796 294.977 31.251L295.721 31.92L296.464 32.589C296.474 32.5773 296.596 32.4663 297.015 32.369C297.413 32.2762 297.977 32.22 298.731 32.22V31.22ZM295.721 31.92L294.94 31.2953C294.377 31.9989 294.161 32.9034 294.161 33.88H295.161H296.161C296.161 33.1766 296.318 32.7744 296.501 32.5447L295.721 31.92ZM348.539 55.44L348.409 54.4485L348.409 54.4485L348.539 55.44ZM334.539 55.51L334.92 54.5853L334.92 54.5853L334.539 55.51ZM369.609 7.28L369.215 8.19914L369.221 8.20196L369.228 8.20468L369.609 7.28ZM376.049 12.6L375.154 13.0472L375.16 13.0586L376.049 12.6ZM375.069 37.24L374.275 36.6315L374.269 36.64L375.069 37.24ZM370.449 41.23L370.815 42.1604L370.815 42.1604L370.449 41.23ZM366.599 42.56L366.83 43.5328L366.846 43.529L366.862 43.5248L366.599 42.56ZM362.889 43.12L362.979 44.1159L362.982 44.1156L362.889 43.12ZM354.489 43.4L354.447 44.3991L354.468 44.4H354.489V43.4ZM352.809 43.33L352.85 42.3309L351.809 42.2875V43.33H352.809ZM352.879 31.71H351.879V32.71H352.879V31.71ZM356.659 31.36L357.073 32.2704L357.106 32.2553L357.138 32.2379L356.659 31.36ZM357.989 29.26L357.048 28.9213L357.044 28.9325L357.04 28.9438L357.989 29.26ZM357.919 19.67L356.983 20.0211L356.992 20.0452L357.002 20.0687L357.919 19.67ZM356.589 17.71L356.103 18.5842L356.159 18.6149L356.217 18.6385L356.589 17.71ZM352.879 17.36V16.36H351.879V17.36H352.879ZM352.809 53.97H351.809C351.809 53.6841 351.986 53.5688 351.932 53.611C351.878 53.652 351.729 53.7393 351.416 53.847C350.801 54.0585 349.814 54.2642 348.409 54.4485L348.539 55.44L348.669 56.4315C350.11 56.2425 351.258 56.0165 352.067 55.738C352.466 55.6007 352.85 55.4284 353.152 55.1953C353.453 54.9633 353.809 54.5593 353.809 53.97H352.809ZM348.539 55.44L348.409 54.4485C345.605 54.8162 342.802 55 339.999 55V56V57C342.889 57 345.779 56.8104 348.669 56.4315L348.539 55.44ZM339.999 56V55C338.591 55 337.457 54.9595 336.588 54.8815C335.692 54.801 335.167 54.6874 334.92 54.5853L334.539 55.51L334.158 56.4347C334.704 56.6593 335.486 56.7906 336.409 56.8735C337.361 56.9589 338.56 57 339.999 57V56ZM334.539 55.51L334.92 54.5853C334.634 54.4678 334.5 54.349 334.438 54.2686C334.386 54.2012 334.349 54.1173 334.349 53.97H333.349H332.349C332.349 54.5227 332.51 55.0455 332.855 55.4914C333.19 55.9244 333.65 56.2255 334.158 56.4347L334.539 55.51ZM333.349 53.97H334.349V8.96H333.349H332.349V53.97H333.349ZM333.349 8.96H334.349C334.349 8.95462 334.343 8.91632 334.423 8.82329C334.516 8.71454 334.706 8.55969 335.056 8.38442C335.762 8.03141 336.905 7.70102 338.553 7.42639C341.829 6.88043 346.802 6.6 353.509 6.6V5.6V4.6C346.776 4.6 341.669 4.87957 338.224 5.4536C336.512 5.73897 335.136 6.10858 334.162 6.59557C333.227 7.0631 332.349 7.80959 332.349 8.96H333.349ZM353.509 5.6V6.6C357.55 6.6 360.884 6.7395 363.52 7.0146C366.176 7.29175 368.05 7.6998 369.215 8.19914L369.609 7.28L370.003 6.36085C368.555 5.7402 366.438 5.30824 363.728 5.0254C360.997 4.74049 357.588 4.6 353.509 4.6V5.6ZM369.609 7.28L369.228 8.20468C372.261 9.45354 374.177 11.0917 375.154 13.0472L376.049 12.6L376.943 12.1528C375.681 9.62828 373.303 7.71978 369.99 6.35532L369.609 7.28ZM376.049 12.6L375.16 13.0586C376.557 15.7658 377.289 19.3041 377.289 23.73H378.289H379.289C379.289 19.1025 378.527 15.2209 376.937 12.1414L376.049 12.6ZM378.289 23.73H377.289C377.289 29.8655 376.219 34.0957 374.275 36.6316L375.069 37.24L375.862 37.8484C378.212 34.7843 379.289 30.0079 379.289 23.73H378.289ZM375.069 37.24L374.269 36.64C372.784 38.6201 371.38 39.7885 370.082 40.2996L370.449 41.23L370.815 42.1604C372.598 41.4582 374.274 39.9665 375.869 37.84L375.069 37.24ZM370.449 41.23L370.082 40.2996C368.56 40.8994 367.314 41.3285 366.336 41.5952L366.599 42.56L366.862 43.5248C367.937 43.2315 369.258 42.774 370.815 42.1604L370.449 41.23ZM366.599 42.56L366.367 41.5872C365.449 41.8058 364.262 41.9868 362.795 42.1244L362.889 43.12L362.982 44.1156C364.502 43.9732 365.789 43.7808 366.83 43.5328L366.599 42.56ZM362.889 43.12L362.798 42.1241C360.789 42.3068 358.023 42.4 354.489 42.4V43.4V44.4C358.048 44.4 360.882 44.3066 362.979 44.1159L362.889 43.12ZM354.489 43.4L354.53 42.4009L352.85 42.3309L352.809 43.33L352.767 44.3291L354.447 44.3991L354.489 43.4ZM352.809 43.33H351.809V53.97H352.809H353.809V43.33H352.809ZM352.879 31.71V32.71H354.559V31.71V30.71H352.879V31.71ZM354.559 31.71V32.71C355.515 32.71 356.376 32.5869 357.073 32.2704L356.659 31.36L356.245 30.4496C355.915 30.5997 355.376 30.71 354.559 30.71V31.71ZM356.659 31.36L357.138 32.2379C358.011 31.7617 358.554 30.7271 358.938 29.5762L357.989 29.26L357.04 28.9438C356.677 30.0329 356.334 30.3983 356.18 30.4821L356.659 31.36ZM357.989 29.26L358.93 29.5987C359.406 28.2753 359.619 26.5333 359.619 24.43H358.619H357.619C357.619 26.4333 357.412 27.9113 357.048 28.9213L357.989 29.26ZM358.619 24.43H359.619C359.619 22.2846 359.385 20.5337 358.836 19.2713L357.919 19.67L357.002 20.0687C357.386 20.953 357.619 22.3754 357.619 24.43H358.619ZM357.919 19.67L358.855 19.3189C358.63 18.7185 358.381 18.1951 358.099 17.7785C357.824 17.3737 357.457 16.9802 356.96 16.7815L356.589 17.71L356.217 18.6385C356.187 18.6265 356.275 18.653 356.444 18.9015C356.605 19.1382 356.788 19.5015 356.983 20.0211L357.919 19.67ZM356.589 17.71L357.074 16.8358C356.472 16.501 355.782 16.36 355.049 16.36V17.36V18.36C355.529 18.36 355.866 18.4523 356.103 18.5842L356.589 17.71ZM355.049 17.36V16.36H352.879V17.36V18.36H355.049V17.36ZM352.879 17.36H351.879V31.71H352.879H353.879V17.36H352.879ZM397.401 55.58L397.508 56.5743L397.515 56.5735L397.523 56.5725L397.401 55.58ZM383.751 55.65L383.435 56.5987L383.459 56.6067L383.483 56.6135L383.751 55.65ZM386.341 16.94L385.975 16.0092L385.97 16.0115L386.341 16.94ZM399.991 17.92L400.968 17.7076L400.967 17.7031L399.991 17.92ZM400.691 21.14L399.714 21.3524L399.885 22.14H400.691V21.14ZM401.181 21.14V22.14H401.878L402.119 21.4857L401.181 21.14ZM405.871 16.66L406.311 17.5578L406.318 17.5545L406.325 17.551L405.871 16.66ZM418.471 15.96L417.842 16.7372L417.851 16.7444L417.86 16.7513L418.471 15.96ZM419.731 23.73L418.736 23.6329L419.731 23.73ZM418.331 29.96L417.382 29.6438L417.379 29.6527L417.377 29.6617L418.331 29.96ZM411.121 32.27L411.393 31.3078L411.393 31.3078L411.121 32.27ZM401.951 31.92L401.208 31.251L401.188 31.2726L401.17 31.2953L401.951 31.92ZM401.391 33.88H400.391V54.32H401.391H402.391V33.88H401.391ZM401.391 54.32H400.391C400.391 53.9671 400.626 53.8276 400.567 53.8689C400.524 53.8995 400.387 53.9735 400.092 54.0664C399.517 54.2481 398.593 54.4261 397.279 54.5875L397.401 55.58L397.523 56.5725C398.869 56.4072 399.94 56.2119 400.695 55.9736C401.065 55.8565 401.427 55.7088 401.716 55.5061C401.99 55.314 402.391 54.9296 402.391 54.32H401.391ZM397.401 55.58L397.294 54.5857C394.719 54.8616 392.025 55 389.211 55V56V57C392.09 57 394.856 56.8584 397.508 56.5743L397.401 55.58ZM389.211 56V55C387.822 55 386.691 54.971 385.81 54.9145C384.911 54.8569 384.333 54.7738 384.019 54.6865L383.751 55.65L383.483 56.6135C384.009 56.7595 384.761 56.8514 385.682 56.9105C386.621 56.9707 387.8 57 389.211 57V56ZM383.751 55.65L384.067 54.7013C383.738 54.5915 383.589 54.4805 383.532 54.4198C383.507 54.3932 383.5 54.3778 383.498 54.373C383.496 54.3682 383.491 54.3538 383.491 54.32H382.491H381.491C381.491 54.8811 381.695 55.3892 382.08 55.7952C382.443 56.1779 382.924 56.4285 383.435 56.5987L383.751 55.65ZM382.491 54.32H383.491V19.81H382.491H381.491V54.32H382.491ZM382.491 19.81H383.491C383.491 19.8648 383.468 19.6641 384.051 19.2292C384.591 18.8271 385.46 18.3693 386.712 17.8685L386.341 16.94L385.97 16.0115C384.655 16.5374 383.6 17.0713 382.856 17.6258C382.156 18.1475 381.491 18.8686 381.491 19.81H382.491ZM386.341 16.94L386.707 17.8707C389.194 16.8934 391.893 16.4 394.811 16.4V15.4V14.4C391.663 14.4 388.714 14.9333 385.975 16.0092L386.341 16.94ZM394.811 15.4V16.4C396.281 16.4 397.31 16.6038 397.979 16.9292C398.604 17.2334 398.903 17.6317 399.015 18.1369L399.991 17.92L400.967 17.7031C400.706 16.5283 399.955 15.6666 398.853 15.1308C397.796 14.6162 396.421 14.4 394.811 14.4V15.4ZM399.991 17.92L399.014 18.1324L399.714 21.3524L400.691 21.14L401.668 20.9276L400.968 17.7076L399.991 17.92ZM400.691 21.14V22.14H401.181V21.14V20.14H400.691V21.14ZM401.181 21.14L402.119 21.4857C402.65 20.0445 403.964 18.7093 406.311 17.5578L405.871 16.66L405.431 15.7622C402.831 17.0373 401.018 18.6889 400.243 20.7943L401.181 21.14ZM405.871 16.66L406.325 17.551C408.675 16.3538 410.994 15.77 413.291 15.77V14.77V13.77C410.641 13.77 408.014 14.4462 405.417 15.769L405.871 16.66ZM413.291 14.77V15.77C415.723 15.77 417.145 16.1732 417.842 16.7372L418.471 15.96L419.1 15.1828C417.837 14.1601 415.806 13.77 413.291 13.77V14.77ZM418.471 15.96L417.86 16.7513C418.65 17.3618 419.011 18.1003 419.011 19.04H420.011H421.011C421.011 17.4597 420.346 16.1448 419.082 15.1687L418.471 15.96ZM420.011 19.04H419.011C419.011 20.2079 418.921 21.7356 418.736 23.6329L419.731 23.73L420.726 23.8271C420.915 21.8978 421.011 20.2988 421.011 19.04H420.011ZM419.731 23.73L418.736 23.6329C418.558 25.457 418.11 27.4594 417.382 29.6438L418.331 29.96L419.28 30.2762C420.045 27.9806 420.531 25.8296 420.726 23.8271L419.731 23.73ZM418.331 29.96L417.377 29.6617C417.045 30.7238 416.685 31.4232 416.338 31.8398C416.009 32.2338 415.745 32.32 415.531 32.32V33.32V34.32C416.483 34.32 417.269 33.8462 417.874 33.1202C418.46 32.4168 418.917 31.4362 419.285 30.2583L418.331 29.96ZM415.531 33.32V32.32C415.532 32.32 415.524 32.32 415.505 32.3186C415.487 32.3173 415.462 32.3149 415.43 32.3109C415.365 32.303 415.279 32.2899 415.171 32.2703C414.953 32.2311 414.668 32.1699 414.31 32.0847C413.595 31.9144 412.624 31.6562 411.393 31.3078L411.121 32.27L410.849 33.2322C412.091 33.5838 413.092 33.8506 413.847 34.0303C414.556 34.1991 415.159 34.32 415.531 34.32V33.32ZM411.121 32.27L411.393 31.3078C408.876 30.5953 406.723 30.22 404.961 30.22V31.22V32.22C406.465 32.22 408.419 32.5447 410.849 33.2322L411.121 32.27ZM404.961 31.22V30.22C404.128 30.22 403.396 30.2804 402.792 30.421C402.207 30.557 401.617 30.796 401.208 31.251L401.951 31.92L402.694 32.589C402.705 32.5773 402.827 32.4663 403.245 32.369C403.644 32.2762 404.208 32.22 404.961 32.22V31.22ZM401.951 31.92L401.17 31.2953C400.607 31.9989 400.391 32.9034 400.391 33.88H401.391H402.391C402.391 33.1766 402.548 32.7744 402.732 32.5447L401.951 31.92ZM436.037 55.72L436.271 54.7478L436.271 54.7478L436.037 55.72ZM429.177 52.5L429.777 51.7L429.77 51.6952L429.764 51.6905L429.177 52.5ZM429.317 19.25L428.724 18.4445L428.721 18.4469L429.317 19.25ZM452.137 15.19L451.995 16.1799L452.007 16.1816L452.018 16.183L452.137 15.19ZM458.087 16.8L457.7 17.7225L457.708 17.7255L458.087 16.8ZM462.987 20.23L462.22 20.8726L462.226 20.8798L462.233 20.8868L462.987 20.23ZM466.067 26.25L465.111 26.5453L465.113 26.5503L466.067 26.25ZM461.237 51.31L461.899 52.0593L461.904 52.055L461.237 51.31ZM442.617 42.98L441.635 43.1709L441.635 43.1709L442.617 42.98ZM443.597 45.99L442.89 46.6971L442.913 46.7207L442.938 46.7426L443.597 45.99ZM446.397 45.99L445.738 45.2374L445.713 45.2593L445.69 45.2829L446.397 45.99ZM447.377 42.98L446.395 42.7891L446.392 42.8023L446.39 42.8156L447.377 42.98ZM447.657 30.8L446.659 30.8665L446.66 30.8847L446.662 30.9029L447.657 30.8ZM447.237 27.58L446.254 27.7643L446.259 27.7936L446.266 27.8225L447.237 27.58ZM446.607 25.83L447.439 25.2753L447.434 25.268L447.429 25.2608L446.607 25.83ZM443.667 25.48L444.325 26.2326L444.35 26.2106L444.374 26.1871L443.667 25.48ZM442.617 28.56L443.598 28.7509L443.599 28.7459L442.617 28.56ZM445.067 56.63V55.63C441.62 55.63 438.693 55.3308 436.271 54.7478L436.037 55.72L435.803 56.6922C438.421 57.3225 441.513 57.63 445.067 57.63V56.63ZM436.037 55.72L436.271 54.7478C433.882 54.1727 431.72 53.1574 429.777 51.7L429.177 52.5L428.577 53.3C430.74 54.9226 433.151 56.054 435.803 56.6922L436.037 55.72ZM429.177 52.5L429.764 51.6905C425.902 48.8896 423.807 43.555 423.807 35.28H422.807H421.807C421.807 43.805 423.958 49.9504 428.59 53.3095L429.177 52.5ZM422.807 35.28H423.807C423.807 28.0003 425.915 23.0187 429.912 20.0531L429.317 19.25L428.721 18.4469C424.038 21.9213 421.807 27.6263 421.807 35.28H422.807ZM429.317 19.25L429.909 20.0555C433.755 17.2264 438.78 15.77 445.067 15.77V14.77V13.77C438.473 13.77 432.998 15.3002 428.724 18.4445L429.317 19.25ZM445.067 14.77V15.77C447.789 15.77 450.096 15.9087 451.995 16.1799L452.137 15.19L452.278 14.2001C450.257 13.9113 447.851 13.77 445.067 13.77V14.77ZM452.137 15.19L452.018 16.183C453.877 16.4043 455.771 16.9147 457.701 17.7224L458.087 16.8L458.473 15.8776C456.389 15.0053 454.316 14.4424 452.255 14.197L452.137 15.19ZM458.087 16.8L457.708 17.7255C459.637 18.5148 461.128 19.5704 462.22 20.8726L462.987 20.23L463.753 19.5874C462.418 17.9963 460.643 16.7652 458.465 15.8745L458.087 16.8ZM462.987 20.23L462.233 20.8868C463.372 22.1951 464.344 24.0621 465.111 26.5453L466.067 26.25L467.022 25.9547C466.203 23.3045 465.121 21.1582 463.741 19.5732L462.987 20.23ZM466.067 26.25L465.113 26.5503C465.867 28.9474 466.257 31.8509 466.257 35.28H467.257H468.257C468.257 31.7091 467.853 28.5926 467.02 25.9497L466.067 26.25ZM467.257 35.28H466.257C466.257 42.1841 464.309 47.2167 460.57 50.565L461.237 51.31L461.904 52.055C466.191 48.2166 468.257 42.5626 468.257 35.28H467.257ZM461.237 51.31L460.574 50.5607C456.788 53.9067 451.656 55.63 445.067 55.63V56.63V57.63C452.011 57.63 457.658 55.8066 461.899 52.0593L461.237 51.31ZM442.617 42.98L441.635 43.1709C441.802 44.0297 441.974 44.7452 442.156 45.3021C442.321 45.8082 442.542 46.3495 442.89 46.6971L443.597 45.99L444.304 45.2829C444.325 45.3038 444.219 45.1801 444.058 44.6829C443.912 44.2365 443.758 43.6103 443.598 42.7891L442.617 42.98ZM443.597 45.99L442.938 46.7426C443.517 47.2494 444.228 47.48 444.997 47.48V46.48V45.48C444.645 45.48 444.423 45.3839 444.255 45.2374L443.597 45.99ZM444.997 46.48V47.48C445.782 47.48 446.536 47.2646 447.104 46.6971L446.397 45.99L445.69 45.2829C445.604 45.3687 445.424 45.48 444.997 45.48V46.48ZM446.397 45.99L447.055 46.7426C447.462 46.3869 447.703 45.8219 447.873 45.3021C448.058 44.7332 448.219 44.0077 448.363 43.1444L447.377 42.98L446.39 42.8156C446.254 43.6323 446.112 44.2484 445.971 44.6829C445.813 45.1664 445.705 45.2665 445.738 45.2374L446.397 45.99ZM447.377 42.98L448.358 43.1709C448.701 41.4061 448.867 39.2371 448.867 36.68H447.867H446.867C446.867 39.1629 446.705 41.1939 446.395 42.7891L447.377 42.98ZM447.867 36.68H448.867C448.867 34.1034 448.797 32.1024 448.651 30.6971L447.657 30.8L446.662 30.9029C446.797 32.2042 446.867 34.1233 446.867 36.68H447.867ZM447.657 30.8L448.654 30.7335C448.56 29.314 448.415 28.1708 448.207 27.3375L447.237 27.58L446.266 27.8225C446.432 28.4825 446.567 29.486 446.659 30.8665L447.657 30.8ZM447.237 27.58L448.22 27.3957C448.066 26.5772 447.821 25.8492 447.439 25.2753L446.607 25.83L445.775 26.3847C445.952 26.6508 446.127 27.0895 446.254 27.7643L447.237 27.58ZM446.607 25.83L447.429 25.2608C446.868 24.4506 446.075 23.92 445.067 23.92V24.92V25.92C445.272 25.92 445.505 25.9961 445.784 26.3992L446.607 25.83ZM445.067 24.92V23.92C444.259 23.92 443.533 24.1998 442.96 24.7729L443.667 25.48L444.374 26.1871C444.547 26.0136 444.754 25.92 445.067 25.92V24.92ZM443.667 25.48L443.008 24.7274C442.605 25.0798 442.357 25.6466 442.178 26.1723C441.981 26.7491 441.802 27.489 441.634 28.3741L442.617 28.56L443.599 28.7459C443.758 27.9043 443.917 27.2676 444.071 26.8177C444.241 26.3167 444.354 26.2069 444.325 26.2326L443.667 25.48ZM442.617 28.56L441.635 28.3691C441.29 30.1436 441.127 32.6225 441.127 35.77H442.127H443.127C443.127 32.6642 443.29 30.3364 443.598 28.7509L442.617 28.56ZM442.127 35.77H441.127C441.127 38.9175 441.29 41.3964 441.635 43.1709L442.617 42.98L443.598 42.7891C443.29 41.2036 443.127 38.8758 443.127 35.77H442.127ZM494.037 32.9V31.9H493.037V32.9H494.037ZM490.187 55.58L490.295 56.5741L490.304 56.5731L490.313 56.572L490.187 55.58ZM475.137 32.9H476.137V31.9H475.137V32.9ZM470.517 21.84L469.59 21.4636L469.587 21.4713L469.584 21.479L470.517 21.84ZM475.137 19.6V20.6H476.137V19.6H475.137ZM476.467 11.41L475.538 11.0386L475.535 11.0467L475.532 11.0548L476.467 11.41ZM479.757 6.09L480.45 6.81032L480.451 6.80984L479.757 6.09ZM484.447 3.08L484.826 4.00517L484.829 4.00401L484.447 3.08ZM505.797 13.23L506.752 13.5257L506.752 13.5257L505.797 13.23ZM500.967 15.75L500.687 16.71L500.71 16.7168L500.733 16.7224L500.967 15.75ZM494.037 19.6L493.113 19.9846L493.37 20.6H494.037V19.6ZM504.397 30.73L503.46 30.3789L503.457 30.3872L503.454 30.3956L504.397 30.73ZM494.037 32.9H493.037V54.32H494.037H495.037V32.9H494.037ZM494.037 54.32H493.037C493.037 53.9834 493.255 53.8446 493.208 53.8788C493.171 53.9058 493.044 53.9777 492.763 54.0696C492.214 54.2494 491.327 54.4268 490.06 54.588L490.187 55.58L490.313 56.572C491.613 56.4065 492.651 56.2106 493.385 55.9704C493.746 55.8523 494.1 55.7025 494.384 55.4962C494.658 55.2971 495.037 54.9133 495.037 54.32H494.037ZM490.187 55.58L490.078 54.5859C487.559 54.8607 484.448 55 480.737 55V56V57C484.492 57 487.68 56.8593 490.295 56.5741L490.187 55.58ZM480.737 56V55C478.895 55 477.614 54.8592 476.824 54.6222C476.428 54.5035 476.235 54.3834 476.156 54.3117C476.122 54.2811 476.121 54.2703 476.127 54.2838C476.13 54.29 476.133 54.2979 476.135 54.3065C476.137 54.315 476.137 54.32 476.137 54.32H475.137H474.137C474.137 54.9195 474.402 55.4242 474.818 55.7983C475.205 56.1466 475.711 56.3765 476.249 56.5378C477.326 56.8608 478.844 57 480.737 57V56ZM475.137 54.32H476.137V32.9H475.137H474.137V54.32H475.137ZM475.137 32.9V31.9H471.567V32.9V33.9H475.137V32.9ZM471.567 32.9V31.9C471.559 31.9 471.556 31.8992 471.557 31.8994C471.558 31.8997 471.559 31.9 471.557 31.8995C471.556 31.8989 471.531 31.8868 471.487 31.837C471.387 31.7255 471.244 31.4837 471.108 31.0231C470.835 30.1034 470.677 28.6281 470.677 26.53H469.677H468.677C468.677 28.6785 468.833 30.3883 469.19 31.5919C469.369 32.193 469.619 32.7474 469.993 33.1667C470.392 33.615 470.928 33.9 471.567 33.9V32.9ZM469.677 26.53H470.677C470.677 24.9632 470.937 23.5233 471.449 22.201L470.517 21.84L469.584 21.479C468.976 23.05 468.677 24.7368 468.677 26.53H469.677ZM470.517 21.84L471.443 22.2164C472.018 20.8023 472.547 20.6 472.827 20.6V19.6V18.6C471.24 18.6 470.229 19.8911 469.59 21.4636L470.517 21.84ZM472.827 19.6V20.6H475.137V19.6V18.6H472.827V19.6ZM475.137 19.6H476.137C476.137 16.5652 476.567 13.9605 477.401 11.7652L476.467 11.41L475.532 11.0548C474.593 13.5262 474.137 16.3814 474.137 19.6H475.137ZM476.467 11.41L477.395 11.7814C478.297 9.52655 479.327 7.89213 480.45 6.81032L479.757 6.09L479.063 5.36968C477.666 6.71453 476.503 8.62678 475.538 11.0386L476.467 11.41ZM479.757 6.09L480.451 6.80984C481.659 5.64464 483.113 4.70792 484.826 4.00517L484.447 3.08L484.067 2.15483C482.14 2.94541 480.467 4.01536 479.062 5.37015L479.757 6.09ZM484.447 3.08L484.829 4.00401C487.395 2.94231 490.341 2.4 493.687 2.4V1.4V0.399998C490.125 0.399998 486.912 0.977683 484.064 2.15598L484.447 3.08ZM493.687 1.4V2.4C497.998 2.4 501.124 2.75664 503.14 3.4177C505.189 4.08956 505.707 4.92042 505.707 5.67H506.707H507.707C507.707 3.57291 506.055 2.26877 503.763 1.51729C501.439 0.755025 498.055 0.399998 493.687 0.399998V1.4ZM506.707 5.67H505.707C505.707 8.69468 505.407 11.1052 504.841 12.9343L505.797 13.23L506.752 13.5257C507.399 11.4348 507.707 8.80531 507.707 5.67H506.707ZM505.797 13.23L504.841 12.9343C504.556 13.8558 504.249 14.4492 503.961 14.7948C503.692 15.1171 503.493 15.17 503.347 15.17V16.17V17.17C504.227 17.17 504.949 16.7329 505.497 16.0752C506.026 15.4408 506.43 14.5642 506.752 13.5257L505.797 13.23ZM503.347 16.17V15.17C503.063 15.17 502.382 15.0614 501.2 14.7776L500.967 15.75L500.733 16.7224C501.884 16.9986 502.79 17.17 503.347 17.17V16.17ZM500.967 15.75L501.247 14.79C500.048 14.4403 498.88 14.26 497.747 14.26V15.26V16.26C498.667 16.26 499.645 16.4063 500.687 16.71L500.967 15.75ZM497.747 15.26V14.26C496.309 14.26 495.054 14.5022 494.134 15.1368C493.147 15.8177 492.687 16.8496 492.687 18.06H493.687H494.687C494.687 17.4037 494.903 17.0357 495.269 16.7832C495.702 16.4845 496.477 16.26 497.747 16.26V15.26ZM493.687 18.06H492.687C492.687 18.6918 492.844 19.3376 493.113 19.9846L494.037 19.6L494.96 19.2154C494.763 18.7424 494.687 18.3615 494.687 18.06H493.687ZM494.037 19.6V20.6H503.347V19.6V18.6H494.037V19.6ZM503.347 19.6V20.6C503.35 20.6 503.368 20.5867 503.438 20.6622C503.533 20.7657 503.673 20.9932 503.808 21.4333C504.078 22.3139 504.237 23.7329 504.237 25.76H505.237H506.237C506.237 23.6804 506.08 22.0194 505.72 20.8467C505.38 19.7385 504.689 18.6 503.347 18.6V19.6ZM505.237 25.76H504.237C504.237 27.4768 503.973 29.0125 503.46 30.3789L504.397 30.73L505.333 31.0811C505.94 29.4608 506.237 27.6832 506.237 25.76H505.237ZM504.397 30.73L503.454 30.3956C502.968 31.767 502.497 31.9 502.297 31.9V32.9V33.9C503.87 33.9 504.799 32.5863 505.339 31.0644L504.397 30.73ZM502.297 32.9V31.9H494.037V32.9V33.9H502.297V32.9ZM525.718 55.58L525.823 56.5745L525.83 56.5737L525.838 56.5728L525.718 55.58ZM511.998 55.65L511.665 56.593L511.698 56.6044L511.73 56.6135L511.998 55.65ZM514.728 18.06L515.079 18.9964L515.088 18.9929L514.728 18.06ZM527.468 2.8L526.993 3.6797L527.007 3.68729L527.021 3.69442L527.468 2.8ZM529.778 19.81H528.778V54.32H529.778H530.778V19.81H529.778ZM529.778 54.32H528.778C528.778 53.959 529.022 53.8194 528.957 53.8643C528.91 53.8966 528.768 53.9716 528.467 54.0649C527.878 54.2475 526.936 54.4258 525.598 54.5872L525.718 55.58L525.838 56.5728C527.207 56.4076 528.294 56.2125 529.06 55.9751C529.435 55.8584 529.801 55.7117 530.092 55.5107C530.365 55.3223 530.778 54.9377 530.778 54.32H529.778ZM525.718 55.58L525.613 54.5855C522.99 54.8616 520.272 55 517.458 55V56V57C520.338 57 523.126 56.8584 525.823 56.5745L525.718 55.58ZM517.458 56V55C516.069 55 514.938 54.971 514.057 54.9145C513.158 54.8569 512.58 54.7738 512.266 54.6865L511.998 55.65L511.73 56.6135C512.256 56.7595 513.008 56.8514 513.929 56.9105C514.869 56.9707 516.047 57 517.458 57V56ZM511.998 55.65L512.331 54.707C512.031 54.6011 511.9 54.4959 511.851 54.4407C511.82 54.4064 511.808 54.3827 511.808 54.32H510.808H509.808C509.808 54.864 509.994 55.3653 510.36 55.7743C510.708 56.1624 511.172 56.4189 511.665 56.593L511.998 55.65ZM510.808 54.32H511.808V21.07H510.808H509.808V54.32H510.808ZM510.808 21.07H511.808C511.808 21.0169 511.841 20.7679 512.397 20.3406C512.936 19.9267 513.81 19.4721 515.079 18.9963L514.728 18.06L514.377 17.1237C513.032 17.6279 511.947 18.165 511.179 18.7543C510.429 19.3304 509.808 20.0964 509.808 21.07H510.808ZM514.728 18.06L515.088 18.9929C517.623 18.0147 520.393 17.52 523.408 17.52V16.52V15.52C520.17 15.52 517.154 16.052 514.368 17.1271L514.728 18.06ZM523.408 16.52V17.52C525.478 17.52 526.878 17.7927 527.727 18.231C528.136 18.4426 528.388 18.6775 528.54 18.9129C528.689 19.1435 528.778 19.4301 528.778 19.81H529.778H530.778C530.778 19.0932 530.602 18.4202 530.22 17.8284C529.841 17.2412 529.296 16.7907 528.645 16.454C527.37 15.7957 525.585 15.52 523.408 15.52V16.52ZM520.258 1.4V2.4C523.258 2.4 525.472 2.85787 526.993 3.6797L527.468 2.8L527.944 1.92029C526.011 0.87546 523.419 0.399998 520.258 0.399998V1.4ZM527.468 2.8L527.021 3.69442C527.737 4.0526 528.245 4.54276 528.584 5.16709C528.929 5.80187 529.128 6.63103 529.128 7.7H530.128H531.128C531.128 6.38896 530.884 5.21146 530.342 4.2129C529.794 3.2039 528.972 2.43406 527.915 1.90557L527.468 2.8ZM530.128 7.7H529.128C529.128 9.49284 528.458 10.735 527.137 11.5838C525.741 12.4813 523.52 13 520.328 13V14V15C523.67 15 526.348 14.4687 528.219 13.2662C530.165 12.015 531.128 10.1072 531.128 7.7H530.128ZM520.328 14V13C517.137 13 514.915 12.4813 513.519 11.5838C512.199 10.735 511.528 9.49284 511.528 7.7H510.528H509.528C509.528 10.1072 510.491 12.015 512.437 13.2662C514.308 14.4687 516.986 15 520.328 15V14ZM510.528 7.7H511.528C511.528 5.90398 512.195 4.66179 513.504 3.81441C514.888 2.91851 517.091 2.4 520.258 2.4V1.4V0.399998C516.939 0.399998 514.277 0.931487 512.417 2.13559C510.483 3.3882 509.528 5.29601 509.528 7.7H510.528ZM549.911 55.58L550.015 56.5745L550.024 56.5736L550.033 56.5725L549.911 55.58ZM536.191 55.65L535.858 56.593L535.89 56.6044L535.923 56.6135L536.191 55.65ZM538.921 2.87L538.575 1.93164L538.57 1.93367L538.921 2.87ZM553.901 4.62H552.901V54.32H553.901H554.901V4.62H553.901ZM553.901 54.32H552.901C552.901 53.9671 553.136 53.8276 553.077 53.8689C553.033 53.8995 552.896 53.9735 552.602 54.0664C552.027 54.2481 551.103 54.4261 549.789 54.5875L549.911 55.58L550.033 56.5725C551.379 56.4072 552.45 56.2119 553.204 55.9736C553.575 55.8565 553.937 55.7088 554.226 55.5061C554.499 55.314 554.901 54.9296 554.901 54.32H553.901ZM549.911 55.58L549.806 54.5855C547.183 54.8616 544.465 55 541.651 55V56V57C544.53 57 547.319 56.8584 550.015 56.5745L549.911 55.58ZM541.651 56V55C540.262 55 539.13 54.971 538.25 54.9145C537.351 54.8569 536.773 54.7738 536.458 54.6865L536.191 55.65L535.923 56.6135C536.449 56.7595 537.201 56.8514 538.122 56.9105C539.061 56.9707 540.239 57 541.651 57V56ZM536.191 55.65L536.524 54.707C536.224 54.6011 536.093 54.4959 536.044 54.4407C536.013 54.4064 536.001 54.3827 536.001 54.32H535.001H534.001C534.001 54.864 534.187 55.3653 534.553 55.7743C534.9 56.1624 535.365 56.4189 535.858 56.593L536.191 55.65ZM535.001 54.32H536.001V5.88H535.001H534.001V54.32H535.001ZM535.001 5.88H536.001C536.001 5.82689 536.033 5.57788 536.59 5.15065C537.129 4.73666 538.003 4.28212 539.272 3.80632L538.921 2.87L538.57 1.93367C537.225 2.43787 536.139 2.975 535.372 3.56435C534.621 4.14045 534.001 4.90644 534.001 5.88H535.001ZM538.921 2.87L539.266 3.80834C541.808 2.8719 544.537 2.4 547.461 2.4V1.4V0.399998C544.318 0.399998 541.353 0.908093 538.575 1.93165L538.921 2.87ZM547.461 1.4V2.4C549.556 2.4 550.979 2.66724 551.844 3.09943C552.262 3.30844 552.515 3.53918 552.666 3.76595C552.813 3.98645 552.901 4.25832 552.901 4.62H553.901H554.901C554.901 3.90835 554.72 3.24104 554.33 2.65655C553.945 2.07831 553.393 1.63822 552.738 1.31057C551.456 0.669423 549.659 0.399998 547.461 0.399998V1.4ZM577.2 40.18V39.18H576.2V40.18H577.2ZM588.12 43.05L588.502 43.974L588.509 43.9712L588.516 43.9683L588.12 43.05ZM595.89 45.29L595.011 45.7678L595.011 45.7678L595.89 45.29ZM592.46 55.3L592.702 56.2701L592.702 56.2701L592.46 55.3ZM572.51 55.86L572.281 56.8334L572.285 56.8344L572.51 55.86ZM566.63 53.76L566.119 54.6199L566.135 54.6292L566.151 54.6379L566.63 53.76ZM562.64 50.54L561.892 51.2044L561.899 51.212L561.906 51.2194L562.64 50.54ZM560.12 46.97L559.218 47.4027L559.222 47.41L559.225 47.4172L560.12 46.97ZM558.79 43.12L557.815 43.3416L557.816 43.3472L558.79 43.12ZM564.74 19.18L565.328 19.9892L565.337 19.982L564.74 19.18ZM572.09 15.75L571.855 14.7779L571.855 14.7779L572.09 15.75ZM577.06 34.58H576.06V35.58H577.06V34.58ZM580.35 32.97L579.579 32.3331L579.57 32.3433L579.562 32.3537L580.35 32.97ZM577.2 40.18H576.2C576.2 41.8393 576.595 43.2694 577.561 44.2827C578.536 45.3048 579.927 45.73 581.54 45.73V44.73V43.73C580.26 43.73 579.48 43.3969 579.008 42.9023C578.528 42.3989 578.2 41.554 578.2 40.18H577.2ZM581.54 44.73V45.73C583.414 45.73 585.751 45.1124 588.502 43.974L588.12 43.05L587.737 42.126C585.075 43.2276 583.025 43.73 581.54 43.73V44.73ZM588.12 43.05L588.516 43.9683C589.868 43.3856 590.893 42.951 591.597 42.6628C591.949 42.5183 592.213 42.4136 592.394 42.3463C592.485 42.3122 592.545 42.2915 592.579 42.2807C592.597 42.2751 592.596 42.2757 592.584 42.2786C592.578 42.2801 592.561 42.2842 592.536 42.2883C592.517 42.2915 592.463 42.3 592.39 42.3V41.3V40.3C592.253 40.3 592.139 40.3287 592.113 40.3351C592.063 40.3471 592.015 40.3613 591.975 40.3739C591.894 40.3996 591.799 40.4337 591.695 40.4725C591.484 40.551 591.197 40.6651 590.838 40.8122C590.118 41.1073 589.079 41.5477 587.724 42.1317L588.12 43.05ZM592.39 41.3V42.3C592.363 42.3 592.617 42.3175 593.178 42.9569C593.69 43.5406 594.302 44.4639 595.011 45.7678L595.89 45.29L596.768 44.8122C596.031 43.4561 595.336 42.3843 594.682 41.6381C594.076 40.9475 593.303 40.3 592.39 40.3V41.3ZM595.89 45.29L595.011 45.7678C595.721 47.0724 596.24 48.1816 596.579 49.1012C596.923 50.0335 597.06 50.7106 597.06 51.17H598.06H599.06C599.06 50.3694 598.835 49.4365 598.455 48.4088C598.072 47.3684 597.505 46.1676 596.768 44.8122L595.89 45.29ZM598.06 51.17H597.06C597.06 51.677 596.822 52.2057 596.066 52.7627C595.285 53.3389 594.03 53.8767 592.217 54.3299L592.46 55.3L592.702 56.2701C594.623 55.7899 596.168 55.1727 597.253 54.3723C598.365 53.5526 599.06 52.483 599.06 51.17H598.06ZM592.46 55.3L592.217 54.3299C588.558 55.2448 584.976 55.7 581.47 55.7V56.7V57.7C585.151 57.7 588.895 57.2219 592.702 56.2701L592.46 55.3ZM581.47 56.7V55.7C577.97 55.7 575.064 55.4231 572.735 54.8856L572.51 55.86L572.285 56.8344C574.809 57.4169 577.877 57.7 581.47 57.7V56.7ZM572.51 55.86L572.739 54.8866C570.415 54.3397 568.546 53.6661 567.109 52.8821L566.63 53.76L566.151 54.6379C567.794 55.5339 569.845 56.2603 572.281 56.8334L572.51 55.86ZM566.63 53.76L567.14 52.9001C565.729 52.062 564.474 51.0492 563.374 49.8606L562.64 50.54L561.906 51.2194C563.139 52.5508 564.544 53.6847 566.119 54.6199L566.63 53.76ZM562.64 50.54L563.387 49.8756C562.307 48.6602 561.524 47.5425 561.014 46.5228L560.12 46.97L559.225 47.4172C559.836 48.6375 560.733 49.8998 561.892 51.2044L562.64 50.54ZM560.12 46.97L561.021 46.5373C560.496 45.443 560.076 44.2296 559.764 42.8928L558.79 43.12L557.816 43.3472C558.157 44.8104 558.624 46.1636 559.218 47.4027L560.12 46.97ZM558.79 43.12L559.765 42.8984C559.316 40.9207 559.09 38.8719 559.09 36.75H558.09H557.09C557.09 39.0148 557.331 41.2126 557.815 43.3416L558.79 43.12ZM558.09 36.75H559.09C559.09 28.3957 561.271 22.9352 565.328 19.9891L564.74 19.18L564.152 18.3709C559.342 21.8648 557.09 28.1176 557.09 36.75H558.09ZM564.74 19.18L565.337 19.982C567.42 18.4308 569.746 17.3444 572.324 16.7221L572.09 15.75L571.855 14.7779C569.02 15.4623 566.446 16.6626 564.143 18.378L564.74 19.18ZM572.09 15.75L572.324 16.7221C574.934 16.0922 578.048 15.77 581.68 15.77V14.77V13.77C577.938 13.77 574.659 14.1012 571.855 14.7779L572.09 15.75ZM581.68 14.77V15.77C587.498 15.77 591.684 16.7874 594.391 18.6709C597.033 20.5085 598.39 23.2568 598.39 27.09H599.39H600.39C600.39 22.7098 598.795 19.2981 595.533 17.0291C592.338 14.8059 587.668 13.77 581.68 13.77V14.77ZM599.39 27.09H598.39C598.39 31.1567 596.871 34.0965 593.87 36.0723C590.796 38.0962 586.059 39.18 579.51 39.18V40.18V41.18C586.214 41.18 591.417 40.0821 594.97 37.7427C598.596 35.3552 600.39 31.75 600.39 27.09H599.39ZM579.51 40.18V39.18H577.2V40.18V41.18H579.51V40.18ZM577.06 29.96H576.06V34.58H577.06H578.06V29.96H577.06ZM577.06 34.58V35.58C578.723 35.58 580.109 34.8998 581.137 33.5863L580.35 32.97L579.562 32.3537C578.91 33.1869 578.103 33.58 577.06 33.58V34.58ZM580.35 32.97L581.121 33.6069C582.171 32.335 582.68 30.7961 582.68 29.05H581.68H580.68C580.68 30.3839 580.302 31.4583 579.579 32.3331L580.35 32.97ZM581.68 29.05H582.68C582.68 27.5964 582.498 26.354 582.026 25.441C581.782 24.9699 581.448 24.5607 581.001 24.2722C580.55 23.9807 580.04 23.85 579.51 23.85V24.85V25.85C579.703 25.85 579.826 25.8943 579.917 25.9528C580.012 26.0143 580.131 26.1301 580.249 26.359C580.501 26.846 580.68 27.7036 580.68 29.05H581.68ZM579.51 24.85V23.85C578.918 23.85 578.357 24.0078 577.867 24.3483C577.386 24.683 577.03 25.1541 576.771 25.6952C576.265 26.7505 576.06 28.2086 576.06 29.96H577.06H578.06C578.06 28.3047 578.263 27.2079 578.574 26.5598C578.723 26.2492 578.878 26.0816 579.009 25.9904C579.132 25.9051 579.285 25.85 579.51 25.85V24.85Z" fill="white" mask="url(#path-1-outside-1_310_16)"/>
</g>
<defs>
<filter id="filter0_d_310_16" x="0.584961" y="0.399902" width="603.805" height="74.75" filterUnits="userSpaceOnUse" color-interpolation-filters="sRGB">
<feFlood flood-opacity="0" result="BackgroundImageFix"/>
<feColorMatrix in="SourceAlpha" type="matrix" values="0 0 0 0 0 0 0 0 0 0 0 0 0 0 0 0 0 0 127 0" result="hardAlpha"/>
<feOffset dy="4"/>
<feGaussianBlur stdDeviation="2"/>
<feComposite in2="hardAlpha" operator="out"/>
<feColorMatrix type="matrix" values="0 0 0 0 0 0 0 0 0 0 0 0 0 0 0 0 0 0 0.25 0"/>
<feBlend mode="normal" in2="BackgroundImageFix" result="effect1_dropShadow_310_16"/>
<feBlend mode="normal" in="SourceGraphic" in2="effect1_dropShadow_310_16" result="shape"/>
</filter>
</defs>
</svg>
