<svg width="503" height="76" viewBox="0 0 503 76" fill="none" xmlns="http://www.w3.org/2000/svg">
<path d="M0.262188 23V2.36H3.68219V19.82H9.38219V23H0.262188ZM21.3501 16.46H14.2401C14.2401 17.76 14.3001 18.67 14.4201 19.19C14.5401 19.69 14.8001 20.03 15.2001 20.21C15.6001 20.37 16.3001 20.45 17.3001 20.45C18.2601 20.45 19.4901 20.37 20.9901 20.21V22.76C20.4901 22.9 19.8201 23.01 18.9801 23.09C18.1601 23.19 17.3601 23.24 16.5801 23.24C14.9001 23.24 13.6601 22.99 12.8601 22.49C12.0801 21.97 11.5701 21.19 11.3301 20.15C11.1101 19.09 11.0001 17.5 11.0001 15.38C11.0001 13.28 11.1101 11.7 11.3301 10.64C11.5501 9.58 12.0401 8.79 12.8001 8.27C13.5601 7.73 14.7501 7.46 16.3701 7.46C17.9701 7.46 19.1101 7.72 19.7901 8.24C20.4901 8.74 20.9201 9.5 21.0801 10.52C21.2601 11.52 21.3501 13.13 21.3501 15.35V16.46ZM16.3101 10.25C15.6901 10.25 15.2401 10.34 14.9601 10.52C14.6801 10.7 14.4901 11.04 14.3901 11.54C14.3101 12.04 14.2601 12.88 14.2401 14.06H18.2601V14.03C18.2601 12.87 18.2101 12.03 18.1101 11.51C18.0101 10.99 17.8301 10.65 17.5701 10.49C17.3101 10.33 16.8901 10.25 16.3101 10.25ZM24.9177 23V10.49H22.9077V7.7H24.9177V3.26H28.1577V7.7H30.6177V10.49H28.1577V23H24.9177ZM32.7112 8.27C33.3512 8.27 33.7712 8.13 33.9712 7.85C34.1912 7.57 34.3012 7.02 34.3012 6.2V5.72H32.9512V2.36H36.4012V4.85C36.4012 6.25 36.3212 7.28 36.1612 7.94C36.0012 8.58 35.6612 9.04 35.1412 9.32C34.6412 9.6 33.8312 9.74 32.7112 9.74V8.27ZM42.7155 23.24C42.0555 23.24 41.3155 23.2 40.4955 23.12C39.6955 23.04 38.9955 22.94 38.3955 22.82V20.21C39.8355 20.37 41.0455 20.45 42.0255 20.45C42.6455 20.45 43.1055 20.4 43.4055 20.3C43.7055 20.18 43.9055 20 44.0055 19.76C44.1055 19.52 44.1555 19.16 44.1555 18.68C44.1555 18.12 44.1255 17.73 44.0655 17.51C44.0055 17.27 43.8955 17.11 43.7355 17.03C43.5755 16.93 43.2955 16.85 42.8955 16.79L40.2255 16.4C39.4055 16.28 38.8355 15.9 38.5155 15.26C38.1955 14.62 38.0355 13.55 38.0355 12.05C38.0355 10.33 38.4455 9.14 39.2655 8.48C40.0855 7.8 41.2955 7.46 42.8955 7.46C43.5555 7.46 44.2355 7.51 44.9355 7.61C45.6555 7.69 46.2355 7.8 46.6755 7.94V10.52C45.5555 10.34 44.4355 10.25 43.3155 10.25C42.5355 10.25 41.9955 10.37 41.6955 10.61C41.4155 10.83 41.2755 11.29 41.2755 11.99C41.2755 12.49 41.2955 12.85 41.3355 13.07C41.3955 13.29 41.4955 13.45 41.6355 13.55C41.7955 13.63 42.0555 13.69 42.4155 13.73L44.6955 14.03C45.2755 14.11 45.7555 14.27 46.1355 14.51C46.5155 14.75 46.8155 15.18 47.0355 15.8C47.2555 16.42 47.3655 17.3 47.3655 18.44C47.3655 20.26 46.9855 21.52 46.2255 22.22C45.4855 22.9 44.3155 23.24 42.7155 23.24ZM59.9833 29C59.2833 29 58.5433 28.96 57.7633 28.88C57.0033 28.82 56.3833 28.74 55.9033 28.64V26.09L59.2633 26.15C60.2633 26.15 60.9633 26.05 61.3633 25.85C61.7833 25.67 62.0533 25.31 62.1733 24.77C62.2933 24.23 62.3533 23.29 62.3533 21.95V21.14H62.1733C61.9333 21.82 61.5433 22.31 61.0033 22.61C60.4833 22.89 59.8133 23.03 58.9933 23.03C57.9333 23.03 57.1233 22.8 56.5633 22.34C56.0033 21.88 55.6033 21.1 55.3633 20C55.1433 18.9 55.0333 17.33 55.0333 15.29C55.0333 13.21 55.1533 11.61 55.3933 10.49C55.6333 9.37 56.0333 8.59 56.5933 8.15C57.1733 7.69 57.9833 7.46 59.0233 7.46C60.7433 7.46 61.8333 8.17 62.2933 9.59H62.4733L62.5933 7.7H65.5933V21.05C65.5933 23.15 65.4833 24.73 65.2633 25.79C65.0433 26.85 64.5333 27.65 63.7333 28.19C62.9333 28.73 61.6833 29 59.9833 29ZM60.3433 20.12C60.8833 20.12 61.2933 20.02 61.5733 19.82C61.8533 19.62 62.0433 19.27 62.1433 18.77C62.2833 18.19 62.3533 17.03 62.3533 15.29C62.3533 13.77 62.3033 12.72 62.2033 12.14C62.1033 11.5 61.9133 11.07 61.6333 10.85C61.3533 10.61 60.9233 10.49 60.3433 10.49C59.6633 10.49 59.1933 10.58 58.9333 10.76C58.6733 10.94 58.4933 11.34 58.3933 11.96C58.3133 12.58 58.2733 13.69 58.2733 15.29C58.2733 16.85 58.3133 17.95 58.3933 18.59C58.4933 19.23 58.6733 19.65 58.9333 19.85C59.2133 20.03 59.6833 20.12 60.3433 20.12ZM78.7134 16.46H71.6034C71.6034 17.76 71.6634 18.67 71.7834 19.19C71.9034 19.69 72.1634 20.03 72.5634 20.21C72.9634 20.37 73.6634 20.45 74.6634 20.45C75.6234 20.45 76.8534 20.37 78.3534 20.21V22.76C77.8534 22.9 77.1834 23.01 76.3434 23.09C75.5234 23.19 74.7234 23.24 73.9434 23.24C72.2634 23.24 71.0234 22.99 70.2234 22.49C69.4434 21.97 68.9334 21.19 68.6934 20.15C68.4734 19.09 68.3634 17.5 68.3634 15.38C68.3634 13.28 68.4734 11.7 68.6934 10.64C68.9134 9.58 69.4034 8.79 70.1634 8.27C70.9234 7.73 72.1134 7.46 73.7334 7.46C75.3334 7.46 76.4734 7.72 77.1534 8.24C77.8534 8.74 78.2834 9.5 78.4434 10.52C78.6234 11.52 78.7134 13.13 78.7134 15.35V16.46ZM73.6734 10.25C73.0534 10.25 72.6034 10.34 72.3234 10.52C72.0434 10.7 71.8534 11.04 71.7534 11.54C71.6734 12.04 71.6234 12.88 71.6034 14.06H75.6234V14.03C75.6234 12.87 75.5734 12.03 75.4734 11.51C75.3734 10.99 75.1934 10.65 74.9334 10.49C74.6734 10.33 74.2534 10.25 73.6734 10.25ZM82.281 23V10.49H80.271V7.7H82.281V3.26H85.521V7.7H87.981V10.49H85.521V23H82.281ZM96.5779 23V10.49H94.5679V7.7H96.5779V3.26H99.8179V7.7H102.278V10.49H99.8179V23H96.5779ZM109.182 23.24C107.522 23.24 106.322 23.02 105.582 22.58C104.842 22.14 104.362 21.4 104.142 20.36C103.942 19.32 103.842 17.65 103.842 15.35C103.842 13.03 103.942 11.35 104.142 10.31C104.362 9.27 104.842 8.54 105.582 8.12C106.322 7.68 107.522 7.46 109.182 7.46C110.842 7.46 112.042 7.68 112.782 8.12C113.522 8.54 113.992 9.27 114.192 10.31C114.412 11.35 114.522 13.03 114.522 15.35C114.522 17.65 114.412 19.32 114.192 20.36C113.992 21.4 113.522 22.14 112.782 22.58C112.042 23.02 110.842 23.24 109.182 23.24ZM109.182 20.45C109.902 20.45 110.392 20.35 110.652 20.15C110.932 19.93 111.102 19.5 111.162 18.86C111.242 18.22 111.282 17.05 111.282 15.35C111.282 13.63 111.242 12.46 111.162 11.84C111.102 11.2 110.932 10.78 110.652 10.58C110.392 10.36 109.902 10.25 109.182 10.25C108.462 10.25 107.962 10.36 107.682 10.58C107.422 10.78 107.252 11.2 107.172 11.84C107.112 12.46 107.082 13.63 107.082 15.35C107.082 17.05 107.112 18.22 107.172 18.86C107.252 19.5 107.422 19.93 107.682 20.15C107.962 20.35 108.462 20.45 109.182 20.45ZM130.005 23L127.185 16.76H126.105V23H122.865V0.709999H126.105V13.94H127.185L130.065 7.7H133.395L129.855 15.05L133.455 23H130.005ZM142.573 14.57C142.573 13.23 142.533 12.29 142.453 11.75C142.373 11.21 142.213 10.87 141.973 10.73C141.733 10.57 141.313 10.49 140.713 10.49C140.073 10.49 139.613 10.63 139.333 10.91C139.053 11.17 138.873 11.59 138.793 12.17C138.733 12.75 138.703 13.7 138.703 15.02V23H135.463V7.7H138.433L138.553 9.62H138.733C138.993 8.86 139.413 8.31 139.993 7.97C140.573 7.63 141.323 7.46 142.243 7.46C143.243 7.46 143.993 7.66 144.493 8.06C145.013 8.44 145.363 9.03 145.543 9.83C145.723 10.61 145.813 11.69 145.813 13.07V23H142.573V14.57ZM153.86 23.24C152.2 23.24 151 23.02 150.26 22.58C149.52 22.14 149.04 21.4 148.82 20.36C148.62 19.32 148.52 17.65 148.52 15.35C148.52 13.03 148.62 11.35 148.82 10.31C149.04 9.27 149.52 8.54 150.26 8.12C151 7.68 152.2 7.46 153.86 7.46C155.52 7.46 156.72 7.68 157.46 8.12C158.2 8.54 158.67 9.27 158.87 10.31C159.09 11.35 159.2 13.03 159.2 15.35C159.2 17.65 159.09 19.32 158.87 20.36C158.67 21.4 158.2 22.14 157.46 22.58C156.72 23.02 155.52 23.24 153.86 23.24ZM153.86 20.45C154.58 20.45 155.07 20.35 155.33 20.15C155.61 19.93 155.78 19.5 155.84 18.86C155.92 18.22 155.96 17.05 155.96 15.35C155.96 13.63 155.92 12.46 155.84 11.84C155.78 11.2 155.61 10.78 155.33 10.58C155.07 10.36 154.58 10.25 153.86 10.25C153.14 10.25 152.64 10.36 152.36 10.58C152.1 10.78 151.93 11.2 151.85 11.84C151.79 12.46 151.76 13.63 151.76 15.35C151.76 17.05 151.79 18.22 151.85 18.86C151.93 19.5 152.1 19.93 152.36 20.15C152.64 20.35 153.14 20.45 153.86 20.45ZM171.524 23L169.694 13.58H169.454L167.624 23H163.574L160.604 7.7H163.844L165.644 18.89H165.854L168.014 7.7H171.224L173.414 18.89H173.624L175.394 7.7H178.484L175.544 23H171.524ZM190.916 29C190.196 29 189.456 28.97 188.696 28.91C187.956 28.85 187.346 28.78 186.866 28.7V26.09C188.066 26.13 189.176 26.15 190.196 26.15C191.176 26.15 191.866 26.05 192.266 25.85C192.686 25.65 192.946 25.28 193.046 24.74C193.166 24.22 193.226 23.32 193.226 22.04V21.05H193.016C192.596 22.39 191.496 23.06 189.716 23.06C188.636 23.06 187.836 22.84 187.316 22.4C186.816 21.96 186.486 21.3 186.326 20.42C186.186 19.54 186.116 18.26 186.116 16.58V7.7H189.356V16.01C189.356 17.39 189.386 18.35 189.446 18.89C189.526 19.41 189.686 19.75 189.926 19.91C190.166 20.05 190.586 20.12 191.186 20.12C191.826 20.12 192.286 19.99 192.566 19.73C192.866 19.47 193.046 19.05 193.106 18.47C193.186 17.89 193.226 16.93 193.226 15.59V7.7H196.466V21.08C196.466 23.16 196.346 24.73 196.106 25.79C195.886 26.85 195.386 27.65 194.606 28.19C193.826 28.73 192.596 29 190.916 29ZM204.573 23.24C202.913 23.24 201.713 23.02 200.973 22.58C200.233 22.14 199.753 21.4 199.533 20.36C199.333 19.32 199.233 17.65 199.233 15.35C199.233 13.03 199.333 11.35 199.533 10.31C199.753 9.27 200.233 8.54 200.973 8.12C201.713 7.68 202.913 7.46 204.573 7.46C206.233 7.46 207.433 7.68 208.173 8.12C208.913 8.54 209.383 9.27 209.583 10.31C209.803 11.35 209.913 13.03 209.913 15.35C209.913 17.65 209.803 19.32 209.583 20.36C209.383 21.4 208.913 22.14 208.173 22.58C207.433 23.02 206.233 23.24 204.573 23.24ZM204.573 20.45C205.293 20.45 205.783 20.35 206.043 20.15C206.323 19.93 206.493 19.5 206.553 18.86C206.633 18.22 206.673 17.05 206.673 15.35C206.673 13.63 206.633 12.46 206.553 11.84C206.493 11.2 206.323 10.78 206.043 10.58C205.783 10.36 205.293 10.25 204.573 10.25C203.853 10.25 203.353 10.36 203.073 10.58C202.813 10.78 202.643 11.2 202.563 11.84C202.503 12.46 202.472 13.63 202.472 15.35C202.472 17.05 202.503 18.22 202.563 18.86C202.643 19.5 202.813 19.93 203.073 20.15C203.353 20.35 203.853 20.45 204.573 20.45ZM219.86 21.08H219.68C219.42 21.84 219 22.39 218.42 22.73C217.84 23.07 217.1 23.24 216.2 23.24C215.2 23.24 214.44 23.05 213.92 22.67C213.4 22.27 213.05 21.68 212.87 20.9C212.71 20.1 212.63 19.01 212.63 17.63V7.7H215.87V16.13C215.87 17.49 215.9 18.44 215.96 18.98C216.04 19.5 216.2 19.84 216.44 20C216.68 20.14 217.1 20.21 217.7 20.21C218.34 20.21 218.8 20.08 219.08 19.82C219.36 19.56 219.54 19.13 219.62 18.53C219.7 17.93 219.74 16.98 219.74 15.68V7.7H222.98V23H219.98L219.86 21.08ZM232.633 10.49H230.653V7.7H232.633V6.29C232.633 4.53 232.793 3.27 233.113 2.51C233.433 1.75 233.973 1.26 234.733 1.04C235.513 0.819999 236.763 0.709999 238.483 0.709999V3.23C237.683 3.23 237.103 3.28 236.743 3.38C236.403 3.48 236.173 3.69 236.053 4.01C235.933 4.33 235.873 4.85 235.873 5.57V7.7H238.483V10.49H235.873V23H232.633V10.49ZM240.583 4.01V0.709999H243.883V4.01H240.583ZM240.613 23V7.7H243.853V23H240.613ZM247.026 7.7H249.996L250.116 10.31H250.326C250.626 9.23 251.066 8.49 251.646 8.09C252.246 7.67 253.026 7.46 253.986 7.46V10.91C253.066 10.91 252.336 11.07 251.796 11.39C251.256 11.71 250.866 12.23 250.626 12.95C250.386 13.67 250.266 14.67 250.266 15.95V23H247.026V7.7ZM260.098 23.24C259.438 23.24 258.698 23.2 257.878 23.12C257.078 23.04 256.378 22.94 255.778 22.82V20.21C257.218 20.37 258.428 20.45 259.408 20.45C260.028 20.45 260.488 20.4 260.788 20.3C261.088 20.18 261.288 20 261.388 19.76C261.488 19.52 261.538 19.16 261.538 18.68C261.538 18.12 261.508 17.73 261.448 17.51C261.388 17.27 261.278 17.11 261.118 17.03C260.958 16.93 260.678 16.85 260.278 16.79L257.608 16.4C256.788 16.28 256.218 15.9 255.898 15.26C255.578 14.62 255.418 13.55 255.418 12.05C255.418 10.33 255.828 9.14 256.648 8.48C257.468 7.8 258.678 7.46 260.278 7.46C260.938 7.46 261.618 7.51 262.318 7.61C263.038 7.69 263.618 7.8 264.058 7.94V10.52C262.938 10.34 261.818 10.25 260.698 10.25C259.918 10.25 259.378 10.37 259.078 10.61C258.798 10.83 258.658 11.29 258.658 11.99C258.658 12.49 258.678 12.85 258.718 13.07C258.778 13.29 258.878 13.45 259.018 13.55C259.178 13.63 259.438 13.69 259.798 13.73L262.078 14.03C262.658 14.11 263.138 14.27 263.518 14.51C263.898 14.75 264.198 15.18 264.418 15.8C264.638 16.42 264.748 17.3 264.748 18.44C264.748 20.26 264.368 21.52 263.608 22.22C262.868 22.9 261.698 23.24 260.098 23.24ZM268.023 23V10.49H266.013V7.7H268.023V3.26H271.263V7.7H273.723V10.49H271.263V23H268.023ZM276.814 16.73C276.694 15.43 276.514 13.23 276.274 10.13C276.054 7.03 275.944 5.02 275.944 4.1V2.36H279.904V4.1C279.904 5.02 279.784 7.03 279.544 10.13C279.324 13.23 279.154 15.43 279.034 16.73H276.814ZM276.124 23V19.46H279.724V23H276.124ZM288.807 23V2.36H298.167V5.45H292.227V11.51H297.507V14.6H292.227V23H288.807ZM300.433 4.01V0.709999H303.733V4.01H300.433ZM300.463 23V7.7H303.703V23H300.463ZM306.879 23V0.709999H310.119V23H306.879ZM313.295 23V0.709999H316.535V23H313.295ZM330.198 23.24C328.538 23.24 327.338 23.02 326.598 22.58C325.858 22.14 325.378 21.4 325.158 20.36C324.958 19.32 324.858 17.65 324.858 15.35C324.858 13.03 324.958 11.35 325.158 10.31C325.378 9.27 325.858 8.54 326.598 8.12C327.338 7.68 328.538 7.46 330.198 7.46C331.858 7.46 333.058 7.68 333.798 8.12C334.538 8.54 335.008 9.27 335.208 10.31C335.428 11.35 335.538 13.03 335.538 15.35C335.538 17.65 335.428 19.32 335.208 20.36C335.008 21.4 334.538 22.14 333.798 22.58C333.058 23.02 331.858 23.24 330.198 23.24ZM330.198 20.45C330.918 20.45 331.408 20.35 331.668 20.15C331.948 19.93 332.118 19.5 332.178 18.86C332.258 18.22 332.298 17.05 332.298 15.35C332.298 13.63 332.258 12.46 332.178 11.84C332.118 11.2 331.948 10.78 331.668 10.58C331.408 10.36 330.918 10.25 330.198 10.25C329.478 10.25 328.978 10.36 328.698 10.58C328.438 10.78 328.268 11.2 328.188 11.84C328.128 12.46 328.097 13.63 328.097 15.35C328.097 17.05 328.128 18.22 328.188 18.86C328.268 19.5 328.438 19.93 328.698 20.15C328.978 20.35 329.478 20.45 330.198 20.45ZM345.485 21.08H345.305C345.045 21.84 344.625 22.39 344.045 22.73C343.465 23.07 342.725 23.24 341.825 23.24C340.825 23.24 340.065 23.05 339.545 22.67C339.025 22.27 338.675 21.68 338.495 20.9C338.335 20.1 338.255 19.01 338.255 17.63V7.7H341.495V16.13C341.495 17.49 341.525 18.44 341.585 18.98C341.665 19.5 341.825 19.84 342.065 20C342.305 20.14 342.725 20.21 343.325 20.21C343.965 20.21 344.425 20.08 344.705 19.82C344.985 19.56 345.165 19.13 345.245 18.53C345.325 17.93 345.365 16.98 345.365 15.68V7.7H348.605V23H345.605L345.485 21.08ZM352.691 23V10.49H350.681V7.7H352.691V3.26H355.931V7.7H358.391V10.49H355.931V23H352.691ZM366.988 23V10.49H364.978V7.7H366.988V3.26H370.228V7.7H372.688V10.49H370.228V23H366.988ZM381.929 14.57C381.929 13.23 381.889 12.29 381.809 11.75C381.729 11.21 381.569 10.87 381.329 10.73C381.089 10.57 380.669 10.49 380.069 10.49C379.429 10.49 378.969 10.63 378.689 10.91C378.409 11.17 378.229 11.59 378.149 12.17C378.089 12.75 378.059 13.7 378.059 15.02V23H374.819V0.709999H378.059V9.5H378.209C378.469 8.8 378.879 8.29 379.439 7.97C379.999 7.63 380.719 7.46 381.599 7.46C382.579 7.46 383.329 7.66 383.849 8.06C384.369 8.44 384.719 9.02 384.899 9.8C385.079 10.56 385.169 11.61 385.169 12.95V23H381.929V14.57ZM398.225 16.46H391.115C391.115 17.76 391.175 18.67 391.295 19.19C391.415 19.69 391.675 20.03 392.075 20.21C392.475 20.37 393.175 20.45 394.175 20.45C395.135 20.45 396.365 20.37 397.865 20.21V22.76C397.365 22.9 396.695 23.01 395.855 23.09C395.035 23.19 394.235 23.24 393.455 23.24C391.775 23.24 390.535 22.99 389.735 22.49C388.955 21.97 388.445 21.19 388.205 20.15C387.985 19.09 387.875 17.5 387.875 15.38C387.875 13.28 387.985 11.7 388.205 10.64C388.425 9.58 388.915 8.79 389.675 8.27C390.435 7.73 391.625 7.46 393.245 7.46C394.845 7.46 395.985 7.72 396.665 8.24C397.365 8.74 397.795 9.5 397.955 10.52C398.135 11.52 398.225 13.13 398.225 15.35V16.46ZM393.185 10.25C392.565 10.25 392.115 10.34 391.835 10.52C391.555 10.7 391.365 11.04 391.265 11.54C391.185 12.04 391.135 12.88 391.115 14.06H395.135V14.03C395.135 12.87 395.085 12.03 394.985 11.51C394.885 10.99 394.705 10.65 394.445 10.49C394.185 10.33 393.765 10.25 393.185 10.25ZM407.506 10.49H405.526V7.7H407.506V6.29C407.506 4.53 407.666 3.27 407.986 2.51C408.306 1.75 408.846 1.26 409.606 1.04C410.386 0.819999 411.636 0.709999 413.356 0.709999V3.23C412.556 3.23 411.976 3.28 411.616 3.38C411.276 3.48 411.046 3.69 410.926 4.01C410.806 4.33 410.746 4.85 410.746 5.57V7.7H413.356V10.49H410.746V23H407.506V10.49ZM420.256 23.24C418.596 23.24 417.396 23.02 416.656 22.58C415.916 22.14 415.436 21.4 415.216 20.36C415.016 19.32 414.916 17.65 414.916 15.35C414.916 13.03 415.016 11.35 415.216 10.31C415.436 9.27 415.916 8.54 416.656 8.12C417.396 7.68 418.596 7.46 420.256 7.46C421.916 7.46 423.116 7.68 423.856 8.12C424.596 8.54 425.066 9.27 425.266 10.31C425.486 11.35 425.596 13.03 425.596 15.35C425.596 17.65 425.486 19.32 425.266 20.36C425.066 21.4 424.596 22.14 423.856 22.58C423.116 23.02 421.916 23.24 420.256 23.24ZM420.256 20.45C420.976 20.45 421.466 20.35 421.726 20.15C422.006 19.93 422.176 19.5 422.236 18.86C422.316 18.22 422.356 17.05 422.356 15.35C422.356 13.63 422.316 12.46 422.236 11.84C422.176 11.2 422.006 10.78 421.726 10.58C421.466 10.36 420.976 10.25 420.256 10.25C419.536 10.25 419.036 10.36 418.756 10.58C418.496 10.78 418.326 11.2 418.246 11.84C418.186 12.46 418.156 13.63 418.156 15.35C418.156 17.05 418.186 18.22 418.246 18.86C418.326 19.5 418.496 19.93 418.756 20.15C419.036 20.35 419.536 20.45 420.256 20.45ZM428.373 23V0.709999H431.613V23H428.373ZM434.789 23V0.709999H438.029V23H434.789ZM446.125 23.24C444.465 23.24 443.265 23.02 442.525 22.58C441.785 22.14 441.305 21.4 441.085 20.36C440.885 19.32 440.785 17.65 440.785 15.35C440.785 13.03 440.885 11.35 441.085 10.31C441.305 9.27 441.785 8.54 442.525 8.12C443.265 7.68 444.465 7.46 446.125 7.46C447.785 7.46 448.985 7.68 449.725 8.12C450.465 8.54 450.935 9.27 451.135 10.31C451.355 11.35 451.465 13.03 451.465 15.35C451.465 17.65 451.355 19.32 451.135 20.36C450.935 21.4 450.465 22.14 449.725 22.58C448.985 23.02 447.785 23.24 446.125 23.24ZM446.125 20.45C446.845 20.45 447.335 20.35 447.595 20.15C447.875 19.93 448.045 19.5 448.105 18.86C448.185 18.22 448.225 17.05 448.225 15.35C448.225 13.63 448.185 12.46 448.105 11.84C448.045 11.2 447.875 10.78 447.595 10.58C447.335 10.36 446.845 10.25 446.125 10.25C445.405 10.25 444.905 10.36 444.625 10.58C444.365 10.78 444.195 11.2 444.115 11.84C444.055 12.46 444.025 13.63 444.025 15.35C444.025 17.05 444.055 18.22 444.115 18.86C444.195 19.5 444.365 19.93 444.625 20.15C444.905 20.35 445.405 20.45 446.125 20.45ZM463.789 23L461.959 13.58H461.719L459.889 23H455.839L452.869 7.7H456.109L457.909 18.89H458.119L460.279 7.7H463.489L465.679 18.89H465.889L467.659 7.7H470.749L467.809 23H463.789ZM472.845 4.01V0.709999H476.145V4.01H472.845ZM472.875 23V7.7H476.115V23H472.875ZM486.401 14.57C486.401 13.23 486.361 12.29 486.281 11.75C486.201 11.21 486.041 10.87 485.801 10.73C485.561 10.57 485.141 10.49 484.541 10.49C483.901 10.49 483.441 10.63 483.161 10.91C482.881 11.17 482.701 11.59 482.621 12.17C482.561 12.75 482.531 13.7 482.531 15.02V23H479.291V7.7H482.261L482.381 9.62H482.561C482.821 8.86 483.241 8.31 483.821 7.97C484.401 7.63 485.151 7.46 486.071 7.46C487.071 7.46 487.821 7.66 488.321 8.06C488.841 8.44 489.191 9.03 489.371 9.83C489.551 10.61 489.641 11.69 489.641 13.07V23H486.401V14.57ZM497.298 29C496.598 29 495.858 28.96 495.078 28.88C494.318 28.82 493.698 28.74 493.218 28.64V26.09L496.578 26.15C497.578 26.15 498.278 26.05 498.678 25.85C499.098 25.67 499.368 25.31 499.488 24.77C499.608 24.23 499.668 23.29 499.668 21.95V21.14H499.488C499.248 21.82 498.858 22.31 498.318 22.61C497.798 22.89 497.128 23.03 496.308 23.03C495.248 23.03 494.438 22.8 493.878 22.34C493.318 21.88 492.918 21.1 492.678 20C492.458 18.9 492.348 17.33 492.348 15.29C492.348 13.21 492.468 11.61 492.708 10.49C492.948 9.37 493.348 8.59 493.908 8.15C494.488 7.69 495.298 7.46 496.338 7.46C498.058 7.46 499.148 8.17 499.608 9.59H499.788L499.908 7.7H502.908V21.05C502.908 23.15 502.798 24.73 502.578 25.79C502.358 26.85 501.848 27.65 501.048 28.19C500.248 28.73 498.998 29 497.298 29ZM497.658 20.12C498.198 20.12 498.608 20.02 498.888 19.82C499.168 19.62 499.358 19.27 499.458 18.77C499.598 18.19 499.668 17.03 499.668 15.29C499.668 13.77 499.618 12.72 499.518 12.14C499.418 11.5 499.228 11.07 498.948 10.85C498.668 10.61 498.238 10.49 497.658 10.49C496.978 10.49 496.508 10.58 496.248 10.76C495.988 10.94 495.808 11.34 495.708 11.96C495.628 12.58 495.588 13.69 495.588 15.29C495.588 16.85 495.628 17.95 495.708 18.59C495.808 19.23 495.988 19.65 496.248 19.85C496.528 20.03 496.998 20.12 497.658 20.12ZM128.967 70.24C127.187 70.24 126.087 69.53 125.667 68.11H125.457L125.337 70H122.367V47.71H125.607V56.35H125.787C126.267 55.09 127.347 54.46 129.027 54.46C130.067 54.46 130.857 54.71 131.397 55.21C131.957 55.69 132.347 56.49 132.567 57.61C132.807 58.73 132.927 60.32 132.927 62.38C132.927 64.48 132.807 66.09 132.567 67.21C132.327 68.33 131.927 69.12 131.367 69.58C130.807 70.02 130.007 70.24 128.967 70.24ZM127.587 67.24C128.267 67.24 128.737 67.15 128.997 66.97C129.277 66.77 129.457 66.36 129.537 65.74C129.637 65.1 129.687 63.97 129.687 62.35C129.687 60.75 129.637 59.63 129.537 58.99C129.457 58.35 129.277 57.94 128.997 57.76C128.737 57.56 128.267 57.46 127.587 57.46C127.107 57.46 126.737 57.54 126.477 57.7C126.217 57.84 126.017 58.11 125.877 58.51C125.697 59.13 125.607 60.41 125.607 62.35C125.607 64.19 125.677 65.4 125.817 65.98C125.937 66.46 126.127 66.79 126.387 66.97C126.667 67.15 127.067 67.24 127.587 67.24ZM138.547 70.24C137.287 70.24 136.377 69.88 135.817 69.16C135.277 68.44 135.007 67.28 135.007 65.68C135.007 64.5 135.127 63.57 135.367 62.89C135.607 62.21 135.997 61.72 136.537 61.42C137.097 61.12 137.867 60.97 138.847 60.97C139.607 60.97 140.667 61.01 142.027 61.09V60.34C142.027 59.36 141.947 58.66 141.787 58.24C141.647 57.82 141.387 57.55 141.007 57.43C140.647 57.31 140.037 57.25 139.177 57.25C138.317 57.25 137.167 57.33 135.727 57.49V54.94C137.127 54.62 138.587 54.46 140.107 54.46C141.547 54.46 142.627 54.65 143.347 55.03C144.087 55.41 144.587 56.03 144.847 56.89C145.127 57.73 145.267 58.94 145.267 60.52V70H142.267L142.147 68.11H141.967C141.487 69.53 140.347 70.24 138.547 70.24ZM139.957 67.3C140.337 67.3 140.657 67.26 140.917 67.18C141.177 67.1 141.407 66.94 141.607 66.7C141.887 66.32 142.027 65.48 142.027 64.18V63.37H139.777C139.337 63.37 139.007 63.42 138.787 63.52C138.587 63.62 138.437 63.81 138.337 64.09C138.257 64.37 138.217 64.8 138.217 65.38C138.217 66.16 138.327 66.68 138.547 66.94C138.767 67.18 139.237 67.3 139.957 67.3ZM156.183 69.79C155.183 70.09 154.093 70.24 152.913 70.24C151.453 70.24 150.373 69.97 149.673 69.43C148.973 68.89 148.513 68.08 148.293 67C148.073 65.92 147.963 64.37 147.963 62.35C147.963 60.33 148.083 58.77 148.323 57.67C148.583 56.57 149.063 55.76 149.763 55.24C150.463 54.72 151.503 54.46 152.883 54.46C153.483 54.46 154.083 54.5 154.683 54.58C155.283 54.66 155.753 54.77 156.093 54.91V57.49C155.253 57.33 154.473 57.25 153.753 57.25C152.973 57.25 152.413 57.37 152.073 57.61C151.733 57.83 151.503 58.28 151.383 58.96C151.263 59.64 151.203 60.77 151.203 62.35C151.203 63.93 151.263 65.07 151.383 65.77C151.503 66.45 151.733 66.9 152.073 67.12C152.413 67.34 152.973 67.45 153.753 67.45C154.533 67.45 155.343 67.37 156.183 67.21V69.79ZM165.777 70L162.957 63.76H161.877V70H158.637V47.71H161.877V60.94H162.957L165.837 54.7H169.167L165.627 62.05L169.227 70H165.777ZM175.472 76C174.772 76 174.032 75.96 173.252 75.88C172.492 75.82 171.872 75.74 171.392 75.64V73.09L174.752 73.15C175.752 73.15 176.452 73.05 176.852 72.85C177.272 72.67 177.542 72.31 177.662 71.77C177.782 71.23 177.842 70.29 177.842 68.95V68.14H177.662C177.422 68.82 177.032 69.31 176.492 69.61C175.972 69.89 175.302 70.03 174.482 70.03C173.422 70.03 172.612 69.8 172.052 69.34C171.492 68.88 171.092 68.1 170.852 67C170.632 65.9 170.522 64.33 170.522 62.29C170.522 60.21 170.642 58.61 170.882 57.49C171.122 56.37 171.522 55.59 172.082 55.15C172.662 54.69 173.472 54.46 174.512 54.46C176.232 54.46 177.322 55.17 177.782 56.59H177.962L178.082 54.7H181.082V68.05C181.082 70.15 180.972 71.73 180.752 72.79C180.532 73.85 180.022 74.65 179.222 75.19C178.422 75.73 177.172 76 175.472 76ZM175.832 67.12C176.372 67.12 176.782 67.02 177.062 66.82C177.342 66.62 177.532 66.27 177.632 65.77C177.772 65.19 177.842 64.03 177.842 62.29C177.842 60.77 177.792 59.72 177.692 59.14C177.592 58.5 177.402 58.07 177.122 57.85C176.842 57.61 176.412 57.49 175.832 57.49C175.152 57.49 174.682 57.58 174.422 57.76C174.162 57.94 173.982 58.34 173.882 58.96C173.802 59.58 173.762 60.69 173.762 62.29C173.762 63.85 173.802 64.95 173.882 65.59C173.982 66.23 174.162 66.65 174.422 66.85C174.702 67.03 175.172 67.12 175.832 67.12ZM184.272 54.7H187.242L187.362 57.31H187.572C187.872 56.23 188.312 55.49 188.892 55.09C189.492 54.67 190.272 54.46 191.232 54.46V57.91C190.312 57.91 189.582 58.07 189.042 58.39C188.502 58.71 188.112 59.23 187.872 59.95C187.632 60.67 187.512 61.67 187.512 62.95V70H184.272V54.7ZM198.098 70.24C196.438 70.24 195.238 70.02 194.498 69.58C193.758 69.14 193.278 68.4 193.058 67.36C192.858 66.32 192.758 64.65 192.758 62.35C192.758 60.03 192.858 58.35 193.058 57.31C193.278 56.27 193.758 55.54 194.498 55.12C195.238 54.68 196.438 54.46 198.098 54.46C199.758 54.46 200.958 54.68 201.698 55.12C202.438 55.54 202.908 56.27 203.108 57.31C203.328 58.35 203.438 60.03 203.438 62.35C203.438 64.65 203.328 66.32 203.108 67.36C202.908 68.4 202.438 69.14 201.698 69.58C200.958 70.02 199.758 70.24 198.098 70.24ZM198.098 67.45C198.818 67.45 199.308 67.35 199.568 67.15C199.848 66.93 200.018 66.5 200.078 65.86C200.158 65.22 200.198 64.05 200.198 62.35C200.198 60.63 200.158 59.46 200.078 58.84C200.018 58.2 199.848 57.78 199.568 57.58C199.308 57.36 198.818 57.25 198.098 57.25C197.378 57.25 196.878 57.36 196.598 57.58C196.338 57.78 196.168 58.2 196.088 58.84C196.028 59.46 195.998 60.63 195.998 62.35C195.998 64.05 196.028 65.22 196.088 65.86C196.168 66.5 196.338 66.93 196.598 67.15C196.878 67.35 197.378 67.45 198.098 67.45ZM213.385 68.08H213.205C212.945 68.84 212.525 69.39 211.945 69.73C211.365 70.07 210.625 70.24 209.725 70.24C208.725 70.24 207.965 70.05 207.445 69.67C206.925 69.27 206.575 68.68 206.395 67.9C206.235 67.1 206.155 66.01 206.155 64.63V54.7H209.395V63.13C209.395 64.49 209.425 65.44 209.485 65.98C209.565 66.5 209.725 66.84 209.965 67C210.205 67.14 210.625 67.21 211.225 67.21C211.865 67.21 212.325 67.08 212.605 66.82C212.885 66.56 213.065 66.13 213.145 65.53C213.225 64.93 213.265 63.98 213.265 62.68V54.7H216.505V70H213.505L213.385 68.08ZM226.802 61.57C226.802 60.23 226.762 59.29 226.682 58.75C226.602 58.21 226.442 57.87 226.202 57.73C225.962 57.57 225.542 57.49 224.942 57.49C224.302 57.49 223.842 57.63 223.562 57.91C223.282 58.17 223.102 58.59 223.022 59.17C222.962 59.75 222.932 60.7 222.932 62.02V70H219.692V54.7H222.662L222.782 56.62H222.962C223.222 55.86 223.642 55.31 224.222 54.97C224.802 54.63 225.552 54.46 226.472 54.46C227.472 54.46 228.222 54.66 228.722 55.06C229.242 55.44 229.592 56.03 229.772 56.83C229.952 57.61 230.042 58.69 230.042 60.07V70H226.802V61.57ZM236.738 70.24C235.698 70.24 234.888 70.02 234.308 69.58C233.748 69.12 233.348 68.33 233.108 67.21C232.868 66.09 232.748 64.49 232.748 62.41C232.748 60.35 232.858 58.76 233.078 57.64C233.318 56.5 233.718 55.69 234.278 55.21C234.838 54.71 235.638 54.46 236.678 54.46C238.338 54.46 239.418 55.09 239.918 56.35H240.098V47.71H243.338V70H240.338L240.218 68.11H240.008C239.588 69.53 238.498 70.24 236.738 70.24ZM238.088 67.24C238.588 67.24 238.968 67.16 239.228 67C239.488 66.82 239.688 66.52 239.828 66.1C240.008 65.46 240.098 64.21 240.098 62.35C240.098 60.81 240.048 59.74 239.948 59.14C239.848 58.5 239.658 58.06 239.378 57.82C239.098 57.58 238.668 57.46 238.088 57.46C237.408 57.46 236.928 57.56 236.648 57.76C236.388 57.94 236.208 58.35 236.108 58.99C236.028 59.63 235.988 60.75 235.988 62.35C235.988 63.95 236.028 65.07 236.108 65.71C236.208 66.35 236.388 66.77 236.648 66.97C236.928 67.15 237.408 67.24 238.088 67.24ZM252.064 51.01V47.71H255.364V51.01H252.064ZM252.094 70V54.7H255.334V70H252.094ZM265.62 61.57C265.62 60.23 265.58 59.29 265.5 58.75C265.42 58.21 265.26 57.87 265.02 57.73C264.78 57.57 264.36 57.49 263.76 57.49C263.12 57.49 262.66 57.63 262.38 57.91C262.1 58.17 261.92 58.59 261.84 59.17C261.78 59.75 261.75 60.7 261.75 62.02V70H258.51V54.7H261.48L261.6 56.62H261.78C262.04 55.86 262.46 55.31 263.04 54.97C263.62 54.63 264.37 54.46 265.29 54.46C266.29 54.46 267.04 54.66 267.54 55.06C268.06 55.44 268.41 56.03 268.59 56.83C268.77 57.61 268.86 58.69 268.86 60.07V70H265.62V61.57ZM272.886 57.49H270.906V54.7H272.886V53.29C272.886 51.53 273.046 50.27 273.366 49.51C273.686 48.75 274.226 48.26 274.986 48.04C275.766 47.82 277.016 47.71 278.736 47.71V50.23C277.936 50.23 277.356 50.28 276.996 50.38C276.656 50.48 276.426 50.69 276.306 51.01C276.186 51.33 276.126 51.85 276.126 52.57V54.7H278.736V57.49H276.126V70H272.886V57.49ZM285.637 70.24C283.977 70.24 282.777 70.02 282.037 69.58C281.297 69.14 280.817 68.4 280.597 67.36C280.397 66.32 280.297 64.65 280.297 62.35C280.297 60.03 280.397 58.35 280.597 57.31C280.817 56.27 281.297 55.54 282.037 55.12C282.777 54.68 283.977 54.46 285.637 54.46C287.297 54.46 288.497 54.68 289.237 55.12C289.977 55.54 290.447 56.27 290.647 57.31C290.867 58.35 290.977 60.03 290.977 62.35C290.977 64.65 290.867 66.32 290.647 67.36C290.447 68.4 289.977 69.14 289.237 69.58C288.497 70.02 287.297 70.24 285.637 70.24ZM285.637 67.45C286.357 67.45 286.847 67.35 287.107 67.15C287.387 66.93 287.557 66.5 287.617 65.86C287.697 65.22 287.737 64.05 287.737 62.35C287.737 60.63 287.697 59.46 287.617 58.84C287.557 58.2 287.387 57.78 287.107 57.58C286.847 57.36 286.357 57.25 285.637 57.25C284.917 57.25 284.417 57.36 284.137 57.58C283.877 57.78 283.707 58.2 283.627 58.84C283.567 59.46 283.537 60.63 283.537 62.35C283.537 64.05 283.567 65.22 283.627 65.86C283.707 66.5 283.877 66.93 284.137 67.15C284.417 67.35 284.917 67.45 285.637 67.45ZM293.754 54.7H296.724L296.844 57.31H297.054C297.354 56.23 297.794 55.49 298.374 55.09C298.974 54.67 299.754 54.46 300.714 54.46V57.91C299.794 57.91 299.064 58.07 298.524 58.39C297.984 58.71 297.594 59.23 297.354 59.95C297.114 60.67 296.994 61.67 296.994 62.95V70H293.754V54.7ZM316.577 61.57C316.577 60.21 316.537 59.27 316.457 58.75C316.397 58.21 316.257 57.87 316.037 57.73C315.817 57.57 315.417 57.49 314.837 57.49C314.237 57.49 313.797 57.62 313.517 57.88C313.257 58.14 313.087 58.57 313.007 59.17C312.947 59.75 312.917 60.7 312.917 62.02V70H309.677V61.57C309.677 60.21 309.637 59.27 309.557 58.75C309.497 58.21 309.357 57.87 309.137 57.73C308.917 57.57 308.517 57.49 307.937 57.49C307.337 57.49 306.907 57.62 306.647 57.88C306.387 58.14 306.217 58.57 306.137 59.17C306.077 59.75 306.047 60.7 306.047 62.02V70H302.807V54.7H305.777L305.897 56.62H306.077C306.357 55.86 306.767 55.31 307.307 54.97C307.847 54.63 308.577 54.46 309.497 54.46C310.477 54.46 311.207 54.63 311.687 54.97C312.187 55.31 312.527 55.86 312.707 56.62H312.887C313.147 55.86 313.557 55.31 314.117 54.97C314.677 54.63 315.427 54.46 316.367 54.46C317.307 54.46 318.017 54.65 318.497 55.03C318.997 55.41 319.337 55.99 319.517 56.77C319.717 57.53 319.817 58.58 319.817 59.92V70H316.577V61.57ZM325.754 70.24C324.494 70.24 323.584 69.88 323.024 69.16C322.484 68.44 322.214 67.28 322.214 65.68C322.214 64.5 322.334 63.57 322.574 62.89C322.814 62.21 323.204 61.72 323.744 61.42C324.304 61.12 325.074 60.97 326.054 60.97C326.814 60.97 327.874 61.01 329.234 61.09V60.34C329.234 59.36 329.154 58.66 328.994 58.24C328.854 57.82 328.594 57.55 328.214 57.43C327.854 57.31 327.244 57.25 326.384 57.25C325.524 57.25 324.374 57.33 322.934 57.49V54.94C324.334 54.62 325.794 54.46 327.314 54.46C328.754 54.46 329.834 54.65 330.554 55.03C331.294 55.41 331.794 56.03 332.054 56.89C332.334 57.73 332.474 58.94 332.474 60.52V70H329.474L329.354 68.11H329.174C328.694 69.53 327.554 70.24 325.754 70.24ZM327.164 67.3C327.544 67.3 327.864 67.26 328.124 67.18C328.384 67.1 328.614 66.94 328.814 66.7C329.094 66.32 329.234 65.48 329.234 64.18V63.37H326.984C326.544 63.37 326.214 63.42 325.994 63.52C325.794 63.62 325.644 63.81 325.544 64.09C325.464 64.37 325.424 64.8 325.424 65.38C325.424 66.16 325.534 66.68 325.754 66.94C325.974 67.18 326.444 67.3 327.164 67.3ZM336.344 70V57.49H334.334V54.7H336.344V50.26H339.584V54.7H342.044V57.49H339.584V70H336.344ZM344.144 51.01V47.71H347.444V51.01H344.144ZM344.174 70V54.7H347.414V70H344.174ZM355.51 70.24C353.85 70.24 352.65 70.02 351.91 69.58C351.17 69.14 350.69 68.4 350.47 67.36C350.27 66.32 350.17 64.65 350.17 62.35C350.17 60.03 350.27 58.35 350.47 57.31C350.69 56.27 351.17 55.54 351.91 55.12C352.65 54.68 353.85 54.46 355.51 54.46C357.17 54.46 358.37 54.68 359.11 55.12C359.85 55.54 360.32 56.27 360.52 57.31C360.74 58.35 360.85 60.03 360.85 62.35C360.85 64.65 360.74 66.32 360.52 67.36C360.32 68.4 359.85 69.14 359.11 69.58C358.37 70.02 357.17 70.24 355.51 70.24ZM355.51 67.45C356.23 67.45 356.72 67.35 356.98 67.15C357.26 66.93 357.43 66.5 357.49 65.86C357.57 65.22 357.61 64.05 357.61 62.35C357.61 60.63 357.57 59.46 357.49 58.84C357.43 58.2 357.26 57.78 356.98 57.58C356.72 57.36 356.23 57.25 355.51 57.25C354.79 57.25 354.29 57.36 354.01 57.58C353.75 57.78 353.58 58.2 353.5 58.84C353.44 59.46 353.41 60.63 353.41 62.35C353.41 64.05 353.44 65.22 353.5 65.86C353.58 66.5 353.75 66.93 354.01 67.15C354.29 67.35 354.79 67.45 355.51 67.45ZM370.737 61.57C370.737 60.23 370.697 59.29 370.617 58.75C370.537 58.21 370.377 57.87 370.137 57.73C369.897 57.57 369.477 57.49 368.877 57.49C368.237 57.49 367.777 57.63 367.497 57.91C367.217 58.17 367.037 58.59 366.957 59.17C366.897 59.75 366.867 60.7 366.867 62.02V70H363.627V54.7H366.597L366.717 56.62H366.897C367.157 55.86 367.577 55.31 368.157 54.97C368.737 54.63 369.487 54.46 370.407 54.46C371.407 54.46 372.157 54.66 372.657 55.06C373.177 55.44 373.527 56.03 373.707 56.83C373.887 57.61 373.977 58.69 373.977 60.07V70H370.737V61.57ZM377.074 70V66.46H380.704V70H377.074Z" fill="white"/>
</svg>
