<svg width="1395" height="152" viewBox="0 0 1395 152" fill="none" xmlns="http://www.w3.org/2000/svg">
<path d="M28.975 74.3V64.475H43.675V93.95C41.875 94.45 39.65 94.85 37 95.15C34.4 95.45 31.975 95.6 29.725 95.6C24.875 95.6 21.25 94.875 18.85 93.425C16.5 91.975 14.85 89.425 13.9 85.775C13 82.125 12.55 76.6 12.55 69.2C12.55 61.9 13.025 56.425 13.975 52.775C14.975 49.075 16.725 46.5 19.225 45.05C21.725 43.55 25.5 42.8 30.55 42.8C32.7 42.8 35.025 42.95 37.525 43.25C40.025 43.55 42.025 43.925 43.525 44.375V53.825C41.925 53.625 40.175 53.45 38.275 53.3C36.425 53.15 35.025 53.075 34.075 53.075C30.775 53.075 28.55 53.325 27.4 53.825C26.25 54.325 25.475 55.625 25.075 57.725C24.675 59.775 24.475 63.6 24.475 69.2C24.475 74.45 24.575 78.15 24.775 80.3C25.025 82.45 25.525 83.9 26.275 84.65C27.025 85.35 28.3 85.7 30.1 85.7C30.95 85.7 31.875 85.65 32.875 85.55V74.3H28.975ZM49.7676 49.1V39.275H61.0176V49.1H49.7676ZM49.7676 95V56.75H61.0176V95H49.7676ZM72.2277 95L64.4277 56.75H75.6777L79.8027 83.6H80.4777L84.3777 56.75H95.4777L87.6777 95H72.2277ZM124.882 78.95H108.382C108.382 81.55 108.482 83.325 108.682 84.275C108.932 85.225 109.457 85.85 110.257 86.15C111.107 86.4 112.632 86.525 114.832 86.525C117.582 86.525 120.632 86.4 123.982 86.15V94.475C122.682 94.825 120.932 95.1 118.732 95.3C116.532 95.5 114.357 95.6 112.207 95.6C107.557 95.6 104.182 94.925 102.082 93.575C99.9824 92.225 98.6574 90.25 98.1074 87.65C97.5574 85.05 97.2824 81.15 97.2824 75.95C97.2824 70.8 97.5574 66.9 98.1074 64.25C98.7074 61.6 100.007 59.6 102.007 58.25C104.007 56.85 107.157 56.15 111.457 56.15C115.807 56.15 118.907 56.8 120.757 58.1C122.657 59.35 123.807 61.225 124.207 63.725C124.657 66.225 124.882 70.3 124.882 75.95V78.95ZM111.457 65C110.507 65 109.832 65.15 109.432 65.45C109.032 65.7 108.757 66.325 108.607 67.325C108.457 68.275 108.382 69.9 108.382 72.2H114.457C114.457 69.85 114.382 68.2 114.232 67.25C114.132 66.3 113.882 65.7 113.482 65.45C113.132 65.15 112.457 65 111.457 65ZM143.444 95V39.275H154.694V95H143.444ZM174.229 95.6C169.779 95.6 166.554 95.05 164.554 93.95C162.604 92.85 161.329 91 160.729 88.4C160.179 85.8 159.904 81.625 159.904 75.875C159.904 70.125 160.179 65.95 160.729 63.35C161.329 60.75 162.604 58.9 164.554 57.8C166.554 56.7 169.779 56.15 174.229 56.15C178.679 56.15 181.879 56.7 183.829 57.8C185.779 58.9 187.029 60.75 187.579 63.35C188.179 65.95 188.479 70.125 188.479 75.875C188.479 81.625 188.179 85.8 187.579 88.4C187.029 91 185.779 92.85 183.829 93.95C181.879 95.05 178.679 95.6 174.229 95.6ZM174.229 86.525C175.329 86.525 176.054 86.35 176.404 86C176.804 85.6 177.054 84.725 177.154 83.375C177.304 82.025 177.379 79.525 177.379 75.875C177.379 72.225 177.304 69.725 177.154 68.375C177.054 67.025 176.804 66.175 176.404 65.825C176.054 65.425 175.329 65.225 174.229 65.225C173.129 65.225 172.379 65.425 171.979 65.825C171.579 66.175 171.329 67.025 171.229 68.375C171.129 69.675 171.079 72.175 171.079 75.875C171.079 79.575 171.129 82.1 171.229 83.45C171.329 84.75 171.579 85.6 171.979 86C172.379 86.35 173.129 86.525 174.229 86.525ZM198.131 95L190.331 56.75H201.581L205.706 83.6H206.381L210.281 56.75H221.381L213.581 95H198.131ZM250.786 78.95H234.286C234.286 81.55 234.386 83.325 234.586 84.275C234.836 85.225 235.361 85.85 236.161 86.15C237.011 86.4 238.536 86.525 240.736 86.525C243.486 86.525 246.536 86.4 249.886 86.15V94.475C248.586 94.825 246.836 95.1 244.636 95.3C242.436 95.5 240.261 95.6 238.111 95.6C233.461 95.6 230.086 94.925 227.986 93.575C225.886 92.225 224.561 90.25 224.011 87.65C223.461 85.05 223.186 81.15 223.186 75.95C223.186 70.8 223.461 66.9 224.011 64.25C224.611 61.6 225.911 59.6 227.911 58.25C229.911 56.85 233.061 56.15 237.361 56.15C241.711 56.15 244.811 56.8 246.661 58.1C248.561 59.35 249.711 61.225 250.111 63.725C250.561 66.225 250.786 70.3 250.786 75.95V78.95ZM237.361 65C236.411 65 235.736 65.15 235.336 65.45C234.936 65.7 234.661 66.325 234.511 67.325C234.361 68.275 234.286 69.9 234.286 72.2H240.361C240.361 69.85 240.286 68.2 240.136 67.25C240.036 66.3 239.786 65.7 239.386 65.45C239.036 65.15 238.361 65 237.361 65ZM282.848 95.6C278.398 95.6 275.173 95.05 273.173 93.95C271.223 92.85 269.948 91 269.348 88.4C268.798 85.8 268.523 81.625 268.523 75.875C268.523 70.125 268.798 65.95 269.348 63.35C269.948 60.75 271.223 58.9 273.173 57.8C275.173 56.7 278.398 56.15 282.848 56.15C287.298 56.15 290.498 56.7 292.448 57.8C294.398 58.9 295.648 60.75 296.198 63.35C296.798 65.95 297.098 70.125 297.098 75.875C297.098 81.625 296.798 85.8 296.198 88.4C295.648 91 294.398 92.85 292.448 93.95C290.498 95.05 287.298 95.6 282.848 95.6ZM282.848 86.525C283.948 86.525 284.673 86.35 285.023 86C285.423 85.6 285.673 84.725 285.773 83.375C285.923 82.025 285.998 79.525 285.998 75.875C285.998 72.225 285.923 69.725 285.773 68.375C285.673 67.025 285.423 66.175 285.023 65.825C284.673 65.425 283.948 65.225 282.848 65.225C281.748 65.225 280.998 65.425 280.598 65.825C280.198 66.175 279.948 67.025 279.848 68.375C279.748 69.675 279.698 72.175 279.698 75.875C279.698 79.575 279.748 82.1 279.848 83.45C279.948 84.75 280.198 85.6 280.598 86C280.998 86.35 281.748 86.525 282.848 86.525ZM302.307 56.75H313.032L313.332 62.9H313.932C314.732 60.4 315.807 58.65 317.157 57.65C318.507 56.65 320.332 56.15 322.632 56.15V67.475C320.432 67.475 318.682 67.75 317.382 68.3C316.082 68.85 315.107 69.9 314.457 71.45C313.807 72.95 313.482 75.125 313.482 77.975V95H302.307V56.75ZM342.503 65.825H337.928V56.75H342.503V55.4C342.503 50.15 342.903 46.45 343.703 44.3C344.553 42.15 346.103 40.775 348.353 40.175C350.603 39.575 354.453 39.275 359.903 39.275V47.3C357.853 47.3 356.428 47.425 355.628 47.675C354.828 47.875 354.303 48.35 354.053 49.1C353.803 49.85 353.678 51.15 353.678 53V56.75H359.903V65.825H353.678V95H342.503V65.825ZM364.253 49.1V39.275H375.503V49.1H364.253ZM364.253 95V56.75H375.503V95H364.253ZM398.431 74.45C398.431 71.5 398.381 69.5 398.281 68.45C398.181 67.35 397.956 66.65 397.606 66.35C397.256 66.05 396.581 65.9 395.581 65.9C394.581 65.9 393.881 66.1 393.481 66.5C393.131 66.9 392.906 67.725 392.806 68.975C392.706 70.225 392.656 72.45 392.656 75.65V95H381.481V56.75H392.206L392.506 61.175H393.106C394.406 57.825 397.131 56.15 401.281 56.15C403.631 56.15 405.406 56.625 406.606 57.575C407.806 58.525 408.606 59.95 409.006 61.85C409.406 63.75 409.606 66.375 409.606 69.725V95H398.431V74.45ZM424.016 95.6C421.616 95.6 419.741 95.05 418.391 93.95C417.091 92.8 416.141 90.825 415.541 88.025C414.941 85.225 414.641 81.2 414.641 75.95C414.641 70.85 414.916 66.9 415.466 64.1C416.066 61.25 417.016 59.225 418.316 58.025C419.666 56.775 421.541 56.15 423.941 56.15C427.691 56.15 430.166 57.675 431.366 60.725H432.041V39.275H443.216V95H432.491L432.191 90.65H431.516C430.916 92.45 429.941 93.725 428.591 94.475C427.241 95.225 425.716 95.6 424.016 95.6ZM428.891 85.85C429.791 85.85 430.416 85.725 430.766 85.475C431.166 85.175 431.466 84.55 431.666 83.6C431.916 82.1 432.041 79.525 432.041 75.875C432.041 72.325 431.941 69.925 431.741 68.675C431.591 67.525 431.316 66.775 430.916 66.425C430.516 66.075 429.841 65.9 428.891 65.9C427.841 65.9 427.116 66.075 426.716 66.425C426.366 66.725 426.116 67.525 425.966 68.825C425.866 70.075 425.816 72.425 425.816 75.875C425.816 79.325 425.866 81.7 425.966 83C426.116 84.25 426.366 85.05 426.716 85.4C427.116 85.7 427.841 85.85 428.891 85.85ZM462.561 49.1V39.275H473.811V49.1H462.561ZM462.561 95V56.75H473.811V95H462.561ZM482.321 95V65.825H477.821V56.75H482.321V45.65H493.571V56.75H499.496V65.825H493.571V95H482.321ZM516.833 76.625V67.625H572.183V76.625H516.833ZM604.592 110.375C602.642 110.375 600.642 110.3 598.592 110.15C596.542 110 594.892 109.8 593.642 109.55V101.225C595.542 101.275 598.292 101.3 601.892 101.3C604.092 101.3 605.592 101.15 606.392 100.85C607.242 100.55 607.767 99.925 607.967 98.975C608.167 98.025 608.267 96.225 608.267 93.575V89.75H607.667C606.367 93.05 603.717 94.7 599.717 94.7C597.317 94.7 595.517 94.225 594.317 93.275C593.117 92.275 592.317 90.825 591.917 88.925C591.517 86.975 591.317 84.25 591.317 80.75V56.75H602.492V76.4C602.492 79.35 602.542 81.375 602.642 82.475C602.792 83.575 603.042 84.275 603.392 84.575C603.742 84.825 604.392 84.95 605.342 84.95C606.342 84.95 607.017 84.75 607.367 84.35C607.767 83.95 608.017 83.15 608.117 81.95C608.217 80.75 608.267 78.5 608.267 75.2V56.75H619.442V90.725C619.442 95.875 619.167 99.725 618.617 102.275C618.067 104.875 616.742 106.875 614.642 108.275C612.542 109.675 609.192 110.375 604.592 110.375ZM638.951 95.6C634.501 95.6 631.276 95.05 629.276 93.95C627.326 92.85 626.051 91 625.451 88.4C624.901 85.8 624.626 81.625 624.626 75.875C624.626 70.125 624.901 65.95 625.451 63.35C626.051 60.75 627.326 58.9 629.276 57.8C631.276 56.7 634.501 56.15 638.951 56.15C643.401 56.15 646.601 56.7 648.551 57.8C650.501 58.9 651.751 60.75 652.301 63.35C652.901 65.95 653.201 70.125 653.201 75.875C653.201 81.625 652.901 85.8 652.301 88.4C651.751 91 650.501 92.85 648.551 93.95C646.601 95.05 643.401 95.6 638.951 95.6ZM638.951 86.525C640.051 86.525 640.776 86.35 641.126 86C641.526 85.6 641.776 84.725 641.876 83.375C642.026 82.025 642.101 79.525 642.101 75.875C642.101 72.225 642.026 69.725 641.876 68.375C641.776 67.025 641.526 66.175 641.126 65.825C640.776 65.425 640.051 65.225 638.951 65.225C637.851 65.225 637.101 65.425 636.701 65.825C636.301 66.175 636.051 67.025 635.951 68.375C635.851 69.675 635.801 72.175 635.801 75.875C635.801 79.575 635.851 82.1 635.951 83.45C636.051 84.75 636.301 85.6 636.701 86C637.101 86.35 637.851 86.525 638.951 86.525ZM675.435 90.575H674.76C673.46 93.925 670.76 95.6 666.66 95.6C664.31 95.6 662.51 95.125 661.26 94.175C660.06 93.225 659.26 91.825 658.86 89.975C658.46 88.075 658.26 85.425 658.26 82.025V56.75H669.435V77.3C669.435 80.2 669.485 82.2 669.585 83.3C669.735 84.4 669.985 85.1 670.335 85.4C670.685 85.7 671.335 85.85 672.285 85.85C673.285 85.85 673.96 85.65 674.31 85.25C674.71 84.85 674.96 84.05 675.06 82.85C675.16 81.65 675.21 79.4 675.21 76.1V56.75H686.385V95H675.735L675.435 90.575ZM692.395 56.75H703.12L703.42 62.9H704.02C704.82 60.4 705.895 58.65 707.245 57.65C708.595 56.65 710.42 56.15 712.72 56.15V67.475C710.52 67.475 708.77 67.75 707.47 68.3C706.17 68.85 705.195 69.9 704.545 71.45C703.895 72.95 703.57 75.125 703.57 77.975V95H692.395V56.75ZM750.966 94.475C748.116 95.225 745.216 95.6 742.266 95.6C738.466 95.6 735.616 94.9 733.716 93.5C731.866 92.05 730.641 89.975 730.041 87.275C729.491 84.575 729.216 80.775 729.216 75.875C729.216 70.925 729.516 67.1 730.116 64.4C730.766 61.65 732.016 59.6 733.866 58.25C735.766 56.85 738.566 56.15 742.266 56.15C745.466 56.15 748.316 56.5 750.816 57.2V65.6C749.066 65.35 747.316 65.225 745.566 65.225C743.916 65.225 742.766 65.45 742.116 65.9C741.466 66.3 741.016 67.2 740.766 68.6C740.566 70 740.466 72.425 740.466 75.875C740.466 79.375 740.566 81.825 740.766 83.225C741.016 84.625 741.466 85.525 742.116 85.925C742.766 86.325 743.916 86.525 745.566 86.525C747.266 86.525 749.066 86.4 750.966 86.15V94.475ZM772.699 74.45C772.699 71.5 772.649 69.5 772.549 68.45C772.449 67.35 772.224 66.65 771.874 66.35C771.524 66.05 770.849 65.9 769.849 65.9C768.849 65.9 768.149 66.1 767.749 66.5C767.399 66.9 767.174 67.725 767.074 68.975C766.974 70.225 766.924 72.45 766.924 75.65V95H755.749V39.275H766.924V61.1H767.524C768.824 57.8 771.499 56.15 775.549 56.15C777.899 56.15 779.674 56.625 780.874 57.575C782.074 58.475 782.874 59.875 783.274 61.775C783.674 63.675 783.874 66.3 783.874 69.65V95H772.699V74.45ZM803.233 95.6C798.783 95.6 795.558 95.05 793.558 93.95C791.608 92.85 790.333 91 789.733 88.4C789.183 85.8 788.908 81.625 788.908 75.875C788.908 70.125 789.183 65.95 789.733 63.35C790.333 60.75 791.608 58.9 793.558 57.8C795.558 56.7 798.783 56.15 803.233 56.15C807.683 56.15 810.883 56.7 812.833 57.8C814.783 58.9 816.033 60.75 816.583 63.35C817.183 65.95 817.483 70.125 817.483 75.875C817.483 81.625 817.183 85.8 816.583 88.4C816.033 91 814.783 92.85 812.833 93.95C810.883 95.05 807.683 95.6 803.233 95.6ZM803.233 86.525C804.333 86.525 805.058 86.35 805.408 86C805.808 85.6 806.058 84.725 806.158 83.375C806.308 82.025 806.383 79.525 806.383 75.875C806.383 72.225 806.308 69.725 806.158 68.375C806.058 67.025 805.808 66.175 805.408 65.825C805.058 65.425 804.333 65.225 803.233 65.225C802.133 65.225 801.383 65.425 800.983 65.825C800.583 66.175 800.333 67.025 800.233 68.375C800.133 69.675 800.083 72.175 800.083 75.875C800.083 79.575 800.133 82.1 800.233 83.45C800.333 84.75 800.583 85.6 800.983 86C801.383 86.35 802.133 86.525 803.233 86.525ZM822.692 49.1V39.275H833.942V49.1H822.692ZM822.692 95V56.75H833.942V95H822.692ZM860.903 94.475C858.053 95.225 855.153 95.6 852.203 95.6C848.403 95.6 845.553 94.9 843.653 93.5C841.803 92.05 840.578 89.975 839.978 87.275C839.428 84.575 839.153 80.775 839.153 75.875C839.153 70.925 839.453 67.1 840.053 64.4C840.703 61.65 841.953 59.6 843.803 58.25C845.703 56.85 848.503 56.15 852.203 56.15C855.403 56.15 858.253 56.5 860.753 57.2V65.6C859.003 65.35 857.253 65.225 855.503 65.225C853.853 65.225 852.703 65.45 852.053 65.9C851.403 66.3 850.953 67.2 850.703 68.6C850.503 70 850.403 72.425 850.403 75.875C850.403 79.375 850.503 81.825 850.703 83.225C850.953 84.625 851.403 85.525 852.053 85.925C852.703 86.325 853.853 86.525 855.503 86.525C857.203 86.525 859.003 86.4 860.903 86.15V94.475ZM892.461 78.95H875.961C875.961 81.55 876.061 83.325 876.261 84.275C876.511 85.225 877.036 85.85 877.836 86.15C878.686 86.4 880.211 86.525 882.411 86.525C885.161 86.525 888.211 86.4 891.561 86.15V94.475C890.261 94.825 888.511 95.1 886.311 95.3C884.111 95.5 881.936 95.6 879.786 95.6C875.136 95.6 871.761 94.925 869.661 93.575C867.561 92.225 866.236 90.25 865.686 87.65C865.136 85.05 864.861 81.15 864.861 75.95C864.861 70.8 865.136 66.9 865.686 64.25C866.286 61.6 867.586 59.6 869.586 58.25C871.586 56.85 874.736 56.15 879.036 56.15C883.386 56.15 886.486 56.8 888.336 58.1C890.236 59.35 891.386 61.225 891.786 63.725C892.236 66.225 892.461 70.3 892.461 75.95V78.95ZM879.036 65C878.086 65 877.411 65.15 877.011 65.45C876.611 65.7 876.336 66.325 876.186 67.325C876.036 68.275 875.961 69.9 875.961 72.2H882.036C882.036 69.85 881.961 68.2 881.811 67.25C881.711 66.3 881.461 65.7 881.061 65.45C880.711 65.15 880.036 65 879.036 65ZM922.197 95.6C920.347 95.6 918.297 95.475 916.047 95.225C913.847 95.025 911.972 94.75 910.422 94.4V86.15C913.822 86.45 916.522 86.6 918.522 86.6C920.072 86.6 921.172 86.55 921.822 86.45C922.522 86.3 923.022 86.025 923.322 85.625C923.622 85.225 923.772 84.575 923.772 83.675C923.772 82.725 923.697 82.075 923.547 81.725C923.447 81.325 923.222 81.05 922.872 80.9C922.522 80.7 921.897 80.525 920.997 80.375L914.847 79.325C912.897 79.025 911.522 78 910.722 76.25C909.922 74.5 909.522 71.7 909.522 67.85C909.522 63.55 910.622 60.525 912.822 58.775C915.022 57.025 918.222 56.15 922.422 56.15C924.172 56.15 925.997 56.275 927.897 56.525C929.847 56.725 931.422 57 932.622 57.35V65.675C929.572 65.325 927.022 65.15 924.972 65.15C923.672 65.15 922.697 65.225 922.047 65.375C921.447 65.525 921.022 65.775 920.772 66.125C920.572 66.475 920.472 67.05 920.472 67.85C920.472 69.1 920.572 69.875 920.772 70.175C921.022 70.475 921.672 70.725 922.722 70.925L927.972 71.75C929.322 72 930.447 72.425 931.347 73.025C932.247 73.575 932.997 74.625 933.597 76.175C934.197 77.725 934.497 79.975 934.497 82.925C934.497 86.275 933.997 88.875 932.997 90.725C932.047 92.575 930.672 93.85 928.872 94.55C927.122 95.25 924.897 95.6 922.197 95.6ZM941.037 95V65.825H936.537V56.75H941.037V45.65H952.287V56.75H958.212V65.825H952.287V95H941.037ZM968.686 95.6C965.586 95.6 963.386 94.65 962.086 92.75C960.786 90.85 960.136 87.9 960.136 83.9C960.136 80.95 960.436 78.625 961.036 76.925C961.636 75.225 962.661 74 964.111 73.25C965.561 72.5 967.586 72.125 970.186 72.125C972.036 72.125 974.211 72.225 976.711 72.425V70.775C976.711 68.925 976.561 67.65 976.261 66.95C976.011 66.2 975.461 65.725 974.611 65.525C973.811 65.325 972.361 65.225 970.261 65.225C968.211 65.225 965.436 65.35 961.936 65.6V57.2C966.386 56.5 970.336 56.15 973.786 56.15C977.736 56.15 980.711 56.675 982.711 57.725C984.711 58.725 986.061 60.325 986.761 62.525C987.511 64.675 987.886 67.75 987.886 71.75V95H977.161L976.861 90.65H976.186C975.536 92.35 974.536 93.6 973.186 94.4C971.886 95.2 970.386 95.6 968.686 95.6ZM973.561 86.3C974.261 86.3 974.811 86.225 975.211 86.075C975.661 85.875 976.011 85.525 976.261 85.025C976.561 84.325 976.711 82.925 976.711 80.825V78.875H973.486C972.386 78.875 971.661 79.125 971.311 79.625C970.961 80.125 970.786 81.2 970.786 82.85C970.786 84.25 970.936 85.175 971.236 85.625C971.536 86.075 972.311 86.3 973.561 86.3ZM993.786 56.75H1004.51L1004.81 62.9H1005.41C1006.21 60.4 1007.29 58.65 1008.64 57.65C1009.99 56.65 1011.81 56.15 1014.11 56.15V67.475C1011.91 67.475 1010.16 67.75 1008.86 68.3C1007.56 68.85 1006.59 69.9 1005.94 71.45C1005.29 72.95 1004.96 75.125 1004.96 77.975V95H993.786V56.75ZM1021.6 95V65.825H1017.1V56.75H1021.6V45.65H1032.85V56.75H1038.78V65.825H1032.85V95H1021.6ZM1053.96 95.6C1052.11 95.6 1050.06 95.475 1047.81 95.225C1045.61 95.025 1043.74 94.75 1042.19 94.4V86.15C1045.59 86.45 1048.29 86.6 1050.29 86.6C1051.84 86.6 1052.94 86.55 1053.59 86.45C1054.29 86.3 1054.79 86.025 1055.09 85.625C1055.39 85.225 1055.54 84.575 1055.54 83.675C1055.54 82.725 1055.46 82.075 1055.31 81.725C1055.21 81.325 1054.99 81.05 1054.64 80.9C1054.29 80.7 1053.66 80.525 1052.76 80.375L1046.61 79.325C1044.66 79.025 1043.29 78 1042.49 76.25C1041.69 74.5 1041.29 71.7 1041.29 67.85C1041.29 63.55 1042.39 60.525 1044.59 58.775C1046.79 57.025 1049.99 56.15 1054.19 56.15C1055.94 56.15 1057.76 56.275 1059.66 56.525C1061.61 56.725 1063.19 57 1064.39 57.35V65.675C1061.34 65.325 1058.79 65.15 1056.74 65.15C1055.44 65.15 1054.46 65.225 1053.81 65.375C1053.21 65.525 1052.79 65.775 1052.54 66.125C1052.34 66.475 1052.24 67.05 1052.24 67.85C1052.24 69.1 1052.34 69.875 1052.54 70.175C1052.79 70.475 1053.44 70.725 1054.49 70.925L1059.74 71.75C1061.09 72 1062.21 72.425 1063.11 73.025C1064.01 73.575 1064.76 74.625 1065.36 76.175C1065.96 77.725 1066.26 79.975 1066.26 82.925C1066.26 86.275 1065.76 88.875 1064.76 90.725C1063.81 92.575 1062.44 93.85 1060.64 94.55C1058.89 95.25 1056.66 95.6 1053.96 95.6ZM1100.97 74.45C1100.97 71.5 1100.92 69.5 1100.82 68.45C1100.72 67.35 1100.5 66.65 1100.15 66.35C1099.8 66.05 1099.12 65.9 1098.12 65.9C1097.12 65.9 1096.42 66.1 1096.02 66.5C1095.67 66.9 1095.45 67.725 1095.35 68.975C1095.25 70.225 1095.2 72.45 1095.2 75.65V95H1084.02V39.275H1095.2V61.1H1095.8C1097.1 57.8 1099.77 56.15 1103.82 56.15C1106.17 56.15 1107.95 56.625 1109.15 57.575C1110.35 58.475 1111.15 59.875 1111.55 61.775C1111.95 63.675 1112.15 66.3 1112.15 69.65V95H1100.97V74.45ZM1144.78 78.95H1128.28C1128.28 81.55 1128.38 83.325 1128.58 84.275C1128.83 85.225 1129.35 85.85 1130.15 86.15C1131 86.4 1132.53 86.525 1134.73 86.525C1137.48 86.525 1140.53 86.4 1143.88 86.15V94.475C1142.58 94.825 1140.83 95.1 1138.63 95.3C1136.43 95.5 1134.25 95.6 1132.1 95.6C1127.45 95.6 1124.08 94.925 1121.98 93.575C1119.88 92.225 1118.55 90.25 1118 87.65C1117.45 85.05 1117.18 81.15 1117.18 75.95C1117.18 70.8 1117.45 66.9 1118 64.25C1118.6 61.6 1119.9 59.6 1121.9 58.25C1123.9 56.85 1127.05 56.15 1131.35 56.15C1135.7 56.15 1138.8 56.8 1140.65 58.1C1142.55 59.35 1143.7 61.225 1144.1 63.725C1144.55 66.225 1144.78 70.3 1144.78 75.95V78.95ZM1131.35 65C1130.4 65 1129.73 65.15 1129.33 65.45C1128.93 65.7 1128.65 66.325 1128.5 67.325C1128.35 68.275 1128.28 69.9 1128.28 72.2H1134.35C1134.35 69.85 1134.28 68.2 1134.13 67.25C1134.03 66.3 1133.78 65.7 1133.38 65.45C1133.03 65.15 1132.35 65 1131.35 65ZM1150.01 56.75H1160.74L1161.04 62.9H1161.64C1162.44 60.4 1163.51 58.65 1164.86 57.65C1166.21 56.65 1168.04 56.15 1170.34 56.15V67.475C1168.14 67.475 1166.39 67.75 1165.09 68.3C1163.79 68.85 1162.81 69.9 1162.16 71.45C1161.51 72.95 1161.19 75.125 1161.19 77.975V95H1150.01V56.75ZM1200.74 78.95H1184.24C1184.24 81.55 1184.34 83.325 1184.54 84.275C1184.79 85.225 1185.31 85.85 1186.11 86.15C1186.96 86.4 1188.49 86.525 1190.69 86.525C1193.44 86.525 1196.49 86.4 1199.84 86.15V94.475C1198.54 94.825 1196.79 95.1 1194.59 95.3C1192.39 95.5 1190.21 95.6 1188.06 95.6C1183.41 95.6 1180.04 94.925 1177.94 93.575C1175.84 92.225 1174.51 90.25 1173.96 87.65C1173.41 85.05 1173.14 81.15 1173.14 75.95C1173.14 70.8 1173.41 66.9 1173.96 64.25C1174.56 61.6 1175.86 59.6 1177.86 58.25C1179.86 56.85 1183.01 56.15 1187.31 56.15C1191.66 56.15 1194.76 56.8 1196.61 58.1C1198.51 59.35 1199.66 61.225 1200.06 63.725C1200.51 66.225 1200.74 70.3 1200.74 75.95V78.95ZM1187.31 65C1186.36 65 1185.69 65.15 1185.29 65.45C1184.89 65.7 1184.61 66.325 1184.46 67.325C1184.31 68.275 1184.24 69.9 1184.24 72.2H1190.31C1190.31 69.85 1190.24 68.2 1190.09 67.25C1189.99 66.3 1189.74 65.7 1189.34 65.45C1188.99 65.15 1188.31 65 1187.31 65ZM1206.79 95V84.275H1218.72V95H1206.79Z" fill="#A06EB1"/>
</svg>
