<svg width="724" height="132" viewBox="0 0 724 132" fill="none" xmlns="http://www.w3.org/2000/svg">
<path d="M44.76 104.39C44.6133 106.517 43.4767 107.983 41.35 108.79C39.2967 109.597 35.5567 110 30.13 110C24.7033 110 20.1567 109.523 16.49 108.57C12.8967 107.543 11.1 106.26 11.1 104.72C11.1 102.96 14.3633 91.74 20.89 71.06C27.4167 50.3067 31.1567 38.3533 32.11 35.2C32.4767 34.2467 35.41 33.4767 40.91 32.89C46.4833 32.23 52.4233 31.9 58.73 31.9C65.11 31.9 68.63 33 69.29 35.2C83.15 81.2533 90.08 104.647 90.08 105.38C90.08 106.113 89.64 106.847 88.76 107.58C86.7067 109.193 82.6367 110 76.55 110C63.57 110 56.9333 108.46 56.64 105.38L55.87 98.23H45.31L44.76 104.39ZM53.56 77.33L51.91 57.53H49.49L47.62 77.33H53.56ZM112.411 110.99C109.698 110.99 107.168 110.587 104.821 109.78C102.474 108.973 100.531 107.983 98.9909 106.81C97.5242 105.637 96.2409 104.06 95.1409 102.08C94.0409 100.1 93.1975 98.23 92.6109 96.47C92.0242 94.6367 91.5842 92.4 91.2909 89.76C90.8509 85.8733 90.6309 81.4367 90.6309 76.45C90.6309 66.2567 92.5009 58.52 96.2409 53.24C99.9809 47.8867 105.114 45.21 111.641 45.21C118.314 45.21 123.154 46.7867 126.161 49.94C126.821 50.6733 127.334 51.5533 127.701 52.58H128.581L127.261 44.99V31.24C127.261 29.6267 129.314 28.05 133.421 26.51C137.528 24.97 141.964 24.2 146.731 24.2C151.718 24.2 154.908 25.1533 156.301 27.06C156.814 27.7933 157.071 28.5267 157.071 29.26V107.36C157.071 108.167 155.018 108.827 150.911 109.34C146.878 109.78 142.954 110 139.141 110C135.401 110 132.981 109.89 131.881 109.67C130.854 109.377 130.194 109.083 129.901 108.79C129.681 108.497 129.534 108.02 129.461 107.36L128.581 101.09H127.701C127.041 103.657 125.721 105.82 123.741 107.58C121.248 109.853 117.471 110.99 112.411 110.99ZM124.731 94.93C125.904 94.93 126.784 94.1967 127.371 92.73V63.36C127.371 62.6267 126.968 62.0767 126.161 61.71C125.428 61.27 124.768 61.05 124.181 61.05C121.688 61.05 120.441 66.77 120.441 78.21C120.441 84.2967 120.771 88.6233 121.431 91.19C122.164 93.6833 123.264 94.93 124.731 94.93ZM198.658 110.99C193.158 110.99 188.428 110.513 184.468 109.56C180.508 108.607 176.914 106.92 173.688 104.5C167.014 99.66 163.678 90.64 163.678 77.44C163.678 65.7067 167.088 57.31 173.908 52.25C180.288 47.5567 188.538 45.21 198.658 45.21C202.984 45.21 206.688 45.43 209.768 45.87C212.848 46.2367 215.964 47.08 219.118 48.4C222.344 49.72 224.911 51.5167 226.818 53.79C228.798 56.0633 230.411 59.2167 231.658 63.25C232.904 67.21 233.528 71.94 233.528 77.44C233.528 88.5867 230.374 96.9833 224.068 102.63C217.761 108.203 209.291 110.99 198.658 110.99ZM194.808 89.54C195.321 92.18 195.834 93.7567 196.348 94.27C196.934 94.7833 197.668 95.04 198.548 95.04C199.501 95.04 200.234 94.7833 200.748 94.27C201.334 93.7567 201.848 92.18 202.288 89.54C202.801 86.9 203.058 83.6 203.058 79.64C203.058 75.6067 202.948 72.5267 202.728 70.4C202.581 68.2 202.361 66.5133 202.068 65.34C201.848 64.1667 201.518 63.25 201.078 62.59C200.418 61.6367 199.611 61.16 198.658 61.16C197.778 61.16 197.044 61.4533 196.458 62.04C195.871 62.5533 195.321 64.1667 194.808 66.88C194.294 69.52 194.038 73.2967 194.038 78.21C194.038 83.1233 194.294 86.9 194.808 89.54ZM240.08 123.31V53.35C240.08 51.81 242.134 50.2333 246.24 48.62C250.347 47.0067 254.784 46.2 259.55 46.2C261.75 46.2 263.474 46.4567 264.72 46.97C265.967 47.4833 266.737 47.9967 267.03 48.51C267.324 49.0233 267.874 51.2233 268.68 55.11H269.56C269.707 54.45 270.367 53.4233 271.54 52.03C272.714 50.6367 273.887 49.5 275.06 48.62C276.307 47.74 278.067 46.97 280.34 46.31C282.614 45.5767 285.254 45.21 288.26 45.21C291.34 45.21 294.127 45.9067 296.62 47.3C299.114 48.62 300.947 50.1967 302.12 52.03C303.367 53.79 304.32 56.0633 304.98 58.85C305.714 61.5633 306.117 63.7633 306.19 65.45C306.337 67.0633 306.41 69.4467 306.41 72.6C306.41 75.68 306.3 78.76 306.08 81.84C305.86 84.8467 305.457 87.9267 304.87 91.08C304.284 94.2333 303.44 96.9467 302.34 99.22C301.24 101.493 299.847 103.547 298.16 105.38C294.787 109.047 289.837 110.88 283.31 110.88C280.964 110.88 278.874 110.55 277.04 109.89C275.28 109.157 273.96 108.313 273.08 107.36C271.247 105.38 270.184 103.62 269.89 102.08L269.78 100.98H268.9L270.44 110.88V123.31C270.44 124.117 268.314 124.74 264.06 125.18C259.88 125.693 255.554 125.95 251.08 125.95C246.68 125.95 243.747 125.73 242.28 125.29C240.814 124.923 240.08 124.263 240.08 123.31ZM276.6 77.77C276.6 71.5367 276.27 67.1733 275.61 64.68C274.95 62.1867 273.96 60.94 272.64 60.94C271.32 60.94 270.367 61.6733 269.78 63.14V91.96C269.78 93.8667 270.77 94.82 272.75 94.82C275.317 94.82 276.6 89.1367 276.6 77.77ZM356.25 109.01C354.93 110.257 351.923 110.88 347.23 110.88C342.537 110.88 338.65 110.587 335.57 110C332.49 109.34 329.557 108.093 326.77 106.26C321.417 102.667 318.74 95.1867 318.74 83.82V66.66H313.24C312.433 66.66 311.737 65.8167 311.15 64.13C310.563 62.4433 310.27 60.1333 310.27 57.2C310.27 54.2667 310.71 51.7 311.59 49.5C312.543 47.2267 313.753 46.09 315.22 46.09H318.74V32.78C318.74 30.5067 320.94 28.6733 325.34 27.28C329.813 25.8867 334.177 25.19 338.43 25.19C345.103 25.19 348.44 26.84 348.44 30.14V46.09H356.58C358.487 46.09 359.44 48.84 359.44 54.34C359.44 57.9333 359 60.9033 358.12 63.25C357.313 65.5233 356.25 66.66 354.93 66.66H348.44V86.79C348.44 88.77 349.283 90.2 350.97 91.08C352.657 91.8867 354.123 92.29 355.37 92.29C356.69 92.29 357.497 92.9133 357.79 94.16C358.083 95.4067 358.23 97.2767 358.23 99.77C358.23 104.683 357.57 107.763 356.25 109.01ZM411.693 110.99C405.02 110.99 399.777 109.413 395.963 106.26C394.423 104.94 393.067 102.997 391.893 100.43C390.793 97.8633 390.243 94.8567 390.243 91.41C390.243 87.9633 391.05 84.9567 392.663 82.39C394.35 79.8233 396.367 77.8433 398.713 76.45C401.06 75.0567 403.81 73.92 406.963 73.04C411.73 71.7933 416.973 71.17 422.693 71.17H426.323C426.323 68.1633 425.297 66.0367 423.243 64.79C422.363 64.2767 421.007 64.02 419.173 64.02C417.413 64.02 415.25 64.4967 412.683 65.45C410.19 66.4033 408.1 67.3933 406.413 68.42C404.727 69.3733 403.59 69.85 403.003 69.85C401.683 69.85 399.887 68.1267 397.613 64.68C395.34 61.16 394.203 57.97 394.203 55.11C394.203 54.1567 395.56 52.91 398.273 51.37C400.987 49.83 404.8 48.4367 409.713 47.19C414.7 45.87 419.54 45.21 424.233 45.21C428.927 45.21 432.96 45.6133 436.333 46.42C439.78 47.1533 442.567 48.07 444.693 49.17C446.893 50.27 448.727 51.7367 450.193 53.57C451.733 55.4033 452.87 57.0533 453.603 58.52C454.41 59.9867 454.997 61.8933 455.363 64.24C455.877 66.9533 456.133 70.29 456.133 74.25V107.36C456.133 108.167 454.153 108.827 450.193 109.34C446.307 109.78 442.42 110 438.533 110C434.72 110 432.227 109.89 431.053 109.67C429.953 109.45 429.293 109.193 429.073 108.9C428.853 108.607 428.67 108.093 428.523 107.36L427.643 101.09H426.763C424.93 107.69 419.907 110.99 411.693 110.99ZM426.433 92.73V79.86C424.527 79.86 422.987 80.6667 421.813 82.28C420.64 83.8933 420.053 85.7267 420.053 87.78C420.053 92.62 421.153 95.04 423.353 95.04C424.307 95.04 425.04 94.82 425.553 94.38C426.14 93.8667 426.433 93.3167 426.433 92.73ZM488.547 123.31V53.35C488.547 51.81 490.601 50.2333 494.707 48.62C498.814 47.0067 503.251 46.2 508.017 46.2C510.217 46.2 511.941 46.4567 513.187 46.97C514.434 47.4833 515.204 47.9967 515.497 48.51C515.791 49.0233 516.341 51.2233 517.147 55.11H518.027C518.174 54.45 518.834 53.4233 520.007 52.03C521.181 50.6367 522.354 49.5 523.527 48.62C524.774 47.74 526.534 46.97 528.807 46.31C531.081 45.5767 533.721 45.21 536.727 45.21C539.807 45.21 542.594 45.9067 545.087 47.3C547.581 48.62 549.414 50.1967 550.587 52.03C551.834 53.79 552.787 56.0633 553.447 58.85C554.181 61.5633 554.584 63.7633 554.657 65.45C554.804 67.0633 554.877 69.4467 554.877 72.6C554.877 75.68 554.767 78.76 554.547 81.84C554.327 84.8467 553.924 87.9267 553.337 91.08C552.751 94.2333 551.907 96.9467 550.807 99.22C549.707 101.493 548.314 103.547 546.627 105.38C543.254 109.047 538.304 110.88 531.777 110.88C529.431 110.88 527.341 110.55 525.507 109.89C523.747 109.157 522.427 108.313 521.547 107.36C519.714 105.38 518.651 103.62 518.357 102.08L518.247 100.98H517.367L518.907 110.88V123.31C518.907 124.117 516.781 124.74 512.527 125.18C508.347 125.693 504.021 125.95 499.547 125.95C495.147 125.95 492.214 125.73 490.747 125.29C489.281 124.923 488.547 124.263 488.547 123.31ZM525.067 77.77C525.067 71.5367 524.737 67.1733 524.077 64.68C523.417 62.1867 522.427 60.94 521.107 60.94C519.787 60.94 518.834 61.6733 518.247 63.14V91.96C518.247 93.8667 519.237 94.82 521.217 94.82C523.784 94.82 525.067 89.1367 525.067 77.77ZM590.417 85.14C590.417 89.9067 592.69 92.29 597.237 92.29C599.877 92.29 603.323 91.41 607.577 89.65C611.83 87.8167 614.067 86.9 614.287 86.9C615.68 86.9 617.513 88.99 619.787 93.17C622.06 97.35 623.197 100.43 623.197 102.41C623.197 105.27 620.263 107.433 614.397 108.9C608.53 110.367 602.773 111.1 597.127 111.1C591.553 111.1 586.86 110.66 583.047 109.78C579.307 108.9 576.227 107.8 573.807 106.48C571.46 105.087 569.37 103.4 567.537 101.42C565.777 99.44 564.457 97.57 563.577 95.81C562.697 93.9767 562 91.96 561.487 89.76C560.753 86.5333 560.387 83.1967 560.387 79.75C560.387 66.4033 563.87 57.2 570.837 52.14C574.283 49.5733 578.133 47.7767 582.387 46.75C586.64 45.7233 591.663 45.21 597.457 45.21C616.01 45.21 625.287 51.6633 625.287 64.57C625.287 78.2833 614.873 85.14 594.047 85.14H590.417ZM590.197 69.08V76.34C592.323 76.34 594.047 75.4967 595.367 73.81C596.76 72.1233 597.457 70.07 597.457 67.65C597.457 63.25 596.32 61.05 594.047 61.05C591.48 61.05 590.197 63.7267 590.197 69.08ZM675.078 109.01C673.758 110.257 670.751 110.88 666.058 110.88C661.365 110.88 657.478 110.587 654.398 110C651.318 109.34 648.385 108.093 645.598 106.26C640.245 102.667 637.568 95.1867 637.568 83.82V66.66H632.068C631.261 66.66 630.565 65.8167 629.978 64.13C629.391 62.4433 629.098 60.1333 629.098 57.2C629.098 54.2667 629.538 51.7 630.418 49.5C631.371 47.2267 632.581 46.09 634.048 46.09H637.568V32.78C637.568 30.5067 639.768 28.6733 644.168 27.28C648.641 25.8867 653.005 25.19 657.258 25.19C663.931 25.19 667.268 26.84 667.268 30.14V46.09H675.408C677.315 46.09 678.268 48.84 678.268 54.34C678.268 57.9333 677.828 60.9033 676.948 63.25C676.141 65.5233 675.078 66.66 673.758 66.66H667.268V86.79C667.268 88.77 668.111 90.2 669.798 91.08C671.485 91.8867 672.951 92.29 674.198 92.29C675.518 92.29 676.325 92.9133 676.618 94.16C676.911 95.4067 677.058 97.2767 677.058 99.77C677.058 104.683 676.398 107.763 675.078 109.01ZM708.894 99.66C708.894 103.987 707.904 106.957 705.924 108.57C703.944 110.183 701.011 110.99 697.124 110.99C693.311 110.99 690.414 110.183 688.434 108.57C686.454 106.957 685.464 103.987 685.464 99.66C685.464 95.3333 686.454 92.4733 688.434 91.08C690.488 89.6133 693.421 88.88 697.234 88.88C701.048 88.88 703.944 89.6133 705.924 91.08C707.904 92.4733 708.894 95.3333 708.894 99.66Z" fill="#A06EB1"/>
</svg>
