<svg width="569" height="76" viewBox="0 0 569 76" fill="none" xmlns="http://www.w3.org/2000/svg">
<path d="M9.19676 23L3.61676 10.25H3.49676V23H0.196758V2.36H3.61676L8.95676 14.48H9.07676V2.36H12.3768V23H9.19676ZM20.6692 23.24C19.0092 23.24 17.8092 23.02 17.0692 22.58C16.3292 22.14 15.8492 21.4 15.6292 20.36C15.4292 19.32 15.3292 17.65 15.3292 15.35C15.3292 13.03 15.4292 11.35 15.6292 10.31C15.8492 9.27 16.3292 8.54 17.0692 8.12C17.8092 7.68 19.0092 7.46 20.6692 7.46C22.3292 7.46 23.5292 7.68 24.2692 8.12C25.0092 8.54 25.4792 9.27 25.6792 10.31C25.8992 11.35 26.0092 13.03 26.0092 15.35C26.0092 17.65 25.8992 19.32 25.6792 20.36C25.4792 21.4 25.0092 22.14 24.2692 22.58C23.5292 23.02 22.3292 23.24 20.6692 23.24ZM20.6692 20.45C21.3892 20.45 21.8792 20.35 22.1392 20.15C22.4192 19.93 22.5892 19.5 22.6492 18.86C22.7292 18.22 22.7692 17.05 22.7692 15.35C22.7692 13.63 22.7292 12.46 22.6492 11.84C22.5892 11.2 22.4192 10.78 22.1392 10.58C21.8792 10.36 21.3892 10.25 20.6692 10.25C19.9492 10.25 19.4492 10.36 19.1692 10.58C18.9092 10.78 18.7392 11.2 18.6592 11.84C18.5992 12.46 18.5692 13.63 18.5692 15.35C18.5692 17.05 18.5992 18.22 18.6592 18.86C18.7392 19.5 18.9092 19.93 19.1692 20.15C19.4492 20.35 19.9492 20.45 20.6692 20.45ZM38.3333 23L36.5033 13.58H36.2633L34.4333 23H30.3833L27.4133 7.7H30.6533L32.4533 18.89H32.6633L34.8233 7.7H38.0333L40.2233 18.89H40.4333L42.2033 7.7H45.2933L42.3533 23H38.3333ZM53.8855 10.49H51.9055V7.7H53.8855V6.29C53.8855 4.53 54.0455 3.27 54.3655 2.51C54.6855 1.75 55.2255 1.26 55.9855 1.04C56.7655 0.819999 58.0155 0.709999 59.7355 0.709999V3.23C58.9355 3.23 58.3555 3.28 57.9955 3.38C57.6555 3.48 57.4255 3.69 57.3055 4.01C57.1855 4.33 57.1255 4.85 57.1255 5.57V7.7H59.7355V10.49H57.1255V23H53.8855V10.49ZM61.8355 4.01V0.709999H65.1355V4.01H61.8355ZM61.8655 23V7.7H65.1055V23H61.8655ZM68.2785 23V0.709999H71.5185V23H68.2785ZM74.6945 23V0.709999H77.9345V23H74.6945ZM91.5969 23.24C89.9369 23.24 88.7369 23.02 87.9969 22.58C87.2569 22.14 86.7769 21.4 86.5569 20.36C86.3569 19.32 86.2569 17.65 86.2569 15.35C86.2569 13.03 86.3569 11.35 86.5569 10.31C86.7769 9.27 87.2569 8.54 87.9969 8.12C88.7369 7.68 89.9369 7.46 91.5969 7.46C93.2569 7.46 94.4569 7.68 95.1969 8.12C95.9369 8.54 96.4069 9.27 96.6069 10.31C96.8269 11.35 96.9369 13.03 96.9369 15.35C96.9369 17.65 96.8269 19.32 96.6069 20.36C96.4069 21.4 95.9369 22.14 95.1969 22.58C94.4569 23.02 93.2569 23.24 91.5969 23.24ZM91.5969 20.45C92.3169 20.45 92.8069 20.35 93.0669 20.15C93.3469 19.93 93.5169 19.5 93.5769 18.86C93.6569 18.22 93.6969 17.05 93.6969 15.35C93.6969 13.63 93.6569 12.46 93.5769 11.84C93.5169 11.2 93.3469 10.78 93.0669 10.58C92.8069 10.36 92.3169 10.25 91.5969 10.25C90.8769 10.25 90.3769 10.36 90.0969 10.58C89.8369 10.78 89.6669 11.2 89.5869 11.84C89.5269 12.46 89.4969 13.63 89.4969 15.35C89.4969 17.05 89.5269 18.22 89.5869 18.86C89.6669 19.5 89.8369 19.93 90.0969 20.15C90.3769 20.35 90.8769 20.45 91.5969 20.45ZM106.884 21.08H106.704C106.444 21.84 106.024 22.39 105.444 22.73C104.864 23.07 104.124 23.24 103.224 23.24C102.224 23.24 101.464 23.05 100.944 22.67C100.424 22.27 100.074 21.68 99.894 20.9C99.734 20.1 99.654 19.01 99.654 17.63V7.7H102.894V16.13C102.894 17.49 102.924 18.44 102.984 18.98C103.064 19.5 103.224 19.84 103.464 20C103.704 20.14 104.124 20.21 104.724 20.21C105.364 20.21 105.824 20.08 106.104 19.82C106.384 19.56 106.564 19.13 106.644 18.53C106.724 17.93 106.764 16.98 106.764 15.68V7.7H110.004V23H107.004L106.884 21.08ZM114.091 23V10.49H112.081V7.7H114.091V3.26H117.331V7.7H119.791V10.49H117.331V23H114.091ZM128.387 23V10.49H126.377V7.7H128.387V3.26H131.627V7.7H134.087V10.49H131.627V23H128.387ZM143.328 14.57C143.328 13.23 143.288 12.29 143.208 11.75C143.128 11.21 142.968 10.87 142.728 10.73C142.488 10.57 142.068 10.49 141.468 10.49C140.828 10.49 140.368 10.63 140.088 10.91C139.808 11.17 139.628 11.59 139.548 12.17C139.488 12.75 139.458 13.7 139.458 15.02V23H136.218V0.709999H139.458V9.5H139.608C139.868 8.8 140.278 8.29 140.838 7.97C141.398 7.63 142.118 7.46 142.998 7.46C143.978 7.46 144.728 7.66 145.248 8.06C145.768 8.44 146.118 9.02 146.298 9.8C146.478 10.56 146.568 11.61 146.568 12.95V23H143.328V14.57ZM159.624 16.46H152.514C152.514 17.76 152.574 18.67 152.694 19.19C152.814 19.69 153.074 20.03 153.474 20.21C153.874 20.37 154.574 20.45 155.574 20.45C156.534 20.45 157.764 20.37 159.264 20.21V22.76C158.764 22.9 158.094 23.01 157.254 23.09C156.434 23.19 155.634 23.24 154.854 23.24C153.174 23.24 151.934 22.99 151.134 22.49C150.354 21.97 149.844 21.19 149.604 20.15C149.384 19.09 149.274 17.5 149.274 15.38C149.274 13.28 149.384 11.7 149.604 10.64C149.824 9.58 150.314 8.79 151.074 8.27C151.834 7.73 153.024 7.46 154.644 7.46C156.244 7.46 157.384 7.72 158.064 8.24C158.764 8.74 159.194 9.5 159.354 10.52C159.534 11.52 159.624 13.13 159.624 15.35V16.46ZM154.584 10.25C153.964 10.25 153.514 10.34 153.234 10.52C152.954 10.7 152.764 11.04 152.664 11.54C152.584 12.04 152.534 12.88 152.514 14.06H156.534V14.03C156.534 12.87 156.484 12.03 156.384 11.51C156.284 10.99 156.104 10.65 155.844 10.49C155.584 10.33 155.164 10.25 154.584 10.25ZM168.905 10.49H166.925V7.7H168.905V6.29C168.905 4.53 169.065 3.27 169.385 2.51C169.705 1.75 170.245 1.26 171.005 1.04C171.785 0.819999 173.035 0.709999 174.755 0.709999V3.23C173.955 3.23 173.375 3.28 173.015 3.38C172.675 3.48 172.445 3.69 172.325 4.01C172.205 4.33 172.145 4.85 172.145 5.57V7.7H174.755V10.49H172.145V23H168.905V10.49ZM181.656 23.24C179.996 23.24 178.796 23.02 178.056 22.58C177.316 22.14 176.836 21.4 176.616 20.36C176.416 19.32 176.316 17.65 176.316 15.35C176.316 13.03 176.416 11.35 176.616 10.31C176.836 9.27 177.316 8.54 178.056 8.12C178.796 7.68 179.996 7.46 181.656 7.46C183.316 7.46 184.516 7.68 185.256 8.12C185.996 8.54 186.466 9.27 186.666 10.31C186.886 11.35 186.996 13.03 186.996 15.35C186.996 17.65 186.886 19.32 186.666 20.36C186.466 21.4 185.996 22.14 185.256 22.58C184.516 23.02 183.316 23.24 181.656 23.24ZM181.656 20.45C182.376 20.45 182.866 20.35 183.126 20.15C183.406 19.93 183.576 19.5 183.636 18.86C183.716 18.22 183.756 17.05 183.756 15.35C183.756 13.63 183.716 12.46 183.636 11.84C183.576 11.2 183.406 10.78 183.126 10.58C182.866 10.36 182.376 10.25 181.656 10.25C180.936 10.25 180.436 10.36 180.156 10.58C179.896 10.78 179.726 11.2 179.646 11.84C179.586 12.46 179.556 13.63 179.556 15.35C179.556 17.05 179.586 18.22 179.646 18.86C179.726 19.5 179.896 19.93 180.156 20.15C180.436 20.35 180.936 20.45 181.656 20.45ZM189.773 23V0.709999H193.013V23H189.773ZM196.189 23V0.709999H199.429V23H196.189ZM207.525 23.24C205.865 23.24 204.665 23.02 203.925 22.58C203.185 22.14 202.705 21.4 202.485 20.36C202.285 19.32 202.185 17.65 202.185 15.35C202.185 13.03 202.285 11.35 202.485 10.31C202.705 9.27 203.185 8.54 203.925 8.12C204.665 7.68 205.865 7.46 207.525 7.46C209.185 7.46 210.385 7.68 211.125 8.12C211.865 8.54 212.335 9.27 212.535 10.31C212.755 11.35 212.865 13.03 212.865 15.35C212.865 17.65 212.755 19.32 212.535 20.36C212.335 21.4 211.865 22.14 211.125 22.58C210.385 23.02 209.185 23.24 207.525 23.24ZM207.525 20.45C208.245 20.45 208.735 20.35 208.995 20.15C209.275 19.93 209.445 19.5 209.505 18.86C209.585 18.22 209.625 17.05 209.625 15.35C209.625 13.63 209.585 12.46 209.505 11.84C209.445 11.2 209.275 10.78 208.995 10.58C208.735 10.36 208.245 10.25 207.525 10.25C206.805 10.25 206.305 10.36 206.025 10.58C205.765 10.78 205.595 11.2 205.515 11.84C205.455 12.46 205.425 13.63 205.425 15.35C205.425 17.05 205.455 18.22 205.515 18.86C205.595 19.5 205.765 19.93 206.025 20.15C206.305 20.35 206.805 20.45 207.525 20.45ZM225.189 23L223.359 13.58H223.119L221.289 23H217.239L214.269 7.7H217.509L219.309 18.89H219.519L221.679 7.7H224.889L227.079 18.89H227.289L229.059 7.7H232.149L229.209 23H225.189ZM234.245 4.01V0.709999H237.545V4.01H234.245ZM234.275 23V7.7H237.515V23H234.275ZM247.801 14.57C247.801 13.23 247.761 12.29 247.681 11.75C247.601 11.21 247.441 10.87 247.201 10.73C246.961 10.57 246.541 10.49 245.941 10.49C245.301 10.49 244.841 10.63 244.561 10.91C244.281 11.17 244.101 11.59 244.021 12.17C243.961 12.75 243.931 13.7 243.931 15.02V23H240.691V7.7H243.661L243.781 9.62H243.961C244.221 8.86 244.641 8.31 245.221 7.97C245.801 7.63 246.551 7.46 247.471 7.46C248.471 7.46 249.221 7.66 249.721 8.06C250.241 8.44 250.591 9.03 250.771 9.83C250.951 10.61 251.041 11.69 251.041 13.07V23H247.801V14.57ZM258.697 29C257.997 29 257.257 28.96 256.477 28.88C255.717 28.82 255.097 28.74 254.617 28.64V26.09L257.977 26.15C258.977 26.15 259.677 26.05 260.077 25.85C260.497 25.67 260.767 25.31 260.887 24.77C261.007 24.23 261.067 23.29 261.067 21.95V21.14H260.887C260.647 21.82 260.257 22.31 259.717 22.61C259.197 22.89 258.527 23.03 257.707 23.03C256.647 23.03 255.837 22.8 255.277 22.34C254.717 21.88 254.317 21.1 254.077 20C253.857 18.9 253.747 17.33 253.747 15.29C253.747 13.21 253.867 11.61 254.107 10.49C254.347 9.37 254.747 8.59 255.307 8.15C255.887 7.69 256.697 7.46 257.737 7.46C259.457 7.46 260.547 8.17 261.007 9.59H261.187L261.307 7.7H264.307V21.05C264.307 23.15 264.197 24.73 263.977 25.79C263.757 26.85 263.247 27.65 262.447 28.19C261.647 28.73 260.397 29 258.697 29ZM259.057 20.12C259.597 20.12 260.007 20.02 260.287 19.82C260.567 19.62 260.757 19.27 260.857 18.77C260.997 18.19 261.067 17.03 261.067 15.29C261.067 13.77 261.017 12.72 260.917 12.14C260.817 11.5 260.627 11.07 260.347 10.85C260.067 10.61 259.637 10.49 259.057 10.49C258.377 10.49 257.907 10.58 257.647 10.76C257.387 10.94 257.207 11.34 257.107 11.96C257.027 12.58 256.987 13.69 256.987 15.29C256.987 16.85 257.027 17.95 257.107 18.59C257.207 19.23 257.387 19.65 257.647 19.85C257.927 20.03 258.397 20.12 259.057 20.12ZM279.994 21.29H279.814C279.314 22.59 278.234 23.24 276.574 23.24C275.534 23.24 274.734 23 274.174 22.52C273.614 22.04 273.214 21.24 272.974 20.12C272.754 18.98 272.644 17.38 272.644 15.32C272.644 13.22 272.764 11.61 273.004 10.49C273.244 9.37 273.644 8.59 274.204 8.15C274.784 7.69 275.594 7.46 276.634 7.46C278.394 7.46 279.484 8.17 279.904 9.59H280.114L280.234 7.7H283.234V28.79H279.994V21.29ZM277.984 20.24C278.544 20.24 278.954 20.14 279.214 19.94C279.494 19.72 279.694 19.33 279.814 18.77C279.934 18.19 279.994 17.05 279.994 15.35C279.994 14.35 279.974 13.57 279.934 13.01C279.914 12.45 279.844 12 279.724 11.66C279.624 11.22 279.434 10.91 279.154 10.73C278.894 10.55 278.504 10.46 277.984 10.46C277.304 10.46 276.824 10.56 276.544 10.76C276.284 10.94 276.104 11.35 276.004 11.99C275.924 12.63 275.884 13.75 275.884 15.35C275.884 16.95 275.924 18.07 276.004 18.71C276.104 19.35 276.284 19.77 276.544 19.97C276.824 20.15 277.304 20.24 277.984 20.24ZM293.593 21.08H293.413C293.153 21.84 292.733 22.39 292.153 22.73C291.573 23.07 290.833 23.24 289.933 23.24C288.933 23.24 288.173 23.05 287.653 22.67C287.133 22.27 286.783 21.68 286.603 20.9C286.443 20.1 286.363 19.01 286.363 17.63V7.7H289.603V16.13C289.603 17.49 289.633 18.44 289.693 18.98C289.773 19.5 289.933 19.84 290.173 20C290.413 20.14 290.833 20.21 291.433 20.21C292.073 20.21 292.533 20.08 292.813 19.82C293.093 19.56 293.273 19.13 293.353 18.53C293.433 17.93 293.473 16.98 293.473 15.68V7.7H296.713V23H293.713L293.593 21.08ZM302.72 23.24C301.46 23.24 300.55 22.88 299.99 22.16C299.45 21.44 299.18 20.28 299.18 18.68C299.18 17.5 299.3 16.57 299.54 15.89C299.78 15.21 300.17 14.72 300.71 14.42C301.27 14.12 302.04 13.97 303.02 13.97C303.78 13.97 304.84 14.01 306.2 14.09V13.34C306.2 12.36 306.12 11.66 305.96 11.24C305.82 10.82 305.56 10.55 305.18 10.43C304.82 10.31 304.21 10.25 303.35 10.25C302.49 10.25 301.34 10.33 299.9 10.49V7.94C301.3 7.62 302.76 7.46 304.28 7.46C305.72 7.46 306.8 7.65 307.52 8.03C308.26 8.41 308.76 9.03 309.02 9.89C309.3 10.73 309.44 11.94 309.44 13.52V23H306.44L306.32 21.11H306.14C305.66 22.53 304.52 23.24 302.72 23.24ZM304.13 20.3C304.51 20.3 304.83 20.26 305.09 20.18C305.35 20.1 305.58 19.94 305.78 19.7C306.06 19.32 306.2 18.48 306.2 17.18V16.37H303.95C303.51 16.37 303.18 16.42 302.96 16.52C302.76 16.62 302.61 16.81 302.51 17.09C302.43 17.37 302.39 17.8 302.39 18.38C302.39 19.16 302.5 19.68 302.72 19.94C302.94 20.18 303.41 20.3 304.13 20.3ZM312.556 23V0.709999H315.796V23H312.556ZM318.942 4.01V0.709999H322.242V4.01H318.942ZM318.972 23V7.7H322.212V23H318.972ZM326.288 23V10.49H324.278V7.7H326.288V3.26H329.528V7.7H331.988V10.49H329.528V23H326.288ZM334.088 4.01V0.709999H337.388V4.01H334.088ZM334.118 23V7.7H337.358V23H334.118ZM350.464 16.46H343.354C343.354 17.76 343.414 18.67 343.534 19.19C343.654 19.69 343.914 20.03 344.314 20.21C344.714 20.37 345.414 20.45 346.414 20.45C347.374 20.45 348.604 20.37 350.104 20.21V22.76C349.604 22.9 348.934 23.01 348.094 23.09C347.274 23.19 346.474 23.24 345.694 23.24C344.014 23.24 342.774 22.99 341.974 22.49C341.194 21.97 340.684 21.19 340.444 20.15C340.224 19.09 340.114 17.5 340.114 15.38C340.114 13.28 340.224 11.7 340.444 10.64C340.664 9.58 341.154 8.79 341.914 8.27C342.674 7.73 343.864 7.46 345.484 7.46C347.084 7.46 348.224 7.72 348.904 8.24C349.604 8.74 350.034 9.5 350.194 10.52C350.374 11.52 350.464 13.13 350.464 15.35V16.46ZM345.424 10.25C344.804 10.25 344.354 10.34 344.074 10.52C343.794 10.7 343.604 11.04 343.504 11.54C343.424 12.04 343.374 12.88 343.354 14.06H347.374V14.03C347.374 12.87 347.324 12.03 347.224 11.51C347.124 10.99 346.944 10.65 346.684 10.49C346.424 10.33 346.004 10.25 345.424 10.25ZM357.298 23.24C356.638 23.24 355.898 23.2 355.078 23.12C354.278 23.04 353.578 22.94 352.978 22.82V20.21C354.418 20.37 355.628 20.45 356.608 20.45C357.228 20.45 357.688 20.4 357.988 20.3C358.288 20.18 358.488 20 358.588 19.76C358.688 19.52 358.738 19.16 358.738 18.68C358.738 18.12 358.708 17.73 358.648 17.51C358.588 17.27 358.478 17.11 358.318 17.03C358.158 16.93 357.878 16.85 357.478 16.79L354.808 16.4C353.988 16.28 353.418 15.9 353.098 15.26C352.778 14.62 352.618 13.55 352.618 12.05C352.618 10.33 353.028 9.14 353.848 8.48C354.668 7.8 355.878 7.46 357.478 7.46C358.138 7.46 358.818 7.51 359.518 7.61C360.238 7.69 360.818 7.8 361.258 7.94V10.52C360.138 10.34 359.018 10.25 357.898 10.25C357.118 10.25 356.578 10.37 356.278 10.61C355.998 10.83 355.858 11.29 355.858 11.99C355.858 12.49 355.878 12.85 355.918 13.07C355.978 13.29 356.078 13.45 356.218 13.55C356.378 13.63 356.638 13.69 356.998 13.73L359.278 14.03C359.858 14.11 360.338 14.27 360.718 14.51C361.098 14.75 361.398 15.18 361.618 15.8C361.838 16.42 361.948 17.3 361.948 18.44C361.948 20.26 361.568 21.52 360.808 22.22C360.068 22.9 358.898 23.24 357.298 23.24ZM374.776 29C374.056 29 373.316 28.97 372.556 28.91C371.816 28.85 371.206 28.78 370.726 28.7V26.09C371.926 26.13 373.036 26.15 374.056 26.15C375.036 26.15 375.726 26.05 376.126 25.85C376.546 25.65 376.806 25.28 376.906 24.74C377.026 24.22 377.086 23.32 377.086 22.04V21.05H376.876C376.456 22.39 375.356 23.06 373.576 23.06C372.496 23.06 371.696 22.84 371.176 22.4C370.676 21.96 370.346 21.3 370.186 20.42C370.046 19.54 369.976 18.26 369.976 16.58V7.7H373.216V16.01C373.216 17.39 373.246 18.35 373.306 18.89C373.386 19.41 373.546 19.75 373.786 19.91C374.026 20.05 374.446 20.12 375.046 20.12C375.686 20.12 376.146 19.99 376.426 19.73C376.726 19.47 376.906 19.05 376.966 18.47C377.046 17.89 377.086 16.93 377.086 15.59V7.7H380.326V21.08C380.326 23.16 380.206 24.73 379.966 25.79C379.746 26.85 379.246 27.65 378.466 28.19C377.686 28.73 376.456 29 374.776 29ZM388.433 23.24C386.773 23.24 385.573 23.02 384.833 22.58C384.093 22.14 383.613 21.4 383.393 20.36C383.193 19.32 383.093 17.65 383.093 15.35C383.093 13.03 383.193 11.35 383.393 10.31C383.613 9.27 384.093 8.54 384.833 8.12C385.573 7.68 386.773 7.46 388.433 7.46C390.093 7.46 391.293 7.68 392.033 8.12C392.773 8.54 393.243 9.27 393.443 10.31C393.663 11.35 393.773 13.03 393.773 15.35C393.773 17.65 393.663 19.32 393.443 20.36C393.243 21.4 392.773 22.14 392.033 22.58C391.293 23.02 390.093 23.24 388.433 23.24ZM388.433 20.45C389.153 20.45 389.643 20.35 389.903 20.15C390.183 19.93 390.353 19.5 390.413 18.86C390.493 18.22 390.533 17.05 390.533 15.35C390.533 13.63 390.493 12.46 390.413 11.84C390.353 11.2 390.183 10.78 389.903 10.58C389.643 10.36 389.153 10.25 388.433 10.25C387.713 10.25 387.213 10.36 386.933 10.58C386.673 10.78 386.503 11.2 386.423 11.84C386.363 12.46 386.333 13.63 386.333 15.35C386.333 17.05 386.363 18.22 386.423 18.86C386.503 19.5 386.673 19.93 386.933 20.15C387.213 20.35 387.713 20.45 388.433 20.45ZM403.72 21.08H403.54C403.28 21.84 402.86 22.39 402.28 22.73C401.7 23.07 400.96 23.24 400.06 23.24C399.06 23.24 398.3 23.05 397.78 22.67C397.26 22.27 396.91 21.68 396.73 20.9C396.57 20.1 396.49 19.01 396.49 17.63V7.7H399.73V16.13C399.73 17.49 399.76 18.44 399.82 18.98C399.9 19.5 400.06 19.84 400.3 20C400.54 20.14 400.96 20.21 401.56 20.21C402.2 20.21 402.66 20.08 402.94 19.82C403.22 19.56 403.4 19.13 403.48 18.53C403.56 17.93 403.6 16.98 403.6 15.68V7.7H406.84V23H403.84L403.72 21.08ZM418.413 23.24C417.153 23.24 416.243 22.88 415.683 22.16C415.143 21.44 414.873 20.28 414.873 18.68C414.873 17.5 414.993 16.57 415.233 15.89C415.473 15.21 415.863 14.72 416.403 14.42C416.963 14.12 417.733 13.97 418.713 13.97C419.473 13.97 420.533 14.01 421.893 14.09V13.34C421.893 12.36 421.813 11.66 421.653 11.24C421.513 10.82 421.253 10.55 420.873 10.43C420.513 10.31 419.903 10.25 419.043 10.25C418.183 10.25 417.033 10.33 415.593 10.49V7.94C416.993 7.62 418.453 7.46 419.973 7.46C421.413 7.46 422.493 7.65 423.213 8.03C423.953 8.41 424.453 9.03 424.713 9.89C424.993 10.73 425.133 11.94 425.133 13.52V23H422.133L422.013 21.11H421.833C421.353 22.53 420.213 23.24 418.413 23.24ZM419.823 20.3C420.203 20.3 420.523 20.26 420.783 20.18C421.043 20.1 421.273 19.94 421.473 19.7C421.753 19.32 421.893 18.48 421.893 17.18V16.37H419.643C419.203 16.37 418.873 16.42 418.653 16.52C418.453 16.62 418.303 16.81 418.203 17.09C418.123 17.37 418.083 17.8 418.083 18.38C418.083 19.16 418.193 19.68 418.413 19.94C418.633 20.18 419.103 20.3 419.823 20.3ZM428.249 7.7H431.219L431.339 10.31H431.549C431.849 9.23 432.289 8.49 432.869 8.09C433.469 7.67 434.249 7.46 435.209 7.46V10.91C434.289 10.91 433.559 11.07 433.019 11.39C432.479 11.71 432.089 12.23 431.849 12.95C431.609 13.67 431.489 14.67 431.489 15.95V23H428.249V7.7ZM447.085 16.46H439.975C439.975 17.76 440.035 18.67 440.155 19.19C440.275 19.69 440.535 20.03 440.935 20.21C441.335 20.37 442.035 20.45 443.035 20.45C443.995 20.45 445.225 20.37 446.725 20.21V22.76C446.225 22.9 445.555 23.01 444.715 23.09C443.895 23.19 443.095 23.24 442.315 23.24C440.635 23.24 439.395 22.99 438.595 22.49C437.815 21.97 437.305 21.19 437.065 20.15C436.845 19.09 436.735 17.5 436.735 15.38C436.735 13.28 436.845 11.7 437.065 10.64C437.285 9.58 437.775 8.79 438.535 8.27C439.295 7.73 440.485 7.46 442.105 7.46C443.705 7.46 444.845 7.72 445.525 8.24C446.225 8.74 446.655 9.5 446.815 10.52C446.995 11.52 447.085 13.13 447.085 15.35V16.46ZM442.045 10.25C441.425 10.25 440.975 10.34 440.695 10.52C440.415 10.7 440.225 11.04 440.125 11.54C440.045 12.04 439.995 12.88 439.975 14.06H443.995V14.03C443.995 12.87 443.945 12.03 443.845 11.51C443.745 10.99 443.565 10.65 443.305 10.49C443.045 10.33 442.625 10.25 442.045 10.25ZM455.466 23V0.709999H458.706V23H455.466ZM466.802 23.24C465.142 23.24 463.942 23.02 463.202 22.58C462.462 22.14 461.982 21.4 461.762 20.36C461.562 19.32 461.462 17.65 461.462 15.35C461.462 13.03 461.562 11.35 461.762 10.31C461.982 9.27 462.462 8.54 463.202 8.12C463.942 7.68 465.142 7.46 466.802 7.46C468.462 7.46 469.662 7.68 470.402 8.12C471.142 8.54 471.612 9.27 471.812 10.31C472.032 11.35 472.142 13.03 472.142 15.35C472.142 17.65 472.032 19.32 471.812 20.36C471.612 21.4 471.142 22.14 470.402 22.58C469.662 23.02 468.462 23.24 466.802 23.24ZM466.802 20.45C467.522 20.45 468.012 20.35 468.272 20.15C468.552 19.93 468.722 19.5 468.782 18.86C468.862 18.22 468.902 17.05 468.902 15.35C468.902 13.63 468.862 12.46 468.782 11.84C468.722 11.2 468.552 10.78 468.272 10.58C468.012 10.36 467.522 10.25 466.802 10.25C466.082 10.25 465.582 10.36 465.302 10.58C465.042 10.78 464.872 11.2 464.792 11.84C464.732 12.46 464.702 13.63 464.702 15.35C464.702 17.05 464.732 18.22 464.792 18.86C464.872 19.5 465.042 19.93 465.302 20.15C465.582 20.35 466.082 20.45 466.802 20.45ZM479.839 23.24C478.179 23.24 476.979 23.02 476.239 22.58C475.499 22.14 475.019 21.4 474.799 20.36C474.599 19.32 474.499 17.65 474.499 15.35C474.499 13.03 474.599 11.35 474.799 10.31C475.019 9.27 475.499 8.54 476.239 8.12C476.979 7.68 478.179 7.46 479.839 7.46C481.499 7.46 482.699 7.68 483.439 8.12C484.179 8.54 484.649 9.27 484.849 10.31C485.069 11.35 485.179 13.03 485.179 15.35C485.179 17.65 485.069 19.32 484.849 20.36C484.649 21.4 484.179 22.14 483.439 22.58C482.699 23.02 481.499 23.24 479.839 23.24ZM479.839 20.45C480.559 20.45 481.049 20.35 481.309 20.15C481.589 19.93 481.759 19.5 481.819 18.86C481.899 18.22 481.939 17.05 481.939 15.35C481.939 13.63 481.899 12.46 481.819 11.84C481.759 11.2 481.589 10.78 481.309 10.58C481.049 10.36 480.559 10.25 479.839 10.25C479.119 10.25 478.619 10.36 478.339 10.58C478.079 10.78 477.909 11.2 477.829 11.84C477.769 12.46 477.739 13.63 477.739 15.35C477.739 17.05 477.769 18.22 477.829 18.86C477.909 19.5 478.079 19.93 478.339 20.15C478.619 20.35 479.119 20.45 479.839 20.45ZM495.096 23L492.276 16.76H491.196V23H487.956V0.709999H491.196V13.94H492.276L495.156 7.7H498.486L494.946 15.05L498.546 23H495.096ZM500.524 4.01V0.709999H503.824V4.01H500.524ZM500.554 23V7.7H503.794V23H500.554ZM514.08 14.57C514.08 13.23 514.04 12.29 513.96 11.75C513.88 11.21 513.72 10.87 513.48 10.73C513.24 10.57 512.82 10.49 512.22 10.49C511.58 10.49 511.12 10.63 510.84 10.91C510.56 11.17 510.38 11.59 510.3 12.17C510.24 12.75 510.21 13.7 510.21 15.02V23H506.97V7.7H509.94L510.06 9.62H510.24C510.5 8.86 510.92 8.31 511.5 7.97C512.08 7.63 512.83 7.46 513.75 7.46C514.75 7.46 515.5 7.66 516 8.06C516.52 8.44 516.87 9.03 517.05 9.83C517.23 10.61 517.32 11.69 517.32 13.07V23H514.08V14.57ZM524.976 29C524.276 29 523.536 28.96 522.756 28.88C521.996 28.82 521.376 28.74 520.896 28.64V26.09L524.256 26.15C525.256 26.15 525.956 26.05 526.356 25.85C526.776 25.67 527.046 25.31 527.166 24.77C527.286 24.23 527.346 23.29 527.346 21.95V21.14H527.166C526.926 21.82 526.536 22.31 525.996 22.61C525.476 22.89 524.806 23.03 523.986 23.03C522.926 23.03 522.116 22.8 521.556 22.34C520.996 21.88 520.596 21.1 520.356 20C520.136 18.9 520.026 17.33 520.026 15.29C520.026 13.21 520.146 11.61 520.386 10.49C520.626 9.37 521.026 8.59 521.586 8.15C522.166 7.69 522.976 7.46 524.016 7.46C525.736 7.46 526.826 8.17 527.286 9.59H527.466L527.586 7.7H530.586V21.05C530.586 23.15 530.476 24.73 530.256 25.79C530.036 26.85 529.526 27.65 528.726 28.19C527.926 28.73 526.676 29 524.976 29ZM525.336 20.12C525.876 20.12 526.286 20.02 526.566 19.82C526.846 19.62 527.036 19.27 527.136 18.77C527.276 18.19 527.346 17.03 527.346 15.29C527.346 13.77 527.296 12.72 527.196 12.14C527.096 11.5 526.906 11.07 526.626 10.85C526.346 10.61 525.916 10.49 525.336 10.49C524.656 10.49 524.186 10.58 523.926 10.76C523.666 10.94 523.486 11.34 523.386 11.96C523.306 12.58 523.266 13.69 523.266 15.29C523.266 16.85 523.306 17.95 523.386 18.59C523.486 19.23 523.666 19.65 523.926 19.85C524.206 20.03 524.676 20.12 525.336 20.12ZM540.243 10.49H538.263V7.7H540.243V6.29C540.243 4.53 540.403 3.27 540.723 2.51C541.043 1.75 541.583 1.26 542.343 1.04C543.123 0.819999 544.373 0.709999 546.093 0.709999V3.23C545.293 3.23 544.713 3.28 544.353 3.38C544.013 3.48 543.783 3.69 543.663 4.01C543.543 4.33 543.483 4.85 543.483 5.57V7.7H546.093V10.49H543.483V23H540.243V10.49ZM552.993 23.24C551.333 23.24 550.133 23.02 549.393 22.58C548.653 22.14 548.173 21.4 547.953 20.36C547.753 19.32 547.653 17.65 547.653 15.35C547.653 13.03 547.753 11.35 547.953 10.31C548.173 9.27 548.653 8.54 549.393 8.12C550.133 7.68 551.333 7.46 552.993 7.46C554.653 7.46 555.853 7.68 556.593 8.12C557.333 8.54 557.803 9.27 558.003 10.31C558.223 11.35 558.333 13.03 558.333 15.35C558.333 17.65 558.223 19.32 558.003 20.36C557.803 21.4 557.333 22.14 556.593 22.58C555.853 23.02 554.653 23.24 552.993 23.24ZM552.993 20.45C553.713 20.45 554.203 20.35 554.463 20.15C554.743 19.93 554.913 19.5 554.973 18.86C555.053 18.22 555.093 17.05 555.093 15.35C555.093 13.63 555.053 12.46 554.973 11.84C554.913 11.2 554.743 10.78 554.463 10.58C554.203 10.36 553.713 10.25 552.993 10.25C552.273 10.25 551.773 10.36 551.493 10.58C551.233 10.78 551.063 11.2 550.983 11.84C550.923 12.46 550.893 13.63 550.893 15.35C550.893 17.05 550.923 18.22 550.983 18.86C551.063 19.5 551.233 19.93 551.493 20.15C551.773 20.35 552.273 20.45 552.993 20.45ZM561.111 7.7H564.081L564.201 10.31H564.411C564.711 9.23 565.151 8.49 565.731 8.09C566.331 7.67 567.111 7.46 568.071 7.46V10.91C567.151 10.91 566.421 11.07 565.881 11.39C565.341 11.71 564.951 12.23 564.711 12.95C564.471 13.67 564.351 14.67 564.351 15.95V23H561.111V7.7ZM242.272 51.01V47.71H245.572V51.01H242.272ZM242.302 70V54.7H245.542V70H242.302ZM255.828 61.57C255.828 60.23 255.788 59.29 255.708 58.75C255.628 58.21 255.468 57.87 255.228 57.73C254.988 57.57 254.568 57.49 253.968 57.49C253.328 57.49 252.868 57.63 252.588 57.91C252.308 58.17 252.128 58.59 252.048 59.17C251.988 59.75 251.958 60.7 251.958 62.02V70H248.718V54.7H251.688L251.808 56.62H251.988C252.248 55.86 252.668 55.31 253.248 54.97C253.828 54.63 254.578 54.46 255.498 54.46C256.498 54.46 257.248 54.66 257.748 55.06C258.268 55.44 258.618 56.03 258.798 56.83C258.978 57.61 259.068 58.69 259.068 60.07V70H255.828V61.57ZM270.581 70.24C269.321 70.24 268.411 69.88 267.851 69.16C267.311 68.44 267.041 67.28 267.041 65.68C267.041 64.5 267.161 63.57 267.401 62.89C267.641 62.21 268.031 61.72 268.571 61.42C269.131 61.12 269.901 60.97 270.881 60.97C271.641 60.97 272.701 61.01 274.061 61.09V60.34C274.061 59.36 273.981 58.66 273.821 58.24C273.681 57.82 273.421 57.55 273.041 57.43C272.681 57.31 272.071 57.25 271.211 57.25C270.351 57.25 269.201 57.33 267.761 57.49V54.94C269.161 54.62 270.621 54.46 272.141 54.46C273.581 54.46 274.661 54.65 275.381 55.03C276.121 55.41 276.621 56.03 276.881 56.89C277.161 57.73 277.301 58.94 277.301 60.52V70H274.301L274.181 68.11H274.001C273.521 69.53 272.381 70.24 270.581 70.24ZM271.991 67.3C272.371 67.3 272.691 67.26 272.951 67.18C273.211 67.1 273.441 66.94 273.641 66.7C273.921 66.32 274.061 65.48 274.061 64.18V63.37H271.811C271.371 63.37 271.041 63.42 270.821 63.52C270.621 63.62 270.471 63.81 270.371 64.09C270.291 64.37 270.251 64.8 270.251 65.38C270.251 66.16 270.361 66.68 270.581 66.94C270.801 67.18 271.271 67.3 271.991 67.3ZM285.984 54.7H288.954L289.074 56.59H289.284C289.704 55.17 290.804 54.46 292.584 54.46C293.624 54.46 294.424 54.69 294.984 55.15C295.544 55.59 295.944 56.37 296.184 57.49C296.424 58.61 296.544 60.21 296.544 62.29C296.544 64.35 296.424 65.95 296.184 67.09C295.964 68.21 295.574 69.02 295.014 69.52C294.474 70 293.684 70.24 292.644 70.24C290.964 70.24 289.884 69.59 289.404 68.29H289.224V75.79H285.984V54.7ZM291.204 67.24C291.884 67.24 292.354 67.15 292.614 66.97C292.894 66.77 293.074 66.36 293.154 65.74C293.254 65.1 293.304 63.97 293.304 62.35C293.304 60.73 293.254 59.61 293.154 58.99C293.074 58.35 292.894 57.94 292.614 57.76C292.354 57.56 291.884 57.46 291.204 57.46C290.664 57.46 290.254 57.57 289.974 57.79C289.714 57.99 289.524 58.35 289.404 58.87C289.284 59.45 289.224 60.61 289.224 62.35C289.224 63.79 289.264 64.82 289.344 65.44C289.444 66.14 289.624 66.62 289.884 66.88C290.164 67.12 290.604 67.24 291.204 67.24ZM309.273 63.46H302.163C302.163 64.76 302.223 65.67 302.343 66.19C302.463 66.69 302.723 67.03 303.123 67.21C303.523 67.37 304.223 67.45 305.223 67.45C306.183 67.45 307.413 67.37 308.913 67.21V69.76C308.413 69.9 307.743 70.01 306.903 70.09C306.083 70.19 305.283 70.24 304.503 70.24C302.823 70.24 301.583 69.99 300.783 69.49C300.003 68.97 299.493 68.19 299.253 67.15C299.033 66.09 298.923 64.5 298.923 62.38C298.923 60.28 299.033 58.7 299.253 57.64C299.473 56.58 299.963 55.79 300.723 55.27C301.483 54.73 302.673 54.46 304.293 54.46C305.893 54.46 307.033 54.72 307.713 55.24C308.413 55.74 308.843 56.5 309.003 57.52C309.183 58.52 309.273 60.13 309.273 62.35V63.46ZM304.233 57.25C303.613 57.25 303.163 57.34 302.883 57.52C302.603 57.7 302.413 58.04 302.313 58.54C302.233 59.04 302.183 59.88 302.163 61.06H306.183V61.03C306.183 59.87 306.133 59.03 306.033 58.51C305.933 57.99 305.753 57.65 305.493 57.49C305.233 57.33 304.813 57.25 304.233 57.25ZM312.841 70V57.49H310.831V54.7H312.841V50.26H316.081V54.7H318.541V57.49H316.081V70H312.841ZM321.631 63.73C321.511 62.43 321.331 60.23 321.091 57.13C320.871 54.03 320.761 52.02 320.761 51.1V49.36H324.721V51.1C324.721 52.02 324.601 54.03 324.361 57.13C324.141 60.23 323.971 62.43 323.851 63.73H321.631ZM320.941 70V66.46H324.541V70H320.941Z" fill="white"/>
</svg>
