<svg width="312" height="974" viewBox="0 0 312 974" fill="none" xmlns="http://www.w3.org/2000/svg">
<path d="M21.7172 114.828C7.49651 131.511 3.58974 149.32 8.43414 163.635C13.1223 177.95 26.5616 188.771 40.7822 201.17C55.0029 213.456 70.0049 227.321 95.6334 234.873C121.106 242.312 157.048 243.552 180.801 231.153C204.554 218.867 216.118 192.942 215.65 167.468C215.024 141.993 202.21 116.857 178.457 100.175C154.704 83.4929 119.855 75.1518 90.3202 78.7587C60.6287 82.4784 35.9378 98.1462 21.7172 114.828Z" fill="#F4A3B0"/>
<ellipse cx="24.2473" cy="22.0049" rx="24.2473" ry="22.0049" transform="matrix(-1 0 0 1 297.022 89.6426)" fill="#F4A3B0"/>
<ellipse cx="24.2473" cy="22.0049" rx="24.2473" ry="22.0049" transform="matrix(-1 0 0 1 233.698 22.5625)" fill="#F4A3B0"/>
<ellipse cx="24.2473" cy="22.0049" rx="24.2473" ry="22.0049" transform="matrix(-1 0 0 1 48.9376 28.9507)" fill="#F4A3B0"/>
<ellipse cx="24.2473" cy="22.0049" rx="24.2473" ry="22.0049" transform="matrix(-1 0 0 1 151.137 0.557617)" fill="#F4A3B0"/>
<path d="M192.956 225.224C197.194 231.045 198.358 237.259 196.914 242.255C195.517 247.25 191.512 251.025 187.275 255.352C183.037 259.639 178.566 264.477 170.929 267.112C163.339 269.708 152.628 270.14 145.55 265.814C138.472 261.527 135.026 252.481 135.165 243.592C135.351 234.703 139.17 225.932 146.248 220.111C153.327 214.29 163.711 211.379 172.513 212.638C181.361 213.936 188.718 219.403 192.956 225.224Z" fill="#89264D"/>
<ellipse cx="118.142" cy="224.114" rx="7.22556" ry="7.67832" fill="#89264D"/>
<ellipse cx="137.012" cy="200.707" rx="7.22556" ry="7.67832" fill="#89264D"/>
<ellipse cx="192.07" cy="202.937" rx="7.22556" ry="7.67832" fill="#89264D"/>
<ellipse cx="161.615" cy="193.029" rx="7.22556" ry="7.67832" fill="#89264D"/>
<path d="M281.039 352.874C285.277 358.695 286.441 364.909 284.997 369.904C283.6 374.899 279.596 378.675 275.358 383.001C271.12 387.288 266.65 392.126 259.013 394.761C251.422 397.357 240.711 397.79 233.633 393.463C226.555 389.176 223.109 380.13 223.248 371.241C223.435 362.352 227.253 353.581 234.332 347.76C241.41 341.939 251.795 339.029 260.596 340.287C269.444 341.585 276.801 347.052 281.039 352.874Z" fill="#89264D"/>
<ellipse cx="206.225" cy="351.763" rx="7.22556" ry="7.67832" fill="#89264D"/>
<ellipse cx="225.095" cy="328.357" rx="7.22556" ry="7.67832" fill="#89264D"/>
<ellipse cx="280.153" cy="330.586" rx="7.22556" ry="7.67832" fill="#89264D"/>
<ellipse cx="249.698" cy="320.678" rx="7.22556" ry="7.67832" fill="#89264D"/>
<path d="M189.039 492.874C193.277 498.695 194.441 504.909 192.997 509.904C191.6 514.899 187.596 518.675 183.358 523.001C179.12 527.288 174.65 532.126 167.013 534.761C159.422 537.357 148.711 537.79 141.633 533.463C134.555 529.176 131.109 520.13 131.248 511.241C131.435 502.352 135.253 493.581 142.332 487.76C149.41 481.939 159.795 479.029 168.596 480.287C177.444 481.585 184.801 487.052 189.039 492.874Z" fill="#89264D"/>
<ellipse cx="114.225" cy="491.763" rx="7.22556" ry="7.67832" fill="#89264D"/>
<ellipse cx="133.095" cy="468.356" rx="7.22556" ry="7.67832" fill="#89264D"/>
<ellipse cx="188.153" cy="470.586" rx="7.22556" ry="7.67832" fill="#89264D"/>
<ellipse cx="157.698" cy="460.678" rx="7.22556" ry="7.67832" fill="#89264D"/>
<path d="M300.039 642.874C304.277 648.695 305.441 654.909 303.997 659.904C302.6 664.899 298.596 668.675 294.358 673.001C290.12 677.288 285.65 682.126 278.013 684.761C270.422 687.357 259.711 687.79 252.633 683.463C245.555 679.176 242.109 670.13 242.248 661.241C242.435 652.352 246.253 643.581 253.332 637.76C260.41 631.939 270.795 629.029 279.596 630.287C288.444 631.585 295.801 637.052 300.039 642.874Z" fill="#89264D"/>
<ellipse cx="225.225" cy="641.763" rx="7.22556" ry="7.67832" fill="#89264D"/>
<ellipse cx="244.095" cy="618.357" rx="7.22556" ry="7.67832" fill="#89264D"/>
<ellipse cx="299.153" cy="620.586" rx="7.22556" ry="7.67832" fill="#89264D"/>
<ellipse cx="268.698" cy="610.678" rx="7.22556" ry="7.67832" fill="#89264D"/>
<path d="M192.039 791.874C196.277 797.695 197.441 803.909 195.997 808.904C194.6 813.899 190.596 817.675 186.358 822.001C182.12 826.288 177.65 831.126 170.013 833.761C162.422 836.357 151.711 836.79 144.633 832.463C137.555 828.176 134.109 819.13 134.248 810.241C134.435 801.352 138.253 792.581 145.332 786.76C152.41 780.939 162.795 778.029 171.596 779.287C180.444 780.585 187.801 786.052 192.039 791.874Z" fill="#89264D"/>
<ellipse cx="117.225" cy="790.763" rx="7.22556" ry="7.67832" fill="#89264D"/>
<ellipse cx="136.095" cy="767.356" rx="7.22556" ry="7.67832" fill="#89264D"/>
<ellipse cx="191.153" cy="769.586" rx="7.22556" ry="7.67832" fill="#89264D"/>
<ellipse cx="160.698" cy="759.678" rx="7.22556" ry="7.67832" fill="#89264D"/>
<path d="M305.039 929.874C309.277 935.695 310.441 941.909 308.997 946.904C307.6 951.899 303.596 955.675 299.358 960.001C295.12 964.288 290.65 969.126 283.013 971.761C275.422 974.357 264.711 974.79 257.633 970.463C250.555 966.176 247.109 957.13 247.248 948.241C247.435 939.352 251.253 930.581 258.332 924.76C265.41 918.939 275.795 916.029 284.596 917.287C293.444 918.585 300.801 924.052 305.039 929.874Z" fill="#89264D"/>
<ellipse cx="230.225" cy="928.763" rx="7.22556" ry="7.67832" fill="#89264D"/>
<ellipse cx="249.095" cy="905.356" rx="7.22556" ry="7.67832" fill="#89264D"/>
<ellipse cx="304.153" cy="907.586" rx="7.22556" ry="7.67832" fill="#89264D"/>
<ellipse cx="273.698" cy="897.678" rx="7.22556" ry="7.67832" fill="#89264D"/>
</svg>
