<svg width="812" height="176" viewBox="0 0 812 176" fill="none" xmlns="http://www.w3.org/2000/svg">
<g filter="url(#filter0_d_177_5)">
<path d="M61.145 105.558H27.225C24.6117 105.558 22.8517 105.371 21.945 104.998C21.0383 104.624 20.585 104.038 20.585 103.238V52.5976C20.585 51.2109 21.1983 50.2243 22.425 49.6376C23.705 49.0509 25.9717 48.7576 29.225 48.7576H61.385C62.505 48.7576 63.065 50.6243 63.065 54.3576C63.065 58.0376 62.825 60.8643 62.345 62.8376C61.865 64.7576 61.225 65.7176 60.425 65.7176C56.9583 65.7176 51.1183 65.3709 42.905 64.6776V70.0376C50.7983 69.7176 55.945 69.5576 58.345 69.5576C59.785 69.5576 60.505 71.2376 60.505 74.5976C60.505 77.9576 60.2117 80.5176 59.625 82.2776C59.0917 83.9843 58.345 84.8376 57.385 84.8376L42.905 84.5176V89.6376C52.185 88.9443 58.585 88.5976 62.105 88.5976C63.225 88.5976 63.785 90.4643 63.785 94.1976C63.785 97.931 63.545 100.758 63.065 102.678C62.585 104.598 61.945 105.558 61.145 105.558ZM66.6131 64.8376C66.6131 64.3043 67.3865 63.6109 68.9331 62.7576C70.4798 61.8509 72.5865 61.0243 75.2531 60.2776C77.9198 59.5309 80.5331 59.1576 83.0931 59.1576C88.2665 59.1576 90.9331 60.4109 91.0931 62.9176L93.0931 88.3576H94.1331L95.8931 64.1976C95.9998 62.8643 97.8398 61.6909 101.413 60.6776C104.986 59.6643 108.133 59.1576 110.853 59.1576C113.573 59.1576 115.6 59.3976 116.933 59.8776C118.32 60.3576 119.2 60.8643 119.573 61.3976C119.946 61.8776 120.133 62.3043 120.133 62.6776C120.133 63.0509 118.986 65.7976 116.693 70.9176C114.453 76.0376 109.946 86.9443 103.173 103.638C102.64 104.918 98.2931 105.558 90.1331 105.558C87.5731 105.558 85.8931 105.424 85.0931 105.158C84.2931 104.838 83.7598 104.331 83.4931 103.638C79.8131 94.3576 76.0798 85.6376 72.2931 77.4776C68.5065 69.2643 66.6131 65.051 66.6131 64.8376ZM144.35 87.4776C144.35 90.9443 146.003 92.6776 149.31 92.6776C151.23 92.6776 153.737 92.0376 156.83 90.7576C159.923 89.4243 161.55 88.7576 161.71 88.7576C162.723 88.7576 164.057 90.2776 165.71 93.3176C167.363 96.3576 168.19 98.5976 168.19 100.038C168.19 102.118 166.057 103.691 161.79 104.758C157.523 105.824 153.337 106.358 149.23 106.358C145.177 106.358 141.763 106.038 138.99 105.398C136.27 104.758 134.03 103.958 132.27 102.998C130.563 101.984 129.043 100.758 127.71 99.3176C126.43 97.8776 125.47 96.5176 124.83 95.2376C124.19 93.9043 123.683 92.4376 123.31 90.8376C122.777 88.4909 122.51 86.0643 122.51 83.5576C122.51 73.8509 125.043 67.1576 130.11 63.4776C132.617 61.6109 135.417 60.3043 138.51 59.5576C141.603 58.8109 145.257 58.4376 149.47 58.4376C162.963 58.4376 169.71 63.1309 169.71 72.5176C169.71 82.4909 162.137 87.4776 146.99 87.4776H144.35ZM144.19 75.7976V81.0776C145.737 81.0776 146.99 80.4643 147.95 79.2376C148.963 78.0109 149.47 76.5176 149.47 74.7576C149.47 71.5576 148.643 69.9576 146.99 69.9576C145.123 69.9576 144.19 71.9043 144.19 75.7976ZM222.722 78.9976V103.638C222.722 104.224 221.202 104.704 218.162 105.078C215.122 105.398 211.975 105.558 208.722 105.558C205.522 105.558 203.442 105.424 202.482 105.158C201.575 104.838 201.122 104.331 201.122 103.638V78.1976C201.122 75.7976 201.015 74.2243 200.802 73.4776C200.642 72.7309 200.482 72.0643 200.322 71.4776C199.949 70.4643 199.282 69.9576 198.322 69.9576C196.829 69.9576 196.082 70.6776 196.082 72.1176V103.638C196.082 104.224 194.562 104.704 191.522 105.078C188.535 105.398 185.415 105.558 182.162 105.558C178.962 105.558 176.882 105.424 175.922 105.158C174.962 104.838 174.482 104.331 174.482 103.638V64.1976C174.482 63.0776 176.002 61.9576 179.042 60.8376C182.135 59.7176 185.389 59.1576 188.802 59.1576C192.215 59.1576 194.135 60.1443 194.562 62.1176L195.282 65.6376H195.842C197.389 62.5443 200.055 60.3843 203.842 59.1576C205.389 58.6776 207.095 58.4376 208.962 58.4376C214.349 58.4376 217.975 60.0643 219.842 63.3176C221.762 66.5176 222.722 71.7443 222.722 78.9976ZM259.75 104.838C258.79 105.744 256.603 106.198 253.19 106.198C249.777 106.198 246.95 105.984 244.71 105.558C242.47 105.078 240.337 104.171 238.31 102.838C234.417 100.224 232.47 94.7843 232.47 86.5176V74.0376H228.47C227.883 74.0376 227.377 73.4243 226.95 72.1976C226.523 70.9709 226.31 69.2909 226.31 67.1576C226.31 65.0243 226.63 63.1576 227.27 61.5576C227.963 59.9043 228.843 59.0776 229.91 59.0776H232.47V49.3976C232.47 47.7443 234.07 46.4109 237.27 45.3976C240.523 44.3843 243.697 43.8776 246.79 43.8776C251.643 43.8776 254.07 45.0776 254.07 47.4776V59.0776H259.99C261.377 59.0776 262.07 61.0776 262.07 65.0776C262.07 67.6909 261.75 69.8509 261.11 71.5576C260.523 73.2109 259.75 74.0376 258.79 74.0376H254.07V88.6776C254.07 90.1176 254.683 91.1576 255.91 91.7976C257.137 92.3843 258.203 92.6776 259.11 92.6776C260.07 92.6776 260.657 93.1309 260.87 94.0376C261.083 94.9443 261.19 96.3043 261.19 98.1176C261.19 101.691 260.71 103.931 259.75 104.838ZM325.993 102.198C324.393 103.371 322.153 104.358 319.273 105.158C316.446 105.904 312.766 106.278 308.233 106.278C303.753 106.278 299.486 105.904 295.433 105.158C291.379 104.411 288.473 103.584 286.713 102.678C284.953 101.771 284.073 100.891 284.073 100.038C284.073 97.051 284.499 93.9576 285.353 90.7576C286.206 87.5043 287.219 85.8776 288.393 85.8776C288.606 85.8776 290.819 86.5976 295.033 88.0376C299.246 89.4776 302.419 90.1976 304.553 90.1976C306.686 90.1976 308.073 89.9843 308.713 89.5576C309.353 89.0776 309.673 88.4109 309.673 87.5576C309.673 86.7043 309.086 85.9576 307.913 85.3176C306.739 84.6243 305.273 84.0376 303.513 83.5576C301.753 83.0243 299.833 82.2776 297.753 81.3176C295.726 80.3576 293.833 79.2909 292.073 78.1176C290.313 76.9443 288.846 75.2909 287.673 73.1576C286.499 70.9709 285.913 68.4909 285.913 65.7176C285.913 53.8776 292.979 47.9576 307.113 47.9576C312.393 47.9576 316.953 48.3043 320.793 48.9976C324.633 49.6376 327.326 50.3843 328.873 51.2376C330.473 52.0376 331.273 52.8376 331.273 53.6376C331.273 56.4109 330.606 59.3976 329.273 62.5976C327.993 65.7976 326.739 67.3976 325.513 67.3976C325.299 67.3976 324.606 67.1576 323.433 66.6776C319.913 65.1309 316.979 64.3576 314.633 64.3576C312.339 64.3576 310.766 64.5709 309.913 64.9976C309.113 65.4243 308.713 66.0909 308.713 66.9976C308.713 67.8509 309.299 68.5709 310.473 69.1576C311.646 69.6909 313.086 70.1976 314.793 70.6776C316.553 71.1043 318.446 71.7976 320.473 72.7576C322.553 73.6643 324.473 74.7576 326.233 76.0376C327.993 77.2643 329.459 79.0243 330.633 81.3176C331.806 83.6109 332.393 86.2776 332.393 89.3176C332.393 92.5176 331.566 95.4243 329.913 98.0376C328.899 99.6376 327.593 101.024 325.993 102.198ZM347.536 104.198C346.256 103.611 344.87 102.731 343.376 101.558C341.936 100.384 340.736 98.9976 339.776 97.3976C337.536 93.5576 336.416 88.5443 336.416 82.3576C336.416 78.5176 337.03 75.1043 338.256 72.1176C339.483 69.0776 340.976 66.7309 342.736 65.0776C344.496 63.4243 346.523 62.0643 348.816 60.9976C352.496 59.2909 356.176 58.4376 359.856 58.4376C366.043 58.4376 370.336 58.9176 372.736 59.8776C375.19 60.8376 376.416 62.4643 376.416 64.7576C376.416 67.0509 375.99 69.5043 375.136 72.1176C374.336 74.6776 373.27 75.9576 371.936 75.9576C371.51 75.9576 370.203 75.5043 368.016 74.5976C365.883 73.6909 364.016 73.2376 362.416 73.2376C360.87 73.2376 359.67 73.8776 358.816 75.1576C358.016 76.3843 357.616 78.8109 357.616 82.4376C357.616 86.0109 357.99 88.4643 358.736 89.7976C359.483 91.0776 360.63 91.7176 362.176 91.7176C363.776 91.7176 365.75 91.1843 368.096 90.1176C370.443 89.0509 371.75 88.5176 372.016 88.5176C373.03 88.5176 373.99 89.7176 374.896 92.1176C375.856 94.5176 376.336 96.651 376.336 98.5176C376.336 101.398 374.843 103.424 371.856 104.598C368.87 105.718 364.816 106.278 359.696 106.278C354.63 106.278 350.576 105.584 347.536 104.198ZM407.201 103.638V81.3976C407.201 77.3976 407.041 74.4909 406.721 72.6776C406.401 70.8643 405.627 69.9576 404.401 69.9576C403.334 69.9576 402.801 70.6776 402.801 72.1176V103.638C402.801 104.224 401.254 104.704 398.161 105.078C395.067 105.398 391.894 105.558 388.641 105.558C385.387 105.558 383.334 105.424 382.481 105.158C381.627 104.838 381.201 104.331 381.201 103.638V48.1976C381.201 47.0776 382.747 45.9576 385.841 44.8376C388.934 43.7176 392.187 43.1576 395.601 43.1576C399.174 43.1576 401.441 43.8243 402.401 45.1576C402.721 45.5843 402.881 46.0376 402.881 46.5176V58.2776L402.001 63.7976H402.561C403.307 62.6776 404.481 61.6909 406.081 60.8376C409.067 59.2376 412.321 58.4376 415.841 58.4376C420.907 58.4376 424.321 60.0643 426.081 63.3176C427.894 66.5176 428.801 71.7443 428.801 78.9976V103.638C428.801 104.224 427.227 104.704 424.081 105.078C420.987 105.398 417.814 105.558 414.561 105.558C411.361 105.558 409.334 105.424 408.481 105.158C407.627 104.838 407.201 104.331 407.201 103.638ZM455.444 87.4776C455.444 90.9443 457.097 92.6776 460.404 92.6776C462.324 92.6776 464.83 92.0376 467.924 90.7576C471.017 89.4243 472.644 88.7576 472.804 88.7576C473.817 88.7576 475.15 90.2776 476.804 93.3176C478.457 96.3576 479.284 98.5976 479.284 100.038C479.284 102.118 477.15 103.691 472.884 104.758C468.617 105.824 464.43 106.358 460.324 106.358C456.27 106.358 452.857 106.038 450.084 105.398C447.364 104.758 445.124 103.958 443.364 102.998C441.657 101.984 440.137 100.758 438.804 99.3176C437.524 97.8776 436.564 96.5176 435.924 95.2376C435.284 93.9043 434.777 92.4376 434.404 90.8376C433.87 88.4909 433.604 86.0643 433.604 83.5576C433.604 73.8509 436.137 67.1576 441.204 63.4776C443.71 61.6109 446.51 60.3043 449.604 59.5576C452.697 58.8109 456.35 58.4376 460.564 58.4376C474.057 58.4376 480.804 63.1309 480.804 72.5176C480.804 82.4909 473.23 87.4776 458.084 87.4776H455.444ZM455.284 75.7976V81.0776C456.83 81.0776 458.084 80.4643 459.044 79.2376C460.057 78.0109 460.564 76.5176 460.564 74.7576C460.564 71.5576 459.737 69.9576 458.084 69.9576C456.217 69.9576 455.284 71.9043 455.284 75.7976ZM500.616 106.278C498.642 106.278 496.802 105.984 495.096 105.398C493.389 104.811 491.976 104.091 490.856 103.238C489.789 102.384 488.856 101.238 488.056 99.7976C487.256 98.3576 486.642 96.9976 486.216 95.7176C485.789 94.3843 485.469 92.7576 485.256 90.8376C484.936 88.0109 484.776 84.7843 484.776 81.1576C484.776 73.7443 486.136 68.1176 488.856 64.2776C491.576 60.3843 495.309 58.4376 500.056 58.4376C504.909 58.4376 508.429 59.5843 510.616 61.8776C511.096 62.4109 511.469 63.0509 511.736 63.7976H512.376L511.416 58.2776V48.2776C511.416 47.1043 512.909 45.9576 515.896 44.8376C518.882 43.7176 522.109 43.1576 525.576 43.1576C529.202 43.1576 531.522 43.8509 532.536 45.2376C532.909 45.7709 533.096 46.3043 533.096 46.8376V103.638C533.096 104.224 531.602 104.704 528.616 105.078C525.682 105.398 522.829 105.558 520.056 105.558C517.336 105.558 515.576 105.478 514.776 105.318C514.029 105.104 513.549 104.891 513.336 104.678C513.176 104.464 513.069 104.118 513.016 103.638L512.376 99.0776H511.736C511.256 100.944 510.296 102.518 508.856 103.798C507.042 105.451 504.296 106.278 500.616 106.278ZM509.576 94.5976C510.429 94.5976 511.069 94.0643 511.496 92.9976V71.6376C511.496 71.1043 511.202 70.7043 510.616 70.4376C510.082 70.1176 509.602 69.9576 509.176 69.9576C507.362 69.9576 506.456 74.1176 506.456 82.4376C506.456 86.8643 506.696 90.0109 507.176 91.8776C507.709 93.6909 508.509 94.5976 509.576 94.5976ZM554.781 106.278C548.807 106.278 544.621 104.731 542.221 101.638C539.874 98.5443 538.701 93.1576 538.701 85.4776V63.7176C538.701 62.6509 540.274 61.6376 543.421 60.6776C546.567 59.6643 549.874 59.1576 553.341 59.1576C557.981 59.1576 560.301 60.3576 560.301 62.7576V83.0776C560.301 87.1309 560.461 90.0909 560.781 91.9576C561.101 93.771 561.901 94.6776 563.181 94.6776C564.887 94.6776 565.741 93.9576 565.741 92.5176V63.7176C565.741 62.5976 567.394 61.5576 570.701 60.5976C574.007 59.6376 577.607 59.1576 581.501 59.1576C585.394 59.1576 587.341 60.1976 587.341 62.2776V103.478C587.341 104.224 585.661 104.758 582.301 105.078C578.941 105.398 575.634 105.558 572.381 105.558C569.127 105.558 567.474 105.131 567.421 104.278L566.621 99.0776H565.981C565.501 100.998 564.541 102.571 563.101 103.798C562.354 104.438 561.234 105.024 559.741 105.558C558.301 106.038 556.647 106.278 554.781 106.278ZM614.519 46.8376V103.638C614.519 104.224 612.999 104.704 609.959 105.078C606.919 105.398 603.773 105.558 600.519 105.558C597.319 105.558 595.239 105.424 594.279 105.158C593.373 104.838 592.919 104.331 592.919 103.638V48.2776C592.919 47.1043 594.413 45.9576 597.399 44.8376C600.439 43.7176 603.693 43.1576 607.159 43.1576C612.066 43.1576 614.519 44.3843 614.519 46.8376ZM641.147 87.4776C641.147 90.9443 642.8 92.6776 646.107 92.6776C648.027 92.6776 650.534 92.0376 653.627 90.7576C656.72 89.4243 658.347 88.7576 658.507 88.7576C659.52 88.7576 660.854 90.2776 662.507 93.3176C664.16 96.3576 664.987 98.5976 664.987 100.038C664.987 102.118 662.854 103.691 658.587 104.758C654.32 105.824 650.134 106.358 646.027 106.358C641.974 106.358 638.56 106.038 635.787 105.398C633.067 104.758 630.827 103.958 629.067 102.998C627.36 101.984 625.84 100.758 624.507 99.3176C623.227 97.8776 622.267 96.5176 621.627 95.2376C620.987 93.9043 620.48 92.4376 620.107 90.8376C619.574 88.4909 619.307 86.0643 619.307 83.5576C619.307 73.8509 621.84 67.1576 626.907 63.4776C629.414 61.6109 632.214 60.3043 635.307 59.5576C638.4 58.8109 642.054 58.4376 646.267 58.4376C659.76 58.4376 666.507 63.1309 666.507 72.5176C666.507 82.4909 658.934 87.4776 643.787 87.4776H641.147ZM640.987 75.7976V81.0776C642.534 81.0776 643.787 80.4643 644.747 79.2376C645.76 78.0109 646.267 76.5176 646.267 74.7576C646.267 71.5576 645.44 69.9576 643.787 69.9576C641.92 69.9576 640.987 71.9043 640.987 75.7976ZM692.879 80.2776V103.638C692.879 104.224 691.359 104.704 688.319 105.078C685.332 105.398 682.212 105.558 678.959 105.558C675.759 105.558 673.679 105.424 672.719 105.158C671.759 104.838 671.279 104.331 671.279 103.638V64.1976C671.279 63.1843 672.745 62.0909 675.679 60.9176C678.665 59.7443 681.892 59.1576 685.359 59.1576C688.879 59.1576 690.852 60.1176 691.279 62.0376L692.079 65.7176H692.639C693.385 63.6909 695.172 61.9843 697.999 60.5976C700.825 59.1576 703.652 58.4376 706.479 58.4376C709.305 58.4376 711.279 58.8909 712.399 59.7976C713.572 60.7043 714.159 61.8776 714.159 63.3176C714.159 64.7043 714.052 66.4909 713.839 68.6776C713.625 70.8643 713.092 73.2376 712.239 75.7976C711.439 78.3576 710.372 79.6376 709.039 79.6376C708.505 79.6376 706.825 79.2376 703.999 78.4376C701.172 77.6376 698.825 77.2376 696.959 77.2376C695.145 77.2376 693.999 77.5043 693.519 78.0376C693.092 78.5709 692.879 79.3176 692.879 80.2776Z" fill="#89264D"/>
</g>
<defs>
<filter id="filter0_d_177_5" x="0.38501" y="0.557617" width="815.23" height="183.012" filterUnits="userSpaceOnUse" color-interpolation-filters="sRGB">
<feFlood flood-opacity="0" result="BackgroundImageFix"/>
<feColorMatrix in="SourceAlpha" type="matrix" values="0 0 0 0 0 0 0 0 0 0 0 0 0 0 0 0 0 0 127 0" result="hardAlpha"/>
<feOffset dy="4"/>
<feGaussianBlur stdDeviation="2"/>
<feComposite in2="hardAlpha" operator="out"/>
<feColorMatrix type="matrix" values="0 0 0 0 0 0 0 0 0 0 0 0 0 0 0 0 0 0 0.25 0"/>
<feBlend mode="normal" in2="BackgroundImageFix" result="effect1_dropShadow_177_5"/>
<feBlend mode="normal" in="SourceGraphic" in2="effect1_dropShadow_177_5" result="shape"/>
</filter>
</defs>
</svg>
