<svg width="744" height="166" viewBox="0 0 744 166" fill="none" xmlns="http://www.w3.org/2000/svg">
<path d="M89.892 96.912C89.892 103.824 87.9 109.008 83.916 112.464C79.98 115.872 74.244 117.576 66.708 117.576C59.22 117.576 53.46 115.872 49.428 112.464C45.396 109.008 43.38 103.824 43.38 96.912V70.488C43.38 69.288 44.724 68.208 47.412 67.248C50.148 66.288 53.316 65.808 56.916 65.808C59.796 65.808 61.668 66.36 62.532 67.464C63.156 68.328 63.468 69.072 63.468 69.696V91.152C63.468 96.576 63.66 100.176 64.044 101.952C64.476 103.68 65.364 104.544 66.708 104.544C68.052 104.544 68.892 103.704 69.228 102.024C69.612 100.296 69.804 96.648 69.804 91.08V70.488C69.804 69.288 71.148 68.208 73.836 67.248C76.572 66.288 79.716 65.808 83.268 65.808C86.292 65.808 88.212 66.36 89.028 67.464C89.604 68.328 89.892 69.072 89.892 69.696V96.912ZM95.2622 125.712V79.92C95.2622 78.912 96.6062 77.88 99.2942 76.824C101.982 75.768 104.886 75.24 108.006 75.24C109.446 75.24 110.574 75.408 111.39 75.744C112.206 76.08 112.71 76.416 112.902 76.752C113.094 77.088 113.454 78.528 113.982 81.072H114.558C114.654 80.64 115.086 79.968 115.854 79.056C116.622 78.144 117.39 77.4 118.158 76.824C118.974 76.248 120.126 75.744 121.614 75.312C123.102 74.832 124.83 74.592 126.798 74.592C128.814 74.592 130.638 75.048 132.27 75.96C133.902 76.824 135.102 77.856 135.87 79.056C136.686 80.208 137.31 81.696 137.742 83.52C138.222 85.296 138.486 86.736 138.534 87.84C138.63 88.896 138.678 90.456 138.678 92.52C138.678 94.536 138.606 96.552 138.462 98.568C138.318 100.536 138.054 102.552 137.67 104.616C137.286 106.68 136.734 108.456 136.014 109.944C135.294 111.432 134.382 112.776 133.278 113.976C131.07 116.376 127.83 117.576 123.558 117.576C122.022 117.576 120.654 117.36 119.454 116.928C118.302 116.448 117.438 115.896 116.862 115.272C115.662 113.976 114.966 112.824 114.774 111.816L114.702 111.096H114.126L115.134 117.576V125.712C115.134 126.24 113.742 126.648 110.958 126.936C108.222 127.272 105.39 127.44 102.462 127.44C99.5822 127.44 97.6622 127.296 96.7022 127.008C95.7422 126.768 95.2622 126.336 95.2622 125.712ZM119.166 95.904C119.166 91.824 118.95 88.968 118.518 87.336C118.086 85.704 117.438 84.888 116.574 84.888C115.71 84.888 115.086 85.368 114.702 86.328V105.192C114.702 106.44 115.35 107.064 116.646 107.064C118.326 107.064 119.166 103.344 119.166 95.904ZM152.292 115.776C151.14 115.248 149.892 114.456 148.548 113.4C147.252 112.344 146.172 111.096 145.308 109.656C143.292 106.2 142.284 101.688 142.284 96.12C142.284 92.664 142.836 89.592 143.94 86.904C145.044 84.168 146.388 82.056 147.972 80.568C149.556 79.08 151.38 77.856 153.444 76.896C156.756 75.36 160.068 74.592 163.38 74.592C168.948 74.592 172.812 75.024 174.972 75.888C177.18 76.752 178.284 78.216 178.284 80.28C178.284 82.344 177.9 84.552 177.132 86.904C176.412 89.208 175.452 90.36 174.252 90.36C173.868 90.36 172.692 89.952 170.724 89.136C168.804 88.32 167.124 87.912 165.684 87.912C164.292 87.912 163.212 88.488 162.444 89.64C161.724 90.744 161.364 92.928 161.364 96.192C161.364 99.408 161.7 101.616 162.372 102.816C163.044 103.968 164.076 104.544 165.468 104.544C166.908 104.544 168.684 104.064 170.796 103.104C172.908 102.144 174.084 101.664 174.324 101.664C175.236 101.664 176.1 102.744 176.916 104.904C177.78 107.064 178.212 108.984 178.212 110.664C178.212 113.256 176.868 115.08 174.18 116.136C171.492 117.144 167.844 117.648 163.236 117.648C158.676 117.648 155.028 117.024 152.292 115.776ZM204.766 117.648C201.166 117.648 198.07 117.336 195.478 116.712C192.886 116.088 190.534 114.984 188.422 113.4C184.054 110.232 181.87 104.328 181.87 95.688C181.87 88.008 184.102 82.512 188.566 79.2C192.742 76.128 198.142 74.592 204.766 74.592C207.598 74.592 210.022 74.736 212.038 75.024C214.054 75.264 216.094 75.816 218.158 76.68C220.27 77.544 221.95 78.72 223.198 80.208C224.494 81.696 225.55 83.76 226.366 86.4C227.182 88.992 227.59 92.088 227.59 95.688C227.59 102.984 225.526 108.48 221.398 112.176C217.27 115.824 211.726 117.648 204.766 117.648ZM202.246 103.608C202.582 105.336 202.918 106.368 203.254 106.704C203.638 107.04 204.118 107.208 204.694 107.208C205.318 107.208 205.798 107.04 206.134 106.704C206.518 106.368 206.854 105.336 207.142 103.608C207.478 101.88 207.646 99.72 207.646 97.128C207.646 94.488 207.574 92.472 207.43 91.08C207.334 89.64 207.19 88.536 206.998 87.768C206.854 87 206.638 86.4 206.35 85.968C205.918 85.344 205.39 85.032 204.766 85.032C204.19 85.032 203.71 85.224 203.326 85.608C202.942 85.944 202.582 87 202.246 88.776C201.91 90.504 201.742 92.976 201.742 96.192C201.742 99.408 201.91 101.88 202.246 103.608ZM297.471 93.24V115.272C297.471 115.8 296.103 116.232 293.367 116.568C290.679 116.856 287.871 117 284.943 117C282.063 117 280.191 116.88 279.327 116.64C278.463 116.352 278.031 115.896 278.031 115.272V95.328C278.031 88.464 277.335 85.032 275.943 85.032C275.607 85.032 275.271 85.176 274.935 85.464C274.599 85.752 274.431 86.256 274.431 86.976V115.272C274.431 115.8 273.063 116.232 270.327 116.568C267.639 116.856 264.831 117 261.903 117C258.975 117 257.079 116.88 256.215 116.64C255.399 116.352 254.991 115.896 254.991 115.272V95.328C254.991 90 254.655 86.808 253.983 85.752C253.647 85.272 253.215 85.032 252.687 85.032C251.775 85.032 251.319 85.68 251.319 86.976V115.272C251.319 115.8 249.951 116.232 247.215 116.568C244.479 116.856 241.647 117 238.719 117C235.839 117 233.967 116.88 233.103 116.64C232.287 116.352 231.879 115.896 231.879 115.272V79.776C231.879 78.768 233.247 77.76 235.983 76.752C238.767 75.744 241.695 75.24 244.767 75.24C247.839 75.24 249.567 76.128 249.951 77.904L250.599 81.072H251.103C252.495 78.336 254.799 76.392 258.015 75.24C259.359 74.808 261.087 74.592 263.199 74.592C267.423 74.592 270.495 76.752 272.415 81.072C273.039 79.632 274.599 78.192 277.095 76.752C279.591 75.312 282.351 74.592 285.375 74.592C290.127 74.592 293.319 76.08 294.951 79.056C296.631 81.984 297.471 86.712 297.471 93.24ZM322.343 79.776V115.272C322.343 115.8 320.951 116.232 318.167 116.568C315.431 116.856 312.599 117 309.671 117C306.791 117 304.919 116.88 304.055 116.64C303.239 116.352 302.831 115.896 302.831 115.272V81.072C302.831 80.016 304.175 78.984 306.863 77.976C309.599 76.92 312.575 76.392 315.791 76.392C320.159 76.392 322.343 77.52 322.343 79.776ZM312.551 60.84C315.719 60.84 318.191 61.32 319.967 62.28C321.791 63.192 322.703 64.872 322.703 67.32C322.703 71.64 319.343 73.8 312.623 73.8C305.903 73.8 302.543 71.64 302.543 67.32C302.543 63 305.879 60.84 312.551 60.84ZM371.131 93.096V115.272C371.131 115.8 369.763 116.232 367.027 116.568C364.291 116.856 361.459 117 358.531 117C355.651 117 353.779 116.88 352.915 116.64C352.099 116.352 351.691 115.896 351.691 115.272V92.376C351.691 90.216 351.595 88.8 351.403 88.128C351.259 87.456 351.115 86.856 350.971 86.328C350.635 85.416 350.035 84.96 349.171 84.96C347.827 84.96 347.155 85.608 347.155 86.904V115.272C347.155 115.8 345.787 116.232 343.051 116.568C340.363 116.856 337.555 117 334.627 117C331.747 117 329.875 116.88 329.011 116.64C328.147 116.352 327.715 115.896 327.715 115.272V79.776C327.715 78.768 329.083 77.76 331.819 76.752C334.603 75.744 337.531 75.24 340.603 75.24C343.675 75.24 345.403 76.128 345.787 77.904L346.435 81.072H346.939C348.331 78.288 350.731 76.344 354.139 75.24C355.531 74.808 357.067 74.592 358.747 74.592C363.595 74.592 366.859 76.056 368.539 78.984C370.267 81.864 371.131 86.568 371.131 93.096ZM400.209 112.248V108.072H399.633C399.441 108.312 399.105 108.624 398.625 109.008C398.145 109.344 396.945 109.824 395.025 110.448C393.153 111.072 391.017 111.384 388.617 111.384C386.265 111.384 384.273 111.024 382.641 110.304C381.009 109.584 379.737 108.696 378.825 107.64C377.913 106.536 377.193 105.072 376.665 103.248C375.849 100.416 375.441 96.576 375.441 91.728C375.441 86.16 376.617 81.888 378.969 78.912C379.881 77.712 381.225 76.704 383.001 75.888C384.825 75.024 386.769 74.592 388.833 74.592C390.897 74.592 392.601 74.832 393.945 75.312C395.289 75.744 396.297 76.272 396.969 76.896C398.313 78.24 399.081 79.416 399.273 80.424L399.345 81.072H399.921L400.569 78.264C401.049 76.248 404.841 75.24 411.945 75.24C415.113 75.24 417.033 75.72 417.705 76.68C418.089 77.256 418.329 77.808 418.425 78.336C418.521 78.816 418.569 79.56 418.569 80.568V110.736C418.569 116.4 416.721 120.72 413.025 123.696C409.329 126.672 403.905 128.16 396.753 128.16C389.169 128.16 384.009 127.416 381.273 125.928C380.073 125.256 379.473 124.56 379.473 123.84C379.473 122.688 379.929 120.744 380.841 118.008C381.801 115.272 382.689 113.904 383.505 113.904C383.697 113.904 384.369 114.072 385.521 114.408C389.169 115.368 392.121 115.848 394.377 115.848C396.681 115.848 398.217 115.56 398.985 114.984C399.801 114.408 400.209 113.496 400.209 112.248ZM397.329 103.176C397.857 103.176 398.289 102.984 398.625 102.6C398.961 102.216 399.129 101.784 399.129 101.304V86.472C398.937 85.464 398.409 84.96 397.545 84.96C395.721 84.96 394.809 87.96 394.809 93.96C394.809 96.744 395.025 98.976 395.457 100.656C395.937 102.336 396.561 103.176 397.329 103.176ZM476.657 117H446.129C443.777 117 442.193 116.832 441.377 116.496C440.561 116.16 440.153 115.632 440.153 114.912V69.336C440.153 68.088 440.705 67.2 441.809 66.672C442.961 66.144 445.001 65.88 447.929 65.88H476.873C477.881 65.88 478.385 67.56 478.385 70.92C478.385 74.232 478.169 76.776 477.737 78.552C477.305 80.28 476.729 81.144 476.009 81.144C472.889 81.144 467.633 80.832 460.241 80.208V85.032C467.345 84.744 471.977 84.6 474.137 84.6C475.433 84.6 476.081 86.112 476.081 89.136C476.081 92.16 475.817 94.464 475.289 96.048C474.809 97.584 474.137 98.352 473.273 98.352L460.241 98.064V102.672C468.593 102.048 474.353 101.736 477.521 101.736C478.529 101.736 479.033 103.416 479.033 106.776C479.033 110.136 478.817 112.68 478.385 114.408C477.953 116.136 477.377 117 476.657 117ZM481.579 80.352C481.579 79.872 482.275 79.248 483.667 78.48C485.059 77.664 486.955 76.92 489.355 76.248C491.755 75.576 494.107 75.24 496.411 75.24C501.067 75.24 503.467 76.368 503.611 78.624L505.411 101.52H506.347L507.931 79.776C508.027 78.576 509.683 77.52 512.899 76.608C516.115 75.696 518.947 75.24 521.395 75.24C523.843 75.24 525.667 75.456 526.867 75.888C528.115 76.32 528.907 76.776 529.243 77.256C529.579 77.688 529.747 78.072 529.747 78.408C529.747 78.744 528.715 81.216 526.651 85.824C524.635 90.432 520.579 100.248 514.483 115.272C514.003 116.424 510.091 117 502.747 117C500.443 117 498.931 116.88 498.211 116.64C497.491 116.352 497.011 115.896 496.771 115.272C493.459 106.92 490.099 99.072 486.691 91.728C483.283 84.336 481.579 80.544 481.579 80.352ZM551.542 100.728C551.542 103.848 553.03 105.408 556.006 105.408C557.734 105.408 559.99 104.832 562.774 103.68C565.558 102.48 567.022 101.88 567.166 101.88C568.078 101.88 569.278 103.248 570.766 105.984C572.254 108.72 572.998 110.736 572.998 112.032C572.998 113.904 571.078 115.32 567.238 116.28C563.398 117.24 559.63 117.72 555.934 117.72C552.286 117.72 549.214 117.432 546.718 116.856C544.27 116.28 542.254 115.56 540.67 114.696C539.134 113.784 537.766 112.68 536.566 111.384C535.414 110.088 534.55 108.864 533.974 107.712C533.398 106.512 532.942 105.192 532.606 103.752C532.126 101.64 531.886 99.456 531.886 97.2C531.886 88.464 534.166 82.44 538.726 79.128C540.982 77.448 543.502 76.272 546.286 75.6C549.07 74.928 552.358 74.592 556.15 74.592C568.294 74.592 574.366 78.816 574.366 87.264C574.366 96.24 567.55 100.728 553.918 100.728H551.542ZM551.398 90.216V94.968C552.79 94.968 553.918 94.416 554.782 93.312C555.694 92.208 556.15 90.864 556.15 89.28C556.15 86.4 555.406 84.96 553.918 84.96C552.238 84.96 551.398 86.712 551.398 90.216ZM622.077 93.096V115.272C622.077 115.8 620.709 116.232 617.973 116.568C615.237 116.856 612.405 117 609.477 117C606.597 117 604.725 116.88 603.861 116.64C603.045 116.352 602.637 115.896 602.637 115.272V92.376C602.637 90.216 602.541 88.8 602.349 88.128C602.205 87.456 602.061 86.856 601.917 86.328C601.581 85.416 600.981 84.96 600.117 84.96C598.773 84.96 598.101 85.608 598.101 86.904V115.272C598.101 115.8 596.733 116.232 593.997 116.568C591.309 116.856 588.501 117 585.573 117C582.693 117 580.821 116.88 579.957 116.64C579.093 116.352 578.661 115.896 578.661 115.272V79.776C578.661 78.768 580.029 77.76 582.765 76.752C585.549 75.744 588.477 75.24 591.549 75.24C594.621 75.24 596.349 76.128 596.733 77.904L597.381 81.072H597.885C599.277 78.288 601.677 76.344 605.085 75.24C606.477 74.808 608.013 74.592 609.693 74.592C614.541 74.592 617.805 76.056 619.485 78.984C621.213 81.864 622.077 86.568 622.077 93.096ZM655.402 116.352C654.538 117.168 652.57 117.576 649.498 117.576C646.426 117.576 643.882 117.384 641.866 117C639.85 116.568 637.93 115.752 636.106 114.552C632.602 112.2 630.85 107.304 630.85 99.864V88.632H627.25C626.722 88.632 626.266 88.08 625.882 86.976C625.498 85.872 625.306 84.36 625.306 82.44C625.306 80.52 625.594 78.84 626.17 77.4C626.794 75.912 627.586 75.168 628.546 75.168H630.85V66.456C630.85 64.968 632.29 63.768 635.17 62.856C638.098 61.944 640.954 61.488 643.738 61.488C648.106 61.488 650.29 62.568 650.29 64.728V75.168H655.618C656.866 75.168 657.49 76.968 657.49 80.568C657.49 82.92 657.202 84.864 656.626 86.4C656.098 87.888 655.402 88.632 654.538 88.632H650.29V101.808C650.29 103.104 650.842 104.04 651.946 104.616C653.05 105.144 654.01 105.408 654.826 105.408C655.69 105.408 656.218 105.816 656.41 106.632C656.602 107.448 656.698 108.672 656.698 110.304C656.698 113.52 656.266 115.536 655.402 116.352ZM681.424 117.648C673.456 117.648 667.624 116.88 663.928 115.344C662.056 114.528 661.12 113.736 661.12 112.968C661.12 111 661.696 108.696 662.848 106.056C664 103.416 665.008 102.096 665.872 102.096C666.352 102.096 667.96 102.624 670.696 103.68C673.48 104.736 675.808 105.264 677.68 105.264C679.6 105.264 680.848 105.144 681.424 104.904C682.048 104.664 682.36 104.208 682.36 103.536C682.36 102.816 681.88 102.264 680.92 101.88C679.96 101.448 678.76 101.16 677.32 101.016C675.88 100.872 674.32 100.584 672.64 100.152C671.008 99.72 669.472 99.168 668.032 98.496C666.592 97.824 665.392 96.72 664.432 95.184C663.472 93.6 662.992 91.92 662.992 90.144C662.992 88.32 663.04 86.976 663.136 86.112C663.232 85.2 663.616 83.952 664.288 82.368C665.008 80.736 665.992 79.416 667.24 78.408C668.536 77.4 670.504 76.488 673.144 75.672C675.832 74.856 678.832 74.448 682.144 74.448C685.456 74.448 688.216 74.568 690.424 74.808C692.68 75 694.432 75.264 695.68 75.6C696.976 75.936 698.032 76.32 698.848 76.752C700.24 77.472 700.936 78.264 700.936 79.128C700.936 81 700.264 83.16 698.92 85.608C697.576 88.056 696.496 89.28 695.68 89.28C694.912 89.28 693.208 88.872 690.568 88.056C687.928 87.192 685.984 86.76 684.736 86.76C682.72 86.76 681.712 87.336 681.712 88.488C681.712 89.208 682.384 89.76 683.728 90.144C685.12 90.48 686.776 90.84 688.696 91.224C690.616 91.608 692.536 92.16 694.456 92.88C696.424 93.552 698.08 94.8 699.424 96.624C700.816 98.448 701.512 100.752 701.512 103.536C701.512 112.944 694.816 117.648 681.424 117.648Z" fill="#A06EB1"/>
</svg>
