<svg width="325" height="25" viewBox="0 0 325 25" fill="none" xmlns="http://www.w3.org/2000/svg">
<path d="M7.71 24.24C7.03 24.24 6.4 24.17 5.82 24.03C5.24 23.89 4.63 23.6 3.99 23.16C3.37 22.7 2.84 22.1 2.4 21.36C1.4 19.68 0.9 17.15 0.9 13.77C0.9 11.91 1.15 10.27 1.65 8.85C2.15 7.43 2.78 6.33 3.54 5.55C4.3 4.75 5.21 4.1 6.27 3.6C7.33 3.1 8.32 2.78 9.24 2.64C10.16 2.48 11.14 2.4 12.18 2.4C14.58 2.4 16.27 2.61 17.25 3.03C18.23 3.43 18.72 4.21 18.72 5.37C18.72 6.29 18.55 7.29 18.21 8.37C17.87 9.43 17.37 9.96 16.71 9.96C16.55 9.96 15.87 9.81 14.67 9.51C13.47 9.19 12.57 9.03 11.97 9.03C10.25 9.03 9.39 10.48 9.39 13.38C9.39 14.84 9.59 15.93 9.99 16.65C10.39 17.35 10.89 17.74 11.49 17.82V15.12C11.49 14.62 12 14.16 13.02 13.74C14.04 13.32 15.02 13.11 15.96 13.11C16.9 13.11 17.58 13.17 18 13.29C18.44 13.41 18.74 13.58 18.9 13.8C19.18 14.16 19.32 14.48 19.32 14.76V23.07C19.32 23.33 18.79 23.54 17.73 23.7C16.69 23.86 15.6 23.94 14.46 23.94C13.34 23.94 12.63 23.89 12.33 23.79C12.03 23.67 11.86 23.36 11.82 22.86L11.61 21.09H11.37C11.23 21.95 10.87 22.69 10.29 23.31C9.73 23.93 8.87 24.24 7.71 24.24ZM30.5048 24.27C29.0048 24.27 27.7148 24.14 26.6348 23.88C25.5548 23.62 24.5748 23.16 23.6948 22.5C21.8748 21.18 20.9648 18.72 20.9648 15.12C20.9648 11.92 21.8948 9.63 23.7548 8.25C25.4948 6.97 27.7448 6.33 30.5048 6.33C31.6848 6.33 32.6948 6.39 33.5348 6.51C34.3748 6.61 35.2248 6.84 36.0848 7.2C36.9648 7.56 37.6648 8.05 38.1848 8.67C38.7248 9.29 39.1648 10.15 39.5048 11.25C39.8448 12.33 40.0148 13.62 40.0148 15.12C40.0148 18.16 39.1548 20.45 37.4348 21.99C35.7148 23.51 33.4048 24.27 30.5048 24.27ZM29.4548 18.42C29.5948 19.14 29.7348 19.57 29.8748 19.71C30.0348 19.85 30.2348 19.92 30.4748 19.92C30.7348 19.92 30.9348 19.85 31.0748 19.71C31.2348 19.57 31.3748 19.14 31.4948 18.42C31.6348 17.7 31.7048 16.8 31.7048 15.72C31.7048 14.62 31.6748 13.78 31.6148 13.2C31.5748 12.6 31.5148 12.14 31.4348 11.82C31.3748 11.5 31.2848 11.25 31.1648 11.07C30.9848 10.81 30.7648 10.68 30.5048 10.68C30.2648 10.68 30.0648 10.76 29.9048 10.92C29.7448 11.06 29.5948 11.5 29.4548 12.24C29.3148 12.96 29.2448 13.99 29.2448 15.33C29.2448 16.67 29.3148 17.7 29.4548 18.42ZM53.592 23.73C53.232 24.07 52.412 24.24 51.132 24.24C49.852 24.24 48.792 24.16 47.952 24C47.112 23.82 46.312 23.48 45.552 22.98C44.092 22 43.362 19.96 43.362 16.86V12.18H41.862C41.642 12.18 41.452 11.95 41.292 11.49C41.132 11.03 41.052 10.4 41.052 9.6C41.052 8.8 41.172 8.1 41.412 7.5C41.672 6.88 42.002 6.57 42.402 6.57H43.362V2.94C43.362 2.32 43.962 1.82 45.162 1.44C46.382 1.06 47.572 0.869999 48.732 0.869999C50.552 0.869999 51.462 1.32 51.462 2.22V6.57H53.682C54.202 6.57 54.462 7.32 54.462 8.82C54.462 9.8 54.342 10.61 54.102 11.25C53.882 11.87 53.592 12.18 53.232 12.18H51.462V17.67C51.462 18.21 51.692 18.6 52.152 18.84C52.612 19.06 53.012 19.17 53.352 19.17C53.712 19.17 53.932 19.34 54.012 19.68C54.092 20.02 54.132 20.53 54.132 21.21C54.132 22.55 53.952 23.39 53.592 23.73ZM65.6829 24C64.6829 24 64.0129 23.95 63.6729 23.85C63.3329 23.73 63.1629 23.54 63.1629 23.28V4.62C63.1629 4.18 63.7429 3.75 64.9029 3.33C66.0629 2.89 67.3629 2.67 68.8029 2.67C70.0829 2.67 70.9229 2.94 71.3229 3.48C71.4629 3.68 71.5329 3.88 71.5329 4.08V17.37C73.9729 17.21 75.8129 17.13 77.0529 17.13C77.4729 17.13 77.6829 17.8 77.6829 19.14C77.6829 20.46 77.5929 21.6 77.4129 22.56C77.2329 23.52 76.9929 24 76.6929 24H65.6829ZM88.5713 24.27C87.0713 24.27 85.7813 24.14 84.7013 23.88C83.6213 23.62 82.6413 23.16 81.7613 22.5C79.9413 21.18 79.0313 18.72 79.0313 15.12C79.0313 11.92 79.9613 9.63 81.8213 8.25C83.5613 6.97 85.8113 6.33 88.5713 6.33C89.7513 6.33 90.7613 6.39 91.6013 6.51C92.4413 6.61 93.2913 6.84 94.1513 7.2C95.0313 7.56 95.7313 8.05 96.2513 8.67C96.7913 9.29 97.2313 10.15 97.5713 11.25C97.9113 12.33 98.0813 13.62 98.0813 15.12C98.0813 18.16 97.2213 20.45 95.5013 21.99C93.7813 23.51 91.4713 24.27 88.5713 24.27ZM87.5213 18.42C87.6613 19.14 87.8013 19.57 87.9413 19.71C88.1013 19.85 88.3013 19.92 88.5413 19.92C88.8013 19.92 89.0013 19.85 89.1413 19.71C89.3013 19.57 89.4413 19.14 89.5613 18.42C89.7013 17.7 89.7713 16.8 89.7713 15.72C89.7713 14.62 89.7413 13.78 89.6813 13.2C89.6413 12.6 89.5813 12.14 89.5013 11.82C89.4413 11.5 89.3513 11.25 89.2313 11.07C89.0513 10.81 88.8313 10.68 88.5713 10.68C88.3313 10.68 88.1313 10.76 87.9713 10.92C87.8113 11.06 87.6613 11.5 87.5213 12.24C87.3813 12.96 87.3113 13.99 87.3113 15.33C87.3113 16.67 87.3813 17.7 87.5213 18.42ZM98.9684 8.73C98.9684 8.53 99.2584 8.27 99.8384 7.95C100.418 7.61 101.208 7.3 102.208 7.02C103.208 6.74 104.188 6.6 105.148 6.6C107.088 6.6 108.088 7.07 108.148 8.01L108.898 17.55H109.288L109.948 8.49C109.988 7.99 110.678 7.55 112.018 7.17C113.358 6.79 114.538 6.6 115.558 6.6C116.578 6.6 117.338 6.69 117.838 6.87C118.358 7.05 118.688 7.24 118.828 7.44C118.968 7.62 119.038 7.78 119.038 7.92C119.038 8.06 118.608 9.09 117.748 11.01C116.908 12.93 115.218 17.02 112.678 23.28C112.478 23.76 110.848 24 107.788 24C106.828 24 106.198 23.95 105.898 23.85C105.598 23.73 105.398 23.54 105.298 23.28C103.918 19.8 102.518 16.53 101.098 13.47C99.6784 10.39 98.9684 8.81 98.9684 8.73ZM128.12 17.22C128.12 18.52 128.74 19.17 129.98 19.17C130.7 19.17 131.64 18.93 132.8 18.45C133.96 17.95 134.57 17.7 134.63 17.7C135.01 17.7 135.51 18.27 136.13 19.41C136.75 20.55 137.06 21.39 137.06 21.93C137.06 22.71 136.26 23.3 134.66 23.7C133.06 24.1 131.49 24.3 129.95 24.3C128.43 24.3 127.15 24.18 126.11 23.94C125.09 23.7 124.25 23.4 123.59 23.04C122.95 22.66 122.38 22.2 121.88 21.66C121.4 21.12 121.04 20.61 120.8 20.13C120.56 19.63 120.37 19.08 120.23 18.48C120.03 17.6 119.93 16.69 119.93 15.75C119.93 12.11 120.88 9.6 122.78 8.22C123.72 7.52 124.77 7.03 125.93 6.75C127.09 6.47 128.46 6.33 130.04 6.33C135.1 6.33 137.63 8.09 137.63 11.61C137.63 15.35 134.79 17.22 129.11 17.22H128.12ZM128.06 12.84V14.82C128.64 14.82 129.11 14.59 129.47 14.13C129.85 13.67 130.04 13.11 130.04 12.45C130.04 11.25 129.73 10.65 129.11 10.65C128.41 10.65 128.06 11.38 128.06 12.84ZM141.039 10.77C140.479 10.77 139.989 10.11 139.569 8.79C139.169 7.45 138.969 6.17 138.969 4.95C138.969 4.67 139.279 4.36 139.899 4.02C140.519 3.66 141.459 3.35 142.719 3.09C143.979 2.81 145.349 2.67 146.829 2.67C152.569 2.67 155.439 4.67 155.439 8.67C155.439 9.81 155.199 10.8 154.719 11.64C154.259 12.46 153.699 13.06 153.039 13.44C151.699 14.18 150.469 14.56 149.349 14.58L148.659 14.61C148.659 14.83 148.709 15.18 148.809 15.66C148.909 16.14 148.959 16.56 148.959 16.92C148.959 17.24 148.409 17.49 147.309 17.67C146.229 17.83 145.289 17.91 144.489 17.91C143.269 17.91 142.509 17.61 142.209 17.01C141.929 16.41 141.789 15.14 141.789 13.2C141.789 12.74 142.649 12.4 144.369 12.18C145.009 12.08 145.589 11.87 146.109 11.55C146.649 11.23 146.919 10.79 146.919 10.23C146.919 9.67 146.469 9.39 145.569 9.39C144.669 9.39 143.719 9.62 142.719 10.08C141.739 10.54 141.179 10.77 141.039 10.77ZM145.749 18.93C147.109 18.93 148.149 19.11 148.869 19.47C149.589 19.81 149.949 20.53 149.949 21.63C149.949 23.43 148.549 24.33 145.749 24.33C142.949 24.33 141.549 23.43 141.549 21.63C141.549 19.83 142.949 18.93 145.749 18.93ZM170.776 24.24C170.096 24.24 169.466 24.17 168.886 24.03C168.306 23.89 167.696 23.6 167.056 23.16C166.436 22.7 165.906 22.1 165.466 21.36C164.466 19.68 163.966 17.15 163.966 13.77C163.966 11.91 164.216 10.27 164.716 8.85C165.216 7.43 165.846 6.33 166.606 5.55C167.366 4.75 168.276 4.1 169.336 3.6C170.396 3.1 171.386 2.78 172.306 2.64C173.226 2.48 174.206 2.4 175.246 2.4C177.646 2.4 179.336 2.61 180.316 3.03C181.296 3.43 181.786 4.21 181.786 5.37C181.786 6.29 181.616 7.29 181.276 8.37C180.936 9.43 180.436 9.96 179.776 9.96C179.616 9.96 178.936 9.81 177.736 9.51C176.536 9.19 175.636 9.03 175.036 9.03C173.316 9.03 172.456 10.48 172.456 13.38C172.456 14.84 172.656 15.93 173.056 16.65C173.456 17.35 173.956 17.74 174.556 17.82V15.12C174.556 14.62 175.066 14.16 176.086 13.74C177.106 13.32 178.086 13.11 179.026 13.11C179.966 13.11 180.646 13.17 181.066 13.29C181.506 13.41 181.806 13.58 181.966 13.8C182.246 14.16 182.386 14.48 182.386 14.76V23.07C182.386 23.33 181.856 23.54 180.796 23.7C179.756 23.86 178.666 23.94 177.526 23.94C176.406 23.94 175.696 23.89 175.396 23.79C175.096 23.67 174.926 23.36 174.886 22.86L174.676 21.09H174.436C174.296 21.95 173.936 22.69 173.356 23.31C172.796 23.93 171.936 24.24 170.776 24.24ZM192.581 8.49V23.28C192.581 23.5 192.001 23.68 190.841 23.82C189.701 23.94 188.521 24 187.301 24C186.101 24 185.321 23.95 184.961 23.85C184.621 23.73 184.451 23.54 184.451 23.28V9.03C184.451 8.59 185.011 8.16 186.131 7.74C187.271 7.3 188.511 7.08 189.851 7.08C191.671 7.08 192.581 7.55 192.581 8.49ZM188.501 0.599999C189.821 0.599999 190.851 0.799999 191.591 1.2C192.351 1.58 192.731 2.28 192.731 3.3C192.731 5.1 191.331 6 188.531 6C185.731 6 184.331 5.1 184.331 3.3C184.331 1.5 185.721 0.599999 188.501 0.599999ZM193.92 8.73C193.92 8.53 194.21 8.27 194.79 7.95C195.37 7.61 196.16 7.3 197.16 7.02C198.16 6.74 199.14 6.6 200.1 6.6C202.04 6.6 203.04 7.07 203.1 8.01L203.85 17.55H204.24L204.9 8.49C204.94 7.99 205.63 7.55 206.97 7.17C208.31 6.79 209.49 6.6 210.51 6.6C211.53 6.6 212.29 6.69 212.79 6.87C213.31 7.05 213.64 7.24 213.78 7.44C213.92 7.62 213.99 7.78 213.99 7.92C213.99 8.06 213.56 9.09 212.7 11.01C211.86 12.93 210.17 17.02 207.63 23.28C207.43 23.76 205.8 24 202.74 24C201.78 24 201.15 23.95 200.85 23.85C200.55 23.73 200.35 23.54 200.25 23.28C198.87 19.8 197.47 16.53 196.05 13.47C194.63 10.39 193.92 8.81 193.92 8.73ZM223.071 17.22C223.071 18.52 223.691 19.17 224.931 19.17C225.651 19.17 226.591 18.93 227.751 18.45C228.911 17.95 229.521 17.7 229.581 17.7C229.961 17.7 230.461 18.27 231.081 19.41C231.701 20.55 232.011 21.39 232.011 21.93C232.011 22.71 231.211 23.3 229.611 23.7C228.011 24.1 226.441 24.3 224.901 24.3C223.381 24.3 222.101 24.18 221.061 23.94C220.041 23.7 219.201 23.4 218.541 23.04C217.901 22.66 217.331 22.2 216.831 21.66C216.351 21.12 215.991 20.61 215.751 20.13C215.511 19.63 215.321 19.08 215.181 18.48C214.981 17.6 214.881 16.69 214.881 15.75C214.881 12.11 215.831 9.6 217.731 8.22C218.671 7.52 219.721 7.03 220.881 6.75C222.041 6.47 223.411 6.33 224.991 6.33C230.051 6.33 232.581 8.09 232.581 11.61C232.581 15.35 229.741 17.22 224.061 17.22H223.071ZM223.011 12.84V14.82C223.591 14.82 224.061 14.59 224.421 14.13C224.801 13.67 224.991 13.11 224.991 12.45C224.991 11.25 224.681 10.65 224.061 10.65C223.361 10.65 223.011 11.38 223.011 12.84ZM243.779 24C242.779 24 242.109 23.95 241.769 23.85C241.429 23.73 241.259 23.54 241.259 23.28V4.62C241.259 4.18 241.839 3.75 242.999 3.33C244.159 2.89 245.459 2.67 246.899 2.67C248.179 2.67 249.019 2.94 249.419 3.48C249.559 3.68 249.629 3.88 249.629 4.08V17.37C252.069 17.21 253.909 17.13 255.149 17.13C255.569 17.13 255.779 17.8 255.779 19.14C255.779 20.46 255.689 21.6 255.509 22.56C255.329 23.52 255.089 24 254.789 24H243.779ZM266.667 24.27C265.167 24.27 263.877 24.14 262.797 23.88C261.717 23.62 260.737 23.16 259.857 22.5C258.037 21.18 257.127 18.72 257.127 15.12C257.127 11.92 258.057 9.63 259.917 8.25C261.657 6.97 263.907 6.33 266.667 6.33C267.847 6.33 268.857 6.39 269.697 6.51C270.537 6.61 271.387 6.84 272.247 7.2C273.127 7.56 273.827 8.05 274.347 8.67C274.887 9.29 275.327 10.15 275.667 11.25C276.007 12.33 276.177 13.62 276.177 15.12C276.177 18.16 275.317 20.45 273.597 21.99C271.877 23.51 269.567 24.27 266.667 24.27ZM265.617 18.42C265.757 19.14 265.897 19.57 266.037 19.71C266.197 19.85 266.397 19.92 266.637 19.92C266.897 19.92 267.097 19.85 267.237 19.71C267.397 19.57 267.537 19.14 267.657 18.42C267.797 17.7 267.867 16.8 267.867 15.72C267.867 14.62 267.837 13.78 267.777 13.2C267.737 12.6 267.677 12.14 267.597 11.82C267.537 11.5 267.447 11.25 267.327 11.07C267.147 10.81 266.927 10.68 266.667 10.68C266.427 10.68 266.227 10.76 266.067 10.92C265.907 11.06 265.757 11.5 265.617 12.24C265.477 12.96 265.407 13.99 265.407 15.33C265.407 16.67 265.477 17.7 265.617 18.42ZM277.064 8.73C277.064 8.53 277.354 8.27 277.934 7.95C278.514 7.61 279.304 7.3 280.304 7.02C281.304 6.74 282.284 6.6 283.244 6.6C285.184 6.6 286.184 7.07 286.244 8.01L286.994 17.55H287.384L288.044 8.49C288.084 7.99 288.774 7.55 290.114 7.17C291.454 6.79 292.634 6.6 293.654 6.6C294.674 6.6 295.434 6.69 295.934 6.87C296.454 7.05 296.784 7.24 296.924 7.44C297.064 7.62 297.134 7.78 297.134 7.92C297.134 8.06 296.704 9.09 295.844 11.01C295.004 12.93 293.314 17.02 290.774 23.28C290.574 23.76 288.944 24 285.884 24C284.924 24 284.294 23.95 283.994 23.85C283.694 23.73 283.494 23.54 283.394 23.28C282.014 19.8 280.614 16.53 279.194 13.47C277.774 10.39 277.064 8.81 277.064 8.73ZM306.215 17.22C306.215 18.52 306.835 19.17 308.075 19.17C308.795 19.17 309.735 18.93 310.895 18.45C312.055 17.95 312.665 17.7 312.725 17.7C313.105 17.7 313.605 18.27 314.225 19.41C314.845 20.55 315.155 21.39 315.155 21.93C315.155 22.71 314.355 23.3 312.755 23.7C311.155 24.1 309.585 24.3 308.045 24.3C306.525 24.3 305.245 24.18 304.205 23.94C303.185 23.7 302.345 23.4 301.685 23.04C301.045 22.66 300.475 22.2 299.975 21.66C299.495 21.12 299.135 20.61 298.895 20.13C298.655 19.63 298.465 19.08 298.325 18.48C298.125 17.6 298.025 16.69 298.025 15.75C298.025 12.11 298.975 9.6 300.875 8.22C301.815 7.52 302.865 7.03 304.025 6.75C305.185 6.47 306.555 6.33 308.135 6.33C313.195 6.33 315.725 8.09 315.725 11.61C315.725 15.35 312.885 17.22 307.205 17.22H306.215ZM306.155 12.84V14.82C306.735 14.82 307.205 14.59 307.565 14.13C307.945 13.67 308.135 13.11 308.135 12.45C308.135 11.25 307.825 10.65 307.205 10.65C306.505 10.65 306.155 11.38 306.155 12.84ZM324.055 21.18C324.055 22.36 323.785 23.17 323.245 23.61C322.705 24.05 321.905 24.27 320.845 24.27C319.805 24.27 319.015 24.05 318.475 23.61C317.935 23.17 317.665 22.36 317.665 21.18C317.665 20 317.935 19.22 318.475 18.84C319.035 18.44 319.835 18.24 320.875 18.24C321.915 18.24 322.705 18.44 323.245 18.84C323.785 19.22 324.055 20 324.055 21.18Z" fill="#A06EB1"/>
</svg>
