<svg width="540" height="114" viewBox="0 0 540 114" fill="none" xmlns="http://www.w3.org/2000/svg">
<path d="M138.819 44V35.87L133.419 23.36H135.279L139.659 33.68H139.839L144.219 23.36H146.019L140.589 35.87V44H138.819ZM151.442 44.24C149.842 44.24 148.692 44.03 147.992 43.61C147.312 43.19 146.862 42.47 146.642 41.45C146.442 40.41 146.342 38.72 146.342 36.38C146.342 34.02 146.442 32.32 146.642 31.28C146.862 30.24 147.312 29.51 147.992 29.09C148.692 28.67 149.842 28.46 151.442 28.46C153.042 28.46 154.192 28.67 154.892 29.09C155.592 29.51 156.042 30.24 156.242 31.28C156.442 32.32 156.542 34.02 156.542 36.38C156.542 38.72 156.442 40.41 156.242 41.45C156.042 42.47 155.592 43.19 154.892 43.61C154.192 44.03 153.042 44.24 151.442 44.24ZM151.442 42.77C152.582 42.77 153.372 42.62 153.812 42.32C154.272 42.02 154.562 41.47 154.682 40.67C154.802 39.85 154.862 38.42 154.862 36.38C154.862 34.34 154.802 32.91 154.682 32.09C154.562 31.27 154.272 30.71 153.812 30.41C153.352 30.09 152.562 29.93 151.442 29.93C150.322 29.93 149.532 30.09 149.072 30.41C148.612 30.71 148.322 31.27 148.202 32.09C148.082 32.91 148.022 34.34 148.022 36.38C148.022 38.42 148.082 39.85 148.202 40.67C148.322 41.47 148.602 42.02 149.042 42.32C149.502 42.62 150.302 42.77 151.442 42.77ZM168.164 41.81H168.014C167.774 42.57 167.354 43.17 166.754 43.61C166.174 44.03 165.294 44.24 164.114 44.24C162.954 44.24 162.074 44.05 161.474 43.67C160.894 43.27 160.504 42.66 160.304 41.84C160.104 41.02 160.004 39.85 160.004 38.33V28.7H161.684V37.82C161.684 39.32 161.754 40.4 161.894 41.06C162.054 41.72 162.334 42.16 162.734 42.38C163.134 42.6 163.794 42.71 164.714 42.71C165.734 42.71 166.484 42.47 166.964 41.99C167.444 41.49 167.734 40.84 167.834 40.04C167.954 39.24 168.014 38.1 168.014 36.62V28.7H169.694V44H168.284L168.164 41.81ZM173.746 28.7H175.186L175.306 31.64H175.456C175.716 30.42 176.176 29.59 176.836 29.15C177.516 28.69 178.396 28.46 179.476 28.46V30.17C178.416 30.17 177.586 30.41 176.986 30.89C176.406 31.35 175.996 32.04 175.756 32.96C175.536 33.86 175.426 35.05 175.426 36.53V44H173.746V28.7ZM187.779 44V21.71H189.459V44H187.779ZM198.082 44.24C196.482 44.24 195.332 44.03 194.632 43.61C193.952 43.19 193.502 42.47 193.282 41.45C193.082 40.41 192.982 38.72 192.982 36.38C192.982 34.02 193.082 32.32 193.282 31.28C193.502 30.24 193.952 29.51 194.632 29.09C195.332 28.67 196.482 28.46 198.082 28.46C199.682 28.46 200.832 28.67 201.532 29.09C202.232 29.51 202.682 30.24 202.882 31.28C203.082 32.32 203.182 34.02 203.182 36.38C203.182 38.72 203.082 40.41 202.882 41.45C202.682 42.47 202.232 43.19 201.532 43.61C200.832 44.03 199.682 44.24 198.082 44.24ZM198.082 42.77C199.222 42.77 200.012 42.62 200.452 42.32C200.912 42.02 201.202 41.47 201.322 40.67C201.442 39.85 201.502 38.42 201.502 36.38C201.502 34.34 201.442 32.91 201.322 32.09C201.202 31.27 200.912 30.71 200.452 30.41C199.992 30.09 199.202 29.93 198.082 29.93C196.962 29.93 196.172 30.09 195.712 30.41C195.252 30.71 194.962 31.27 194.842 32.09C194.722 32.91 194.662 34.34 194.662 36.38C194.662 38.42 194.722 39.85 194.842 40.67C194.962 41.47 195.242 42.02 195.682 42.32C196.142 42.62 196.942 42.77 198.082 42.77ZM209.501 44L205.061 28.7H206.831L210.401 41.63H210.581L214.121 28.7H215.861L211.421 44H209.501ZM227.549 36.92H219.389C219.389 38.66 219.469 39.92 219.629 40.7C219.789 41.46 220.129 42 220.649 42.32C221.189 42.62 222.059 42.77 223.259 42.77C223.859 42.77 224.519 42.74 225.239 42.68C225.959 42.6 226.589 42.5 227.129 42.38V43.82C226.669 43.94 226.049 44.04 225.269 44.12C224.489 44.2 223.729 44.24 222.989 44.24C221.409 44.24 220.249 44.02 219.509 43.58C218.789 43.12 218.309 42.36 218.069 41.3C217.829 40.22 217.709 38.58 217.709 36.38C217.709 34.16 217.809 32.53 218.009 31.49C218.209 30.45 218.669 29.69 219.389 29.21C220.109 28.71 221.279 28.46 222.899 28.46C224.359 28.46 225.409 28.7 226.049 29.18C226.689 29.64 227.099 30.39 227.279 31.43C227.459 32.45 227.549 34.08 227.549 36.32V36.92ZM222.839 29.93C221.779 29.93 221.009 30.07 220.529 30.35C220.069 30.61 219.769 31.11 219.629 31.85C219.489 32.59 219.409 33.83 219.389 35.57H225.899V35.12C225.899 33.56 225.809 32.42 225.629 31.7C225.469 30.98 225.179 30.51 224.759 30.29C224.339 30.05 223.699 29.93 222.839 29.93ZM240.393 44.24C239.713 44.24 238.993 44.2 238.233 44.12C237.473 44.06 236.853 43.98 236.373 43.88V42.44C237.573 42.66 238.923 42.77 240.423 42.77C241.563 42.77 242.313 42.55 242.673 42.11C243.053 41.65 243.243 40.92 243.243 39.92C243.243 39.12 243.193 38.54 243.093 38.18C243.013 37.82 242.863 37.58 242.643 37.46C242.443 37.34 242.103 37.25 241.623 37.19L238.533 36.77C237.573 36.63 236.913 36.27 236.553 35.69C236.193 35.11 236.013 34.17 236.013 32.87C236.013 31.67 236.193 30.75 236.553 30.11C236.933 29.47 237.453 29.04 238.113 28.82C238.773 28.58 239.633 28.46 240.693 28.46C241.273 28.46 241.903 28.5 242.583 28.58C243.263 28.66 243.823 28.75 244.263 28.85V30.29C243.203 30.05 241.963 29.93 240.543 29.93C239.543 29.93 238.813 30.12 238.353 30.5C237.893 30.88 237.663 31.62 237.663 32.72C237.663 33.44 237.703 33.97 237.783 34.31C237.883 34.65 238.033 34.88 238.233 35C238.453 35.12 238.793 35.21 239.253 35.27L242.283 35.69C242.963 35.79 243.483 35.96 243.843 36.2C244.203 36.44 244.463 36.84 244.623 37.4C244.803 37.96 244.893 38.78 244.893 39.86C244.893 41.5 244.543 42.64 243.843 43.28C243.143 43.92 241.993 44.24 240.393 44.24ZM248.914 44V30.17H246.604V28.7H248.914V24.26H250.594V28.7H253.264V30.17H250.594V44H248.914ZM260.367 44.24C258.767 44.24 257.617 44.03 256.917 43.61C256.237 43.19 255.787 42.47 255.567 41.45C255.367 40.41 255.267 38.72 255.267 36.38C255.267 34.02 255.367 32.32 255.567 31.28C255.787 30.24 256.237 29.51 256.917 29.09C257.617 28.67 258.767 28.46 260.367 28.46C261.967 28.46 263.117 28.67 263.817 29.09C264.517 29.51 264.967 30.24 265.167 31.28C265.367 32.32 265.467 34.02 265.467 36.38C265.467 38.72 265.367 40.41 265.167 41.45C264.967 42.47 264.517 43.19 263.817 43.61C263.117 44.03 261.967 44.24 260.367 44.24ZM260.367 42.77C261.507 42.77 262.297 42.62 262.737 42.32C263.197 42.02 263.487 41.47 263.607 40.67C263.727 39.85 263.787 38.42 263.787 36.38C263.787 34.34 263.727 32.91 263.607 32.09C263.487 31.27 263.197 30.71 262.737 30.41C262.277 30.09 261.487 29.93 260.367 29.93C259.247 29.93 258.457 30.09 257.997 30.41C257.537 30.71 257.247 31.27 257.127 32.09C257.007 32.91 256.947 34.34 256.947 36.38C256.947 38.42 257.007 39.85 257.127 40.67C257.247 41.47 257.527 42.02 257.967 42.32C258.427 42.62 259.227 42.77 260.367 42.77ZM269.019 28.7H270.459L270.579 31.64H270.729C270.989 30.42 271.449 29.59 272.109 29.15C272.789 28.69 273.669 28.46 274.749 28.46V30.17C273.689 30.17 272.859 30.41 272.259 30.89C271.679 31.35 271.269 32.04 271.029 32.96C270.809 33.86 270.699 35.05 270.699 36.53V44H269.019V28.7ZM281.51 49.97C280.13 49.97 278.84 49.92 277.64 49.82V48.38C279.04 48.46 280.24 48.5 281.24 48.5C282.46 48.5 283.35 48.31 283.91 47.93C284.49 47.55 284.86 46.95 285.02 46.13C285.18 45.33 285.26 44.12 285.26 42.5V41.99H285.14C284.9 42.67 284.5 43.21 283.94 43.61C283.38 44.01 282.5 44.21 281.3 44.21C280.14 44.21 279.27 44.01 278.69 43.61C278.13 43.21 277.75 42.59 277.55 41.75C277.35 40.91 277.25 39.71 277.25 38.15V28.7H278.93V37.82C278.93 39.3 279 40.37 279.14 41.03C279.3 41.69 279.58 42.13 279.98 42.35C280.38 42.57 281.04 42.68 281.96 42.68C283 42.68 283.75 42.44 284.21 41.96C284.69 41.48 284.98 40.85 285.08 40.07C285.2 39.27 285.26 38.12 285.26 36.62V28.7H286.94V41.84C286.94 43.98 286.81 45.61 286.55 46.73C286.29 47.85 285.77 48.67 284.99 49.19C284.23 49.71 283.07 49.97 281.51 49.97ZM296.645 23.96V21.71H298.445V23.96H296.645ZM296.705 44V28.7H298.385V44H296.705ZM306.018 44.24C305.338 44.24 304.618 44.2 303.858 44.12C303.098 44.06 302.478 43.98 301.998 43.88V42.44C303.198 42.66 304.548 42.77 306.048 42.77C307.188 42.77 307.938 42.55 308.298 42.11C308.678 41.65 308.868 40.92 308.868 39.92C308.868 39.12 308.818 38.54 308.718 38.18C308.638 37.82 308.488 37.58 308.268 37.46C308.068 37.34 307.728 37.25 307.248 37.19L304.158 36.77C303.198 36.63 302.538 36.27 302.178 35.69C301.818 35.11 301.638 34.17 301.638 32.87C301.638 31.67 301.818 30.75 302.178 30.11C302.558 29.47 303.078 29.04 303.738 28.82C304.398 28.58 305.258 28.46 306.318 28.46C306.898 28.46 307.528 28.5 308.208 28.58C308.888 28.66 309.448 28.75 309.888 28.85V30.29C308.828 30.05 307.588 29.93 306.168 29.93C305.168 29.93 304.438 30.12 303.978 30.5C303.518 30.88 303.288 31.62 303.288 32.72C303.288 33.44 303.328 33.97 303.408 34.31C303.508 34.65 303.658 34.88 303.858 35C304.078 35.12 304.418 35.21 304.878 35.27L307.908 35.69C308.588 35.79 309.108 35.96 309.468 36.2C309.828 36.44 310.088 36.84 310.248 37.4C310.428 37.96 310.518 38.78 310.518 39.86C310.518 41.5 310.168 42.64 309.468 43.28C308.768 43.92 307.618 44.24 306.018 44.24ZM319.469 44V21.71H321.149V44H319.469ZM329.772 44.24C328.172 44.24 327.022 44.03 326.322 43.61C325.642 43.19 325.192 42.47 324.972 41.45C324.772 40.41 324.672 38.72 324.672 36.38C324.672 34.02 324.772 32.32 324.972 31.28C325.192 30.24 325.642 29.51 326.322 29.09C327.022 28.67 328.172 28.46 329.772 28.46C331.372 28.46 332.522 28.67 333.222 29.09C333.922 29.51 334.372 30.24 334.572 31.28C334.772 32.32 334.872 34.02 334.872 36.38C334.872 38.72 334.772 40.41 334.572 41.45C334.372 42.47 333.922 43.19 333.222 43.61C332.522 44.03 331.372 44.24 329.772 44.24ZM329.772 42.77C330.912 42.77 331.702 42.62 332.142 42.32C332.602 42.02 332.892 41.47 333.012 40.67C333.132 39.85 333.192 38.42 333.192 36.38C333.192 34.34 333.132 32.91 333.012 32.09C332.892 31.27 332.602 30.71 332.142 30.41C331.682 30.09 330.892 29.93 329.772 29.93C328.652 29.93 327.862 30.09 327.402 30.41C326.942 30.71 326.652 31.27 326.532 32.09C326.412 32.91 326.352 34.34 326.352 36.38C326.352 38.42 326.412 39.85 326.532 40.67C326.652 41.47 326.932 42.02 327.372 42.32C327.832 42.62 328.632 42.77 329.772 42.77ZM341.604 44.24C340.624 44.24 339.844 44.12 339.264 43.88C338.684 43.62 338.244 43.17 337.944 42.53C337.664 41.89 337.524 40.99 337.524 39.83C337.524 38.67 337.634 37.78 337.854 37.16C338.094 36.52 338.484 36.06 339.024 35.78C339.564 35.5 340.334 35.36 341.334 35.36C341.934 35.36 343.354 35.41 345.594 35.51V34.31C345.594 32.95 345.504 31.98 345.324 31.4C345.144 30.8 344.814 30.41 344.334 30.23C343.854 30.03 343.064 29.93 341.964 29.93C341.464 29.93 340.844 29.97 340.104 30.05C339.364 30.11 338.764 30.19 338.304 30.29V28.85C339.604 28.59 340.984 28.46 342.444 28.46C343.804 28.46 344.814 28.63 345.474 28.97C346.154 29.29 346.624 29.85 346.884 30.65C347.144 31.45 347.274 32.64 347.274 34.22V44H345.834L345.714 41.81H345.594C345.294 42.79 344.794 43.44 344.094 43.76C343.394 44.08 342.564 44.24 341.604 44.24ZM342.024 42.77C342.824 42.77 343.474 42.67 343.974 42.47C344.494 42.27 344.874 41.86 345.114 41.24C345.294 40.74 345.414 40.23 345.474 39.71C345.554 39.17 345.594 38.52 345.594 37.76V36.71H341.724C341.024 36.71 340.494 36.79 340.134 36.95C339.794 37.09 339.554 37.37 339.414 37.79C339.274 38.21 339.204 38.86 339.204 39.74C339.204 40.58 339.274 41.22 339.414 41.66C339.574 42.08 339.844 42.37 340.224 42.53C340.624 42.69 341.224 42.77 342.024 42.77ZM355.217 44.24C353.977 44.24 353.037 44.02 352.397 43.58C351.777 43.14 351.337 42.37 351.077 41.27C350.837 40.17 350.717 38.53 350.717 36.35C350.717 34.17 350.837 32.53 351.077 31.43C351.317 30.33 351.747 29.56 352.367 29.12C353.007 28.68 353.957 28.46 355.217 28.46C356.217 28.46 357.017 28.63 357.617 28.97C358.237 29.29 358.677 29.84 358.937 30.62H359.087V21.71H360.767V44H359.327L359.207 41.81H359.057C358.777 42.77 358.307 43.42 357.647 43.76C356.987 44.08 356.177 44.24 355.217 44.24ZM355.757 42.71C356.597 42.71 357.257 42.55 357.737 42.23C358.217 41.91 358.547 41.41 358.727 40.73C358.867 40.13 358.957 39.48 358.997 38.78C359.057 38.08 359.087 37.17 359.087 36.05C359.087 34.37 358.987 33.12 358.787 32.3C358.587 31.46 358.247 30.87 357.767 30.53C357.287 30.17 356.587 29.99 355.667 29.99C354.667 29.99 353.947 30.14 353.507 30.44C353.067 30.72 352.767 31.29 352.607 32.15C352.467 32.99 352.397 34.39 352.397 36.35C352.397 38.31 352.467 39.72 352.607 40.58C352.767 41.42 353.067 41.99 353.507 42.29C353.967 42.57 354.717 42.71 355.757 42.71ZM364.731 23.96V21.71H366.531V23.96H364.731ZM364.791 44V28.7H366.471V44H364.791ZM378.514 34.88C378.514 33.38 378.444 32.3 378.304 31.64C378.164 30.98 377.884 30.54 377.464 30.32C377.064 30.1 376.414 29.99 375.514 29.99C374.474 29.99 373.714 30.24 373.234 30.74C372.774 31.22 372.484 31.86 372.364 32.66C372.244 33.46 372.184 34.6 372.184 36.08V44H370.504V28.7H371.944L372.064 30.89H372.214C372.454 30.13 372.864 29.54 373.444 29.12C374.024 28.68 374.914 28.46 376.114 28.46C377.274 28.46 378.144 28.66 378.724 29.06C379.304 29.44 379.694 30.04 379.894 30.86C380.094 31.68 380.194 32.85 380.194 34.37V44H378.514V34.88ZM388.146 49.97C386.606 49.97 385.266 49.91 384.126 49.79V48.35C385.366 48.45 386.616 48.5 387.876 48.5C389.116 48.5 390.016 48.33 390.576 47.99C391.156 47.65 391.536 47.07 391.716 46.25C391.896 45.43 391.986 44.13 391.986 42.35V42.02H391.866C391.606 42.8 391.176 43.36 390.576 43.7C389.976 44.02 389.166 44.18 388.146 44.18C386.886 44.18 385.936 43.97 385.296 43.55C384.676 43.11 384.246 42.34 384.006 41.24C383.766 40.14 383.646 38.51 383.646 36.35C383.646 34.17 383.766 32.53 384.006 31.43C384.266 30.33 384.706 29.56 385.326 29.12C385.966 28.68 386.916 28.46 388.176 28.46C389.136 28.46 389.936 28.63 390.576 28.97C391.236 29.29 391.706 29.93 391.986 30.89H392.136L392.226 28.7H393.666V41.72C393.666 43.94 393.536 45.61 393.276 46.73C393.036 47.87 392.526 48.69 391.746 49.19C390.966 49.71 389.766 49.97 388.146 49.97ZM388.686 42.68C389.526 42.68 390.176 42.52 390.636 42.2C391.116 41.86 391.456 41.32 391.656 40.58C391.796 40.08 391.886 39.51 391.926 38.87C391.966 38.23 391.986 37.39 391.986 36.35C391.986 35.35 391.966 34.54 391.926 33.92C391.906 33.3 391.836 32.76 391.716 32.3C391.516 31.46 391.176 30.87 390.696 30.53C390.216 30.17 389.546 29.99 388.686 29.99C387.646 29.99 386.896 30.13 386.436 30.41C385.996 30.69 385.696 31.26 385.536 32.12C385.396 32.96 385.326 34.37 385.326 36.35C385.326 38.31 385.396 39.71 385.536 40.55C385.696 41.39 385.996 41.96 386.436 42.26C386.896 42.54 387.646 42.68 388.686 42.68ZM397.391 44V41.6H399.371V44H397.391ZM402.782 44V41.6H404.762V44H402.782ZM408.173 44V41.6H410.153V44H408.173ZM14.9326 70.36H20.9626C22.3426 70.36 23.3726 70.63 24.0526 71.17C24.7526 71.71 25.1926 72.42 25.3726 73.3C25.5726 74.18 25.6726 75.32 25.6726 76.72C25.6726 78.08 25.5726 79.2 25.3726 80.08C25.1726 80.96 24.7226 81.68 24.0226 82.24C23.3426 82.8 22.3126 83.08 20.9326 83.08H16.7026V91H14.9326V70.36ZM20.5726 81.52C21.5726 81.52 22.3026 81.34 22.7626 80.98C23.2426 80.62 23.5526 80.12 23.6926 79.48C23.8326 78.82 23.9026 77.9 23.9026 76.72C23.9026 75.52 23.8326 74.6 23.6926 73.96C23.5726 73.32 23.2726 72.83 22.7926 72.49C22.3326 72.13 21.6026 71.95 20.6026 71.95H16.7026V81.52H20.5726ZM28.6679 75.7H30.1079L30.2279 78.64H30.3779C30.6379 77.42 31.0979 76.59 31.7579 76.15C32.4379 75.69 33.3179 75.46 34.3979 75.46V77.17C33.3379 77.17 32.5079 77.41 31.9079 77.89C31.3279 78.35 30.9179 79.04 30.6779 79.96C30.4579 80.86 30.3479 82.05 30.3479 83.53V91H28.6679V75.7ZM41.4318 91.24C39.8318 91.24 38.6818 91.03 37.9818 90.61C37.3018 90.19 36.8518 89.47 36.6318 88.45C36.4318 87.41 36.3318 85.72 36.3318 83.38C36.3318 81.02 36.4318 79.32 36.6318 78.28C36.8518 77.24 37.3018 76.51 37.9818 76.09C38.6818 75.67 39.8318 75.46 41.4318 75.46C43.0318 75.46 44.1818 75.67 44.8818 76.09C45.5818 76.51 46.0318 77.24 46.2318 78.28C46.4318 79.32 46.5318 81.02 46.5318 83.38C46.5318 85.72 46.4318 87.41 46.2318 88.45C46.0318 89.47 45.5818 90.19 44.8818 90.61C44.1818 91.03 43.0318 91.24 41.4318 91.24ZM41.4318 89.77C42.5718 89.77 43.3618 89.62 43.8018 89.32C44.2618 89.02 44.5518 88.47 44.6718 87.67C44.7918 86.85 44.8518 85.42 44.8518 83.38C44.8518 81.34 44.7918 79.91 44.6718 79.09C44.5518 78.27 44.2618 77.71 43.8018 77.41C43.3418 77.09 42.5518 76.93 41.4318 76.93C40.3118 76.93 39.5218 77.09 39.0618 77.41C38.6018 77.71 38.3118 78.27 38.1918 79.09C38.0718 79.91 38.0118 81.34 38.0118 83.38C38.0118 85.42 38.0718 86.85 38.1918 87.67C38.3118 88.47 38.5918 89.02 39.0318 89.32C39.4918 89.62 40.2918 89.77 41.4318 89.77ZM52.851 91L48.411 75.7H50.181L53.751 88.63H53.931L57.471 75.7H59.211L54.771 91H52.851ZM61.8013 70.96V68.71H63.6013V70.96H61.8013ZM61.8613 91V75.7H63.5413V91H61.8613ZM71.5642 91.24C70.3242 91.24 69.3842 91.02 68.7442 90.58C68.1242 90.14 67.6842 89.37 67.4242 88.27C67.1842 87.17 67.0642 85.53 67.0642 83.35C67.0642 81.17 67.1842 79.53 67.4242 78.43C67.6642 77.33 68.0942 76.56 68.7142 76.12C69.3542 75.68 70.3042 75.46 71.5642 75.46C72.5642 75.46 73.3642 75.63 73.9642 75.97C74.5842 76.29 75.0242 76.84 75.2842 77.62H75.4342V68.71H77.1142V91H75.6742L75.5542 88.81H75.4042C75.1242 89.77 74.6542 90.42 73.9942 90.76C73.3342 91.08 72.5242 91.24 71.5642 91.24ZM72.1042 89.71C72.9442 89.71 73.6042 89.55 74.0842 89.23C74.5642 88.91 74.8942 88.41 75.0742 87.73C75.2142 87.13 75.3042 86.48 75.3442 85.78C75.4042 85.08 75.4342 84.17 75.4342 83.05C75.4342 81.37 75.3342 80.12 75.1342 79.3C74.9342 78.46 74.5942 77.87 74.1142 77.53C73.6342 77.17 72.9342 76.99 72.0142 76.99C71.0142 76.99 70.2942 77.14 69.8542 77.44C69.4142 77.72 69.1142 78.29 68.9542 79.15C68.8142 79.99 68.7442 81.39 68.7442 83.35C68.7442 85.31 68.8142 86.72 68.9542 87.58C69.1142 88.42 69.4142 88.99 69.8542 89.29C70.3142 89.57 71.0642 89.71 72.1042 89.71ZM90.4686 83.92H82.3086C82.3086 85.66 82.3886 86.92 82.5486 87.7C82.7086 88.46 83.0486 89 83.5686 89.32C84.1086 89.62 84.9786 89.77 86.1786 89.77C86.7786 89.77 87.4386 89.74 88.1586 89.68C88.8786 89.6 89.5086 89.5 90.0486 89.38V90.82C89.5886 90.94 88.9686 91.04 88.1886 91.12C87.4086 91.2 86.6486 91.24 85.9086 91.24C84.3286 91.24 83.1686 91.02 82.4286 90.58C81.7086 90.12 81.2286 89.36 80.9886 88.3C80.7486 87.22 80.6286 85.58 80.6286 83.38C80.6286 81.16 80.7286 79.53 80.9286 78.49C81.1286 77.45 81.5886 76.69 82.3086 76.21C83.0286 75.71 84.1986 75.46 85.8186 75.46C87.2786 75.46 88.3286 75.7 88.9686 76.18C89.6086 76.64 90.0186 77.39 90.1986 78.43C90.3786 79.45 90.4686 81.08 90.4686 83.32V83.92ZM85.7586 76.93C84.6986 76.93 83.9286 77.07 83.4486 77.35C82.9886 77.61 82.6886 78.11 82.5486 78.85C82.4086 79.59 82.3286 80.83 82.3086 82.57H88.8186V82.12C88.8186 80.56 88.7286 79.42 88.5486 78.7C88.3886 77.98 88.0986 77.51 87.6786 77.29C87.2586 77.05 86.6186 76.93 85.7586 76.93ZM102.893 91.24C101.913 91.24 101.133 91.12 100.553 90.88C99.9729 90.62 99.5329 90.17 99.2329 89.53C98.9529 88.89 98.8129 87.99 98.8129 86.83C98.8129 85.67 98.9229 84.78 99.1429 84.16C99.3829 83.52 99.7729 83.06 100.313 82.78C100.853 82.5 101.623 82.36 102.623 82.36C103.223 82.36 104.643 82.41 106.883 82.51V81.31C106.883 79.95 106.793 78.98 106.613 78.4C106.433 77.8 106.103 77.41 105.623 77.23C105.143 77.03 104.353 76.93 103.253 76.93C102.753 76.93 102.133 76.97 101.393 77.05C100.653 77.11 100.053 77.19 99.5929 77.29V75.85C100.893 75.59 102.273 75.46 103.733 75.46C105.093 75.46 106.103 75.63 106.763 75.97C107.443 76.29 107.913 76.85 108.173 77.65C108.433 78.45 108.563 79.64 108.563 81.22V91H107.123L107.003 88.81H106.883C106.583 89.79 106.083 90.44 105.383 90.76C104.683 91.08 103.853 91.24 102.893 91.24ZM103.313 89.77C104.113 89.77 104.763 89.67 105.263 89.47C105.783 89.27 106.163 88.86 106.403 88.24C106.583 87.74 106.703 87.23 106.763 86.71C106.843 86.17 106.883 85.52 106.883 84.76V83.71H103.013C102.313 83.71 101.783 83.79 101.423 83.95C101.083 84.09 100.843 84.37 100.703 84.79C100.563 85.21 100.493 85.86 100.493 86.74C100.493 87.58 100.563 88.22 100.703 88.66C100.863 89.08 101.133 89.37 101.513 89.53C101.913 89.69 102.513 89.77 103.313 89.77ZM126.238 81.88C126.238 80.38 126.168 79.3 126.028 78.64C125.888 77.98 125.608 77.54 125.188 77.32C124.788 77.1 124.138 76.99 123.238 76.99C122.198 76.99 121.438 77.24 120.958 77.74C120.498 78.22 120.208 78.86 120.088 79.66C119.968 80.46 119.908 81.6 119.908 83.08V91H118.228V68.71H119.908V77.59H120.058C120.298 76.97 120.698 76.46 121.258 76.06C121.818 75.66 122.678 75.46 123.838 75.46C124.998 75.46 125.868 75.66 126.448 76.06C127.028 76.44 127.418 77.04 127.618 77.86C127.818 78.66 127.918 79.82 127.918 81.34V91H126.238V81.88ZM135.061 91.24C134.081 91.24 133.301 91.12 132.721 90.88C132.141 90.62 131.701 90.17 131.401 89.53C131.121 88.89 130.981 87.99 130.981 86.83C130.981 85.67 131.091 84.78 131.311 84.16C131.551 83.52 131.941 83.06 132.481 82.78C133.021 82.5 133.791 82.36 134.791 82.36C135.391 82.36 136.811 82.41 139.051 82.51V81.31C139.051 79.95 138.961 78.98 138.781 78.4C138.601 77.8 138.271 77.41 137.791 77.23C137.311 77.03 136.521 76.93 135.421 76.93C134.921 76.93 134.301 76.97 133.561 77.05C132.821 77.11 132.221 77.19 131.761 77.29V75.85C133.061 75.59 134.441 75.46 135.901 75.46C137.261 75.46 138.271 75.63 138.931 75.97C139.611 76.29 140.081 76.85 140.341 77.65C140.601 78.45 140.731 79.64 140.731 81.22V91H139.291L139.171 88.81H139.051C138.751 89.79 138.251 90.44 137.551 90.76C136.851 91.08 136.021 91.24 135.061 91.24ZM135.481 89.77C136.281 89.77 136.931 89.67 137.431 89.47C137.951 89.27 138.331 88.86 138.571 88.24C138.751 87.74 138.871 87.23 138.931 86.71C139.011 86.17 139.051 85.52 139.051 84.76V83.71H135.181C134.481 83.71 133.951 83.79 133.591 83.95C133.251 84.09 133.011 84.37 132.871 84.79C132.731 85.21 132.661 85.86 132.661 86.74C132.661 87.58 132.731 88.22 132.871 88.66C133.031 89.08 133.301 89.37 133.681 89.53C134.081 89.69 134.681 89.77 135.481 89.77ZM144.684 75.7H146.124L146.244 77.89H146.394C146.674 76.93 147.134 76.29 147.774 75.97C148.434 75.63 149.244 75.46 150.204 75.46C151.464 75.46 152.404 75.68 153.024 76.12C153.664 76.56 154.104 77.33 154.344 78.43C154.584 79.53 154.704 81.17 154.704 83.35C154.704 85.53 154.584 87.17 154.344 88.27C154.104 89.37 153.664 90.14 153.024 90.58C152.404 91.02 151.474 91.24 150.234 91.24C149.234 91.24 148.424 91.07 147.804 90.73C147.204 90.39 146.774 89.83 146.514 89.05H146.364V96.79H144.684V75.7ZM149.664 89.71C150.704 89.71 151.444 89.57 151.884 89.29C152.344 88.99 152.644 88.42 152.784 87.58C152.944 86.72 153.024 85.31 153.024 83.35C153.024 81.39 152.944 79.99 152.784 79.15C152.644 78.29 152.344 77.72 151.884 77.44C151.444 77.14 150.704 76.99 149.664 76.99C148.824 76.99 148.164 77.16 147.684 77.5C147.204 77.84 146.864 78.39 146.664 79.15C146.544 79.65 146.464 80.22 146.424 80.86C146.384 81.5 146.364 82.33 146.364 83.35C146.364 85.23 146.454 86.54 146.634 87.28C146.834 88.16 147.174 88.79 147.654 89.17C148.134 89.53 148.804 89.71 149.664 89.71ZM158.248 75.7H159.688L159.808 77.89H159.958C160.238 76.93 160.698 76.29 161.338 75.97C161.998 75.63 162.808 75.46 163.768 75.46C165.028 75.46 165.968 75.68 166.588 76.12C167.228 76.56 167.668 77.33 167.908 78.43C168.148 79.53 168.268 81.17 168.268 83.35C168.268 85.53 168.148 87.17 167.908 88.27C167.668 89.37 167.228 90.14 166.588 90.58C165.968 91.02 165.038 91.24 163.798 91.24C162.798 91.24 161.988 91.07 161.368 90.73C160.768 90.39 160.338 89.83 160.078 89.05H159.928V96.79H158.248V75.7ZM163.228 89.71C164.268 89.71 165.008 89.57 165.448 89.29C165.908 88.99 166.208 88.42 166.348 87.58C166.508 86.72 166.588 85.31 166.588 83.35C166.588 81.39 166.508 79.99 166.348 79.15C166.208 78.29 165.908 77.72 165.448 77.44C165.008 77.14 164.268 76.99 163.228 76.99C162.388 76.99 161.728 77.16 161.248 77.5C160.768 77.84 160.428 78.39 160.228 79.15C160.108 79.65 160.028 80.22 159.988 80.86C159.948 81.5 159.928 82.33 159.928 83.35C159.928 85.23 160.018 86.54 160.198 87.28C160.398 88.16 160.738 88.79 161.218 89.17C161.698 89.53 162.368 89.71 163.228 89.71ZM175.982 96.97C174.602 96.97 173.312 96.92 172.112 96.82V95.38C173.512 95.46 174.712 95.5 175.712 95.5C176.932 95.5 177.822 95.31 178.382 94.93C178.962 94.55 179.332 93.95 179.492 93.13C179.652 92.33 179.732 91.12 179.732 89.5V88.99H179.612C179.372 89.67 178.972 90.21 178.412 90.61C177.852 91.01 176.972 91.21 175.772 91.21C174.612 91.21 173.742 91.01 173.162 90.61C172.602 90.21 172.222 89.59 172.022 88.75C171.822 87.91 171.722 86.71 171.722 85.15V75.7H173.402V84.82C173.402 86.3 173.472 87.37 173.612 88.03C173.772 88.69 174.052 89.13 174.452 89.35C174.852 89.57 175.512 89.68 176.432 89.68C177.472 89.68 178.222 89.44 178.682 88.96C179.162 88.48 179.452 87.85 179.552 87.07C179.672 86.27 179.732 85.12 179.732 83.62V75.7H181.412V88.84C181.412 90.98 181.282 92.61 181.022 93.73C180.762 94.85 180.242 95.67 179.462 96.19C178.702 96.71 177.542 96.97 175.982 96.97ZM199.188 81.88C199.188 80.38 199.118 79.3 198.978 78.64C198.838 77.98 198.558 77.54 198.138 77.32C197.738 77.1 197.088 76.99 196.188 76.99C195.148 76.99 194.388 77.24 193.908 77.74C193.448 78.22 193.158 78.86 193.038 79.66C192.918 80.46 192.858 81.6 192.858 83.08V91H191.178V68.71H192.858V77.59H193.008C193.248 76.97 193.648 76.46 194.208 76.06C194.768 75.66 195.628 75.46 196.788 75.46C197.948 75.46 198.818 75.66 199.398 76.06C199.978 76.44 200.368 77.04 200.568 77.86C200.768 78.66 200.868 79.82 200.868 81.34V91H199.188V81.88ZM209.42 91.24C207.82 91.24 206.67 91.03 205.97 90.61C205.29 90.19 204.84 89.47 204.62 88.45C204.42 87.41 204.32 85.72 204.32 83.38C204.32 81.02 204.42 79.32 204.62 78.28C204.84 77.24 205.29 76.51 205.97 76.09C206.67 75.67 207.82 75.46 209.42 75.46C211.02 75.46 212.17 75.67 212.87 76.09C213.57 76.51 214.02 77.24 214.22 78.28C214.42 79.32 214.52 81.02 214.52 83.38C214.52 85.72 214.42 87.41 214.22 88.45C214.02 89.47 213.57 90.19 212.87 90.61C212.17 91.03 211.02 91.24 209.42 91.24ZM209.42 89.77C210.56 89.77 211.35 89.62 211.79 89.32C212.25 89.02 212.54 88.47 212.66 87.67C212.78 86.85 212.84 85.42 212.84 83.38C212.84 81.34 212.78 79.91 212.66 79.09C212.54 78.27 212.25 77.71 211.79 77.41C211.33 77.09 210.54 76.93 209.42 76.93C208.3 76.93 207.51 77.09 207.05 77.41C206.59 77.71 206.3 78.27 206.18 79.09C206.06 79.91 206 81.34 206 83.38C206 85.42 206.06 86.85 206.18 87.67C206.3 88.47 206.58 89.02 207.02 89.32C207.48 89.62 208.28 89.77 209.42 89.77ZM233.252 81.88C233.252 80.38 233.182 79.3 233.042 78.64C232.922 77.98 232.672 77.54 232.292 77.32C231.932 77.1 231.342 76.99 230.522 76.99C229.522 76.99 228.792 77.22 228.332 77.68C227.892 78.14 227.612 78.77 227.492 79.57C227.392 80.35 227.342 81.52 227.342 83.08V91H225.662V81.88C225.662 80.38 225.592 79.3 225.452 78.64C225.332 77.98 225.092 77.54 224.732 77.32C224.372 77.1 223.772 76.99 222.932 76.99C221.952 76.99 221.232 77.24 220.772 77.74C220.312 78.22 220.022 78.86 219.902 79.66C219.802 80.46 219.752 81.6 219.752 83.08V91H218.072V75.7H219.512L219.632 77.89H219.782C220.002 77.13 220.392 76.54 220.952 76.12C221.512 75.68 222.352 75.46 223.472 75.46C224.612 75.46 225.452 75.65 225.992 76.03C226.532 76.39 226.902 77.01 227.102 77.89H227.252C227.732 76.27 228.992 75.46 231.032 75.46C232.132 75.46 232.952 75.66 233.492 76.06C234.052 76.44 234.432 77.04 234.632 77.86C234.832 78.68 234.932 79.84 234.932 81.34V91H233.252V81.88ZM248.232 83.92H240.072C240.072 85.66 240.152 86.92 240.312 87.7C240.472 88.46 240.812 89 241.332 89.32C241.872 89.62 242.742 89.77 243.942 89.77C244.542 89.77 245.202 89.74 245.922 89.68C246.642 89.6 247.272 89.5 247.812 89.38V90.82C247.352 90.94 246.732 91.04 245.952 91.12C245.172 91.2 244.412 91.24 243.672 91.24C242.092 91.24 240.932 91.02 240.192 90.58C239.472 90.12 238.992 89.36 238.752 88.3C238.512 87.22 238.392 85.58 238.392 83.38C238.392 81.16 238.492 79.53 238.692 78.49C238.892 77.45 239.352 76.69 240.072 76.21C240.792 75.71 241.962 75.46 243.582 75.46C245.042 75.46 246.092 75.7 246.732 76.18C247.372 76.64 247.782 77.39 247.962 78.43C248.142 79.45 248.232 81.08 248.232 83.32V83.92ZM243.522 76.93C242.462 76.93 241.692 77.07 241.212 77.35C240.752 77.61 240.452 78.11 240.312 78.85C240.172 79.59 240.092 80.83 240.072 82.57H246.582V82.12C246.582 80.56 246.492 79.42 246.312 78.7C246.152 77.98 245.862 77.51 245.442 77.29C245.022 77.05 244.382 76.93 243.522 76.93ZM258.407 91V77.17H256.097V75.7H258.407V71.26H260.087V75.7H262.757V77.17H260.087V91H258.407ZM269.859 91.24C268.259 91.24 267.109 91.03 266.409 90.61C265.729 90.19 265.279 89.47 265.059 88.45C264.859 87.41 264.759 85.72 264.759 83.38C264.759 81.02 264.859 79.32 265.059 78.28C265.279 77.24 265.729 76.51 266.409 76.09C267.109 75.67 268.259 75.46 269.859 75.46C271.459 75.46 272.609 75.67 273.309 76.09C274.009 76.51 274.459 77.24 274.659 78.28C274.859 79.32 274.959 81.02 274.959 83.38C274.959 85.72 274.859 87.41 274.659 88.45C274.459 89.47 274.009 90.19 273.309 90.61C272.609 91.03 271.459 91.24 269.859 91.24ZM269.859 89.77C270.999 89.77 271.789 89.62 272.229 89.32C272.689 89.02 272.979 88.47 273.099 87.67C273.219 86.85 273.279 85.42 273.279 83.38C273.279 81.34 273.219 79.91 273.099 79.09C272.979 78.27 272.689 77.71 272.229 77.41C271.769 77.09 270.979 76.93 269.859 76.93C268.739 76.93 267.949 77.09 267.489 77.41C267.029 77.71 266.739 78.27 266.619 79.09C266.499 79.91 266.439 81.34 266.439 83.38C266.439 85.42 266.499 86.85 266.619 87.67C266.739 88.47 267.019 89.02 267.459 89.32C267.919 89.62 268.719 89.77 269.859 89.77ZM287.825 91.24C287.145 91.24 286.425 91.2 285.665 91.12C284.905 91.06 284.285 90.98 283.805 90.88V89.44C285.005 89.66 286.355 89.77 287.855 89.77C288.995 89.77 289.745 89.55 290.105 89.11C290.485 88.65 290.675 87.92 290.675 86.92C290.675 86.12 290.625 85.54 290.525 85.18C290.445 84.82 290.295 84.58 290.075 84.46C289.875 84.34 289.535 84.25 289.055 84.19L285.965 83.77C285.005 83.63 284.345 83.27 283.985 82.69C283.625 82.11 283.445 81.17 283.445 79.87C283.445 78.67 283.625 77.75 283.985 77.11C284.365 76.47 284.885 76.04 285.545 75.82C286.205 75.58 287.065 75.46 288.125 75.46C288.705 75.46 289.335 75.5 290.015 75.58C290.695 75.66 291.255 75.75 291.695 75.85V77.29C290.635 77.05 289.395 76.93 287.975 76.93C286.975 76.93 286.245 77.12 285.785 77.5C285.325 77.88 285.095 78.62 285.095 79.72C285.095 80.44 285.135 80.97 285.215 81.31C285.315 81.65 285.465 81.88 285.665 82C285.885 82.12 286.225 82.21 286.685 82.27L289.715 82.69C290.395 82.79 290.915 82.96 291.275 83.2C291.635 83.44 291.895 83.84 292.055 84.4C292.235 84.96 292.325 85.78 292.325 86.86C292.325 88.5 291.975 89.64 291.275 90.28C290.575 90.92 289.425 91.24 287.825 91.24ZM300.152 91.24C298.552 91.24 297.402 91.03 296.702 90.61C296.022 90.19 295.572 89.47 295.352 88.45C295.152 87.41 295.052 85.72 295.052 83.38C295.052 81.02 295.152 79.32 295.352 78.28C295.572 77.24 296.022 76.51 296.702 76.09C297.402 75.67 298.552 75.46 300.152 75.46C301.752 75.46 302.902 75.67 303.602 76.09C304.302 76.51 304.752 77.24 304.952 78.28C305.152 79.32 305.252 81.02 305.252 83.38C305.252 85.72 305.152 87.41 304.952 88.45C304.752 89.47 304.302 90.19 303.602 90.61C302.902 91.03 301.752 91.24 300.152 91.24ZM300.152 89.77C301.292 89.77 302.082 89.62 302.522 89.32C302.982 89.02 303.272 88.47 303.392 87.67C303.512 86.85 303.572 85.42 303.572 83.38C303.572 81.34 303.512 79.91 303.392 79.09C303.272 78.27 302.982 77.71 302.522 77.41C302.062 77.09 301.272 76.93 300.152 76.93C299.032 76.93 298.242 77.09 297.782 77.41C297.322 77.71 297.032 78.27 296.912 79.09C296.792 79.91 296.732 81.34 296.732 83.38C296.732 85.42 296.792 86.85 296.912 87.67C297.032 88.47 297.312 89.02 297.752 89.32C298.212 89.62 299.012 89.77 300.152 89.77ZM323.985 81.88C323.985 80.38 323.915 79.3 323.775 78.64C323.655 77.98 323.405 77.54 323.025 77.32C322.665 77.1 322.075 76.99 321.255 76.99C320.255 76.99 319.525 77.22 319.065 77.68C318.625 78.14 318.345 78.77 318.225 79.57C318.125 80.35 318.075 81.52 318.075 83.08V91H316.395V81.88C316.395 80.38 316.325 79.3 316.185 78.64C316.065 77.98 315.825 77.54 315.465 77.32C315.105 77.1 314.505 76.99 313.665 76.99C312.685 76.99 311.965 77.24 311.505 77.74C311.045 78.22 310.755 78.86 310.635 79.66C310.535 80.46 310.485 81.6 310.485 83.08V91H308.805V75.7H310.245L310.365 77.89H310.515C310.735 77.13 311.125 76.54 311.685 76.12C312.245 75.68 313.085 75.46 314.205 75.46C315.345 75.46 316.185 75.65 316.725 76.03C317.265 76.39 317.635 77.01 317.835 77.89H317.985C318.465 76.27 319.725 75.46 321.765 75.46C322.865 75.46 323.685 75.66 324.225 76.06C324.785 76.44 325.165 77.04 325.365 77.86C325.565 78.68 325.665 79.84 325.665 81.34V91H323.985V81.88ZM338.965 83.92H330.805C330.805 85.66 330.885 86.92 331.045 87.7C331.205 88.46 331.545 89 332.065 89.32C332.605 89.62 333.475 89.77 334.675 89.77C335.275 89.77 335.935 89.74 336.655 89.68C337.375 89.6 338.005 89.5 338.545 89.38V90.82C338.085 90.94 337.465 91.04 336.685 91.12C335.905 91.2 335.145 91.24 334.405 91.24C332.825 91.24 331.665 91.02 330.925 90.58C330.205 90.12 329.725 89.36 329.485 88.3C329.245 87.22 329.125 85.58 329.125 83.38C329.125 81.16 329.225 79.53 329.425 78.49C329.625 77.45 330.085 76.69 330.805 76.21C331.525 75.71 332.695 75.46 334.315 75.46C335.775 75.46 336.825 75.7 337.465 76.18C338.105 76.64 338.515 77.39 338.695 78.43C338.875 79.45 338.965 81.08 338.965 83.32V83.92ZM334.255 76.93C333.195 76.93 332.425 77.07 331.945 77.35C331.485 77.61 331.185 78.11 331.045 78.85C330.905 79.59 330.825 80.83 330.805 82.57H337.315V82.12C337.315 80.56 337.225 79.42 337.045 78.7C336.885 77.98 336.595 77.51 336.175 77.29C335.755 77.05 335.115 76.93 334.255 76.93ZM347.086 91.24C345.486 91.24 344.336 91.03 343.636 90.61C342.956 90.19 342.506 89.47 342.286 88.45C342.086 87.41 341.986 85.72 341.986 83.38C341.986 81.02 342.086 79.32 342.286 78.28C342.506 77.24 342.956 76.51 343.636 76.09C344.336 75.67 345.486 75.46 347.086 75.46C348.686 75.46 349.836 75.67 350.536 76.09C351.236 76.51 351.686 77.24 351.886 78.28C352.086 79.32 352.186 81.02 352.186 83.38C352.186 85.72 352.086 87.41 351.886 88.45C351.686 89.47 351.236 90.19 350.536 90.61C349.836 91.03 348.686 91.24 347.086 91.24ZM347.086 89.77C348.226 89.77 349.016 89.62 349.456 89.32C349.916 89.02 350.206 88.47 350.326 87.67C350.446 86.85 350.506 85.42 350.506 83.38C350.506 81.34 350.446 79.91 350.326 79.09C350.206 78.27 349.916 77.71 349.456 77.41C348.996 77.09 348.206 76.93 347.086 76.93C345.966 76.93 345.176 77.09 344.716 77.41C344.256 77.71 343.966 78.27 343.846 79.09C343.726 79.91 343.666 81.34 343.666 83.38C343.666 85.42 343.726 86.85 343.846 87.67C343.966 88.47 344.246 89.02 344.686 89.32C345.146 89.62 345.946 89.77 347.086 89.77ZM363.748 81.88C363.748 80.38 363.678 79.3 363.538 78.64C363.398 77.98 363.118 77.54 362.698 77.32C362.298 77.1 361.648 76.99 360.748 76.99C359.708 76.99 358.948 77.24 358.468 77.74C358.008 78.22 357.718 78.86 357.598 79.66C357.478 80.46 357.418 81.6 357.418 83.08V91H355.738V75.7H357.178L357.298 77.89H357.448C357.688 77.13 358.098 76.54 358.678 76.12C359.258 75.68 360.148 75.46 361.348 75.46C362.508 75.46 363.378 75.66 363.958 76.06C364.538 76.44 364.928 77.04 365.128 77.86C365.328 78.68 365.428 79.85 365.428 81.37V91H363.748V81.88ZM378.721 83.92H370.561C370.561 85.66 370.641 86.92 370.801 87.7C370.961 88.46 371.301 89 371.821 89.32C372.361 89.62 373.231 89.77 374.431 89.77C375.031 89.77 375.691 89.74 376.411 89.68C377.131 89.6 377.761 89.5 378.301 89.38V90.82C377.841 90.94 377.221 91.04 376.441 91.12C375.661 91.2 374.901 91.24 374.161 91.24C372.581 91.24 371.421 91.02 370.681 90.58C369.961 90.12 369.481 89.36 369.241 88.3C369.001 87.22 368.881 85.58 368.881 83.38C368.881 81.16 368.981 79.53 369.181 78.49C369.381 77.45 369.841 76.69 370.561 76.21C371.281 75.71 372.451 75.46 374.071 75.46C375.531 75.46 376.581 75.7 377.221 76.18C377.861 76.64 378.271 77.39 378.451 78.43C378.631 79.45 378.721 81.08 378.721 83.32V83.92ZM374.011 76.93C372.951 76.93 372.181 77.07 371.701 77.35C371.241 77.61 370.941 78.11 370.801 78.85C370.661 79.59 370.581 80.83 370.561 82.57H377.071V82.12C377.071 80.56 376.981 79.42 376.801 78.7C376.641 77.98 376.351 77.51 375.931 77.29C375.511 77.05 374.871 76.93 374.011 76.93ZM397.835 91L395.135 78.67H394.985L392.285 91H390.305L386.645 75.7H388.385L391.265 88.57H391.415L394.175 75.7H396.005L398.795 88.57H398.945L401.795 75.7H403.475L399.815 91H397.835ZM414.197 81.88C414.197 80.38 414.127 79.3 413.987 78.64C413.847 77.98 413.567 77.54 413.147 77.32C412.747 77.1 412.097 76.99 411.197 76.99C410.157 76.99 409.397 77.24 408.917 77.74C408.457 78.22 408.167 78.86 408.047 79.66C407.927 80.46 407.867 81.6 407.867 83.08V91H406.187V68.71H407.867V77.59H408.017C408.257 76.97 408.657 76.46 409.217 76.06C409.777 75.66 410.637 75.46 411.797 75.46C412.957 75.46 413.827 75.66 414.407 76.06C414.987 76.44 415.377 77.04 415.577 77.86C415.777 78.66 415.877 79.82 415.877 81.34V91H414.197V81.88ZM424.43 91.24C422.83 91.24 421.68 91.03 420.98 90.61C420.3 90.19 419.85 89.47 419.63 88.45C419.43 87.41 419.33 85.72 419.33 83.38C419.33 81.02 419.43 79.32 419.63 78.28C419.85 77.24 420.3 76.51 420.98 76.09C421.68 75.67 422.83 75.46 424.43 75.46C426.03 75.46 427.18 75.67 427.88 76.09C428.58 76.51 429.03 77.24 429.23 78.28C429.43 79.32 429.53 81.02 429.53 83.38C429.53 85.72 429.43 87.41 429.23 88.45C429.03 89.47 428.58 90.19 427.88 90.61C427.18 91.03 426.03 91.24 424.43 91.24ZM424.43 89.77C425.57 89.77 426.36 89.62 426.8 89.32C427.26 89.02 427.55 88.47 427.67 87.67C427.79 86.85 427.85 85.42 427.85 83.38C427.85 81.34 427.79 79.91 427.67 79.09C427.55 78.27 427.26 77.71 426.8 77.41C426.34 77.09 425.55 76.93 424.43 76.93C423.31 76.93 422.52 77.09 422.06 77.41C421.6 77.71 421.31 78.27 421.19 79.09C421.07 79.91 421.01 81.34 421.01 83.38C421.01 85.42 421.07 86.85 421.19 87.67C421.31 88.47 421.59 89.02 422.03 89.32C422.49 89.62 423.29 89.77 424.43 89.77ZM442.395 91.24C441.715 91.24 440.995 91.2 440.235 91.12C439.475 91.06 438.855 90.98 438.375 90.88V89.44C439.575 89.66 440.925 89.77 442.425 89.77C443.565 89.77 444.315 89.55 444.675 89.11C445.055 88.65 445.245 87.92 445.245 86.92C445.245 86.12 445.195 85.54 445.095 85.18C445.015 84.82 444.865 84.58 444.645 84.46C444.445 84.34 444.105 84.25 443.625 84.19L440.535 83.77C439.575 83.63 438.915 83.27 438.555 82.69C438.195 82.11 438.015 81.17 438.015 79.87C438.015 78.67 438.195 77.75 438.555 77.11C438.935 76.47 439.455 76.04 440.115 75.82C440.775 75.58 441.635 75.46 442.695 75.46C443.275 75.46 443.905 75.5 444.585 75.58C445.265 75.66 445.825 75.75 446.265 75.85V77.29C445.205 77.05 443.965 76.93 442.545 76.93C441.545 76.93 440.815 77.12 440.355 77.5C439.895 77.88 439.665 78.62 439.665 79.72C439.665 80.44 439.705 80.97 439.785 81.31C439.885 81.65 440.035 81.88 440.235 82C440.455 82.12 440.795 82.21 441.255 82.27L444.285 82.69C444.965 82.79 445.485 82.96 445.845 83.2C446.205 83.44 446.465 83.84 446.625 84.4C446.805 84.96 446.895 85.78 446.895 86.86C446.895 88.5 446.545 89.64 445.845 90.28C445.145 90.92 443.995 91.24 442.395 91.24ZM450.133 91V68.71H451.813V91H450.133ZM460.436 91.24C458.836 91.24 457.686 91.03 456.986 90.61C456.306 90.19 455.856 89.47 455.636 88.45C455.436 87.41 455.336 85.72 455.336 83.38C455.336 81.02 455.436 79.32 455.636 78.28C455.856 77.24 456.306 76.51 456.986 76.09C457.686 75.67 458.836 75.46 460.436 75.46C462.036 75.46 463.186 75.67 463.886 76.09C464.586 76.51 465.036 77.24 465.236 78.28C465.436 79.32 465.536 81.02 465.536 83.38C465.536 85.72 465.436 87.41 465.236 88.45C465.036 89.47 464.586 90.19 463.886 90.61C463.186 91.03 462.036 91.24 460.436 91.24ZM460.436 89.77C461.576 89.77 462.366 89.62 462.806 89.32C463.266 89.02 463.556 88.47 463.676 87.67C463.796 86.85 463.856 85.42 463.856 83.38C463.856 81.34 463.796 79.91 463.676 79.09C463.556 78.27 463.266 77.71 462.806 77.41C462.346 77.09 461.556 76.93 460.436 76.93C459.316 76.93 458.526 77.09 458.066 77.41C457.606 77.71 457.316 78.27 457.196 79.09C457.076 79.91 457.016 81.34 457.016 83.38C457.016 85.42 457.076 86.85 457.196 87.67C457.316 88.47 457.596 89.02 458.036 89.32C458.496 89.62 459.296 89.77 460.436 89.77ZM474.608 91.24C473.648 91.24 472.838 91.08 472.178 90.76C471.538 90.42 471.078 89.77 470.798 88.81H470.648L470.528 91H469.088V68.71H470.768V77.62H470.918C471.178 76.84 471.608 76.29 472.208 75.97C472.828 75.63 473.638 75.46 474.638 75.46C475.878 75.46 476.808 75.68 477.428 76.12C478.068 76.56 478.508 77.33 478.748 78.43C478.988 79.53 479.108 81.17 479.108 83.35C479.108 85.53 478.988 87.17 478.748 88.27C478.508 89.37 478.068 90.14 477.428 90.58C476.808 91.02 475.868 91.24 474.608 91.24ZM474.068 89.71C475.108 89.71 475.848 89.57 476.288 89.29C476.748 88.99 477.048 88.42 477.188 87.58C477.348 86.72 477.428 85.31 477.428 83.35C477.428 81.39 477.348 79.99 477.188 79.15C477.048 78.29 476.748 77.72 476.288 77.44C475.848 77.14 475.108 76.99 474.068 76.99C473.248 76.99 472.598 77.15 472.118 77.47C471.658 77.77 471.338 78.26 471.158 78.94C470.998 79.5 470.888 80.12 470.828 80.8C470.788 81.48 470.768 82.33 470.768 83.35C470.768 84.39 470.788 85.24 470.828 85.9C470.868 86.54 470.968 87.13 471.128 87.67C471.308 88.37 471.638 88.89 472.118 89.23C472.598 89.55 473.248 89.71 474.068 89.71ZM488.172 91.24C487.212 91.24 486.402 91.08 485.742 90.76C485.102 90.42 484.642 89.77 484.362 88.81H484.212L484.092 91H482.652V68.71H484.332V77.62H484.482C484.742 76.84 485.172 76.29 485.772 75.97C486.392 75.63 487.202 75.46 488.202 75.46C489.442 75.46 490.372 75.68 490.992 76.12C491.632 76.56 492.072 77.33 492.312 78.43C492.552 79.53 492.672 81.17 492.672 83.35C492.672 85.53 492.552 87.17 492.312 88.27C492.072 89.37 491.632 90.14 490.992 90.58C490.372 91.02 489.432 91.24 488.172 91.24ZM487.632 89.71C488.672 89.71 489.412 89.57 489.852 89.29C490.312 88.99 490.612 88.42 490.752 87.58C490.912 86.72 490.992 85.31 490.992 83.35C490.992 81.39 490.912 79.99 490.752 79.15C490.612 78.29 490.312 77.72 489.852 77.44C489.412 77.14 488.672 76.99 487.632 76.99C486.812 76.99 486.162 77.15 485.682 77.47C485.222 77.77 484.902 78.26 484.722 78.94C484.562 79.5 484.452 80.12 484.392 80.8C484.352 81.48 484.332 82.33 484.332 83.35C484.332 84.39 484.352 85.24 484.392 85.9C484.432 86.54 484.532 87.13 484.692 87.67C484.872 88.37 485.202 88.89 485.682 89.23C486.162 89.55 486.812 89.71 487.632 89.71ZM505.547 83.92H497.387C497.387 85.66 497.467 86.92 497.627 87.7C497.787 88.46 498.127 89 498.647 89.32C499.187 89.62 500.057 89.77 501.257 89.77C501.857 89.77 502.517 89.74 503.237 89.68C503.957 89.6 504.587 89.5 505.127 89.38V90.82C504.667 90.94 504.047 91.04 503.267 91.12C502.487 91.2 501.727 91.24 500.987 91.24C499.407 91.24 498.247 91.02 497.507 90.58C496.787 90.12 496.307 89.36 496.067 88.3C495.827 87.22 495.707 85.58 495.707 83.38C495.707 81.16 495.807 79.53 496.007 78.49C496.207 77.45 496.667 76.69 497.387 76.21C498.107 75.71 499.277 75.46 500.897 75.46C502.357 75.46 503.407 75.7 504.047 76.18C504.687 76.64 505.097 77.39 505.277 78.43C505.457 79.45 505.547 81.08 505.547 83.32V83.92ZM500.837 76.93C499.777 76.93 499.007 77.07 498.527 77.35C498.067 77.61 497.767 78.11 497.627 78.85C497.487 79.59 497.407 80.83 497.387 82.57H503.897V82.12C503.897 80.56 503.807 79.42 503.627 78.7C503.467 77.98 503.177 77.51 502.757 77.29C502.337 77.05 501.697 76.93 500.837 76.93ZM509.078 75.7H510.518L510.638 78.64H510.788C511.048 77.42 511.508 76.59 512.168 76.15C512.848 75.69 513.728 75.46 514.808 75.46V77.17C513.748 77.17 512.918 77.41 512.318 77.89C511.738 78.35 511.328 79.04 511.088 79.96C510.868 80.86 510.758 82.05 510.758 83.53V91H509.078V75.7ZM520.998 91.24C520.318 91.24 519.598 91.2 518.838 91.12C518.078 91.06 517.458 90.98 516.978 90.88V89.44C518.178 89.66 519.528 89.77 521.028 89.77C522.168 89.77 522.918 89.55 523.278 89.11C523.658 88.65 523.848 87.92 523.848 86.92C523.848 86.12 523.798 85.54 523.698 85.18C523.618 84.82 523.468 84.58 523.248 84.46C523.048 84.34 522.708 84.25 522.228 84.19L519.138 83.77C518.178 83.63 517.518 83.27 517.158 82.69C516.798 82.11 516.618 81.17 516.618 79.87C516.618 78.67 516.798 77.75 517.158 77.11C517.538 76.47 518.058 76.04 518.718 75.82C519.378 75.58 520.238 75.46 521.298 75.46C521.878 75.46 522.508 75.5 523.188 75.58C523.868 75.66 524.428 75.75 524.868 75.85V77.29C523.808 77.05 522.568 76.93 521.148 76.93C520.148 76.93 519.418 77.12 518.958 77.5C518.498 77.88 518.268 78.62 518.268 79.72C518.268 80.44 518.308 80.97 518.388 81.31C518.488 81.65 518.638 81.88 518.838 82C519.058 82.12 519.398 82.21 519.858 82.27L522.888 82.69C523.568 82.79 524.088 82.96 524.448 83.2C524.808 83.44 525.068 83.84 525.228 84.4C525.408 84.96 525.498 85.78 525.498 86.86C525.498 88.5 525.148 89.64 524.448 90.28C523.748 90.92 522.598 91.24 520.998 91.24Z" fill="#4F2D5A"/>
</svg>
