<svg width="177" height="75" viewBox="0 0 177 75" fill="none" xmlns="http://www.w3.org/2000/svg">
<rect width="177" height="75" fill="white"/>
<path d="M58.77 48V27.36H62.19V44.82H67.89V48H58.77ZM75.9579 48.24C73.9379 48.24 72.4979 47.95 71.6379 47.37C70.7779 46.77 70.2379 45.8 70.0179 44.46C69.7979 43.1 69.6879 40.84 69.6879 37.68C69.6879 34.52 69.7979 32.27 70.0179 30.93C70.2379 29.57 70.7779 28.6 71.6379 28.02C72.4979 27.42 73.9379 27.12 75.9579 27.12C77.9779 27.12 79.4179 27.42 80.2779 28.02C81.1379 28.6 81.6779 29.57 81.8979 30.93C82.1379 32.29 82.2579 34.54 82.2579 37.68C82.2579 40.82 82.1379 43.07 81.8979 44.43C81.6779 45.79 81.1379 46.77 80.2779 47.37C79.4179 47.95 77.9779 48.24 75.9579 48.24ZM75.9579 45.15C76.9379 45.15 77.6079 45.03 77.9679 44.79C78.3279 44.53 78.5579 43.93 78.6579 42.99C78.7779 42.03 78.8379 40.26 78.8379 37.68C78.8379 35.1 78.7779 33.34 78.6579 32.4C78.5579 31.44 78.3279 30.84 77.9679 30.6C77.6079 30.34 76.9379 30.21 75.9579 30.21C74.9779 30.21 74.3079 30.34 73.9479 30.6C73.6079 30.84 73.3779 31.43 73.2579 32.37C73.1579 33.31 73.1079 35.08 73.1079 37.68C73.1079 40.28 73.1579 42.05 73.2579 42.99C73.3779 43.93 73.6079 44.53 73.9479 44.79C74.3079 45.03 74.9779 45.15 75.9579 45.15ZM91.0716 39.33V36.27H96.5916V47.64C95.9516 47.82 95.1516 47.96 94.1916 48.06C93.2516 48.18 92.3516 48.24 91.4916 48.24C89.6316 48.24 88.2416 47.96 87.3216 47.4C86.4216 46.82 85.8016 45.8 85.4616 44.34C85.1216 42.88 84.9516 40.66 84.9516 37.68C84.9516 34.7 85.1316 32.48 85.4916 31.02C85.8516 29.56 86.5016 28.55 87.4416 27.99C88.3816 27.41 89.8116 27.12 91.7316 27.12C92.4916 27.12 93.3216 27.18 94.2216 27.3C95.1216 27.4 95.8916 27.54 96.5316 27.72V30.6C95.8916 30.5 95.2016 30.41 94.4616 30.33C93.7416 30.25 93.1916 30.21 92.8116 30.21C91.3716 30.21 90.3716 30.34 89.8116 30.6C89.2716 30.84 88.8916 31.46 88.6716 32.46C88.4716 33.44 88.3716 35.18 88.3716 37.68C88.3716 40 88.4416 41.66 88.5816 42.66C88.7216 43.66 89.0016 44.34 89.4216 44.7C89.8416 45.06 90.5416 45.24 91.5216 45.24C92.0616 45.24 92.6516 45.19 93.2916 45.09V39.33H91.0716ZM99.9621 48V27.36H103.412V48H99.9621ZM115.993 48L110.413 35.25H110.293V48H106.993V27.36H110.413L115.753 39.48H115.873V27.36H119.173V48H115.993Z" fill="#AA7ABA"/>
</svg>
