<svg width="131" height="62" viewBox="0 0 131 62" fill="none" xmlns="http://www.w3.org/2000/svg">
<path d="M0.55 49V4.28H5.425V44.58H19.855V49H0.55ZM34.9289 49.52C31.4189 49.52 28.8839 49.065 27.3239 48.155C25.8072 47.245 24.8106 45.6633 24.3339 43.41C23.9006 41.1567 23.6839 37.495 23.6839 32.425C23.6839 27.355 23.9006 23.6933 24.3339 21.44C24.8106 19.1867 25.8072 17.605 27.3239 16.695C28.8839 15.785 31.4189 15.33 34.9289 15.33C38.4389 15.33 40.9522 15.785 42.4689 16.695C44.0289 17.605 45.0256 19.1867 45.4589 21.44C45.8922 23.6933 46.1089 27.355 46.1089 32.425C46.1089 37.495 45.8922 41.1567 45.4589 43.41C45.0256 45.6633 44.0289 47.245 42.4689 48.155C40.9522 49.065 38.4389 49.52 34.9289 49.52ZM34.9289 45.555C37.0956 45.555 38.6122 45.2517 39.4789 44.645C40.3889 44.0383 40.9522 42.9117 41.1689 41.265C41.3856 39.6183 41.4939 36.6717 41.4939 32.425C41.4939 28.1783 41.3856 25.2317 41.1689 23.585C40.9522 21.9383 40.3889 20.8117 39.4789 20.205C38.6122 19.5983 37.0956 19.295 34.9289 19.295C32.7189 19.295 31.1806 19.5983 30.3139 20.205C29.4472 20.8117 28.8839 21.96 28.6239 23.65C28.4072 25.2967 28.2989 28.2217 28.2989 32.425C28.2989 36.6283 28.4072 39.575 28.6239 41.265C28.8839 42.9117 29.4472 44.0383 30.3139 44.645C31.1806 45.2517 32.7189 45.555 34.9289 45.555ZM62.1284 61.935C59.1384 61.935 56.235 61.7833 53.4184 61.48V57.71C56.7984 57.8833 59.42 57.97 61.2834 57.97C63.8834 57.97 65.7467 57.645 66.8734 56.995C68.0434 56.345 68.8017 55.1967 69.1484 53.55C69.5384 51.9467 69.7334 49.3467 69.7334 45.75V44.775H69.4084C68.845 46.4217 67.935 47.5917 66.6784 48.285C65.4217 48.9783 63.7534 49.325 61.6734 49.325C59.0734 49.325 57.1017 48.8483 55.7584 47.895C54.4584 46.9417 53.5484 45.2733 53.0284 42.89C52.5084 40.5067 52.2484 36.9967 52.2484 32.36C52.2484 27.7233 52.5084 24.2133 53.0284 21.83C53.5917 19.4033 54.5234 17.7133 55.8234 16.76C57.1667 15.8067 59.1384 15.33 61.7384 15.33C63.6884 15.33 65.335 15.6983 66.6784 16.435C68.065 17.1283 69.0617 18.4717 69.6684 20.465H69.9934L70.2534 15.85H74.3484V44.19C74.3484 48.9567 74.0667 52.5317 73.5034 54.915C72.9834 57.3417 71.8567 59.1183 70.1234 60.245C68.4334 61.3717 65.7684 61.935 62.1284 61.935ZM63.3634 45.23C64.9667 45.23 66.2234 44.905 67.1334 44.255C68.0434 43.605 68.6717 42.565 69.0184 41.135C69.495 39.315 69.7334 36.39 69.7334 32.36C69.7334 30.28 69.69 28.6117 69.6034 27.355C69.56 26.055 69.4084 24.95 69.1484 24.04C68.7584 22.3933 68.1084 21.2233 67.1984 20.53C66.2884 19.8367 65.01 19.49 63.3634 19.49C61.3267 19.49 59.875 19.7717 59.0084 20.335C58.185 20.8983 57.6217 22.0467 57.3184 23.78C57.015 25.47 56.8634 28.33 56.8634 32.36C56.8634 36.39 57.015 39.2717 57.3184 41.005C57.6217 42.695 58.185 43.8217 59.0084 44.385C59.875 44.9483 61.3267 45.23 63.3634 45.23ZM82.4211 6.1V0.704998H87.2961V6.1H82.4211ZM82.5511 49V15.85H87.1661V49H82.5511ZM112.145 29.63C112.145 26.51 111.993 24.2783 111.69 22.935C111.43 21.5483 110.91 20.6383 110.13 20.205C109.35 19.7283 108.072 19.49 106.295 19.49C104.302 19.49 102.85 19.9667 101.94 20.92C101.03 21.8733 100.467 23.1517 100.25 24.755C100.033 26.3583 99.9248 28.6983 99.9248 31.775V49H95.3098V15.85H99.3398L99.5998 20.465H99.9898C100.51 18.8183 101.398 17.5617 102.655 16.695C103.955 15.785 105.797 15.33 108.18 15.33C110.607 15.33 112.427 15.7633 113.64 16.63C114.897 17.4967 115.72 18.8183 116.11 20.595C116.543 22.3283 116.76 24.82 116.76 28.07V49H112.145V29.63ZM125.868 36.585C125.781 33.8117 125.651 30.8433 125.478 27.68C125.088 18.4933 124.893 13.055 124.893 11.365V4.28H130.223V11.365C130.223 13.4017 130.05 18.19 129.703 25.73L129.313 36.585H125.868ZM124.893 49V43.15H130.223V49H124.893Z" fill="#89264D"/>
</svg>
