<svg width="177" height="75" viewBox="0 0 177 75" fill="none" xmlns="http://www.w3.org/2000/svg">
<rect width="177" height="75" fill="#724319" fill-opacity="0.5"/>
<path d="M69.4451 50L62.0601 32.955H61.9201V50H58.7351V25.92H62.1651L69.3051 42.405H69.4451V25.92H72.6301V50H69.4451ZM77.1238 50V25.92H88.6038V28.79H80.4138V36.385H87.5188V39.255H80.4138V47.13H88.6038V50H77.1238ZM102.838 50L98.5329 40.55H98.2879L93.9829 50H90.4479L96.3279 37.89L90.5179 25.92H94.1579L98.4279 35.16H98.6379L102.908 25.92H106.408L100.668 37.82L106.513 50H102.838ZM112.613 50V28.86H107.503V25.92H121.013V28.86H115.903V50H112.613Z" fill="white"/>
</svg>
