<svg width="1349" height="172" viewBox="0 0 1349 172" fill="none" xmlns="http://www.w3.org/2000/svg">
<g filter="url(#filter0_d_282_2)">
<mask id="path-1-outside-1_282_2" maskUnits="userSpaceOnUse" x="299" y="34" width="751" height="67" fill="black">
<rect fill="white" x="299" y="34" width="751" height="67"/>
<path d="M324.71 90.23C320.837 90.23 317.5 89.88 314.7 89.18C311.947 88.4333 309.403 87.1267 307.07 85.26C302.357 81.5733 300 74.5033 300 64.05C300 59.6633 300.63 55.8367 301.89 52.57C303.197 49.3033 304.993 46.7133 307.28 44.8C311.76 41.0667 317.57 39.2 324.71 39.2C328.397 39.2 331.593 39.5267 334.3 40.18C337.053 40.8333 339.643 42.0233 342.07 43.75C346.97 47.2967 349.42 54.0633 349.42 64.05C349.42 73.01 347.203 79.6133 342.77 83.86C338.337 88.1067 332.317 90.23 324.71 90.23ZM322.4 78.26C322.96 78.9133 323.73 79.24 324.71 79.24C325.69 79.24 326.46 78.9133 327.02 78.26C327.58 77.56 328.047 76.1133 328.42 73.92C328.793 71.68 328.98 68.5767 328.98 64.61C328.98 60.6433 328.793 57.5867 328.42 55.44C328.047 53.2933 327.58 51.8933 327.02 51.24C326.46 50.5867 325.69 50.26 324.71 50.26C323.73 50.26 322.96 50.5867 322.4 51.24C321.84 51.8933 321.373 53.2933 321 55.44C320.627 57.5867 320.44 60.6433 320.44 64.61C320.44 68.5767 320.627 71.68 321 73.92C321.373 76.1133 321.84 77.56 322.4 78.26Z"/>
<path d="M406.74 87.92C406.133 89.04 402.96 89.6 397.22 89.6C391.527 89.6 388.563 89.04 388.33 87.92L385.95 75.18H384.97L382.73 87.92C382.59 89.04 378.507 89.6 370.48 89.6C368.24 89.6 366.747 89.4833 366 89.25C365.3 88.97 364.81 88.5267 364.53 87.92C355.85 66.5933 351.51 55.37 351.51 54.25C351.51 53.13 353.19 51.9867 356.55 50.82C359.957 49.6067 363.223 49 366.35 49C370.363 49 372.44 50.0733 372.58 52.22L374.96 71.4H375.8L376.64 55.93C376.687 54.7633 377.877 53.7367 380.21 52.85C382.543 51.9633 384.9 51.52 387.28 51.52C389.66 51.52 391.433 51.8233 392.6 52.43C393.813 52.99 394.443 53.69 394.49 54.53L395.26 71.4H396.03L398.34 53.41C398.48 52.29 400.043 51.2867 403.03 50.4C406.063 49.4667 408.723 49 411.01 49C413.297 49 415.093 49.3267 416.4 49.98C418.547 51.0067 419.62 52.22 419.62 53.62C419.62 53.76 417.497 59.4533 413.25 70.7C409.05 81.9467 406.88 87.6867 406.74 87.92Z"/>
<path d="M464.658 66.36V87.92C464.658 88.4333 463.328 88.8533 460.668 89.18C458.008 89.46 455.255 89.6 452.408 89.6C449.608 89.6 447.788 89.4833 446.948 89.25C446.155 88.97 445.758 88.5267 445.758 87.92V65.66C445.758 63.56 445.665 62.1833 445.478 61.53C445.338 60.8767 445.198 60.2933 445.058 59.78C444.731 58.8933 444.148 58.45 443.308 58.45C442.001 58.45 441.348 59.08 441.348 60.34V87.92C441.348 88.4333 440.018 88.8533 437.358 89.18C434.745 89.46 432.015 89.6 429.168 89.6C426.368 89.6 424.548 89.4833 423.708 89.25C422.868 88.97 422.448 88.5267 422.448 87.92V53.41C422.448 52.43 423.778 51.45 426.438 50.47C429.145 49.49 431.991 49 434.978 49C437.965 49 439.645 49.8633 440.018 51.59L440.648 54.67H441.138C442.491 51.9633 444.825 50.0733 448.138 49C449.491 48.58 450.985 48.37 452.618 48.37C457.331 48.37 460.505 49.7933 462.138 52.64C463.818 55.44 464.658 60.0133 464.658 66.36Z"/>
<path d="M487.958 73.78C487.958 76.8133 489.404 78.33 492.298 78.33C493.978 78.33 496.171 77.77 498.878 76.65C501.584 75.4833 503.008 74.9 503.148 74.9C504.034 74.9 505.201 76.23 506.648 78.89C508.094 81.55 508.818 83.51 508.818 84.77C508.818 86.59 506.951 87.9667 503.218 88.9C499.484 89.8333 495.821 90.3 492.228 90.3C488.681 90.3 485.694 90.02 483.268 89.46C480.888 88.9 478.928 88.2 477.388 87.36C475.894 86.4733 474.564 85.4 473.398 84.14C472.278 82.88 471.438 81.69 470.878 80.57C470.318 79.4033 469.874 78.12 469.548 76.72C469.081 74.6667 468.848 72.5433 468.848 70.35C468.848 61.8567 471.064 56 475.498 52.78C477.691 51.1467 480.141 50.0033 482.848 49.35C485.554 48.6967 488.751 48.37 492.438 48.37C504.244 48.37 510.148 52.4767 510.148 60.69C510.148 69.4167 503.521 73.78 490.268 73.78H487.958ZM487.818 63.56V68.18C489.171 68.18 490.268 67.6433 491.108 66.57C491.994 65.4967 492.438 64.19 492.438 62.65C492.438 59.85 491.714 58.45 490.268 58.45C488.634 58.45 487.818 60.1533 487.818 63.56Z"/>
<path d="M533.223 67.48V87.92C533.223 88.4333 531.893 88.8533 529.233 89.18C526.62 89.46 523.89 89.6 521.043 89.6C518.243 89.6 516.423 89.4833 515.583 89.25C514.743 88.97 514.323 88.5267 514.323 87.92V53.41C514.323 52.5233 515.606 51.5667 518.173 50.54C520.786 49.5133 523.61 49 526.643 49C529.723 49 531.45 49.84 531.823 51.52L532.523 54.74H533.013C533.666 52.9667 535.23 51.4733 537.703 50.26C540.176 49 542.65 48.37 545.123 48.37C547.596 48.37 549.323 48.7667 550.303 49.56C551.33 50.3533 551.843 51.38 551.843 52.64C551.843 53.8533 551.75 55.4167 551.563 57.33C551.376 59.2433 550.91 61.32 550.163 63.56C549.463 65.8 548.53 66.92 547.363 66.92C546.896 66.92 545.426 66.57 542.953 65.87C540.48 65.17 538.426 64.82 536.793 64.82C535.206 64.82 534.203 65.0533 533.783 65.52C533.41 65.9867 533.223 66.64 533.223 67.48Z"/>
<path d="M591.011 87.57C591.011 88.1767 589.588 88.6667 586.741 89.04C583.895 89.4133 581.025 89.6 578.131 89.6C575.285 89.6 573.441 89.4367 572.601 89.11C571.808 88.7833 571.411 88.27 571.411 87.57V42.56C571.411 41.3467 572.928 40.4833 575.961 39.97C579.041 39.4567 582.915 39.2 587.581 39.2C592.248 39.2 595.258 39.2233 596.611 39.27C598.011 39.27 599.645 39.34 601.511 39.48C603.378 39.62 604.848 39.8533 605.921 40.18C607.041 40.5067 608.255 40.9267 609.561 41.44C610.915 41.9533 611.965 42.63 612.711 43.47C613.458 44.2633 614.181 45.22 614.881 46.34C616.141 48.3467 616.771 51.2167 616.771 54.95C616.771 58.6367 616.141 61.7633 614.881 64.33C613.668 66.85 612.035 68.7633 609.981 70.07C615.348 78.5167 618.031 83.8833 618.031 86.17C618.031 88.4567 613.435 89.6 604.241 89.6C601.581 89.6 599.738 89.4833 598.711 89.25C597.685 89.0167 597.031 88.5033 596.751 87.71L592.201 73.29L591.011 73.22V87.57ZM591.011 62.44H592.831C595.538 62.44 596.891 60.34 596.891 56.14C596.891 53.9933 596.518 52.4767 595.771 51.59C595.071 50.7033 594.255 50.26 593.321 50.26H591.011V62.44Z"/>
<path d="M639.579 73.78C639.579 76.8133 641.025 78.33 643.919 78.33C645.599 78.33 647.792 77.77 650.499 76.65C653.205 75.4833 654.629 74.9 654.769 74.9C655.655 74.9 656.822 76.23 658.269 78.89C659.715 81.55 660.439 83.51 660.439 84.77C660.439 86.59 658.572 87.9667 654.839 88.9C651.105 89.8333 647.442 90.3 643.849 90.3C640.302 90.3 637.315 90.02 634.889 89.46C632.509 88.9 630.549 88.2 629.009 87.36C627.515 86.4733 626.185 85.4 625.019 84.14C623.899 82.88 623.059 81.69 622.499 80.57C621.939 79.4033 621.495 78.12 621.169 76.72C620.702 74.6667 620.469 72.5433 620.469 70.35C620.469 61.8567 622.685 56 627.119 52.78C629.312 51.1467 631.762 50.0033 634.469 49.35C637.175 48.6967 640.372 48.37 644.059 48.37C655.865 48.37 661.769 52.4767 661.769 60.69C661.769 69.4167 655.142 73.78 641.889 73.78H639.579ZM639.439 63.56V68.18C640.792 68.18 641.889 67.6433 642.729 66.57C643.615 65.4967 644.059 64.19 644.059 62.65C644.059 59.85 643.335 58.45 641.889 58.45C640.255 58.45 639.439 60.1533 639.439 63.56Z"/>
<path d="M689.324 84.98V80.92H688.764C688.577 81.1533 688.251 81.4567 687.784 81.83C687.317 82.1567 686.151 82.6233 684.284 83.23C682.464 83.8367 680.387 84.14 678.054 84.14C675.767 84.14 673.831 83.79 672.244 83.09C670.657 82.39 669.421 81.5267 668.534 80.5C667.647 79.4267 666.947 78.0033 666.434 76.23C665.641 73.4767 665.244 69.7433 665.244 65.03C665.244 59.6167 666.387 55.4633 668.674 52.57C669.561 51.4033 670.867 50.4233 672.594 49.63C674.367 48.79 676.257 48.37 678.264 48.37C680.271 48.37 681.927 48.6033 683.234 49.07C684.541 49.49 685.521 50.0033 686.174 50.61C687.481 51.9167 688.227 53.06 688.414 54.04L688.484 54.67H689.044L689.674 51.94C690.141 49.98 693.827 49 700.734 49C703.814 49 705.681 49.4667 706.334 50.4C706.707 50.96 706.941 51.4967 707.034 52.01C707.127 52.4767 707.174 53.2 707.174 54.18V83.51C707.174 89.0167 705.377 93.2167 701.784 96.11C698.191 99.0033 692.917 100.45 685.964 100.45C678.591 100.45 673.574 99.7267 670.914 98.28C669.747 97.6267 669.164 96.95 669.164 96.25C669.164 95.13 669.607 93.24 670.494 90.58C671.427 87.92 672.291 86.59 673.084 86.59C673.271 86.59 673.924 86.7533 675.044 87.08C678.591 88.0133 681.461 88.48 683.654 88.48C685.894 88.48 687.387 88.2 688.134 87.64C688.927 87.08 689.324 86.1933 689.324 84.98ZM686.524 76.16C687.037 76.16 687.457 75.9733 687.784 75.6C688.111 75.2267 688.274 74.8067 688.274 74.34V59.92C688.087 58.94 687.574 58.45 686.734 58.45C684.961 58.45 684.074 61.3667 684.074 67.2C684.074 69.9067 684.284 72.0767 684.704 73.71C685.171 75.3433 685.777 76.16 686.524 76.16Z"/>
<path d="M731.337 53.41V87.92C731.337 88.4333 729.983 88.8533 727.277 89.18C724.617 89.46 721.863 89.6 719.017 89.6C716.217 89.6 714.397 89.4833 713.557 89.25C712.763 88.97 712.367 88.5267 712.367 87.92V54.67C712.367 53.6433 713.673 52.64 716.287 51.66C718.947 50.6333 721.84 50.12 724.967 50.12C729.213 50.12 731.337 51.2167 731.337 53.41ZM721.817 35C724.897 35 727.3 35.4667 729.027 36.4C730.8 37.2867 731.687 38.92 731.687 41.3C731.687 45.5 728.42 47.6 721.887 47.6C715.353 47.6 712.087 45.5 712.087 41.3C712.087 37.1 715.33 35 721.817 35Z"/>
<path d="M755.599 90.23C747.853 90.23 742.183 89.4833 738.589 87.99C736.769 87.1967 735.859 86.4267 735.859 85.68C735.859 83.7667 736.419 81.5267 737.539 78.96C738.659 76.3933 739.639 75.11 740.479 75.11C740.946 75.11 742.509 75.6233 745.169 76.65C747.876 77.6767 750.139 78.19 751.959 78.19C753.826 78.19 755.039 78.0733 755.599 77.84C756.206 77.6067 756.509 77.1633 756.509 76.51C756.509 75.81 756.043 75.2733 755.109 74.9C754.176 74.48 753.009 74.2 751.609 74.06C750.209 73.92 748.693 73.64 747.059 73.22C745.473 72.8 743.979 72.2633 742.579 71.61C741.179 70.9567 740.013 69.8833 739.079 68.39C738.146 66.85 737.679 65.2167 737.679 63.49C737.679 61.7167 737.726 60.41 737.819 59.57C737.913 58.6833 738.286 57.47 738.939 55.93C739.639 54.3433 740.596 53.06 741.809 52.08C743.069 51.1 744.983 50.2133 747.549 49.42C750.163 48.6267 753.079 48.23 756.299 48.23C759.519 48.23 762.203 48.3467 764.349 48.58C766.543 48.7667 768.246 49.0233 769.459 49.35C770.719 49.6767 771.746 50.05 772.539 50.47C773.893 51.17 774.569 51.94 774.569 52.78C774.569 54.6 773.916 56.7 772.609 59.08C771.303 61.46 770.253 62.65 769.459 62.65C768.713 62.65 767.056 62.2533 764.489 61.46C761.923 60.62 760.033 60.2 758.819 60.2C756.859 60.2 755.879 60.76 755.879 61.88C755.879 62.58 756.533 63.1167 757.839 63.49C759.193 63.8167 760.803 64.1667 762.669 64.54C764.536 64.9133 766.403 65.45 768.269 66.15C770.183 66.8033 771.793 68.0167 773.099 69.79C774.453 71.5633 775.129 73.8033 775.129 76.51C775.129 85.6567 768.619 90.23 755.599 90.23Z"/>
<path d="M806.862 88.97C806.022 89.7633 804.109 90.16 801.122 90.16C798.136 90.16 795.662 89.9733 793.702 89.6C791.742 89.18 789.876 88.3867 788.102 87.22C784.696 84.9333 782.992 80.1733 782.992 72.94V62.02H779.492C778.979 62.02 778.536 61.4833 778.162 60.41C777.789 59.3367 777.602 57.8667 777.602 56C777.602 54.1333 777.882 52.5 778.442 51.1C779.049 49.6533 779.819 48.93 780.752 48.93H782.992V40.46C782.992 39.0133 784.392 37.8467 787.192 36.96C790.039 36.0733 792.816 35.63 795.522 35.63C799.769 35.63 801.892 36.68 801.892 38.78V48.93H807.072C808.286 48.93 808.892 50.68 808.892 54.18C808.892 56.4667 808.612 58.3567 808.052 59.85C807.539 61.2967 806.862 62.02 806.022 62.02H801.892V74.83C801.892 76.09 802.429 77 803.502 77.56C804.576 78.0733 805.509 78.33 806.302 78.33C807.142 78.33 807.656 78.7267 807.842 79.52C808.029 80.3133 808.122 81.5033 808.122 83.09C808.122 86.2167 807.702 88.1767 806.862 88.97Z"/>
<path d="M832.022 67.48V87.92C832.022 88.4333 830.692 88.8533 828.032 89.18C825.419 89.46 822.689 89.6 819.842 89.6C817.042 89.6 815.222 89.4833 814.382 89.25C813.542 88.97 813.122 88.5267 813.122 87.92V53.41C813.122 52.5233 814.405 51.5667 816.972 50.54C819.585 49.5133 822.409 49 825.442 49C828.522 49 830.249 49.84 830.622 51.52L831.322 54.74H831.812C832.465 52.9667 834.029 51.4733 836.502 50.26C838.975 49 841.449 48.37 843.922 48.37C846.395 48.37 848.122 48.7667 849.102 49.56C850.129 50.3533 850.642 51.38 850.642 52.64C850.642 53.8533 850.549 55.4167 850.362 57.33C850.175 59.2433 849.708 61.32 848.962 63.56C848.262 65.8 847.329 66.92 846.162 66.92C845.695 66.92 844.225 66.57 841.752 65.87C839.279 65.17 837.225 64.82 835.592 64.82C834.005 64.82 833.002 65.0533 832.582 65.52C832.208 65.9867 832.022 66.64 832.022 67.48Z"/>
<path d="M867.438 90.23C863.191 90.23 859.854 89.2267 857.427 87.22C856.448 86.38 855.584 85.1433 854.838 83.51C854.138 81.8767 853.787 79.9633 853.787 77.77C853.787 75.5767 854.301 73.6633 855.328 72.03C856.401 70.3967 857.684 69.1367 859.177 68.25C860.671 67.3633 862.421 66.64 864.427 66.08C867.461 65.2867 870.797 64.89 874.438 64.89H876.747C876.747 62.9767 876.094 61.6233 874.787 60.83C874.227 60.5033 873.364 60.34 872.198 60.34C871.078 60.34 869.701 60.6433 868.068 61.25C866.481 61.8567 865.151 62.4867 864.078 63.14C863.004 63.7467 862.281 64.05 861.907 64.05C861.067 64.05 859.924 62.9533 858.477 60.76C857.031 58.52 856.307 56.49 856.307 54.67C856.307 54.0633 857.171 53.27 858.898 52.29C860.624 51.31 863.051 50.4233 866.177 49.63C869.351 48.79 872.431 48.37 875.417 48.37C878.404 48.37 880.971 48.6267 883.117 49.14C885.311 49.6067 887.084 50.19 888.438 50.89C889.838 51.59 891.004 52.5233 891.938 53.69C892.917 54.8567 893.641 55.9067 894.107 56.84C894.621 57.7733 894.994 58.9867 895.227 60.48C895.554 62.2067 895.718 64.33 895.718 66.85V87.92C895.718 88.4333 894.458 88.8533 891.938 89.18C889.464 89.46 886.991 89.6 884.518 89.6C882.091 89.6 880.504 89.53 879.758 89.39C879.057 89.25 878.638 89.0867 878.497 88.9C878.357 88.7133 878.241 88.3867 878.148 87.92L877.588 83.93H877.028C875.861 88.13 872.664 90.23 867.438 90.23ZM876.818 78.61V70.42C875.604 70.42 874.624 70.9333 873.878 71.96C873.131 72.9867 872.758 74.1533 872.758 75.46C872.758 78.54 873.457 80.08 874.857 80.08C875.464 80.08 875.931 79.94 876.258 79.66C876.631 79.3333 876.818 78.9833 876.818 78.61Z"/>
<path d="M928.132 88.97C927.292 89.7633 925.379 90.16 922.392 90.16C919.405 90.16 916.932 89.9733 914.972 89.6C913.012 89.18 911.145 88.3867 909.372 87.22C905.965 84.9333 904.262 80.1733 904.262 72.94V62.02H900.762C900.249 62.02 899.805 61.4833 899.432 60.41C899.059 59.3367 898.872 57.8667 898.872 56C898.872 54.1333 899.152 52.5 899.712 51.1C900.319 49.6533 901.089 48.93 902.022 48.93H904.262V40.46C904.262 39.0133 905.662 37.8467 908.462 36.96C911.309 36.0733 914.085 35.63 916.792 35.63C921.039 35.63 923.162 36.68 923.162 38.78V48.93H928.342C929.555 48.93 930.162 50.68 930.162 54.18C930.162 56.4667 929.882 58.3567 929.322 59.85C928.809 61.2967 928.132 62.02 927.292 62.02H923.162V74.83C923.162 76.09 923.699 77 924.772 77.56C925.845 78.0733 926.779 78.33 927.572 78.33C928.412 78.33 928.925 78.7267 929.112 79.52C929.299 80.3133 929.392 81.5033 929.392 83.09C929.392 86.2167 928.972 88.1767 928.132 88.97Z"/>
<path d="M953.641 53.41V87.92C953.641 88.4333 952.288 88.8533 949.581 89.18C946.921 89.46 944.168 89.6 941.321 89.6C938.521 89.6 936.701 89.4833 935.861 89.25C935.068 88.97 934.671 88.5267 934.671 87.92V54.67C934.671 53.6433 935.978 52.64 938.591 51.66C941.251 50.6333 944.145 50.12 947.271 50.12C951.518 50.12 953.641 51.2167 953.641 53.41ZM944.121 35C947.201 35 949.605 35.4667 951.331 36.4C953.105 37.2867 953.991 38.92 953.991 41.3C953.991 45.5 950.725 47.6 944.191 47.6C937.658 47.6 934.391 45.5 934.391 41.3C934.391 37.1 937.635 35 944.121 35Z"/>
<path d="M980.424 90.23C976.924 90.23 973.914 89.9267 971.394 89.32C968.874 88.7133 966.587 87.64 964.534 86.1C960.287 83.02 958.164 77.28 958.164 68.88C958.164 61.4133 960.334 56.07 964.674 52.85C968.734 49.8633 973.984 48.37 980.424 48.37C983.177 48.37 985.534 48.51 987.494 48.79C989.454 49.0233 991.437 49.56 993.444 50.4C995.497 51.24 997.131 52.3833 998.344 53.83C999.604 55.2767 1000.63 57.2833 1001.42 59.85C1002.22 62.37 1002.61 65.38 1002.61 68.88C1002.61 75.9733 1000.61 81.3167 996.594 84.91C992.581 88.4567 987.191 90.23 980.424 90.23ZM977.974 76.58C978.301 78.26 978.627 79.2633 978.954 79.59C979.327 79.9167 979.794 80.08 980.354 80.08C980.961 80.08 981.427 79.9167 981.754 79.59C982.127 79.2633 982.454 78.26 982.734 76.58C983.061 74.9 983.224 72.8 983.224 70.28C983.224 67.7133 983.154 65.7533 983.014 64.4C982.921 63 982.781 61.9267 982.594 61.18C982.454 60.4333 982.244 59.85 981.964 59.43C981.544 58.8233 981.031 58.52 980.424 58.52C979.864 58.52 979.397 58.7067 979.024 59.08C978.651 59.4067 978.301 60.4333 977.974 62.16C977.647 63.84 977.484 66.2433 977.484 69.37C977.484 72.4967 977.647 74.9 977.974 76.58Z"/>
<path d="M1048.99 66.36V87.92C1048.99 88.4333 1047.66 88.8533 1045 89.18C1042.34 89.46 1039.59 89.6 1036.74 89.6C1033.94 89.6 1032.12 89.4833 1031.28 89.25C1030.49 88.97 1030.09 88.5267 1030.09 87.92V65.66C1030.09 63.56 1030 62.1833 1029.81 61.53C1029.67 60.8767 1029.53 60.2933 1029.39 59.78C1029.07 58.8933 1028.48 58.45 1027.64 58.45C1026.34 58.45 1025.68 59.08 1025.68 60.34V87.92C1025.68 88.4333 1024.35 88.8533 1021.69 89.18C1019.08 89.46 1016.35 89.6 1013.5 89.6C1010.7 89.6 1008.88 89.4833 1008.04 89.25C1007.2 88.97 1006.78 88.5267 1006.78 87.92V53.41C1006.78 52.43 1008.11 51.45 1010.77 50.47C1013.48 49.49 1016.33 49 1019.31 49C1022.3 49 1023.98 49.8633 1024.35 51.59L1024.98 54.67H1025.47C1026.83 51.9633 1029.16 50.0733 1032.47 49C1033.83 48.58 1035.32 48.37 1036.95 48.37C1041.67 48.37 1044.84 49.7933 1046.47 52.64C1048.15 55.44 1048.99 60.0133 1048.99 66.36Z"/>
</mask>
<path d="M324.71 90.23C320.837 90.23 317.5 89.88 314.7 89.18C311.947 88.4333 309.403 87.1267 307.07 85.26C302.357 81.5733 300 74.5033 300 64.05C300 59.6633 300.63 55.8367 301.89 52.57C303.197 49.3033 304.993 46.7133 307.28 44.8C311.76 41.0667 317.57 39.2 324.71 39.2C328.397 39.2 331.593 39.5267 334.3 40.18C337.053 40.8333 339.643 42.0233 342.07 43.75C346.97 47.2967 349.42 54.0633 349.42 64.05C349.42 73.01 347.203 79.6133 342.77 83.86C338.337 88.1067 332.317 90.23 324.71 90.23ZM322.4 78.26C322.96 78.9133 323.73 79.24 324.71 79.24C325.69 79.24 326.46 78.9133 327.02 78.26C327.58 77.56 328.047 76.1133 328.42 73.92C328.793 71.68 328.98 68.5767 328.98 64.61C328.98 60.6433 328.793 57.5867 328.42 55.44C328.047 53.2933 327.58 51.8933 327.02 51.24C326.46 50.5867 325.69 50.26 324.71 50.26C323.73 50.26 322.96 50.5867 322.4 51.24C321.84 51.8933 321.373 53.2933 321 55.44C320.627 57.5867 320.44 60.6433 320.44 64.61C320.44 68.5767 320.627 71.68 321 73.92C321.373 76.1133 321.84 77.56 322.4 78.26Z" fill="#F4A3B0" shape-rendering="crispEdges"/>
<path d="M406.74 87.92C406.133 89.04 402.96 89.6 397.22 89.6C391.527 89.6 388.563 89.04 388.33 87.92L385.95 75.18H384.97L382.73 87.92C382.59 89.04 378.507 89.6 370.48 89.6C368.24 89.6 366.747 89.4833 366 89.25C365.3 88.97 364.81 88.5267 364.53 87.92C355.85 66.5933 351.51 55.37 351.51 54.25C351.51 53.13 353.19 51.9867 356.55 50.82C359.957 49.6067 363.223 49 366.35 49C370.363 49 372.44 50.0733 372.58 52.22L374.96 71.4H375.8L376.64 55.93C376.687 54.7633 377.877 53.7367 380.21 52.85C382.543 51.9633 384.9 51.52 387.28 51.52C389.66 51.52 391.433 51.8233 392.6 52.43C393.813 52.99 394.443 53.69 394.49 54.53L395.26 71.4H396.03L398.34 53.41C398.48 52.29 400.043 51.2867 403.03 50.4C406.063 49.4667 408.723 49 411.01 49C413.297 49 415.093 49.3267 416.4 49.98C418.547 51.0067 419.62 52.22 419.62 53.62C419.62 53.76 417.497 59.4533 413.25 70.7C409.05 81.9467 406.88 87.6867 406.74 87.92Z" fill="#F4A3B0" shape-rendering="crispEdges"/>
<path d="M464.658 66.36V87.92C464.658 88.4333 463.328 88.8533 460.668 89.18C458.008 89.46 455.255 89.6 452.408 89.6C449.608 89.6 447.788 89.4833 446.948 89.25C446.155 88.97 445.758 88.5267 445.758 87.92V65.66C445.758 63.56 445.665 62.1833 445.478 61.53C445.338 60.8767 445.198 60.2933 445.058 59.78C444.731 58.8933 444.148 58.45 443.308 58.45C442.001 58.45 441.348 59.08 441.348 60.34V87.92C441.348 88.4333 440.018 88.8533 437.358 89.18C434.745 89.46 432.015 89.6 429.168 89.6C426.368 89.6 424.548 89.4833 423.708 89.25C422.868 88.97 422.448 88.5267 422.448 87.92V53.41C422.448 52.43 423.778 51.45 426.438 50.47C429.145 49.49 431.991 49 434.978 49C437.965 49 439.645 49.8633 440.018 51.59L440.648 54.67H441.138C442.491 51.9633 444.825 50.0733 448.138 49C449.491 48.58 450.985 48.37 452.618 48.37C457.331 48.37 460.505 49.7933 462.138 52.64C463.818 55.44 464.658 60.0133 464.658 66.36Z" fill="#F4A3B0" shape-rendering="crispEdges"/>
<path d="M487.958 73.78C487.958 76.8133 489.404 78.33 492.298 78.33C493.978 78.33 496.171 77.77 498.878 76.65C501.584 75.4833 503.008 74.9 503.148 74.9C504.034 74.9 505.201 76.23 506.648 78.89C508.094 81.55 508.818 83.51 508.818 84.77C508.818 86.59 506.951 87.9667 503.218 88.9C499.484 89.8333 495.821 90.3 492.228 90.3C488.681 90.3 485.694 90.02 483.268 89.46C480.888 88.9 478.928 88.2 477.388 87.36C475.894 86.4733 474.564 85.4 473.398 84.14C472.278 82.88 471.438 81.69 470.878 80.57C470.318 79.4033 469.874 78.12 469.548 76.72C469.081 74.6667 468.848 72.5433 468.848 70.35C468.848 61.8567 471.064 56 475.498 52.78C477.691 51.1467 480.141 50.0033 482.848 49.35C485.554 48.6967 488.751 48.37 492.438 48.37C504.244 48.37 510.148 52.4767 510.148 60.69C510.148 69.4167 503.521 73.78 490.268 73.78H487.958ZM487.818 63.56V68.18C489.171 68.18 490.268 67.6433 491.108 66.57C491.994 65.4967 492.438 64.19 492.438 62.65C492.438 59.85 491.714 58.45 490.268 58.45C488.634 58.45 487.818 60.1533 487.818 63.56Z" fill="#F4A3B0" shape-rendering="crispEdges"/>
<path d="M533.223 67.48V87.92C533.223 88.4333 531.893 88.8533 529.233 89.18C526.62 89.46 523.89 89.6 521.043 89.6C518.243 89.6 516.423 89.4833 515.583 89.25C514.743 88.97 514.323 88.5267 514.323 87.92V53.41C514.323 52.5233 515.606 51.5667 518.173 50.54C520.786 49.5133 523.61 49 526.643 49C529.723 49 531.45 49.84 531.823 51.52L532.523 54.74H533.013C533.666 52.9667 535.23 51.4733 537.703 50.26C540.176 49 542.65 48.37 545.123 48.37C547.596 48.37 549.323 48.7667 550.303 49.56C551.33 50.3533 551.843 51.38 551.843 52.64C551.843 53.8533 551.75 55.4167 551.563 57.33C551.376 59.2433 550.91 61.32 550.163 63.56C549.463 65.8 548.53 66.92 547.363 66.92C546.896 66.92 545.426 66.57 542.953 65.87C540.48 65.17 538.426 64.82 536.793 64.82C535.206 64.82 534.203 65.0533 533.783 65.52C533.41 65.9867 533.223 66.64 533.223 67.48Z" fill="#F4A3B0" shape-rendering="crispEdges"/>
<path d="M591.011 87.57C591.011 88.1767 589.588 88.6667 586.741 89.04C583.895 89.4133 581.025 89.6 578.131 89.6C575.285 89.6 573.441 89.4367 572.601 89.11C571.808 88.7833 571.411 88.27 571.411 87.57V42.56C571.411 41.3467 572.928 40.4833 575.961 39.97C579.041 39.4567 582.915 39.2 587.581 39.2C592.248 39.2 595.258 39.2233 596.611 39.27C598.011 39.27 599.645 39.34 601.511 39.48C603.378 39.62 604.848 39.8533 605.921 40.18C607.041 40.5067 608.255 40.9267 609.561 41.44C610.915 41.9533 611.965 42.63 612.711 43.47C613.458 44.2633 614.181 45.22 614.881 46.34C616.141 48.3467 616.771 51.2167 616.771 54.95C616.771 58.6367 616.141 61.7633 614.881 64.33C613.668 66.85 612.035 68.7633 609.981 70.07C615.348 78.5167 618.031 83.8833 618.031 86.17C618.031 88.4567 613.435 89.6 604.241 89.6C601.581 89.6 599.738 89.4833 598.711 89.25C597.685 89.0167 597.031 88.5033 596.751 87.71L592.201 73.29L591.011 73.22V87.57ZM591.011 62.44H592.831C595.538 62.44 596.891 60.34 596.891 56.14C596.891 53.9933 596.518 52.4767 595.771 51.59C595.071 50.7033 594.255 50.26 593.321 50.26H591.011V62.44Z" fill="#F4A3B0" shape-rendering="crispEdges"/>
<path d="M639.579 73.78C639.579 76.8133 641.025 78.33 643.919 78.33C645.599 78.33 647.792 77.77 650.499 76.65C653.205 75.4833 654.629 74.9 654.769 74.9C655.655 74.9 656.822 76.23 658.269 78.89C659.715 81.55 660.439 83.51 660.439 84.77C660.439 86.59 658.572 87.9667 654.839 88.9C651.105 89.8333 647.442 90.3 643.849 90.3C640.302 90.3 637.315 90.02 634.889 89.46C632.509 88.9 630.549 88.2 629.009 87.36C627.515 86.4733 626.185 85.4 625.019 84.14C623.899 82.88 623.059 81.69 622.499 80.57C621.939 79.4033 621.495 78.12 621.169 76.72C620.702 74.6667 620.469 72.5433 620.469 70.35C620.469 61.8567 622.685 56 627.119 52.78C629.312 51.1467 631.762 50.0033 634.469 49.35C637.175 48.6967 640.372 48.37 644.059 48.37C655.865 48.37 661.769 52.4767 661.769 60.69C661.769 69.4167 655.142 73.78 641.889 73.78H639.579ZM639.439 63.56V68.18C640.792 68.18 641.889 67.6433 642.729 66.57C643.615 65.4967 644.059 64.19 644.059 62.65C644.059 59.85 643.335 58.45 641.889 58.45C640.255 58.45 639.439 60.1533 639.439 63.56Z" fill="#F4A3B0" shape-rendering="crispEdges"/>
<path d="M689.324 84.98V80.92H688.764C688.577 81.1533 688.251 81.4567 687.784 81.83C687.317 82.1567 686.151 82.6233 684.284 83.23C682.464 83.8367 680.387 84.14 678.054 84.14C675.767 84.14 673.831 83.79 672.244 83.09C670.657 82.39 669.421 81.5267 668.534 80.5C667.647 79.4267 666.947 78.0033 666.434 76.23C665.641 73.4767 665.244 69.7433 665.244 65.03C665.244 59.6167 666.387 55.4633 668.674 52.57C669.561 51.4033 670.867 50.4233 672.594 49.63C674.367 48.79 676.257 48.37 678.264 48.37C680.271 48.37 681.927 48.6033 683.234 49.07C684.541 49.49 685.521 50.0033 686.174 50.61C687.481 51.9167 688.227 53.06 688.414 54.04L688.484 54.67H689.044L689.674 51.94C690.141 49.98 693.827 49 700.734 49C703.814 49 705.681 49.4667 706.334 50.4C706.707 50.96 706.941 51.4967 707.034 52.01C707.127 52.4767 707.174 53.2 707.174 54.18V83.51C707.174 89.0167 705.377 93.2167 701.784 96.11C698.191 99.0033 692.917 100.45 685.964 100.45C678.591 100.45 673.574 99.7267 670.914 98.28C669.747 97.6267 669.164 96.95 669.164 96.25C669.164 95.13 669.607 93.24 670.494 90.58C671.427 87.92 672.291 86.59 673.084 86.59C673.271 86.59 673.924 86.7533 675.044 87.08C678.591 88.0133 681.461 88.48 683.654 88.48C685.894 88.48 687.387 88.2 688.134 87.64C688.927 87.08 689.324 86.1933 689.324 84.98ZM686.524 76.16C687.037 76.16 687.457 75.9733 687.784 75.6C688.111 75.2267 688.274 74.8067 688.274 74.34V59.92C688.087 58.94 687.574 58.45 686.734 58.45C684.961 58.45 684.074 61.3667 684.074 67.2C684.074 69.9067 684.284 72.0767 684.704 73.71C685.171 75.3433 685.777 76.16 686.524 76.16Z" fill="#F4A3B0" shape-rendering="crispEdges"/>
<path d="M731.337 53.41V87.92C731.337 88.4333 729.983 88.8533 727.277 89.18C724.617 89.46 721.863 89.6 719.017 89.6C716.217 89.6 714.397 89.4833 713.557 89.25C712.763 88.97 712.367 88.5267 712.367 87.92V54.67C712.367 53.6433 713.673 52.64 716.287 51.66C718.947 50.6333 721.84 50.12 724.967 50.12C729.213 50.12 731.337 51.2167 731.337 53.41ZM721.817 35C724.897 35 727.3 35.4667 729.027 36.4C730.8 37.2867 731.687 38.92 731.687 41.3C731.687 45.5 728.42 47.6 721.887 47.6C715.353 47.6 712.087 45.5 712.087 41.3C712.087 37.1 715.33 35 721.817 35Z" fill="#F4A3B0" shape-rendering="crispEdges"/>
<path d="M755.599 90.23C747.853 90.23 742.183 89.4833 738.589 87.99C736.769 87.1967 735.859 86.4267 735.859 85.68C735.859 83.7667 736.419 81.5267 737.539 78.96C738.659 76.3933 739.639 75.11 740.479 75.11C740.946 75.11 742.509 75.6233 745.169 76.65C747.876 77.6767 750.139 78.19 751.959 78.19C753.826 78.19 755.039 78.0733 755.599 77.84C756.206 77.6067 756.509 77.1633 756.509 76.51C756.509 75.81 756.043 75.2733 755.109 74.9C754.176 74.48 753.009 74.2 751.609 74.06C750.209 73.92 748.693 73.64 747.059 73.22C745.473 72.8 743.979 72.2633 742.579 71.61C741.179 70.9567 740.013 69.8833 739.079 68.39C738.146 66.85 737.679 65.2167 737.679 63.49C737.679 61.7167 737.726 60.41 737.819 59.57C737.913 58.6833 738.286 57.47 738.939 55.93C739.639 54.3433 740.596 53.06 741.809 52.08C743.069 51.1 744.983 50.2133 747.549 49.42C750.163 48.6267 753.079 48.23 756.299 48.23C759.519 48.23 762.203 48.3467 764.349 48.58C766.543 48.7667 768.246 49.0233 769.459 49.35C770.719 49.6767 771.746 50.05 772.539 50.47C773.893 51.17 774.569 51.94 774.569 52.78C774.569 54.6 773.916 56.7 772.609 59.08C771.303 61.46 770.253 62.65 769.459 62.65C768.713 62.65 767.056 62.2533 764.489 61.46C761.923 60.62 760.033 60.2 758.819 60.2C756.859 60.2 755.879 60.76 755.879 61.88C755.879 62.58 756.533 63.1167 757.839 63.49C759.193 63.8167 760.803 64.1667 762.669 64.54C764.536 64.9133 766.403 65.45 768.269 66.15C770.183 66.8033 771.793 68.0167 773.099 69.79C774.453 71.5633 775.129 73.8033 775.129 76.51C775.129 85.6567 768.619 90.23 755.599 90.23Z" fill="#F4A3B0" shape-rendering="crispEdges"/>
<path d="M806.862 88.97C806.022 89.7633 804.109 90.16 801.122 90.16C798.136 90.16 795.662 89.9733 793.702 89.6C791.742 89.18 789.876 88.3867 788.102 87.22C784.696 84.9333 782.992 80.1733 782.992 72.94V62.02H779.492C778.979 62.02 778.536 61.4833 778.162 60.41C777.789 59.3367 777.602 57.8667 777.602 56C777.602 54.1333 777.882 52.5 778.442 51.1C779.049 49.6533 779.819 48.93 780.752 48.93H782.992V40.46C782.992 39.0133 784.392 37.8467 787.192 36.96C790.039 36.0733 792.816 35.63 795.522 35.63C799.769 35.63 801.892 36.68 801.892 38.78V48.93H807.072C808.286 48.93 808.892 50.68 808.892 54.18C808.892 56.4667 808.612 58.3567 808.052 59.85C807.539 61.2967 806.862 62.02 806.022 62.02H801.892V74.83C801.892 76.09 802.429 77 803.502 77.56C804.576 78.0733 805.509 78.33 806.302 78.33C807.142 78.33 807.656 78.7267 807.842 79.52C808.029 80.3133 808.122 81.5033 808.122 83.09C808.122 86.2167 807.702 88.1767 806.862 88.97Z" fill="#F4A3B0" shape-rendering="crispEdges"/>
<path d="M832.022 67.48V87.92C832.022 88.4333 830.692 88.8533 828.032 89.18C825.419 89.46 822.689 89.6 819.842 89.6C817.042 89.6 815.222 89.4833 814.382 89.25C813.542 88.97 813.122 88.5267 813.122 87.92V53.41C813.122 52.5233 814.405 51.5667 816.972 50.54C819.585 49.5133 822.409 49 825.442 49C828.522 49 830.249 49.84 830.622 51.52L831.322 54.74H831.812C832.465 52.9667 834.029 51.4733 836.502 50.26C838.975 49 841.449 48.37 843.922 48.37C846.395 48.37 848.122 48.7667 849.102 49.56C850.129 50.3533 850.642 51.38 850.642 52.64C850.642 53.8533 850.549 55.4167 850.362 57.33C850.175 59.2433 849.708 61.32 848.962 63.56C848.262 65.8 847.329 66.92 846.162 66.92C845.695 66.92 844.225 66.57 841.752 65.87C839.279 65.17 837.225 64.82 835.592 64.82C834.005 64.82 833.002 65.0533 832.582 65.52C832.208 65.9867 832.022 66.64 832.022 67.48Z" fill="#F4A3B0" shape-rendering="crispEdges"/>
<path d="M867.438 90.23C863.191 90.23 859.854 89.2267 857.427 87.22C856.448 86.38 855.584 85.1433 854.838 83.51C854.138 81.8767 853.787 79.9633 853.787 77.77C853.787 75.5767 854.301 73.6633 855.328 72.03C856.401 70.3967 857.684 69.1367 859.177 68.25C860.671 67.3633 862.421 66.64 864.427 66.08C867.461 65.2867 870.797 64.89 874.438 64.89H876.747C876.747 62.9767 876.094 61.6233 874.787 60.83C874.227 60.5033 873.364 60.34 872.198 60.34C871.078 60.34 869.701 60.6433 868.068 61.25C866.481 61.8567 865.151 62.4867 864.078 63.14C863.004 63.7467 862.281 64.05 861.907 64.05C861.067 64.05 859.924 62.9533 858.477 60.76C857.031 58.52 856.307 56.49 856.307 54.67C856.307 54.0633 857.171 53.27 858.898 52.29C860.624 51.31 863.051 50.4233 866.177 49.63C869.351 48.79 872.431 48.37 875.417 48.37C878.404 48.37 880.971 48.6267 883.117 49.14C885.311 49.6067 887.084 50.19 888.438 50.89C889.838 51.59 891.004 52.5233 891.938 53.69C892.917 54.8567 893.641 55.9067 894.107 56.84C894.621 57.7733 894.994 58.9867 895.227 60.48C895.554 62.2067 895.718 64.33 895.718 66.85V87.92C895.718 88.4333 894.458 88.8533 891.938 89.18C889.464 89.46 886.991 89.6 884.518 89.6C882.091 89.6 880.504 89.53 879.758 89.39C879.057 89.25 878.638 89.0867 878.497 88.9C878.357 88.7133 878.241 88.3867 878.148 87.92L877.588 83.93H877.028C875.861 88.13 872.664 90.23 867.438 90.23ZM876.818 78.61V70.42C875.604 70.42 874.624 70.9333 873.878 71.96C873.131 72.9867 872.758 74.1533 872.758 75.46C872.758 78.54 873.457 80.08 874.857 80.08C875.464 80.08 875.931 79.94 876.258 79.66C876.631 79.3333 876.818 78.9833 876.818 78.61Z" fill="#F4A3B0" shape-rendering="crispEdges"/>
<path d="M928.132 88.97C927.292 89.7633 925.379 90.16 922.392 90.16C919.405 90.16 916.932 89.9733 914.972 89.6C913.012 89.18 911.145 88.3867 909.372 87.22C905.965 84.9333 904.262 80.1733 904.262 72.94V62.02H900.762C900.249 62.02 899.805 61.4833 899.432 60.41C899.059 59.3367 898.872 57.8667 898.872 56C898.872 54.1333 899.152 52.5 899.712 51.1C900.319 49.6533 901.089 48.93 902.022 48.93H904.262V40.46C904.262 39.0133 905.662 37.8467 908.462 36.96C911.309 36.0733 914.085 35.63 916.792 35.63C921.039 35.63 923.162 36.68 923.162 38.78V48.93H928.342C929.555 48.93 930.162 50.68 930.162 54.18C930.162 56.4667 929.882 58.3567 929.322 59.85C928.809 61.2967 928.132 62.02 927.292 62.02H923.162V74.83C923.162 76.09 923.699 77 924.772 77.56C925.845 78.0733 926.779 78.33 927.572 78.33C928.412 78.33 928.925 78.7267 929.112 79.52C929.299 80.3133 929.392 81.5033 929.392 83.09C929.392 86.2167 928.972 88.1767 928.132 88.97Z" fill="#F4A3B0" shape-rendering="crispEdges"/>
<path d="M953.641 53.41V87.92C953.641 88.4333 952.288 88.8533 949.581 89.18C946.921 89.46 944.168 89.6 941.321 89.6C938.521 89.6 936.701 89.4833 935.861 89.25C935.068 88.97 934.671 88.5267 934.671 87.92V54.67C934.671 53.6433 935.978 52.64 938.591 51.66C941.251 50.6333 944.145 50.12 947.271 50.12C951.518 50.12 953.641 51.2167 953.641 53.41ZM944.121 35C947.201 35 949.605 35.4667 951.331 36.4C953.105 37.2867 953.991 38.92 953.991 41.3C953.991 45.5 950.725 47.6 944.191 47.6C937.658 47.6 934.391 45.5 934.391 41.3C934.391 37.1 937.635 35 944.121 35Z" fill="#F4A3B0" shape-rendering="crispEdges"/>
<path d="M980.424 90.23C976.924 90.23 973.914 89.9267 971.394 89.32C968.874 88.7133 966.587 87.64 964.534 86.1C960.287 83.02 958.164 77.28 958.164 68.88C958.164 61.4133 960.334 56.07 964.674 52.85C968.734 49.8633 973.984 48.37 980.424 48.37C983.177 48.37 985.534 48.51 987.494 48.79C989.454 49.0233 991.437 49.56 993.444 50.4C995.497 51.24 997.131 52.3833 998.344 53.83C999.604 55.2767 1000.63 57.2833 1001.42 59.85C1002.22 62.37 1002.61 65.38 1002.61 68.88C1002.61 75.9733 1000.61 81.3167 996.594 84.91C992.581 88.4567 987.191 90.23 980.424 90.23ZM977.974 76.58C978.301 78.26 978.627 79.2633 978.954 79.59C979.327 79.9167 979.794 80.08 980.354 80.08C980.961 80.08 981.427 79.9167 981.754 79.59C982.127 79.2633 982.454 78.26 982.734 76.58C983.061 74.9 983.224 72.8 983.224 70.28C983.224 67.7133 983.154 65.7533 983.014 64.4C982.921 63 982.781 61.9267 982.594 61.18C982.454 60.4333 982.244 59.85 981.964 59.43C981.544 58.8233 981.031 58.52 980.424 58.52C979.864 58.52 979.397 58.7067 979.024 59.08C978.651 59.4067 978.301 60.4333 977.974 62.16C977.647 63.84 977.484 66.2433 977.484 69.37C977.484 72.4967 977.647 74.9 977.974 76.58Z" fill="#F4A3B0" shape-rendering="crispEdges"/>
<path d="M1048.99 66.36V87.92C1048.99 88.4333 1047.66 88.8533 1045 89.18C1042.34 89.46 1039.59 89.6 1036.74 89.6C1033.94 89.6 1032.12 89.4833 1031.28 89.25C1030.49 88.97 1030.09 88.5267 1030.09 87.92V65.66C1030.09 63.56 1030 62.1833 1029.81 61.53C1029.67 60.8767 1029.53 60.2933 1029.39 59.78C1029.07 58.8933 1028.48 58.45 1027.64 58.45C1026.34 58.45 1025.68 59.08 1025.68 60.34V87.92C1025.68 88.4333 1024.35 88.8533 1021.69 89.18C1019.08 89.46 1016.35 89.6 1013.5 89.6C1010.7 89.6 1008.88 89.4833 1008.04 89.25C1007.2 88.97 1006.78 88.5267 1006.78 87.92V53.41C1006.78 52.43 1008.11 51.45 1010.77 50.47C1013.48 49.49 1016.33 49 1019.31 49C1022.3 49 1023.98 49.8633 1024.35 51.59L1024.98 54.67H1025.47C1026.83 51.9633 1029.16 50.0733 1032.47 49C1033.83 48.58 1035.32 48.37 1036.95 48.37C1041.67 48.37 1044.84 49.7933 1046.47 52.64C1048.15 55.44 1048.99 60.0133 1048.99 66.36Z" fill="#F4A3B0" shape-rendering="crispEdges"/>
<path d="M324.71 90.23C320.837 90.23 317.5 89.88 314.7 89.18C311.947 88.4333 309.403 87.1267 307.07 85.26C302.357 81.5733 300 74.5033 300 64.05C300 59.6633 300.63 55.8367 301.89 52.57C303.197 49.3033 304.993 46.7133 307.28 44.8C311.76 41.0667 317.57 39.2 324.71 39.2C328.397 39.2 331.593 39.5267 334.3 40.18C337.053 40.8333 339.643 42.0233 342.07 43.75C346.97 47.2967 349.42 54.0633 349.42 64.05C349.42 73.01 347.203 79.6133 342.77 83.86C338.337 88.1067 332.317 90.23 324.71 90.23ZM322.4 78.26C322.96 78.9133 323.73 79.24 324.71 79.24C325.69 79.24 326.46 78.9133 327.02 78.26C327.58 77.56 328.047 76.1133 328.42 73.92C328.793 71.68 328.98 68.5767 328.98 64.61C328.98 60.6433 328.793 57.5867 328.42 55.44C328.047 53.2933 327.58 51.8933 327.02 51.24C326.46 50.5867 325.69 50.26 324.71 50.26C323.73 50.26 322.96 50.5867 322.4 51.24C321.84 51.8933 321.373 53.2933 321 55.44C320.627 57.5867 320.44 60.6433 320.44 64.61C320.44 68.5767 320.627 71.68 321 73.92C321.373 76.1133 321.84 77.56 322.4 78.26Z" stroke="white" stroke-opacity="0.5" shape-rendering="crispEdges" mask="url(#path-1-outside-1_282_2)"/>
<path d="M406.74 87.92C406.133 89.04 402.96 89.6 397.22 89.6C391.527 89.6 388.563 89.04 388.33 87.92L385.95 75.18H384.97L382.73 87.92C382.59 89.04 378.507 89.6 370.48 89.6C368.24 89.6 366.747 89.4833 366 89.25C365.3 88.97 364.81 88.5267 364.53 87.92C355.85 66.5933 351.51 55.37 351.51 54.25C351.51 53.13 353.19 51.9867 356.55 50.82C359.957 49.6067 363.223 49 366.35 49C370.363 49 372.44 50.0733 372.58 52.22L374.96 71.4H375.8L376.64 55.93C376.687 54.7633 377.877 53.7367 380.21 52.85C382.543 51.9633 384.9 51.52 387.28 51.52C389.66 51.52 391.433 51.8233 392.6 52.43C393.813 52.99 394.443 53.69 394.49 54.53L395.26 71.4H396.03L398.34 53.41C398.48 52.29 400.043 51.2867 403.03 50.4C406.063 49.4667 408.723 49 411.01 49C413.297 49 415.093 49.3267 416.4 49.98C418.547 51.0067 419.62 52.22 419.62 53.62C419.62 53.76 417.497 59.4533 413.25 70.7C409.05 81.9467 406.88 87.6867 406.74 87.92Z" stroke="white" stroke-opacity="0.5" shape-rendering="crispEdges" mask="url(#path-1-outside-1_282_2)"/>
<path d="M464.658 66.36V87.92C464.658 88.4333 463.328 88.8533 460.668 89.18C458.008 89.46 455.255 89.6 452.408 89.6C449.608 89.6 447.788 89.4833 446.948 89.25C446.155 88.97 445.758 88.5267 445.758 87.92V65.66C445.758 63.56 445.665 62.1833 445.478 61.53C445.338 60.8767 445.198 60.2933 445.058 59.78C444.731 58.8933 444.148 58.45 443.308 58.45C442.001 58.45 441.348 59.08 441.348 60.34V87.92C441.348 88.4333 440.018 88.8533 437.358 89.18C434.745 89.46 432.015 89.6 429.168 89.6C426.368 89.6 424.548 89.4833 423.708 89.25C422.868 88.97 422.448 88.5267 422.448 87.92V53.41C422.448 52.43 423.778 51.45 426.438 50.47C429.145 49.49 431.991 49 434.978 49C437.965 49 439.645 49.8633 440.018 51.59L440.648 54.67H441.138C442.491 51.9633 444.825 50.0733 448.138 49C449.491 48.58 450.985 48.37 452.618 48.37C457.331 48.37 460.505 49.7933 462.138 52.64C463.818 55.44 464.658 60.0133 464.658 66.36Z" stroke="white" stroke-opacity="0.5" shape-rendering="crispEdges" mask="url(#path-1-outside-1_282_2)"/>
<path d="M487.958 73.78C487.958 76.8133 489.404 78.33 492.298 78.33C493.978 78.33 496.171 77.77 498.878 76.65C501.584 75.4833 503.008 74.9 503.148 74.9C504.034 74.9 505.201 76.23 506.648 78.89C508.094 81.55 508.818 83.51 508.818 84.77C508.818 86.59 506.951 87.9667 503.218 88.9C499.484 89.8333 495.821 90.3 492.228 90.3C488.681 90.3 485.694 90.02 483.268 89.46C480.888 88.9 478.928 88.2 477.388 87.36C475.894 86.4733 474.564 85.4 473.398 84.14C472.278 82.88 471.438 81.69 470.878 80.57C470.318 79.4033 469.874 78.12 469.548 76.72C469.081 74.6667 468.848 72.5433 468.848 70.35C468.848 61.8567 471.064 56 475.498 52.78C477.691 51.1467 480.141 50.0033 482.848 49.35C485.554 48.6967 488.751 48.37 492.438 48.37C504.244 48.37 510.148 52.4767 510.148 60.69C510.148 69.4167 503.521 73.78 490.268 73.78H487.958ZM487.818 63.56V68.18C489.171 68.18 490.268 67.6433 491.108 66.57C491.994 65.4967 492.438 64.19 492.438 62.65C492.438 59.85 491.714 58.45 490.268 58.45C488.634 58.45 487.818 60.1533 487.818 63.56Z" stroke="white" stroke-opacity="0.5" shape-rendering="crispEdges" mask="url(#path-1-outside-1_282_2)"/>
<path d="M533.223 67.48V87.92C533.223 88.4333 531.893 88.8533 529.233 89.18C526.62 89.46 523.89 89.6 521.043 89.6C518.243 89.6 516.423 89.4833 515.583 89.25C514.743 88.97 514.323 88.5267 514.323 87.92V53.41C514.323 52.5233 515.606 51.5667 518.173 50.54C520.786 49.5133 523.61 49 526.643 49C529.723 49 531.45 49.84 531.823 51.52L532.523 54.74H533.013C533.666 52.9667 535.23 51.4733 537.703 50.26C540.176 49 542.65 48.37 545.123 48.37C547.596 48.37 549.323 48.7667 550.303 49.56C551.33 50.3533 551.843 51.38 551.843 52.64C551.843 53.8533 551.75 55.4167 551.563 57.33C551.376 59.2433 550.91 61.32 550.163 63.56C549.463 65.8 548.53 66.92 547.363 66.92C546.896 66.92 545.426 66.57 542.953 65.87C540.48 65.17 538.426 64.82 536.793 64.82C535.206 64.82 534.203 65.0533 533.783 65.52C533.41 65.9867 533.223 66.64 533.223 67.48Z" stroke="white" stroke-opacity="0.5" shape-rendering="crispEdges" mask="url(#path-1-outside-1_282_2)"/>
<path d="M591.011 87.57C591.011 88.1767 589.588 88.6667 586.741 89.04C583.895 89.4133 581.025 89.6 578.131 89.6C575.285 89.6 573.441 89.4367 572.601 89.11C571.808 88.7833 571.411 88.27 571.411 87.57V42.56C571.411 41.3467 572.928 40.4833 575.961 39.97C579.041 39.4567 582.915 39.2 587.581 39.2C592.248 39.2 595.258 39.2233 596.611 39.27C598.011 39.27 599.645 39.34 601.511 39.48C603.378 39.62 604.848 39.8533 605.921 40.18C607.041 40.5067 608.255 40.9267 609.561 41.44C610.915 41.9533 611.965 42.63 612.711 43.47C613.458 44.2633 614.181 45.22 614.881 46.34C616.141 48.3467 616.771 51.2167 616.771 54.95C616.771 58.6367 616.141 61.7633 614.881 64.33C613.668 66.85 612.035 68.7633 609.981 70.07C615.348 78.5167 618.031 83.8833 618.031 86.17C618.031 88.4567 613.435 89.6 604.241 89.6C601.581 89.6 599.738 89.4833 598.711 89.25C597.685 89.0167 597.031 88.5033 596.751 87.71L592.201 73.29L591.011 73.22V87.57ZM591.011 62.44H592.831C595.538 62.44 596.891 60.34 596.891 56.14C596.891 53.9933 596.518 52.4767 595.771 51.59C595.071 50.7033 594.255 50.26 593.321 50.26H591.011V62.44Z" stroke="white" stroke-opacity="0.5" shape-rendering="crispEdges" mask="url(#path-1-outside-1_282_2)"/>
<path d="M639.579 73.78C639.579 76.8133 641.025 78.33 643.919 78.33C645.599 78.33 647.792 77.77 650.499 76.65C653.205 75.4833 654.629 74.9 654.769 74.9C655.655 74.9 656.822 76.23 658.269 78.89C659.715 81.55 660.439 83.51 660.439 84.77C660.439 86.59 658.572 87.9667 654.839 88.9C651.105 89.8333 647.442 90.3 643.849 90.3C640.302 90.3 637.315 90.02 634.889 89.46C632.509 88.9 630.549 88.2 629.009 87.36C627.515 86.4733 626.185 85.4 625.019 84.14C623.899 82.88 623.059 81.69 622.499 80.57C621.939 79.4033 621.495 78.12 621.169 76.72C620.702 74.6667 620.469 72.5433 620.469 70.35C620.469 61.8567 622.685 56 627.119 52.78C629.312 51.1467 631.762 50.0033 634.469 49.35C637.175 48.6967 640.372 48.37 644.059 48.37C655.865 48.37 661.769 52.4767 661.769 60.69C661.769 69.4167 655.142 73.78 641.889 73.78H639.579ZM639.439 63.56V68.18C640.792 68.18 641.889 67.6433 642.729 66.57C643.615 65.4967 644.059 64.19 644.059 62.65C644.059 59.85 643.335 58.45 641.889 58.45C640.255 58.45 639.439 60.1533 639.439 63.56Z" stroke="white" stroke-opacity="0.5" shape-rendering="crispEdges" mask="url(#path-1-outside-1_282_2)"/>
<path d="M689.324 84.98V80.92H688.764C688.577 81.1533 688.251 81.4567 687.784 81.83C687.317 82.1567 686.151 82.6233 684.284 83.23C682.464 83.8367 680.387 84.14 678.054 84.14C675.767 84.14 673.831 83.79 672.244 83.09C670.657 82.39 669.421 81.5267 668.534 80.5C667.647 79.4267 666.947 78.0033 666.434 76.23C665.641 73.4767 665.244 69.7433 665.244 65.03C665.244 59.6167 666.387 55.4633 668.674 52.57C669.561 51.4033 670.867 50.4233 672.594 49.63C674.367 48.79 676.257 48.37 678.264 48.37C680.271 48.37 681.927 48.6033 683.234 49.07C684.541 49.49 685.521 50.0033 686.174 50.61C687.481 51.9167 688.227 53.06 688.414 54.04L688.484 54.67H689.044L689.674 51.94C690.141 49.98 693.827 49 700.734 49C703.814 49 705.681 49.4667 706.334 50.4C706.707 50.96 706.941 51.4967 707.034 52.01C707.127 52.4767 707.174 53.2 707.174 54.18V83.51C707.174 89.0167 705.377 93.2167 701.784 96.11C698.191 99.0033 692.917 100.45 685.964 100.45C678.591 100.45 673.574 99.7267 670.914 98.28C669.747 97.6267 669.164 96.95 669.164 96.25C669.164 95.13 669.607 93.24 670.494 90.58C671.427 87.92 672.291 86.59 673.084 86.59C673.271 86.59 673.924 86.7533 675.044 87.08C678.591 88.0133 681.461 88.48 683.654 88.48C685.894 88.48 687.387 88.2 688.134 87.64C688.927 87.08 689.324 86.1933 689.324 84.98ZM686.524 76.16C687.037 76.16 687.457 75.9733 687.784 75.6C688.111 75.2267 688.274 74.8067 688.274 74.34V59.92C688.087 58.94 687.574 58.45 686.734 58.45C684.961 58.45 684.074 61.3667 684.074 67.2C684.074 69.9067 684.284 72.0767 684.704 73.71C685.171 75.3433 685.777 76.16 686.524 76.16Z" stroke="white" stroke-opacity="0.5" shape-rendering="crispEdges" mask="url(#path-1-outside-1_282_2)"/>
<path d="M731.337 53.41V87.92C731.337 88.4333 729.983 88.8533 727.277 89.18C724.617 89.46 721.863 89.6 719.017 89.6C716.217 89.6 714.397 89.4833 713.557 89.25C712.763 88.97 712.367 88.5267 712.367 87.92V54.67C712.367 53.6433 713.673 52.64 716.287 51.66C718.947 50.6333 721.84 50.12 724.967 50.12C729.213 50.12 731.337 51.2167 731.337 53.41ZM721.817 35C724.897 35 727.3 35.4667 729.027 36.4C730.8 37.2867 731.687 38.92 731.687 41.3C731.687 45.5 728.42 47.6 721.887 47.6C715.353 47.6 712.087 45.5 712.087 41.3C712.087 37.1 715.33 35 721.817 35Z" stroke="white" stroke-opacity="0.5" shape-rendering="crispEdges" mask="url(#path-1-outside-1_282_2)"/>
<path d="M755.599 90.23C747.853 90.23 742.183 89.4833 738.589 87.99C736.769 87.1967 735.859 86.4267 735.859 85.68C735.859 83.7667 736.419 81.5267 737.539 78.96C738.659 76.3933 739.639 75.11 740.479 75.11C740.946 75.11 742.509 75.6233 745.169 76.65C747.876 77.6767 750.139 78.19 751.959 78.19C753.826 78.19 755.039 78.0733 755.599 77.84C756.206 77.6067 756.509 77.1633 756.509 76.51C756.509 75.81 756.043 75.2733 755.109 74.9C754.176 74.48 753.009 74.2 751.609 74.06C750.209 73.92 748.693 73.64 747.059 73.22C745.473 72.8 743.979 72.2633 742.579 71.61C741.179 70.9567 740.013 69.8833 739.079 68.39C738.146 66.85 737.679 65.2167 737.679 63.49C737.679 61.7167 737.726 60.41 737.819 59.57C737.913 58.6833 738.286 57.47 738.939 55.93C739.639 54.3433 740.596 53.06 741.809 52.08C743.069 51.1 744.983 50.2133 747.549 49.42C750.163 48.6267 753.079 48.23 756.299 48.23C759.519 48.23 762.203 48.3467 764.349 48.58C766.543 48.7667 768.246 49.0233 769.459 49.35C770.719 49.6767 771.746 50.05 772.539 50.47C773.893 51.17 774.569 51.94 774.569 52.78C774.569 54.6 773.916 56.7 772.609 59.08C771.303 61.46 770.253 62.65 769.459 62.65C768.713 62.65 767.056 62.2533 764.489 61.46C761.923 60.62 760.033 60.2 758.819 60.2C756.859 60.2 755.879 60.76 755.879 61.88C755.879 62.58 756.533 63.1167 757.839 63.49C759.193 63.8167 760.803 64.1667 762.669 64.54C764.536 64.9133 766.403 65.45 768.269 66.15C770.183 66.8033 771.793 68.0167 773.099 69.79C774.453 71.5633 775.129 73.8033 775.129 76.51C775.129 85.6567 768.619 90.23 755.599 90.23Z" stroke="white" stroke-opacity="0.5" shape-rendering="crispEdges" mask="url(#path-1-outside-1_282_2)"/>
<path d="M806.862 88.97C806.022 89.7633 804.109 90.16 801.122 90.16C798.136 90.16 795.662 89.9733 793.702 89.6C791.742 89.18 789.876 88.3867 788.102 87.22C784.696 84.9333 782.992 80.1733 782.992 72.94V62.02H779.492C778.979 62.02 778.536 61.4833 778.162 60.41C777.789 59.3367 777.602 57.8667 777.602 56C777.602 54.1333 777.882 52.5 778.442 51.1C779.049 49.6533 779.819 48.93 780.752 48.93H782.992V40.46C782.992 39.0133 784.392 37.8467 787.192 36.96C790.039 36.0733 792.816 35.63 795.522 35.63C799.769 35.63 801.892 36.68 801.892 38.78V48.93H807.072C808.286 48.93 808.892 50.68 808.892 54.18C808.892 56.4667 808.612 58.3567 808.052 59.85C807.539 61.2967 806.862 62.02 806.022 62.02H801.892V74.83C801.892 76.09 802.429 77 803.502 77.56C804.576 78.0733 805.509 78.33 806.302 78.33C807.142 78.33 807.656 78.7267 807.842 79.52C808.029 80.3133 808.122 81.5033 808.122 83.09C808.122 86.2167 807.702 88.1767 806.862 88.97Z" stroke="white" stroke-opacity="0.5" shape-rendering="crispEdges" mask="url(#path-1-outside-1_282_2)"/>
<path d="M832.022 67.48V87.92C832.022 88.4333 830.692 88.8533 828.032 89.18C825.419 89.46 822.689 89.6 819.842 89.6C817.042 89.6 815.222 89.4833 814.382 89.25C813.542 88.97 813.122 88.5267 813.122 87.92V53.41C813.122 52.5233 814.405 51.5667 816.972 50.54C819.585 49.5133 822.409 49 825.442 49C828.522 49 830.249 49.84 830.622 51.52L831.322 54.74H831.812C832.465 52.9667 834.029 51.4733 836.502 50.26C838.975 49 841.449 48.37 843.922 48.37C846.395 48.37 848.122 48.7667 849.102 49.56C850.129 50.3533 850.642 51.38 850.642 52.64C850.642 53.8533 850.549 55.4167 850.362 57.33C850.175 59.2433 849.708 61.32 848.962 63.56C848.262 65.8 847.329 66.92 846.162 66.92C845.695 66.92 844.225 66.57 841.752 65.87C839.279 65.17 837.225 64.82 835.592 64.82C834.005 64.82 833.002 65.0533 832.582 65.52C832.208 65.9867 832.022 66.64 832.022 67.48Z" stroke="white" stroke-opacity="0.5" shape-rendering="crispEdges" mask="url(#path-1-outside-1_282_2)"/>
<path d="M867.438 90.23C863.191 90.23 859.854 89.2267 857.427 87.22C856.448 86.38 855.584 85.1433 854.838 83.51C854.138 81.8767 853.787 79.9633 853.787 77.77C853.787 75.5767 854.301 73.6633 855.328 72.03C856.401 70.3967 857.684 69.1367 859.177 68.25C860.671 67.3633 862.421 66.64 864.427 66.08C867.461 65.2867 870.797 64.89 874.438 64.89H876.747C876.747 62.9767 876.094 61.6233 874.787 60.83C874.227 60.5033 873.364 60.34 872.198 60.34C871.078 60.34 869.701 60.6433 868.068 61.25C866.481 61.8567 865.151 62.4867 864.078 63.14C863.004 63.7467 862.281 64.05 861.907 64.05C861.067 64.05 859.924 62.9533 858.477 60.76C857.031 58.52 856.307 56.49 856.307 54.67C856.307 54.0633 857.171 53.27 858.898 52.29C860.624 51.31 863.051 50.4233 866.177 49.63C869.351 48.79 872.431 48.37 875.417 48.37C878.404 48.37 880.971 48.6267 883.117 49.14C885.311 49.6067 887.084 50.19 888.438 50.89C889.838 51.59 891.004 52.5233 891.938 53.69C892.917 54.8567 893.641 55.9067 894.107 56.84C894.621 57.7733 894.994 58.9867 895.227 60.48C895.554 62.2067 895.718 64.33 895.718 66.85V87.92C895.718 88.4333 894.458 88.8533 891.938 89.18C889.464 89.46 886.991 89.6 884.518 89.6C882.091 89.6 880.504 89.53 879.758 89.39C879.057 89.25 878.638 89.0867 878.497 88.9C878.357 88.7133 878.241 88.3867 878.148 87.92L877.588 83.93H877.028C875.861 88.13 872.664 90.23 867.438 90.23ZM876.818 78.61V70.42C875.604 70.42 874.624 70.9333 873.878 71.96C873.131 72.9867 872.758 74.1533 872.758 75.46C872.758 78.54 873.457 80.08 874.857 80.08C875.464 80.08 875.931 79.94 876.258 79.66C876.631 79.3333 876.818 78.9833 876.818 78.61Z" stroke="white" stroke-opacity="0.5" shape-rendering="crispEdges" mask="url(#path-1-outside-1_282_2)"/>
<path d="M928.132 88.97C927.292 89.7633 925.379 90.16 922.392 90.16C919.405 90.16 916.932 89.9733 914.972 89.6C913.012 89.18 911.145 88.3867 909.372 87.22C905.965 84.9333 904.262 80.1733 904.262 72.94V62.02H900.762C900.249 62.02 899.805 61.4833 899.432 60.41C899.059 59.3367 898.872 57.8667 898.872 56C898.872 54.1333 899.152 52.5 899.712 51.1C900.319 49.6533 901.089 48.93 902.022 48.93H904.262V40.46C904.262 39.0133 905.662 37.8467 908.462 36.96C911.309 36.0733 914.085 35.63 916.792 35.63C921.039 35.63 923.162 36.68 923.162 38.78V48.93H928.342C929.555 48.93 930.162 50.68 930.162 54.18C930.162 56.4667 929.882 58.3567 929.322 59.85C928.809 61.2967 928.132 62.02 927.292 62.02H923.162V74.83C923.162 76.09 923.699 77 924.772 77.56C925.845 78.0733 926.779 78.33 927.572 78.33C928.412 78.33 928.925 78.7267 929.112 79.52C929.299 80.3133 929.392 81.5033 929.392 83.09C929.392 86.2167 928.972 88.1767 928.132 88.97Z" stroke="white" stroke-opacity="0.5" shape-rendering="crispEdges" mask="url(#path-1-outside-1_282_2)"/>
<path d="M953.641 53.41V87.92C953.641 88.4333 952.288 88.8533 949.581 89.18C946.921 89.46 944.168 89.6 941.321 89.6C938.521 89.6 936.701 89.4833 935.861 89.25C935.068 88.97 934.671 88.5267 934.671 87.92V54.67C934.671 53.6433 935.978 52.64 938.591 51.66C941.251 50.6333 944.145 50.12 947.271 50.12C951.518 50.12 953.641 51.2167 953.641 53.41ZM944.121 35C947.201 35 949.605 35.4667 951.331 36.4C953.105 37.2867 953.991 38.92 953.991 41.3C953.991 45.5 950.725 47.6 944.191 47.6C937.658 47.6 934.391 45.5 934.391 41.3C934.391 37.1 937.635 35 944.121 35Z" stroke="white" stroke-opacity="0.5" shape-rendering="crispEdges" mask="url(#path-1-outside-1_282_2)"/>
<path d="M980.424 90.23C976.924 90.23 973.914 89.9267 971.394 89.32C968.874 88.7133 966.587 87.64 964.534 86.1C960.287 83.02 958.164 77.28 958.164 68.88C958.164 61.4133 960.334 56.07 964.674 52.85C968.734 49.8633 973.984 48.37 980.424 48.37C983.177 48.37 985.534 48.51 987.494 48.79C989.454 49.0233 991.437 49.56 993.444 50.4C995.497 51.24 997.131 52.3833 998.344 53.83C999.604 55.2767 1000.63 57.2833 1001.42 59.85C1002.22 62.37 1002.61 65.38 1002.61 68.88C1002.61 75.9733 1000.61 81.3167 996.594 84.91C992.581 88.4567 987.191 90.23 980.424 90.23ZM977.974 76.58C978.301 78.26 978.627 79.2633 978.954 79.59C979.327 79.9167 979.794 80.08 980.354 80.08C980.961 80.08 981.427 79.9167 981.754 79.59C982.127 79.2633 982.454 78.26 982.734 76.58C983.061 74.9 983.224 72.8 983.224 70.28C983.224 67.7133 983.154 65.7533 983.014 64.4C982.921 63 982.781 61.9267 982.594 61.18C982.454 60.4333 982.244 59.85 981.964 59.43C981.544 58.8233 981.031 58.52 980.424 58.52C979.864 58.52 979.397 58.7067 979.024 59.08C978.651 59.4067 978.301 60.4333 977.974 62.16C977.647 63.84 977.484 66.2433 977.484 69.37C977.484 72.4967 977.647 74.9 977.974 76.58Z" stroke="white" stroke-opacity="0.5" shape-rendering="crispEdges" mask="url(#path-1-outside-1_282_2)"/>
<path d="M1048.99 66.36V87.92C1048.99 88.4333 1047.66 88.8533 1045 89.18C1042.34 89.46 1039.59 89.6 1036.74 89.6C1033.94 89.6 1032.12 89.4833 1031.28 89.25C1030.49 88.97 1030.09 88.5267 1030.09 87.92V65.66C1030.09 63.56 1030 62.1833 1029.81 61.53C1029.67 60.8767 1029.53 60.2933 1029.39 59.78C1029.07 58.8933 1028.48 58.45 1027.64 58.45C1026.34 58.45 1025.68 59.08 1025.68 60.34V87.92C1025.68 88.4333 1024.35 88.8533 1021.69 89.18C1019.08 89.46 1016.35 89.6 1013.5 89.6C1010.7 89.6 1008.88 89.4833 1008.04 89.25C1007.2 88.97 1006.78 88.5267 1006.78 87.92V53.41C1006.78 52.43 1008.11 51.45 1010.77 50.47C1013.48 49.49 1016.33 49 1019.31 49C1022.3 49 1023.98 49.8633 1024.35 51.59L1024.98 54.67H1025.47C1026.83 51.9633 1029.16 50.0733 1032.47 49C1033.83 48.58 1035.32 48.37 1036.95 48.37C1041.67 48.37 1044.84 49.7933 1046.47 52.64C1048.15 55.44 1048.99 60.0133 1048.99 66.36Z" stroke="white" stroke-opacity="0.5" shape-rendering="crispEdges" mask="url(#path-1-outside-1_282_2)"/>
</g>
<path d="M220 84.0153C231.364 95.6965 234.486 108.167 230.614 118.191C226.868 128.215 216.128 135.792 204.765 144.474C193.401 153.077 181.412 162.785 160.932 168.073C140.577 173.282 111.855 174.15 92.8737 165.468C73.8922 156.865 64.6512 138.712 65.0258 120.874C65.5254 103.037 75.7654 85.436 94.7468 73.7548C113.728 62.0735 141.576 56.2329 165.178 58.7586C188.905 61.3632 208.636 72.3341 220 84.0153Z" fill="#F4A3B0"/>
<ellipse cx="19.3764" cy="81.7872" rx="19.3764" ry="15.4083" fill="#F4A3B0"/>
<ellipse cx="69.9791" cy="34.8165" rx="19.3764" ry="15.4083" fill="#F4A3B0"/>
<ellipse cx="217.624" cy="39.2901" rx="19.3764" ry="15.4083" fill="#F4A3B0"/>
<ellipse cx="135.955" cy="19.4083" rx="19.3764" ry="15.4083" fill="#F4A3B0"/>
<path d="M1129 80.0153C1117.64 91.6965 1114.51 104.167 1118.39 114.191C1122.13 124.215 1132.87 131.792 1144.24 140.474C1155.6 149.077 1167.59 158.785 1188.07 164.073C1208.42 169.282 1237.14 170.15 1256.13 161.468C1275.11 152.865 1284.35 134.712 1283.97 116.874C1283.47 99.0367 1273.23 81.436 1254.25 69.7548C1235.27 58.0735 1207.42 52.2329 1183.82 54.7586C1160.1 57.3632 1140.36 68.3341 1129 80.0153Z" fill="#F4A3B0"/>
<ellipse cx="19.3764" cy="15.4083" rx="19.3764" ry="15.4083" transform="matrix(-1 0 0 1 1349 62.3789)" fill="#F4A3B0"/>
<ellipse cx="19.3764" cy="15.4083" rx="19.3764" ry="15.4083" transform="matrix(-1 0 0 1 1298.4 15.4082)" fill="#F4A3B0"/>
<ellipse cx="19.3764" cy="15.4083" rx="19.3764" ry="15.4083" transform="matrix(-1 0 0 1 1150.75 19.8818)" fill="#F4A3B0"/>
<ellipse cx="19.3764" cy="15.4083" rx="19.3764" ry="15.4083" transform="matrix(-1 0 0 1 1232.42 0)" fill="#F4A3B0"/>
<defs>
<filter id="filter0_d_282_2" x="295.5" y="34.5" width="757.994" height="74.4502" filterUnits="userSpaceOnUse" color-interpolation-filters="sRGB">
<feFlood flood-opacity="0" result="BackgroundImageFix"/>
<feColorMatrix in="SourceAlpha" type="matrix" values="0 0 0 0 0 0 0 0 0 0 0 0 0 0 0 0 0 0 127 0" result="hardAlpha"/>
<feOffset dy="4"/>
<feGaussianBlur stdDeviation="2"/>
<feComposite in2="hardAlpha" operator="out"/>
<feColorMatrix type="matrix" values="0 0 0 0 0 0 0 0 0 0 0 0 0 0 0 0 0 0 0.25 0"/>
<feBlend mode="normal" in2="BackgroundImageFix" result="effect1_dropShadow_282_2"/>
<feBlend mode="normal" in="SourceGraphic" in2="effect1_dropShadow_282_2" result="shape"/>
</filter>
</defs>
</svg>
