<svg width="548" height="66" viewBox="0 0 548 66" fill="none" xmlns="http://www.w3.org/2000/svg">
<g filter="url(#filter0_d_310_16)">
<mask id="path-1-outside-1_310_16" maskUnits="userSpaceOnUse" x="4" y="0" width="540" height="58" fill="black">
<rect fill="white" x="4" width="540" height="58"/>
<path d="M29.9961 56.63C26.1228 56.63 22.7861 56.28 19.9861 55.58C17.2328 54.8333 14.6895 53.5267 12.3561 51.66C7.6428 47.9733 5.28613 40.9033 5.28613 30.45C5.28613 26.0633 5.91613 22.2367 7.17613 18.97C8.4828 15.7033 10.2795 13.1133 12.5661 11.2C17.0461 7.46666 22.8561 5.6 29.9961 5.6C33.6828 5.6 36.8795 5.92666 39.5861 6.58C42.3395 7.23333 44.9295 8.42333 47.3561 10.15C52.2561 13.6967 54.7061 20.4633 54.7061 30.45C54.7061 39.41 52.4895 46.0133 48.0561 50.26C43.6228 54.5067 37.6028 56.63 29.9961 56.63ZM27.6861 44.66C28.2461 45.3133 29.0161 45.64 29.9961 45.64C30.9761 45.64 31.7461 45.3133 32.3061 44.66C32.8661 43.96 33.3328 42.5133 33.7061 40.32C34.0795 38.08 34.2661 34.9767 34.2661 31.01C34.2661 27.0433 34.0795 23.9867 33.7061 21.84C33.3328 19.6933 32.8661 18.2933 32.3061 17.64C31.7461 16.9867 30.9761 16.66 29.9961 16.66C29.0161 16.66 28.2461 16.9867 27.6861 17.64C27.1261 18.2933 26.6595 19.6933 26.2861 21.84C25.9128 23.9867 25.7261 27.0433 25.7261 31.01C25.7261 34.9767 25.9128 38.08 26.2861 40.32C26.6595 42.5133 27.1261 43.96 27.6861 44.66ZM112.026 54.32C111.42 55.44 108.246 56 102.506 56C96.813 56 93.8496 55.44 93.6163 54.32L91.2363 41.58H90.2563L88.0163 54.32C87.8763 55.44 83.793 56 75.7663 56C73.5263 56 72.033 55.8833 71.2863 55.65C70.5863 55.37 70.0963 54.9267 69.8163 54.32C61.1363 32.9933 56.7963 21.77 56.7963 20.65C56.7963 19.53 58.4763 18.3867 61.8363 17.22C65.243 16.0067 68.5096 15.4 71.6363 15.4C75.6496 15.4 77.7263 16.4733 77.8663 18.62L80.2463 37.8H81.0863L81.9263 22.33C81.973 21.1633 83.163 20.1367 85.4963 19.25C87.8296 18.3633 90.1863 17.92 92.5663 17.92C94.9463 17.92 96.7196 18.2233 97.8863 18.83C99.0996 19.39 99.7296 20.09 99.7763 20.93L100.546 37.8H101.316L103.626 19.81C103.766 18.69 105.33 17.6867 108.316 16.8C111.35 15.8667 114.01 15.4 116.296 15.4C118.583 15.4 120.38 15.7267 121.686 16.38C123.833 17.4067 124.906 18.62 124.906 20.02C124.906 20.16 122.783 25.8533 118.536 37.1C114.336 48.3467 112.166 54.0867 112.026 54.32ZM169.944 32.76V54.32C169.944 54.8333 168.614 55.2533 165.954 55.58C163.294 55.86 160.541 56 157.694 56C154.894 56 153.074 55.8833 152.234 55.65C151.441 55.37 151.044 54.9267 151.044 54.32V32.06C151.044 29.96 150.951 28.5833 150.764 27.93C150.624 27.2767 150.484 26.6933 150.344 26.18C150.018 25.2933 149.434 24.85 148.594 24.85C147.288 24.85 146.634 25.48 146.634 26.74V54.32C146.634 54.8333 145.304 55.2533 142.644 55.58C140.031 55.86 137.301 56 134.454 56C131.654 56 129.834 55.8833 128.994 55.65C128.154 55.37 127.734 54.9267 127.734 54.32V19.81C127.734 18.83 129.064 17.85 131.724 16.87C134.431 15.89 137.278 15.4 140.264 15.4C143.251 15.4 144.931 16.2633 145.304 17.99L145.934 21.07H146.424C147.778 18.3633 150.111 16.4733 153.424 15.4C154.778 14.98 156.271 14.77 157.904 14.77C162.618 14.77 165.791 16.1933 167.424 19.04C169.104 21.84 169.944 26.4133 169.944 32.76ZM193.244 40.18C193.244 43.2133 194.69 44.73 197.584 44.73C199.264 44.73 201.457 44.17 204.164 43.05C206.87 41.8833 208.294 41.3 208.434 41.3C209.32 41.3 210.487 42.63 211.934 45.29C213.38 47.95 214.104 49.91 214.104 51.17C214.104 52.99 212.237 54.3667 208.504 55.3C204.77 56.2333 201.107 56.7 197.514 56.7C193.967 56.7 190.98 56.42 188.554 55.86C186.174 55.3 184.214 54.6 182.674 53.76C181.18 52.8733 179.85 51.8 178.684 50.54C177.564 49.28 176.724 48.09 176.164 46.97C175.604 45.8033 175.16 44.52 174.834 43.12C174.367 41.0667 174.134 38.9433 174.134 36.75C174.134 28.2567 176.35 22.4 180.784 19.18C182.977 17.5467 185.427 16.4033 188.134 15.75C190.84 15.0967 194.037 14.77 197.724 14.77C209.53 14.77 215.434 18.8767 215.434 27.09C215.434 35.8167 208.807 40.18 195.554 40.18H193.244ZM193.104 29.96V34.58C194.457 34.58 195.554 34.0433 196.394 32.97C197.28 31.8967 197.724 30.59 197.724 29.05C197.724 26.25 197 24.85 195.554 24.85C193.92 24.85 193.104 26.5533 193.104 29.96ZM238.509 33.88V54.32C238.509 54.8333 237.179 55.2533 234.519 55.58C231.906 55.86 229.176 56 226.329 56C223.529 56 221.709 55.8833 220.869 55.65C220.029 55.37 219.609 54.9267 219.609 54.32V19.81C219.609 18.9233 220.893 17.9667 223.459 16.94C226.073 15.9133 228.896 15.4 231.929 15.4C235.009 15.4 236.736 16.24 237.109 17.92L237.809 21.14H238.299C238.953 19.3667 240.516 17.8733 242.989 16.66C245.463 15.4 247.936 14.77 250.409 14.77C252.883 14.77 254.609 15.1667 255.589 15.96C256.616 16.7533 257.129 17.78 257.129 19.04C257.129 20.2533 257.036 21.8167 256.849 23.73C256.663 25.6433 256.196 27.72 255.449 29.96C254.749 32.2 253.816 33.32 252.649 33.32C252.183 33.32 250.713 32.97 248.239 32.27C245.766 31.57 243.713 31.22 242.079 31.22C240.493 31.22 239.489 31.4533 239.069 31.92C238.696 32.3867 238.509 33.04 238.509 33.88ZM296.157 53.97C296.157 54.5767 294.734 55.0667 291.887 55.44C289.041 55.8133 286.194 56 283.347 56C280.501 56 278.681 55.8367 277.887 55.51C277.094 55.1833 276.697 54.67 276.697 53.97V8.96C276.697 6.72 283.417 5.6 296.857 5.6C304.977 5.6 310.344 6.16 312.957 7.28C316.131 8.58666 318.277 10.36 319.397 12.6C320.891 15.4933 321.637 19.2033 321.637 23.73C321.637 29.9367 320.564 34.44 318.417 37.24C316.877 39.2933 315.337 40.6233 313.797 41.23C312.257 41.8367 310.974 42.28 309.947 42.56C308.967 42.7933 307.731 42.98 306.237 43.12C304.184 43.3067 301.384 43.4 297.837 43.4L296.157 43.33V53.97ZM296.227 31.71H297.907C298.794 31.71 299.494 31.5933 300.007 31.36C300.521 31.08 300.964 30.38 301.337 29.26C301.757 28.0933 301.967 26.4833 301.967 24.43C301.967 22.33 301.734 20.7433 301.267 19.67C300.847 18.55 300.404 17.8967 299.937 17.71C299.517 17.4767 299.004 17.36 298.397 17.36H296.227V31.71ZM344.74 33.88V54.32C344.74 54.8333 343.41 55.2533 340.75 55.58C338.136 55.86 335.406 56 332.56 56C329.76 56 327.94 55.8833 327.1 55.65C326.26 55.37 325.84 54.9267 325.84 54.32V19.81C325.84 18.9233 327.123 17.9667 329.69 16.94C332.303 15.9133 335.126 15.4 338.16 15.4C341.24 15.4 342.966 16.24 343.34 17.92L344.04 21.14H344.53C345.183 19.3667 346.746 17.8733 349.22 16.66C351.693 15.4 354.166 14.77 356.64 14.77C359.113 14.77 360.84 15.1667 361.82 15.96C362.846 16.7533 363.36 17.78 363.36 19.04C363.36 20.2533 363.266 21.8167 363.08 23.73C362.893 25.6433 362.426 27.72 361.68 29.96C360.98 32.2 360.046 33.32 358.88 33.32C358.413 33.32 356.943 32.97 354.47 32.27C351.996 31.57 349.943 31.22 348.31 31.22C346.723 31.22 345.72 31.4533 345.3 31.92C344.926 32.3867 344.74 33.04 344.74 33.88ZM388.415 56.63C384.915 56.63 381.905 56.3267 379.385 55.72C376.865 55.1133 374.579 54.04 372.525 52.5C368.279 49.42 366.155 43.68 366.155 35.28C366.155 27.8133 368.325 22.47 372.665 19.25C376.725 16.2633 381.975 14.77 388.415 14.77C391.169 14.77 393.525 14.91 395.485 15.19C397.445 15.4233 399.429 15.96 401.435 16.8C403.489 17.64 405.122 18.7833 406.335 20.23C407.595 21.6767 408.622 23.6833 409.415 26.25C410.209 28.77 410.605 31.78 410.605 35.28C410.605 42.3733 408.599 47.7167 404.585 51.31C400.572 54.8567 395.182 56.63 388.415 56.63ZM385.965 42.98C386.292 44.66 386.619 45.6633 386.945 45.99C387.319 46.3167 387.785 46.48 388.345 46.48C388.952 46.48 389.419 46.3167 389.745 45.99C390.119 45.6633 390.445 44.66 390.725 42.98C391.052 41.3 391.215 39.2 391.215 36.68C391.215 34.1133 391.145 32.1533 391.005 30.8C390.912 29.4 390.772 28.3267 390.585 27.58C390.445 26.8333 390.235 26.25 389.955 25.83C389.535 25.2233 389.022 24.92 388.415 24.92C387.855 24.92 387.389 25.1067 387.015 25.48C386.642 25.8067 386.292 26.8333 385.965 28.56C385.639 30.24 385.475 32.6433 385.475 35.77C385.475 38.8967 385.639 41.3 385.965 42.98ZM437.385 32.9V54.32C437.385 54.8333 436.102 55.2533 433.535 55.58C430.969 55.86 427.819 56 424.085 56C420.352 56 418.485 55.44 418.485 54.32V32.9H414.915C413.655 32.9 413.025 30.7767 413.025 26.53C413.025 24.85 413.305 23.2867 413.865 21.84C414.472 20.3467 415.242 19.6 416.175 19.6H418.485C418.485 16.4733 418.929 13.7433 419.815 11.41C420.749 9.07666 421.845 7.30333 423.105 6.09C424.412 4.83 425.975 3.82667 427.795 3.08C430.502 1.96 433.582 1.4 437.035 1.4C445.715 1.4 450.055 2.82333 450.055 5.67C450.055 8.75 449.752 11.27 449.145 13.23C448.539 15.19 447.722 16.17 446.695 16.17C446.275 16.17 445.482 16.03 444.315 15.75C443.195 15.4233 442.122 15.26 441.095 15.26C438.389 15.26 437.035 16.1933 437.035 18.06C437.035 18.5267 437.152 19.04 437.385 19.6H446.695C447.955 19.6 448.585 21.6533 448.585 25.76C448.585 27.58 448.305 29.2367 447.745 30.73C447.232 32.1767 446.532 32.9 445.645 32.9H437.385ZM473.127 19.81V54.32C473.127 54.8333 471.773 55.2533 469.067 55.58C466.407 55.86 463.653 56 460.807 56C458.007 56 456.187 55.8833 455.347 55.65C454.553 55.37 454.157 54.9267 454.157 54.32V21.07C454.157 20.0433 455.463 19.04 458.077 18.06C460.737 17.0333 463.63 16.52 466.757 16.52C471.003 16.52 473.127 17.6167 473.127 19.81ZM463.607 1.4C466.687 1.4 469.09 1.86666 470.817 2.8C472.59 3.68666 473.477 5.32 473.477 7.7C473.477 11.9 470.21 14 463.677 14C457.143 14 453.877 11.9 453.877 7.7C453.877 3.5 457.12 1.4 463.607 1.4ZM497.249 4.62V54.32C497.249 54.8333 495.919 55.2533 493.259 55.58C490.599 55.86 487.846 56 484.999 56C482.199 56 480.379 55.8833 479.539 55.65C478.746 55.37 478.349 54.9267 478.349 54.32V5.88C478.349 4.85333 479.656 3.85 482.269 2.87C484.929 1.89 487.776 1.4 490.809 1.4C495.103 1.4 497.249 2.47333 497.249 4.62ZM520.548 40.18C520.548 43.2133 521.995 44.73 524.888 44.73C526.568 44.73 528.762 44.17 531.468 43.05C534.175 41.8833 535.598 41.3 535.738 41.3C536.625 41.3 537.792 42.63 539.238 45.29C540.685 47.95 541.408 49.91 541.408 51.17C541.408 52.99 539.542 54.3667 535.808 55.3C532.075 56.2333 528.412 56.7 524.818 56.7C521.272 56.7 518.285 56.42 515.858 55.86C513.478 55.3 511.518 54.6 509.978 53.76C508.485 52.8733 507.155 51.8 505.988 50.54C504.868 49.28 504.028 48.09 503.468 46.97C502.908 45.8033 502.465 44.52 502.138 43.12C501.672 41.0667 501.438 38.9433 501.438 36.75C501.438 28.2567 503.655 22.4 508.088 19.18C510.282 17.5467 512.732 16.4033 515.438 15.75C518.145 15.0967 521.342 14.77 525.028 14.77C536.835 14.77 542.738 18.8767 542.738 27.09C542.738 35.8167 536.112 40.18 522.858 40.18H520.548ZM520.408 29.96V34.58C521.762 34.58 522.858 34.0433 523.698 32.97C524.585 31.8967 525.028 30.59 525.028 29.05C525.028 26.25 524.305 24.85 522.858 24.85C521.225 24.85 520.408 26.5533 520.408 29.96Z"/>
</mask>
<path d="M29.9961 56.63C26.1228 56.63 22.7861 56.28 19.9861 55.58C17.2328 54.8333 14.6895 53.5267 12.3561 51.66C7.6428 47.9733 5.28613 40.9033 5.28613 30.45C5.28613 26.0633 5.91613 22.2367 7.17613 18.97C8.4828 15.7033 10.2795 13.1133 12.5661 11.2C17.0461 7.46666 22.8561 5.6 29.9961 5.6C33.6828 5.6 36.8795 5.92666 39.5861 6.58C42.3395 7.23333 44.9295 8.42333 47.3561 10.15C52.2561 13.6967 54.7061 20.4633 54.7061 30.45C54.7061 39.41 52.4895 46.0133 48.0561 50.26C43.6228 54.5067 37.6028 56.63 29.9961 56.63ZM27.6861 44.66C28.2461 45.3133 29.0161 45.64 29.9961 45.64C30.9761 45.64 31.7461 45.3133 32.3061 44.66C32.8661 43.96 33.3328 42.5133 33.7061 40.32C34.0795 38.08 34.2661 34.9767 34.2661 31.01C34.2661 27.0433 34.0795 23.9867 33.7061 21.84C33.3328 19.6933 32.8661 18.2933 32.3061 17.64C31.7461 16.9867 30.9761 16.66 29.9961 16.66C29.0161 16.66 28.2461 16.9867 27.6861 17.64C27.1261 18.2933 26.6595 19.6933 26.2861 21.84C25.9128 23.9867 25.7261 27.0433 25.7261 31.01C25.7261 34.9767 25.9128 38.08 26.2861 40.32C26.6595 42.5133 27.1261 43.96 27.6861 44.66ZM112.026 54.32C111.42 55.44 108.246 56 102.506 56C96.813 56 93.8496 55.44 93.6163 54.32L91.2363 41.58H90.2563L88.0163 54.32C87.8763 55.44 83.793 56 75.7663 56C73.5263 56 72.033 55.8833 71.2863 55.65C70.5863 55.37 70.0963 54.9267 69.8163 54.32C61.1363 32.9933 56.7963 21.77 56.7963 20.65C56.7963 19.53 58.4763 18.3867 61.8363 17.22C65.243 16.0067 68.5096 15.4 71.6363 15.4C75.6496 15.4 77.7263 16.4733 77.8663 18.62L80.2463 37.8H81.0863L81.9263 22.33C81.973 21.1633 83.163 20.1367 85.4963 19.25C87.8296 18.3633 90.1863 17.92 92.5663 17.92C94.9463 17.92 96.7196 18.2233 97.8863 18.83C99.0996 19.39 99.7296 20.09 99.7763 20.93L100.546 37.8H101.316L103.626 19.81C103.766 18.69 105.33 17.6867 108.316 16.8C111.35 15.8667 114.01 15.4 116.296 15.4C118.583 15.4 120.38 15.7267 121.686 16.38C123.833 17.4067 124.906 18.62 124.906 20.02C124.906 20.16 122.783 25.8533 118.536 37.1C114.336 48.3467 112.166 54.0867 112.026 54.32ZM169.944 32.76V54.32C169.944 54.8333 168.614 55.2533 165.954 55.58C163.294 55.86 160.541 56 157.694 56C154.894 56 153.074 55.8833 152.234 55.65C151.441 55.37 151.044 54.9267 151.044 54.32V32.06C151.044 29.96 150.951 28.5833 150.764 27.93C150.624 27.2767 150.484 26.6933 150.344 26.18C150.018 25.2933 149.434 24.85 148.594 24.85C147.288 24.85 146.634 25.48 146.634 26.74V54.32C146.634 54.8333 145.304 55.2533 142.644 55.58C140.031 55.86 137.301 56 134.454 56C131.654 56 129.834 55.8833 128.994 55.65C128.154 55.37 127.734 54.9267 127.734 54.32V19.81C127.734 18.83 129.064 17.85 131.724 16.87C134.431 15.89 137.278 15.4 140.264 15.4C143.251 15.4 144.931 16.2633 145.304 17.99L145.934 21.07H146.424C147.778 18.3633 150.111 16.4733 153.424 15.4C154.778 14.98 156.271 14.77 157.904 14.77C162.618 14.77 165.791 16.1933 167.424 19.04C169.104 21.84 169.944 26.4133 169.944 32.76ZM193.244 40.18C193.244 43.2133 194.69 44.73 197.584 44.73C199.264 44.73 201.457 44.17 204.164 43.05C206.87 41.8833 208.294 41.3 208.434 41.3C209.32 41.3 210.487 42.63 211.934 45.29C213.38 47.95 214.104 49.91 214.104 51.17C214.104 52.99 212.237 54.3667 208.504 55.3C204.77 56.2333 201.107 56.7 197.514 56.7C193.967 56.7 190.98 56.42 188.554 55.86C186.174 55.3 184.214 54.6 182.674 53.76C181.18 52.8733 179.85 51.8 178.684 50.54C177.564 49.28 176.724 48.09 176.164 46.97C175.604 45.8033 175.16 44.52 174.834 43.12C174.367 41.0667 174.134 38.9433 174.134 36.75C174.134 28.2567 176.35 22.4 180.784 19.18C182.977 17.5467 185.427 16.4033 188.134 15.75C190.84 15.0967 194.037 14.77 197.724 14.77C209.53 14.77 215.434 18.8767 215.434 27.09C215.434 35.8167 208.807 40.18 195.554 40.18H193.244ZM193.104 29.96V34.58C194.457 34.58 195.554 34.0433 196.394 32.97C197.28 31.8967 197.724 30.59 197.724 29.05C197.724 26.25 197 24.85 195.554 24.85C193.92 24.85 193.104 26.5533 193.104 29.96ZM238.509 33.88V54.32C238.509 54.8333 237.179 55.2533 234.519 55.58C231.906 55.86 229.176 56 226.329 56C223.529 56 221.709 55.8833 220.869 55.65C220.029 55.37 219.609 54.9267 219.609 54.32V19.81C219.609 18.9233 220.893 17.9667 223.459 16.94C226.073 15.9133 228.896 15.4 231.929 15.4C235.009 15.4 236.736 16.24 237.109 17.92L237.809 21.14H238.299C238.953 19.3667 240.516 17.8733 242.989 16.66C245.463 15.4 247.936 14.77 250.409 14.77C252.883 14.77 254.609 15.1667 255.589 15.96C256.616 16.7533 257.129 17.78 257.129 19.04C257.129 20.2533 257.036 21.8167 256.849 23.73C256.663 25.6433 256.196 27.72 255.449 29.96C254.749 32.2 253.816 33.32 252.649 33.32C252.183 33.32 250.713 32.97 248.239 32.27C245.766 31.57 243.713 31.22 242.079 31.22C240.493 31.22 239.489 31.4533 239.069 31.92C238.696 32.3867 238.509 33.04 238.509 33.88ZM296.157 53.97C296.157 54.5767 294.734 55.0667 291.887 55.44C289.041 55.8133 286.194 56 283.347 56C280.501 56 278.681 55.8367 277.887 55.51C277.094 55.1833 276.697 54.67 276.697 53.97V8.96C276.697 6.72 283.417 5.6 296.857 5.6C304.977 5.6 310.344 6.16 312.957 7.28C316.131 8.58666 318.277 10.36 319.397 12.6C320.891 15.4933 321.637 19.2033 321.637 23.73C321.637 29.9367 320.564 34.44 318.417 37.24C316.877 39.2933 315.337 40.6233 313.797 41.23C312.257 41.8367 310.974 42.28 309.947 42.56C308.967 42.7933 307.731 42.98 306.237 43.12C304.184 43.3067 301.384 43.4 297.837 43.4L296.157 43.33V53.97ZM296.227 31.71H297.907C298.794 31.71 299.494 31.5933 300.007 31.36C300.521 31.08 300.964 30.38 301.337 29.26C301.757 28.0933 301.967 26.4833 301.967 24.43C301.967 22.33 301.734 20.7433 301.267 19.67C300.847 18.55 300.404 17.8967 299.937 17.71C299.517 17.4767 299.004 17.36 298.397 17.36H296.227V31.71ZM344.74 33.88V54.32C344.74 54.8333 343.41 55.2533 340.75 55.58C338.136 55.86 335.406 56 332.56 56C329.76 56 327.94 55.8833 327.1 55.65C326.26 55.37 325.84 54.9267 325.84 54.32V19.81C325.84 18.9233 327.123 17.9667 329.69 16.94C332.303 15.9133 335.126 15.4 338.16 15.4C341.24 15.4 342.966 16.24 343.34 17.92L344.04 21.14H344.53C345.183 19.3667 346.746 17.8733 349.22 16.66C351.693 15.4 354.166 14.77 356.64 14.77C359.113 14.77 360.84 15.1667 361.82 15.96C362.846 16.7533 363.36 17.78 363.36 19.04C363.36 20.2533 363.266 21.8167 363.08 23.73C362.893 25.6433 362.426 27.72 361.68 29.96C360.98 32.2 360.046 33.32 358.88 33.32C358.413 33.32 356.943 32.97 354.47 32.27C351.996 31.57 349.943 31.22 348.31 31.22C346.723 31.22 345.72 31.4533 345.3 31.92C344.926 32.3867 344.74 33.04 344.74 33.88ZM388.415 56.63C384.915 56.63 381.905 56.3267 379.385 55.72C376.865 55.1133 374.579 54.04 372.525 52.5C368.279 49.42 366.155 43.68 366.155 35.28C366.155 27.8133 368.325 22.47 372.665 19.25C376.725 16.2633 381.975 14.77 388.415 14.77C391.169 14.77 393.525 14.91 395.485 15.19C397.445 15.4233 399.429 15.96 401.435 16.8C403.489 17.64 405.122 18.7833 406.335 20.23C407.595 21.6767 408.622 23.6833 409.415 26.25C410.209 28.77 410.605 31.78 410.605 35.28C410.605 42.3733 408.599 47.7167 404.585 51.31C400.572 54.8567 395.182 56.63 388.415 56.63ZM385.965 42.98C386.292 44.66 386.619 45.6633 386.945 45.99C387.319 46.3167 387.785 46.48 388.345 46.48C388.952 46.48 389.419 46.3167 389.745 45.99C390.119 45.6633 390.445 44.66 390.725 42.98C391.052 41.3 391.215 39.2 391.215 36.68C391.215 34.1133 391.145 32.1533 391.005 30.8C390.912 29.4 390.772 28.3267 390.585 27.58C390.445 26.8333 390.235 26.25 389.955 25.83C389.535 25.2233 389.022 24.92 388.415 24.92C387.855 24.92 387.389 25.1067 387.015 25.48C386.642 25.8067 386.292 26.8333 385.965 28.56C385.639 30.24 385.475 32.6433 385.475 35.77C385.475 38.8967 385.639 41.3 385.965 42.98ZM437.385 32.9V54.32C437.385 54.8333 436.102 55.2533 433.535 55.58C430.969 55.86 427.819 56 424.085 56C420.352 56 418.485 55.44 418.485 54.32V32.9H414.915C413.655 32.9 413.025 30.7767 413.025 26.53C413.025 24.85 413.305 23.2867 413.865 21.84C414.472 20.3467 415.242 19.6 416.175 19.6H418.485C418.485 16.4733 418.929 13.7433 419.815 11.41C420.749 9.07666 421.845 7.30333 423.105 6.09C424.412 4.83 425.975 3.82667 427.795 3.08C430.502 1.96 433.582 1.4 437.035 1.4C445.715 1.4 450.055 2.82333 450.055 5.67C450.055 8.75 449.752 11.27 449.145 13.23C448.539 15.19 447.722 16.17 446.695 16.17C446.275 16.17 445.482 16.03 444.315 15.75C443.195 15.4233 442.122 15.26 441.095 15.26C438.389 15.26 437.035 16.1933 437.035 18.06C437.035 18.5267 437.152 19.04 437.385 19.6H446.695C447.955 19.6 448.585 21.6533 448.585 25.76C448.585 27.58 448.305 29.2367 447.745 30.73C447.232 32.1767 446.532 32.9 445.645 32.9H437.385ZM473.127 19.81V54.32C473.127 54.8333 471.773 55.2533 469.067 55.58C466.407 55.86 463.653 56 460.807 56C458.007 56 456.187 55.8833 455.347 55.65C454.553 55.37 454.157 54.9267 454.157 54.32V21.07C454.157 20.0433 455.463 19.04 458.077 18.06C460.737 17.0333 463.63 16.52 466.757 16.52C471.003 16.52 473.127 17.6167 473.127 19.81ZM463.607 1.4C466.687 1.4 469.09 1.86666 470.817 2.8C472.59 3.68666 473.477 5.32 473.477 7.7C473.477 11.9 470.21 14 463.677 14C457.143 14 453.877 11.9 453.877 7.7C453.877 3.5 457.12 1.4 463.607 1.4ZM497.249 4.62V54.32C497.249 54.8333 495.919 55.2533 493.259 55.58C490.599 55.86 487.846 56 484.999 56C482.199 56 480.379 55.8833 479.539 55.65C478.746 55.37 478.349 54.9267 478.349 54.32V5.88C478.349 4.85333 479.656 3.85 482.269 2.87C484.929 1.89 487.776 1.4 490.809 1.4C495.103 1.4 497.249 2.47333 497.249 4.62ZM520.548 40.18C520.548 43.2133 521.995 44.73 524.888 44.73C526.568 44.73 528.762 44.17 531.468 43.05C534.175 41.8833 535.598 41.3 535.738 41.3C536.625 41.3 537.792 42.63 539.238 45.29C540.685 47.95 541.408 49.91 541.408 51.17C541.408 52.99 539.542 54.3667 535.808 55.3C532.075 56.2333 528.412 56.7 524.818 56.7C521.272 56.7 518.285 56.42 515.858 55.86C513.478 55.3 511.518 54.6 509.978 53.76C508.485 52.8733 507.155 51.8 505.988 50.54C504.868 49.28 504.028 48.09 503.468 46.97C502.908 45.8033 502.465 44.52 502.138 43.12C501.672 41.0667 501.438 38.9433 501.438 36.75C501.438 28.2567 503.655 22.4 508.088 19.18C510.282 17.5467 512.732 16.4033 515.438 15.75C518.145 15.0967 521.342 14.77 525.028 14.77C536.835 14.77 542.738 18.8767 542.738 27.09C542.738 35.8167 536.112 40.18 522.858 40.18H520.548ZM520.408 29.96V34.58C521.762 34.58 522.858 34.0433 523.698 32.97C524.585 31.8967 525.028 30.59 525.028 29.05C525.028 26.25 524.305 24.85 522.858 24.85C521.225 24.85 520.408 26.5533 520.408 29.96Z" fill="#A06EB1"/>
<path d="M19.9861 55.58L19.7244 56.5451L19.734 56.5477L19.7436 56.5501L19.9861 55.58ZM12.3561 51.66L12.9809 50.8791L12.9722 50.8723L12.3561 51.66ZM7.17613 18.97L6.24759 18.5986L6.24313 18.6101L7.17613 18.97ZM12.5661 11.2L11.9259 10.4318L11.9244 10.4331L12.5661 11.2ZM39.5861 6.58L39.3515 7.55209L39.3553 7.55298L39.5861 6.58ZM47.3561 10.15L47.9425 9.3399L47.9359 9.33521L47.3561 10.15ZM48.0561 50.26L48.7479 50.9821L48.7479 50.9821L48.0561 50.26ZM27.6861 44.66L26.9053 45.2847L26.9159 45.2979L26.9269 45.3108L27.6861 44.66ZM32.3061 44.66L33.0654 45.3108L33.0764 45.2979L33.087 45.2847L32.3061 44.66ZM33.7061 40.32L34.692 40.4878L34.6925 40.4844L33.7061 40.32ZM33.7061 21.84L34.6913 21.6687L34.6913 21.6687L33.7061 21.84ZM27.6861 17.64L28.4454 18.2908L28.4454 18.2908L27.6861 17.64ZM26.2861 21.84L27.2713 22.0113L27.2713 22.0113L26.2861 21.84ZM26.2861 40.32L25.2997 40.4844L25.3003 40.4878L26.2861 40.32ZM29.9961 56.63V55.63C26.1787 55.63 22.9276 55.2846 20.2287 54.6099L19.9861 55.58L19.7436 56.5501C22.6446 57.2754 26.067 57.63 29.9961 57.63V56.63ZM19.9861 55.58L20.2479 54.6149C17.6331 53.9058 15.2123 52.6643 12.9808 50.8791L12.3561 51.66L11.7314 52.4409C14.1667 54.389 16.8325 55.7609 19.7244 56.5451L19.9861 55.58ZM12.3561 51.66L12.9722 50.8723C8.63392 47.479 6.28613 40.8169 6.28613 30.45H5.28613H4.28613C4.28613 40.9897 6.65168 48.4677 11.74 52.4477L12.3561 51.66ZM5.28613 30.45H6.28613C6.28613 26.1565 6.90304 22.4568 8.10913 19.3299L7.17613 18.97L6.24313 18.6101C4.92922 22.0166 4.28613 25.9702 4.28613 30.45H5.28613ZM7.17613 18.97L8.10461 19.3414C9.36092 16.2006 11.069 13.7566 13.2079 11.9669L12.5661 11.2L11.9244 10.4331C9.4899 12.4701 7.60468 15.2061 6.24766 18.5986L7.17613 18.97ZM12.5661 11.2L13.2063 11.9682C17.4689 8.41611 23.0357 6.6 29.9961 6.6V5.6V4.6C22.6766 4.6 16.6234 6.51722 11.9259 10.4318L12.5661 11.2ZM29.9961 5.6V6.6C33.6276 6.6 36.7418 6.92216 39.3515 7.55208L39.5861 6.58L39.8208 5.60792C37.0171 4.93117 33.738 4.6 29.9961 4.6V5.6ZM39.5861 6.58L39.3553 7.55298C41.9767 8.17501 44.4491 9.30886 46.7764 10.9648L47.3561 10.15L47.9359 9.33521C45.4098 7.5378 42.7023 6.29165 39.817 5.60702L39.5861 6.58ZM47.3561 10.15L46.7698 10.9601C51.2775 14.2228 53.7061 20.575 53.7061 30.45H54.7061H55.7061C55.7061 20.3517 53.2347 13.1705 47.9425 9.33993L47.3561 10.15ZM54.7061 30.45H53.7061C53.7061 39.2633 51.5254 45.5521 47.3644 49.5379L48.0561 50.26L48.7479 50.9821C53.4536 46.4746 55.7061 39.5567 55.7061 30.45H54.7061ZM48.0561 50.26L47.3644 49.5379C43.1593 53.5659 37.4099 55.63 29.9961 55.63V56.63V57.63C37.7957 57.63 44.0863 55.4474 48.7479 50.9821L48.0561 50.26ZM27.6861 44.66L26.9269 45.3108C27.7044 46.218 28.7694 46.64 29.9961 46.64V45.64V44.64C29.2628 44.64 28.7878 44.4087 28.4454 44.0092L27.6861 44.66ZM29.9961 45.64V46.64C31.2228 46.64 32.2878 46.218 33.0654 45.3108L32.3061 44.66L31.5469 44.0092C31.2044 44.4087 30.7294 44.64 29.9961 44.64V45.64ZM32.3061 44.66L33.087 45.2847C33.4776 44.7964 33.7795 44.1269 34.0278 43.357C34.2809 42.5726 34.5006 41.6121 34.692 40.4878L33.7061 40.32L32.7203 40.1522C32.5384 41.2212 32.338 42.0808 32.1244 42.743C31.9061 43.4198 31.6947 43.8236 31.5253 44.0353L32.3061 44.66ZM33.7061 40.32L34.6925 40.4844C35.0792 38.1644 35.2661 34.9976 35.2661 31.01H34.2661H33.2661C33.2661 34.9558 33.0797 37.9956 32.7197 40.1556L33.7061 40.32ZM34.2661 31.01H35.2661C35.2661 27.0244 35.0794 23.9002 34.6913 21.6687L33.7061 21.84L32.7209 22.0113C33.0795 24.0731 33.2661 27.0623 33.2661 31.01H34.2661ZM33.7061 21.84L34.6913 21.6687C34.4998 20.567 34.2794 19.6276 34.0248 18.8638C33.7756 18.1162 33.4691 17.4602 33.0654 16.9892L32.3061 17.64L31.5469 18.2908C31.7031 18.4731 31.91 18.8438 32.1275 19.4962C32.3395 20.1324 32.5392 20.9663 32.7209 22.0113L33.7061 21.84ZM32.3061 17.64L33.0654 16.9892C32.2878 16.082 31.2228 15.66 29.9961 15.66V16.66V17.66C30.7294 17.66 31.2044 17.8913 31.5469 18.2908L32.3061 17.64ZM29.9961 16.66V15.66C28.7694 15.66 27.7044 16.082 26.9269 16.9892L27.6861 17.64L28.4454 18.2908C28.7878 17.8913 29.2628 17.66 29.9961 17.66V16.66ZM27.6861 17.64L26.9269 16.9892C26.5231 17.4602 26.2166 18.1162 25.9675 18.8638C25.7128 19.6276 25.4925 20.567 25.3009 21.6687L26.2861 21.84L27.2713 22.0113C27.4531 20.9663 27.6528 20.1324 27.8648 19.4962C28.0823 18.8438 28.2891 18.4731 28.4454 18.2908L27.6861 17.64ZM26.2861 21.84L25.3009 21.6687C24.9128 23.9002 24.7261 27.0244 24.7261 31.01H25.7261H26.7261C26.7261 27.0623 26.9128 24.0731 27.2713 22.0113L26.2861 21.84ZM25.7261 31.01H24.7261C24.7261 34.9976 24.9131 38.1644 25.2997 40.4844L26.2861 40.32L27.2725 40.1556C26.9125 37.9956 26.7261 34.9558 26.7261 31.01H25.7261ZM26.2861 40.32L25.3003 40.4878C25.4917 41.6121 25.7114 42.5726 25.9644 43.357C26.2128 44.1269 26.5147 44.7964 26.9053 45.2847L27.6861 44.66L28.467 44.0353C28.2976 43.8236 28.0862 43.4198 27.8678 42.743C27.6542 42.0808 27.4539 41.2212 27.272 40.1522L26.2861 40.32ZM112.026 54.32L111.169 53.8055L111.157 53.8244L111.147 53.8437L112.026 54.32ZM93.6163 54.32L92.6333 54.5036L92.6352 54.5138L92.6373 54.524L93.6163 54.32ZM91.2363 41.58L92.2193 41.3964L92.0668 40.58H91.2363V41.58ZM90.2563 41.58V40.58H89.4168L89.2714 41.4068L90.2563 41.58ZM88.0163 54.32L87.0314 54.1468L87.0271 54.1713L87.024 54.196L88.0163 54.32ZM71.2863 55.65L70.9149 56.5785L70.951 56.5929L70.988 56.6045L71.2863 55.65ZM69.8163 54.32L68.8901 54.697L68.8987 54.7182L68.9083 54.7391L69.8163 54.32ZM61.8363 17.22L62.1643 18.1647L62.1718 18.162L61.8363 17.22ZM77.8663 18.62L76.8684 18.6851L76.8703 18.7142L76.8739 18.7431L77.8663 18.62ZM80.2463 37.8L79.2539 37.9231L79.3627 38.8H80.2463V37.8ZM81.0863 37.8V38.8H82.0335L82.0848 37.8542L81.0863 37.8ZM81.9263 22.33L82.9248 22.3842L82.9252 22.3771L82.9255 22.37L81.9263 22.33ZM97.8863 18.83L97.4249 19.7172L97.4458 19.7281L97.4672 19.738L97.8863 18.83ZM99.7763 20.93L100.775 20.8844L100.775 20.8745L99.7763 20.93ZM100.546 37.8L99.5473 37.8456L99.5909 38.8H100.546V37.8ZM101.316 37.8V38.8H102.196L102.308 37.9274L101.316 37.8ZM103.626 19.81L104.618 19.9374L104.619 19.934L103.626 19.81ZM108.316 16.8L108.601 17.7587L108.61 17.7558L108.316 16.8ZM121.686 16.38L121.239 17.2744L121.247 17.2783L121.255 17.2821L121.686 16.38ZM118.536 37.1L117.601 36.7467L117.599 36.7502L118.536 37.1ZM112.026 54.32L111.147 53.8437C111.148 53.8416 111.071 53.9692 110.684 54.1412C110.315 54.3052 109.77 54.4624 109.018 54.5952C107.516 54.8602 105.356 55 102.506 55V56V57C105.397 57 107.693 56.8598 109.365 56.5648C110.199 56.4176 110.92 56.2248 111.496 55.9688C112.054 55.7208 112.601 55.3584 112.906 54.7963L112.026 54.32ZM102.506 56V55C99.6775 55 97.5879 54.8598 96.1995 54.5974C95.5002 54.4652 95.041 54.3131 94.7684 54.1698C94.4805 54.0185 94.5646 53.9688 94.5953 54.116L93.6163 54.32L92.6373 54.524C92.7847 55.2312 93.3266 55.6715 93.838 55.9402C94.3645 56.2169 95.0457 56.4148 95.8281 56.5626C97.403 56.8602 99.6418 57 102.506 57V56ZM93.6163 54.32L94.5993 54.1364L92.2193 41.3964L91.2363 41.58L90.2533 41.7636L92.6333 54.5036L93.6163 54.32ZM91.2363 41.58V40.58H90.2563V41.58V42.58H91.2363V41.58ZM90.2563 41.58L89.2714 41.4068L87.0314 54.1468L88.0163 54.32L89.0012 54.4932L91.2412 41.7532L90.2563 41.58ZM88.0163 54.32L87.024 54.196C87.0458 54.0219 87.1385 53.9455 87.1224 53.9595C87.099 53.9798 87.0104 54.043 86.8023 54.1258C86.3871 54.291 85.7072 54.4529 84.7129 54.5893C82.7407 54.8598 79.7682 55 75.7663 55V56V57C79.791 57 82.8736 56.8602 84.9847 56.5707C86.032 56.4271 86.9009 56.239 87.5415 55.9842C87.8614 55.857 88.1774 55.6927 88.4355 55.468C88.7009 55.237 88.9518 54.8981 89.0086 54.444L88.0163 54.32ZM75.7663 56V55C73.5046 55 72.1629 54.8763 71.5846 54.6955L71.2863 55.65L70.988 56.6045C71.903 56.8904 73.548 57 75.7663 57V56ZM71.2863 55.65L71.6577 54.7215C71.1621 54.5233 70.8831 54.2451 70.7242 53.9009L69.8163 54.32L68.9083 54.7391C69.3095 55.6082 70.0104 56.2167 70.9149 56.5785L71.2863 55.65ZM69.8163 54.32L70.7425 53.943C66.4031 43.2812 63.1508 35.1502 60.984 29.5468C59.9002 26.7441 59.0908 24.581 58.5534 23.0527C58.2843 22.2874 58.087 21.6913 57.9582 21.2584C57.8936 21.0413 57.8494 20.8758 57.8222 20.7564C57.7901 20.6156 57.7963 20.5997 57.7963 20.65H56.7963H55.7963C55.7963 20.8403 55.8363 21.0433 55.8721 21.2004C55.9127 21.3788 55.9702 21.5902 56.0413 21.8288C56.1837 22.3073 56.3932 22.9385 56.6667 23.7161C57.2143 25.2736 58.0324 27.4592 59.1186 30.2682C61.2918 35.8882 64.5495 44.0322 68.8901 54.697L69.8163 54.32ZM56.7963 20.65H57.7963C57.7963 20.6164 57.8367 20.3116 58.6189 19.7792C59.3516 19.2806 60.5152 18.7373 62.1643 18.1647L61.8363 17.22L61.5083 16.2753C59.7974 16.8694 58.441 17.4811 57.4937 18.1258C56.5959 18.7368 55.7963 19.5636 55.7963 20.65H56.7963ZM61.8363 17.22L62.1718 18.162C65.4873 16.9812 68.6403 16.4 71.6363 16.4V15.4V14.4C68.3789 14.4 64.9986 15.0322 61.5008 16.278L61.8363 17.22ZM71.6363 15.4V16.4C73.5826 16.4 74.916 16.6651 75.7446 17.0934C76.5041 17.4859 76.8235 17.9967 76.8684 18.6851L77.8663 18.62L78.8642 18.5549C78.7691 17.0966 77.9802 15.9975 76.6629 15.3166C75.4149 14.6716 73.7033 14.4 71.6363 14.4V15.4ZM77.8663 18.62L76.8739 18.7431L79.2539 37.9231L80.2463 37.8L81.2387 37.6769L78.8587 18.4969L77.8663 18.62ZM80.2463 37.8V38.8H81.0863V37.8V36.8H80.2463V37.8ZM81.0863 37.8L82.0848 37.8542L82.9248 22.3842L81.9263 22.33L80.9278 22.2758L80.0878 37.7458L81.0863 37.8ZM81.9263 22.33L82.9255 22.37C82.9343 22.1492 83.0462 21.8398 83.507 21.4422C83.9774 21.0363 84.7374 20.6081 85.8515 20.1848L85.4963 19.25L85.1411 18.3152C83.9218 18.7785 82.9201 19.307 82.2006 19.9278C81.4714 20.5569 80.9649 21.3441 80.9271 22.29L81.9263 22.33ZM85.4963 19.25L85.8515 20.1848C88.077 19.3391 90.3135 18.92 92.5663 18.92V17.92V16.92C90.0591 16.92 87.5823 17.3876 85.1411 18.3152L85.4963 19.25ZM92.5663 17.92V18.92C94.896 18.92 96.474 19.2227 97.4249 19.7172L97.8863 18.83L98.3476 17.9428C96.9652 17.2239 94.9965 16.92 92.5663 16.92V17.92ZM97.8863 18.83L97.4672 19.738C98.5576 20.2412 98.7621 20.7016 98.7778 20.9855L99.7763 20.93L100.775 20.8745C100.697 19.4784 99.6417 18.5388 98.3053 17.922L97.8863 18.83ZM99.7763 20.93L98.7773 20.9756L99.5473 37.8456L100.546 37.8L101.545 37.7544L100.775 20.8844L99.7763 20.93ZM100.546 37.8V38.8H101.316V37.8V36.8H100.546V37.8ZM101.316 37.8L102.308 37.9274L104.618 19.9374L103.626 19.81L102.634 19.6826L100.324 37.6726L101.316 37.8ZM103.626 19.81L104.619 19.934C104.634 19.8142 104.754 19.5018 105.444 19.0591C106.111 18.6311 107.146 18.1907 108.601 17.7586L108.316 16.8L108.032 15.8414C106.5 16.296 105.26 16.8006 104.364 17.3759C103.49 17.9366 102.759 18.6858 102.634 19.686L103.626 19.81ZM108.316 16.8L108.61 17.7558C111.582 16.8413 114.14 16.4 116.296 16.4V15.4V14.4C113.88 14.4 111.117 14.892 108.022 15.8442L108.316 16.8ZM116.296 15.4V16.4C118.507 16.4 120.128 16.7188 121.239 17.2744L121.686 16.38L122.134 15.4856C120.631 14.7345 118.659 14.4 116.296 14.4V15.4ZM121.686 16.38L121.255 17.2821C123.313 18.2664 123.906 19.2264 123.906 20.02H124.906H125.906C125.906 18.0136 124.353 16.547 122.118 15.4779L121.686 16.38ZM124.906 20.02H123.906C123.906 19.952 123.913 19.8996 123.916 19.8795C123.92 19.8541 123.924 19.8343 123.926 19.8236C123.931 19.8023 123.935 19.7882 123.935 19.7865C123.936 19.7819 123.935 19.7873 123.928 19.8081C123.916 19.8477 123.894 19.9118 123.862 20.0047C123.798 20.1886 123.701 20.4609 123.568 20.8242C123.304 21.5496 122.907 22.6228 122.377 24.0456C121.316 26.8903 119.724 31.1237 117.601 36.7467L118.536 37.1L119.472 37.4532C121.595 31.8296 123.188 27.5931 124.251 24.7444C124.782 23.3205 125.181 22.2413 125.448 21.5083C125.581 21.1425 125.683 20.8591 125.751 20.6609C125.785 20.5628 125.814 20.4792 125.834 20.4145C125.844 20.3832 125.855 20.3473 125.865 20.3123C125.87 20.2954 125.876 20.2687 125.883 20.2377C125.885 20.229 125.906 20.136 125.906 20.02H124.906ZM118.536 37.1L117.599 36.7502C115.5 42.3732 113.908 46.6183 112.823 49.4864C112.281 50.9207 111.867 52.0087 111.579 52.7518C111.435 53.1238 111.325 53.4062 111.246 53.6012C111.207 53.6993 111.177 53.7708 111.157 53.8189C111.124 53.8965 111.135 53.862 111.169 53.8055L112.026 54.32L112.884 54.8345C112.935 54.7488 112.98 54.6422 112.996 54.6046C113.025 54.5374 113.06 54.4507 113.102 54.3475C113.185 54.14 113.3 53.8478 113.445 53.4732C113.735 52.7229 114.151 51.6293 114.694 50.1936C115.78 47.3217 117.373 43.0735 119.473 37.4498L118.536 37.1ZM165.954 55.58L166.059 56.5745L166.067 56.5736L166.076 56.5725L165.954 55.58ZM152.234 55.65L151.901 56.593L151.934 56.6044L151.967 56.6135L152.234 55.65ZM150.764 27.93L149.786 28.1395L149.793 28.1724L149.803 28.2047L150.764 27.93ZM150.344 26.18L151.309 25.9169L151.298 25.875L151.283 25.8343L150.344 26.18ZM142.644 55.58L142.751 56.5743L142.758 56.5735L142.766 56.5725L142.644 55.58ZM128.994 55.65L128.678 56.5987L128.702 56.6067L128.727 56.6135L128.994 55.65ZM131.724 16.87L131.384 15.9297L131.378 15.9317L131.724 16.87ZM145.304 17.99L146.284 17.7896L146.282 17.7787L145.304 17.99ZM145.934 21.07L144.954 21.2704L145.118 22.07H145.934V21.07ZM146.424 21.07V22.07H147.042L147.319 21.5172L146.424 21.07ZM153.424 15.4L153.128 14.4449L153.116 14.4487L153.424 15.4ZM167.424 19.04L166.557 19.5377L166.562 19.5461L166.567 19.5545L167.424 19.04ZM169.944 32.76H168.944V54.32H169.944H170.944V32.76H169.944ZM169.944 54.32H168.944C168.944 53.9671 169.179 53.8276 169.12 53.8689C169.077 53.8995 168.94 53.9735 168.646 54.0664C168.07 54.2481 167.146 54.4261 165.832 54.5875L165.954 55.58L166.076 56.5725C167.422 56.4072 168.493 56.2119 169.248 55.9736C169.619 55.8565 169.98 55.7088 170.269 55.5061C170.543 55.314 170.944 54.9296 170.944 54.32H169.944ZM165.954 55.58L165.849 54.5855C163.226 54.8616 160.508 55 157.694 55V56V57C160.574 57 163.362 56.8584 166.059 56.5745L165.954 55.58ZM157.694 56V55C156.306 55 155.174 54.971 154.293 54.9145C153.394 54.8569 152.816 54.7738 152.502 54.6865L152.234 55.65L151.967 56.6135C152.492 56.7595 153.244 56.8514 154.165 56.9105C155.105 56.9707 156.283 57 157.694 57V56ZM152.234 55.65L152.567 54.707C152.267 54.6011 152.136 54.4959 152.087 54.4407C152.056 54.4064 152.044 54.3827 152.044 54.32H151.044H150.044C150.044 54.864 150.231 55.3653 150.596 55.7743C150.944 56.1624 151.408 56.4189 151.901 56.593L152.234 55.65ZM151.044 54.32H152.044V32.06H151.044H150.044V54.32H151.044ZM151.044 32.06H152.044C152.044 29.9877 151.958 28.4668 151.726 27.6553L150.764 27.93L149.803 28.2047C149.944 28.6999 150.044 29.9323 150.044 32.06H151.044ZM150.764 27.93L151.742 27.7205C151.599 27.0535 151.455 26.4517 151.309 25.9169L150.344 26.18L149.379 26.4431C149.514 26.9349 149.649 27.4999 149.786 28.1395L150.764 27.93ZM150.344 26.18L151.283 25.8343C151.072 25.2632 150.748 24.7524 150.267 24.3863C149.776 24.0135 149.199 23.85 148.594 23.85V24.85V25.85C148.829 25.85 148.964 25.9081 149.057 25.9787C149.158 26.056 149.29 26.2101 149.406 26.5257L150.344 26.18ZM148.594 24.85V23.85C147.796 23.85 147.011 24.042 146.43 24.6027C145.842 25.1698 145.634 25.9464 145.634 26.74H146.634H147.634C147.634 26.2736 147.753 26.1052 147.818 26.0423C147.89 25.973 148.086 25.85 148.594 25.85V24.85ZM146.634 26.74H145.634V54.32H146.634H147.634V26.74H146.634ZM146.634 54.32H145.634C145.634 53.9671 145.869 53.8276 145.81 53.8689C145.767 53.8995 145.63 53.9735 145.336 54.0664C144.76 54.2481 143.836 54.4261 142.522 54.5875L142.644 55.58L142.766 56.5725C144.112 56.4072 145.183 56.2119 145.938 55.9736C146.309 55.8565 146.67 55.7088 146.959 55.5061C147.233 55.314 147.634 54.9296 147.634 54.32H146.634ZM142.644 55.58L142.538 54.5857C139.962 54.8616 137.268 55 134.454 55V56V57C137.334 57 140.099 56.8584 142.751 56.5743L142.644 55.58ZM134.454 56V55C133.066 55 131.934 54.971 131.053 54.9145C130.154 54.8569 129.576 54.7738 129.262 54.6865L128.994 55.65L128.727 56.6135C129.252 56.7595 130.004 56.8514 130.925 56.9105C131.865 56.9707 133.043 57 134.454 57V56ZM128.994 55.65L129.31 54.7013C128.981 54.5915 128.833 54.4805 128.775 54.4198C128.75 54.3932 128.743 54.3778 128.741 54.373C128.74 54.3682 128.734 54.3538 128.734 54.32H127.734H126.734C126.734 54.8811 126.939 55.3892 127.323 55.7952C127.686 56.1779 128.167 56.4285 128.678 56.5987L128.994 55.65ZM127.734 54.32H128.734V19.81H127.734H126.734V54.32H127.734ZM127.734 19.81H128.734C128.734 19.8046 128.742 19.5744 129.325 19.1451C129.879 18.7369 130.775 18.2855 132.07 17.8083L131.724 16.87L131.378 15.9317C130.014 16.4345 128.914 16.9631 128.138 17.5349C127.391 18.0856 126.734 18.8354 126.734 19.81H127.734ZM131.724 16.87L132.065 17.8103C134.658 16.8713 137.389 16.4 140.264 16.4V15.4V14.4C137.166 14.4 134.204 14.9087 131.384 15.9297L131.724 16.87ZM140.264 15.4V16.4C141.682 16.4 142.667 16.6082 143.307 16.9369C143.902 17.2426 144.208 17.6529 144.327 18.2013L145.304 17.99L146.282 17.7787C146.027 16.6004 145.306 15.7157 144.221 15.1581C143.181 14.6235 141.833 14.4 140.264 14.4V15.4ZM145.304 17.99L144.324 18.1904L144.954 21.2704L145.934 21.07L146.914 20.8696L146.284 17.7896L145.304 17.99ZM145.934 21.07V22.07H146.424V21.07V20.07H145.934V21.07ZM146.424 21.07L147.319 21.5172C148.534 19.0871 150.632 17.3556 153.732 16.3513L153.424 15.4L153.116 14.4487C149.589 15.5911 147.021 17.6396 145.53 20.6228L146.424 21.07ZM153.424 15.4L153.721 16.3551C154.965 15.969 156.356 15.77 157.904 15.77V14.77V13.77C156.185 13.77 154.59 13.991 153.128 14.4449L153.424 15.4ZM157.904 14.77V15.77C162.432 15.77 165.174 17.1272 166.557 19.5377L167.424 19.04L168.292 18.5423C166.408 15.2594 162.803 13.77 157.904 13.77V14.77ZM167.424 19.04L166.567 19.5545C168.101 22.1109 168.944 26.4526 168.944 32.76H169.944H170.944C170.944 26.374 170.108 21.5691 168.282 18.5255L167.424 19.04ZM193.244 40.18V39.18H192.244V40.18H193.244ZM204.164 43.05L204.546 43.974L204.553 43.9712L204.56 43.9683L204.164 43.05ZM211.934 45.29L211.055 45.7678L211.055 45.7678L211.934 45.29ZM208.504 55.3L208.746 56.2701L208.746 56.2701L208.504 55.3ZM188.554 55.86L188.325 56.8334L188.329 56.8344L188.554 55.86ZM182.674 53.76L182.163 54.6199L182.179 54.6292L182.195 54.6379L182.674 53.76ZM178.684 50.54L177.936 51.2044L177.943 51.212L177.95 51.2194L178.684 50.54ZM176.164 46.97L175.262 47.4027L175.266 47.41L175.269 47.4172L176.164 46.97ZM174.834 43.12L173.859 43.3416L173.86 43.3472L174.834 43.12ZM180.784 19.18L181.371 19.9892L181.381 19.982L180.784 19.18ZM188.134 15.75L187.899 14.7779L187.899 14.7779L188.134 15.75ZM193.104 34.58H192.104V35.58H193.104V34.58ZM196.394 32.97L195.623 32.3331L195.614 32.3433L195.606 32.3537L196.394 32.97ZM193.244 40.18H192.244C192.244 41.8393 192.639 43.2694 193.605 44.2827C194.58 45.3048 195.971 45.73 197.584 45.73V44.73V43.73C196.304 43.73 195.524 43.3969 195.052 42.9023C194.572 42.3989 194.244 41.554 194.244 40.18H193.244ZM197.584 44.73V45.73C199.458 45.73 201.795 45.1124 204.546 43.974L204.164 43.05L203.781 42.126C201.119 43.2276 199.069 43.73 197.584 43.73V44.73ZM204.164 43.05L204.56 43.9683C205.911 43.3856 206.937 42.951 207.641 42.6628C207.993 42.5183 208.257 42.4136 208.438 42.3463C208.529 42.3122 208.589 42.2915 208.623 42.2807C208.641 42.2751 208.64 42.2757 208.628 42.2786C208.622 42.2801 208.605 42.2842 208.58 42.2883C208.561 42.2915 208.506 42.3 208.434 42.3V41.3V40.3C208.297 40.3 208.183 40.3287 208.157 40.3351C208.107 40.3471 208.059 40.3613 208.019 40.3739C207.938 40.3996 207.843 40.4337 207.739 40.4725C207.528 40.551 207.241 40.6651 206.882 40.8122C206.162 41.1073 205.123 41.5477 203.768 42.1317L204.164 43.05ZM208.434 41.3V42.3C208.407 42.3 208.661 42.3175 209.222 42.9569C209.734 43.5406 210.346 44.4639 211.055 45.7678L211.934 45.29L212.812 44.8122C212.075 43.4561 211.38 42.3843 210.726 41.6381C210.12 40.9475 209.347 40.3 208.434 40.3V41.3ZM211.934 45.29L211.055 45.7678C211.765 47.0724 212.284 48.1816 212.623 49.1012C212.967 50.0335 213.104 50.7106 213.104 51.17H214.104H215.104C215.104 50.3694 214.879 49.4365 214.499 48.4088C214.115 47.3684 213.549 46.1676 212.812 44.8122L211.934 45.29ZM214.104 51.17H213.104C213.104 51.677 212.866 52.2057 212.11 52.7627C211.329 53.3389 210.074 53.8767 208.261 54.3299L208.504 55.3L208.746 56.2701C210.667 55.7899 212.212 55.1727 213.297 54.3723C214.409 53.5526 215.104 52.483 215.104 51.17H214.104ZM208.504 55.3L208.261 54.3299C204.602 55.2448 201.02 55.7 197.514 55.7V56.7V57.7C201.194 57.7 204.939 57.2219 208.746 56.2701L208.504 55.3ZM197.514 56.7V55.7C194.014 55.7 191.108 55.4231 188.779 54.8856L188.554 55.86L188.329 56.8344C190.853 57.4169 193.921 57.7 197.514 57.7V56.7ZM188.554 55.86L188.783 54.8866C186.459 54.3397 184.59 53.6661 183.153 52.8821L182.674 53.76L182.195 54.6379C183.838 55.5339 185.889 56.2603 188.325 56.8334L188.554 55.86ZM182.674 53.76L183.184 52.9001C181.773 52.062 180.518 51.0492 179.418 49.8606L178.684 50.54L177.95 51.2194C179.183 52.5508 180.588 53.6847 182.163 54.6199L182.674 53.76ZM178.684 50.54L179.431 49.8756C178.351 48.6602 177.568 47.5425 177.058 46.5228L176.164 46.97L175.269 47.4172C175.879 48.6375 176.777 49.8998 177.936 51.2044L178.684 50.54ZM176.164 46.97L177.065 46.5373C176.54 45.443 176.12 44.2296 175.808 42.8928L174.834 43.12L173.86 43.3472C174.201 44.8104 174.667 46.1636 175.262 47.4027L176.164 46.97ZM174.834 43.12L175.809 42.8984C175.359 40.9207 175.134 38.8719 175.134 36.75H174.134H173.134C173.134 39.0148 173.375 41.2126 173.859 43.3416L174.834 43.12ZM174.134 36.75H175.134C175.134 28.3957 177.315 22.9352 181.371 19.9891L180.784 19.18L180.196 18.3709C175.386 21.8648 173.134 28.1176 173.134 36.75H174.134ZM180.784 19.18L181.381 19.982C183.464 18.4308 185.79 17.3444 188.368 16.7221L188.134 15.75L187.899 14.7779C185.064 15.4623 182.49 16.6626 180.187 18.378L180.784 19.18ZM188.134 15.75L188.368 16.7221C190.978 16.0922 194.092 15.77 197.724 15.77V14.77V13.77C193.982 13.77 190.703 14.1012 187.899 14.7779L188.134 15.75ZM197.724 14.77V15.77C203.542 15.77 207.728 16.7874 210.435 18.6709C213.077 20.5085 214.434 23.2568 214.434 27.09H215.434H216.434C216.434 22.7098 214.839 19.2981 211.577 17.0291C208.382 14.8059 203.712 13.77 197.724 13.77V14.77ZM215.434 27.09H214.434C214.434 31.1567 212.915 34.0965 209.914 36.0723C206.84 38.0962 202.102 39.18 195.554 39.18V40.18V41.18C202.258 41.18 207.461 40.0821 211.014 37.7427C214.64 35.3552 216.434 31.75 216.434 27.09H215.434ZM195.554 40.18V39.18H193.244V40.18V41.18H195.554V40.18ZM193.104 29.96H192.104V34.58H193.104H194.104V29.96H193.104ZM193.104 34.58V35.58C194.767 35.58 196.153 34.8998 197.181 33.5863L196.394 32.97L195.606 32.3537C194.954 33.1869 194.147 33.58 193.104 33.58V34.58ZM196.394 32.97L197.165 33.6069C198.215 32.335 198.724 30.7961 198.724 29.05H197.724H196.724C196.724 30.3839 196.346 31.4583 195.623 32.3331L196.394 32.97ZM197.724 29.05H198.724C198.724 27.5964 198.541 26.354 198.07 25.441C197.826 24.9699 197.492 24.5607 197.045 24.2722C196.593 23.9807 196.084 23.85 195.554 23.85V24.85V25.85C195.747 25.85 195.87 25.8943 195.961 25.9528C196.056 26.0143 196.175 26.1301 196.293 26.359C196.544 26.846 196.724 27.7036 196.724 29.05H197.724ZM195.554 24.85V23.85C194.962 23.85 194.401 24.0078 193.911 24.3483C193.43 24.683 193.074 25.1541 192.815 25.6952C192.309 26.7505 192.104 28.2086 192.104 29.96H193.104H194.104C194.104 28.3047 194.307 27.2079 194.618 26.5598C194.767 26.2492 194.922 26.0816 195.053 25.9904C195.176 25.9051 195.329 25.85 195.554 25.85V24.85ZM234.519 55.58L234.626 56.5743L234.633 56.5735L234.641 56.5725L234.519 55.58ZM220.869 55.65L220.553 56.5987L220.577 56.6067L220.602 56.6135L220.869 55.65ZM223.459 16.94L223.094 16.0092L223.088 16.0115L223.459 16.94ZM237.109 17.92L238.086 17.7076L238.085 17.7031L237.109 17.92ZM237.809 21.14L236.832 21.3524L237.003 22.14H237.809V21.14ZM238.299 21.14V22.14H238.996L239.238 21.4857L238.299 21.14ZM242.989 16.66L243.43 17.5578L243.436 17.5545L243.443 17.551L242.989 16.66ZM255.589 15.96L254.96 16.7372L254.969 16.7444L254.978 16.7513L255.589 15.96ZM256.849 23.73L255.854 23.6329L256.849 23.73ZM255.449 29.96L254.5 29.6438L254.498 29.6527L254.495 29.6617L255.449 29.96ZM248.239 32.27L248.512 31.3078L248.512 31.3078L248.239 32.27ZM239.069 31.92L238.326 31.251L238.306 31.2726L238.288 31.2953L239.069 31.92ZM238.509 33.88H237.509V54.32H238.509H239.509V33.88H238.509ZM238.509 54.32H237.509C237.509 53.9671 237.744 53.8276 237.685 53.8689C237.642 53.8995 237.505 53.9735 237.211 54.0664C236.635 54.2481 235.711 54.4261 234.397 54.5875L234.519 55.58L234.641 56.5725C235.987 56.4072 237.058 56.2119 237.813 55.9736C238.184 55.8565 238.545 55.7088 238.834 55.5061C239.108 55.314 239.509 54.9296 239.509 54.32H238.509ZM234.519 55.58L234.413 54.5857C231.837 54.8616 229.143 55 226.329 55V56V57C229.209 57 231.974 56.8584 234.626 56.5743L234.519 55.58ZM226.329 56V55C224.941 55 223.809 54.971 222.928 54.9145C222.029 54.8569 221.451 54.7738 221.137 54.6865L220.869 55.65L220.602 56.6135C221.127 56.7595 221.879 56.8514 222.8 56.9105C223.74 56.9707 224.918 57 226.329 57V56ZM220.869 55.65L221.185 54.7013C220.856 54.5915 220.708 54.4805 220.65 54.4198C220.625 54.3932 220.618 54.3778 220.616 54.373C220.615 54.3682 220.609 54.3538 220.609 54.32H219.609H218.609C218.609 54.8811 218.814 55.3892 219.198 55.7952C219.561 56.1779 220.042 56.4285 220.553 56.5987L220.869 55.65ZM219.609 54.32H220.609V19.81H219.609H218.609V54.32H219.609ZM219.609 19.81H220.609C220.609 19.8648 220.586 19.6641 221.169 19.2292C221.709 18.8271 222.579 18.3693 223.831 17.8685L223.459 16.94L223.088 16.0115C221.773 16.5374 220.718 17.0713 219.974 17.6258C219.274 18.1475 218.609 18.8686 218.609 19.81H219.609ZM223.459 16.94L223.825 17.8707C226.313 16.8934 229.011 16.4 231.929 16.4V15.4V14.4C228.781 14.4 225.832 14.9333 223.094 16.0092L223.459 16.94ZM231.929 15.4V16.4C233.399 16.4 234.428 16.6038 235.097 16.9292C235.722 17.2334 236.021 17.6317 236.133 18.1369L237.109 17.92L238.085 17.7031C237.824 16.5283 237.073 15.6666 235.972 15.1308C234.914 14.6162 233.539 14.4 231.929 14.4V15.4ZM237.109 17.92L236.132 18.1324L236.832 21.3524L237.809 21.14L238.786 20.9276L238.086 17.7076L237.109 17.92ZM237.809 21.14V22.14H238.299V21.14V20.14H237.809V21.14ZM238.299 21.14L239.238 21.4857C239.769 20.0445 241.082 18.7093 243.43 17.5578L242.989 16.66L242.549 15.7622C239.949 17.0373 238.137 18.6889 237.361 20.7943L238.299 21.14ZM242.989 16.66L243.443 17.551C245.793 16.3538 248.112 15.77 250.409 15.77V14.77V13.77C247.76 13.77 245.132 14.4462 242.535 15.769L242.989 16.66ZM250.409 14.77V15.77C252.841 15.77 254.263 16.1732 254.96 16.7372L255.589 15.96L256.218 15.1828C254.955 14.1601 252.924 13.77 250.409 13.77V14.77ZM255.589 15.96L254.978 16.7513C255.768 17.3618 256.129 18.1003 256.129 19.04H257.129H258.129C258.129 17.4597 257.464 16.1448 256.201 15.1687L255.589 15.96ZM257.129 19.04H256.129C256.129 20.2079 256.039 21.7356 255.854 23.6329L256.849 23.73L257.844 23.8271C258.033 21.8978 258.129 20.2988 258.129 19.04H257.129ZM256.849 23.73L255.854 23.6329C255.676 25.457 255.229 27.4594 254.5 29.6438L255.449 29.96L256.398 30.2762C257.163 27.9806 257.649 25.8296 257.844 23.8271L256.849 23.73ZM255.449 29.96L254.495 29.6617C254.163 30.7238 253.803 31.4232 253.456 31.8398C253.128 32.2338 252.864 32.32 252.649 32.32V33.32V34.32C253.601 34.32 254.387 33.8462 254.992 33.1202C255.579 32.4168 256.036 31.4362 256.404 30.2583L255.449 29.96ZM252.649 33.32V32.32C252.65 32.32 252.642 32.32 252.624 32.3186C252.605 32.3173 252.581 32.3149 252.548 32.3109C252.483 32.303 252.397 32.2899 252.289 32.2703C252.072 32.2311 251.786 32.1699 251.428 32.0847C250.713 31.9144 249.743 31.6562 248.512 31.3078L248.239 32.27L247.967 33.2322C249.209 33.5838 250.21 33.8506 250.965 34.0303C251.674 34.1991 252.277 34.32 252.649 34.32V33.32ZM248.239 32.27L248.512 31.3078C245.994 30.5953 243.842 30.22 242.079 30.22V31.22V32.22C243.583 32.22 245.538 32.5447 247.967 33.2322L248.239 32.27ZM242.079 31.22V30.22C241.246 30.22 240.515 30.2804 239.91 30.421C239.325 30.557 238.735 30.796 238.326 31.251L239.069 31.92L239.812 32.589C239.823 32.5773 239.945 32.4663 240.363 32.369C240.762 32.2762 241.326 32.22 242.079 32.22V31.22ZM239.069 31.92L238.288 31.2953C237.725 31.9989 237.509 32.9034 237.509 33.88H238.509H239.509C239.509 33.1766 239.666 32.7744 239.85 32.5447L239.069 31.92ZM291.887 55.44L291.757 54.4485L291.757 54.4485L291.887 55.44ZM277.887 55.51L278.268 54.5853L278.268 54.5853L277.887 55.51ZM312.957 7.28L312.564 8.19914L312.57 8.20196L312.577 8.20468L312.957 7.28ZM319.397 12.6L318.503 13.0472L318.509 13.0586L319.397 12.6ZM318.417 37.24L317.624 36.6315L317.617 36.64L318.417 37.24ZM313.797 41.23L314.164 42.1604L314.164 42.1604L313.797 41.23ZM309.947 42.56L310.179 43.5328L310.195 43.529L310.211 43.5248L309.947 42.56ZM306.237 43.12L306.328 44.1159L306.331 44.1156L306.237 43.12ZM297.837 43.4L297.796 44.3991L297.817 44.4H297.837V43.4ZM296.157 43.33L296.199 42.3309L295.157 42.2875V43.33H296.157ZM296.227 31.71H295.227V32.71H296.227V31.71ZM300.007 31.36L300.421 32.2704L300.454 32.2553L300.486 32.2379L300.007 31.36ZM301.337 29.26L300.397 28.9213L300.393 28.9325L300.389 28.9438L301.337 29.26ZM301.267 19.67L300.331 20.0211L300.34 20.0452L300.35 20.0687L301.267 19.67ZM299.937 17.71L299.452 18.5842L299.507 18.6149L299.566 18.6385L299.937 17.71ZM296.227 17.36V16.36H295.227V17.36H296.227ZM296.157 53.97H295.157C295.157 53.6841 295.335 53.5688 295.28 53.611C295.227 53.652 295.077 53.7393 294.764 53.847C294.15 54.0585 293.163 54.2642 291.757 54.4485L291.887 55.44L292.017 56.4315C293.459 56.2425 294.607 56.0165 295.415 55.738C295.814 55.6007 296.198 55.4284 296.501 55.1953C296.802 54.9633 297.157 54.5593 297.157 53.97H296.157ZM291.887 55.44L291.757 54.4485C288.954 54.8162 286.15 55 283.347 55V56V57C286.238 57 289.128 56.8104 292.017 56.4315L291.887 55.44ZM283.347 56V55C281.94 55 280.806 54.9595 279.937 54.8815C279.04 54.801 278.516 54.6874 278.268 54.5853L277.887 55.51L277.507 56.4347C278.052 56.6593 278.835 56.7906 279.758 56.8735C280.709 56.9589 281.909 57 283.347 57V56ZM277.887 55.51L278.268 54.5853C277.983 54.4678 277.848 54.349 277.786 54.2686C277.734 54.2012 277.697 54.1173 277.697 53.97H276.697H275.697C275.697 54.5227 275.859 55.0455 276.204 55.4914C276.538 55.9244 276.999 56.2255 277.507 56.4347L277.887 55.51ZM276.697 53.97H277.697V8.96H276.697H275.697V53.97H276.697ZM276.697 8.96H277.697C277.697 8.95462 277.692 8.91632 277.772 8.82329C277.865 8.71454 278.054 8.55969 278.405 8.38442C279.111 8.03141 280.254 7.70102 281.902 7.42639C285.178 6.88043 290.15 6.6 296.857 6.6V5.6V4.6C290.125 4.6 285.017 4.87957 281.573 5.4536C279.861 5.73897 278.484 6.10858 277.51 6.59557C276.575 7.0631 275.697 7.80959 275.697 8.96H276.697ZM296.857 5.6V6.6C300.898 6.6 304.232 6.7395 306.869 7.0146C309.525 7.29175 311.398 7.6998 312.564 8.19914L312.957 7.28L313.351 6.36085C311.903 5.7402 309.787 5.30824 307.076 5.0254C304.346 4.74049 300.937 4.6 296.857 4.6V5.6ZM312.957 7.28L312.577 8.20468C315.61 9.45354 317.525 11.0917 318.503 13.0472L319.397 12.6L320.292 12.1528C319.03 9.62828 316.652 7.71978 313.338 6.35532L312.957 7.28ZM319.397 12.6L318.509 13.0586C319.906 15.7658 320.637 19.3041 320.637 23.73H321.637H322.637C322.637 19.1025 321.876 15.2209 320.286 12.1414L319.397 12.6ZM321.637 23.73H320.637C320.637 29.8655 319.568 34.0957 317.624 36.6316L318.417 37.24L319.211 37.8484C321.56 34.7843 322.637 30.0079 322.637 23.73H321.637ZM318.417 37.24L317.617 36.64C316.132 38.6201 314.728 39.7885 313.431 40.2996L313.797 41.23L314.164 42.1604C315.946 41.4582 317.623 39.9665 319.217 37.84L318.417 37.24ZM313.797 41.23L313.431 40.2996C311.908 40.8994 310.662 41.3285 309.684 41.5952L309.947 42.56L310.211 43.5248C311.286 43.2315 312.607 42.774 314.164 42.1604L313.797 41.23ZM309.947 42.56L309.716 41.5872C308.798 41.8058 307.611 41.9868 306.144 42.1244L306.237 43.12L306.331 44.1156C307.851 43.9732 309.137 43.7808 310.179 43.5328L309.947 42.56ZM306.237 43.12L306.147 42.1241C304.138 42.3068 301.372 42.4 297.837 42.4V43.4V44.4C301.396 44.4 304.231 44.3066 306.328 44.1159L306.237 43.12ZM297.837 43.4L297.879 42.4009L296.199 42.3309L296.157 43.33L296.116 44.3291L297.796 44.3991L297.837 43.4ZM296.157 43.33H295.157V53.97H296.157H297.157V43.33H296.157ZM296.227 31.71V32.71H297.907V31.71V30.71H296.227V31.71ZM297.907 31.71V32.71C298.864 32.71 299.725 32.5869 300.421 32.2704L300.007 31.36L299.594 30.4496C299.263 30.5997 298.724 30.71 297.907 30.71V31.71ZM300.007 31.36L300.486 32.2379C301.359 31.7617 301.903 30.7271 302.286 29.5762L301.337 29.26L300.389 28.9438C300.026 30.0329 299.682 30.3983 299.529 30.4821L300.007 31.36ZM301.337 29.26L302.278 29.5987C302.755 28.2753 302.967 26.5333 302.967 24.43H301.967H300.967C300.967 26.4333 300.76 27.9113 300.397 28.9213L301.337 29.26ZM301.967 24.43H302.967C302.967 22.2846 302.733 20.5337 302.185 19.2713L301.267 19.67L300.35 20.0687C300.735 20.953 300.967 22.3754 300.967 24.43H301.967ZM301.267 19.67L302.204 19.3189C301.979 18.7185 301.73 18.1951 301.447 17.7785C301.173 17.3737 300.805 16.9802 300.309 16.7815L299.937 17.71L299.566 18.6385C299.536 18.6265 299.624 18.653 299.792 18.9015C299.953 19.1382 300.136 19.5015 300.331 20.0211L301.267 19.67ZM299.937 17.71L300.423 16.8358C299.82 16.501 299.13 16.36 298.397 16.36V17.36V18.36C298.878 18.36 299.214 18.4523 299.452 18.5842L299.937 17.71ZM298.397 17.36V16.36H296.227V17.36V18.36H298.397V17.36ZM296.227 17.36H295.227V31.71H296.227H297.227V17.36H296.227ZM340.75 55.58L340.856 56.5743L340.864 56.5735L340.872 56.5725L340.75 55.58ZM327.1 55.65L326.783 56.5987L326.808 56.6067L326.832 56.6135L327.1 55.65ZM329.69 16.94L329.324 16.0092L329.318 16.0115L329.69 16.94ZM343.34 17.92L344.317 17.7076L344.316 17.7031L343.34 17.92ZM344.04 21.14L343.062 21.3524L343.234 22.14H344.04V21.14ZM344.53 21.14V22.14H345.227L345.468 21.4857L344.53 21.14ZM349.22 16.66L349.66 17.5578L349.667 17.5545L349.674 17.551L349.22 16.66ZM361.82 15.96L361.19 16.7372L361.199 16.7444L361.208 16.7513L361.82 15.96ZM363.08 23.73L362.084 23.6329L363.08 23.73ZM361.68 29.96L360.731 29.6438L360.728 29.6527L360.725 29.6617L361.68 29.96ZM354.47 32.27L354.742 31.3078L354.742 31.3078L354.47 32.27ZM345.3 31.92L344.556 31.251L344.537 31.2726L344.519 31.2953L345.3 31.92ZM344.74 33.88H343.74V54.32H344.74H345.74V33.88H344.74ZM344.74 54.32H343.74C343.74 53.9671 343.975 53.8276 343.916 53.8689C343.872 53.8995 343.735 53.9735 343.441 54.0664C342.866 54.2481 341.942 54.4261 340.628 54.5875L340.75 55.58L340.872 56.5725C342.218 56.4072 343.289 56.2119 344.043 55.9736C344.414 55.8565 344.776 55.7088 345.065 55.5061C345.338 55.314 345.74 54.9296 345.74 54.32H344.74ZM340.75 55.58L340.643 54.5857C338.068 54.8616 335.374 55 332.56 55V56V57C335.439 57 338.205 56.8584 340.856 56.5743L340.75 55.58ZM332.56 56V55C331.171 55 330.039 54.971 329.159 54.9145C328.26 54.8569 327.682 54.7738 327.367 54.6865L327.1 55.65L326.832 56.6135C327.358 56.7595 328.109 56.8514 329.031 56.9105C329.97 56.9707 331.148 57 332.56 57V56ZM327.1 55.65L327.416 54.7013C327.086 54.5915 326.938 54.4805 326.881 54.4198C326.855 54.3932 326.849 54.3778 326.847 54.373C326.845 54.3682 326.84 54.3538 326.84 54.32H325.84H324.84C324.84 54.8811 325.044 55.3892 325.429 55.7952C325.791 56.1779 326.273 56.4285 326.783 56.5987L327.1 55.65ZM325.84 54.32H326.84V19.81H325.84H324.84V54.32H325.84ZM325.84 19.81H326.84C326.84 19.8648 326.816 19.6641 327.4 19.2292C327.939 18.8271 328.809 18.3693 330.061 17.8685L329.69 16.94L329.318 16.0115C328.004 16.5374 326.948 17.0713 326.204 17.6258C325.505 18.1475 324.84 18.8686 324.84 19.81H325.84ZM329.69 16.94L330.055 17.8707C332.543 16.8934 335.241 16.4 338.16 16.4V15.4V14.4C335.011 14.4 332.063 14.9333 329.324 16.0092L329.69 16.94ZM338.16 15.4V16.4C339.63 16.4 340.658 16.6038 341.327 16.9292C341.952 17.2334 342.251 17.6317 342.363 18.1369L343.34 17.92L344.316 17.7031C344.055 16.5283 343.304 15.6666 342.202 15.1308C341.144 14.6162 339.77 14.4 338.16 14.4V15.4ZM343.34 17.92L342.362 18.1324L343.062 21.3524L344.04 21.14L345.017 20.9276L344.317 17.7076L343.34 17.92ZM344.04 21.14V22.14H344.53V21.14V20.14H344.04V21.14ZM344.53 21.14L345.468 21.4857C345.999 20.0445 347.313 18.7093 349.66 17.5578L349.22 16.66L348.779 15.7622C346.18 17.0373 344.367 18.6889 343.591 20.7943L344.53 21.14ZM349.22 16.66L349.674 17.551C352.024 16.3538 354.343 15.77 356.64 15.77V14.77V13.77C353.99 13.77 351.362 14.4462 348.766 15.769L349.22 16.66ZM356.64 14.77V15.77C359.072 15.77 360.494 16.1732 361.19 16.7372L361.82 15.96L362.449 15.1828C361.186 14.1601 359.154 13.77 356.64 13.77V14.77ZM361.82 15.96L361.208 16.7513C361.998 17.3618 362.36 18.1003 362.36 19.04H363.36H364.36C364.36 17.4597 363.694 16.1448 362.431 15.1687L361.82 15.96ZM363.36 19.04H362.36C362.36 20.2079 362.269 21.7356 362.084 23.6329L363.08 23.73L364.075 23.8271C364.263 21.8978 364.36 20.2988 364.36 19.04H363.36ZM363.08 23.73L362.084 23.6329C361.906 25.457 361.459 27.4594 360.731 29.6438L361.68 29.96L362.628 30.2762C363.394 27.9806 363.88 25.8296 364.075 23.8271L363.08 23.73ZM361.68 29.96L360.725 29.6617C360.393 30.7238 360.034 31.4232 359.686 31.8398C359.358 32.2338 359.094 32.32 358.88 32.32V33.32V34.32C359.832 34.32 360.618 33.8462 361.223 33.1202C361.809 32.4168 362.266 31.4362 362.634 30.2583L361.68 29.96ZM358.88 33.32V32.32C358.881 32.32 358.873 32.32 358.854 32.3186C358.836 32.3173 358.811 32.3149 358.779 32.3109C358.713 32.303 358.628 32.2899 358.519 32.2703C358.302 32.2311 358.017 32.1699 357.659 32.0847C356.944 31.9144 355.973 31.6562 354.742 31.3078L354.47 32.27L354.197 33.2322C355.44 33.5838 356.441 33.8506 357.196 34.0303C357.904 34.1991 358.507 34.32 358.88 34.32V33.32ZM354.47 32.27L354.742 31.3078C352.225 30.5953 350.072 30.22 348.31 30.22V31.22V32.22C349.814 32.22 351.768 32.5447 354.197 33.2322L354.47 32.27ZM348.31 31.22V30.22C347.476 30.22 346.745 30.2804 346.141 30.421C345.556 30.557 344.966 30.796 344.556 31.251L345.3 31.92L346.043 32.589C346.053 32.5773 346.175 32.4663 346.594 32.369C346.993 32.2762 347.556 32.22 348.31 32.22V31.22ZM345.3 31.92L344.519 31.2953C343.956 31.9989 343.74 32.9034 343.74 33.88H344.74H345.74C345.74 33.1766 345.897 32.7744 346.081 32.5447L345.3 31.92ZM379.385 55.72L379.619 54.7478L379.619 54.7478L379.385 55.72ZM372.525 52.5L373.125 51.7L373.119 51.6952L373.112 51.6905L372.525 52.5ZM372.665 19.25L372.073 18.4445L372.069 18.4469L372.665 19.25ZM395.485 15.19L395.344 16.1799L395.355 16.1816L395.367 16.183L395.485 15.19ZM401.435 16.8L401.049 17.7225L401.057 17.7255L401.435 16.8ZM406.335 20.23L405.569 20.8726L405.575 20.8798L405.581 20.8868L406.335 20.23ZM409.415 26.25L408.46 26.5453L408.461 26.5503L409.415 26.25ZM404.585 51.31L405.247 52.0593L405.252 52.055L404.585 51.31ZM385.965 42.98L384.984 43.1709L384.984 43.1709L385.965 42.98ZM386.945 45.99L386.238 46.6971L386.262 46.7207L386.287 46.7426L386.945 45.99ZM389.745 45.99L389.087 45.2374L389.062 45.2593L389.038 45.2829L389.745 45.99ZM390.725 42.98L389.744 42.7891L389.741 42.8023L389.739 42.8156L390.725 42.98ZM391.005 30.8L390.007 30.8665L390.009 30.8847L390.011 30.9029L391.005 30.8ZM390.585 27.58L389.602 27.7643L389.608 27.7936L389.615 27.8225L390.585 27.58ZM389.955 25.83L390.787 25.2753L390.782 25.268L390.777 25.2608L389.955 25.83ZM387.015 25.48L387.674 26.2326L387.699 26.2106L387.722 26.1871L387.015 25.48ZM385.965 28.56L386.947 28.7509L386.948 28.7459L385.965 28.56ZM388.415 56.63V55.63C384.969 55.63 382.041 55.3308 379.619 54.7478L379.385 55.72L379.151 56.6922C381.769 57.3225 384.862 57.63 388.415 57.63V56.63ZM379.385 55.72L379.619 54.7478C377.23 54.1727 375.069 53.1574 373.125 51.7L372.525 52.5L371.925 53.3C374.089 54.9226 376.5 56.054 379.151 56.6922L379.385 55.72ZM372.525 52.5L373.112 51.6905C369.251 48.8896 367.155 43.555 367.155 35.28H366.155H365.155C365.155 43.805 367.307 49.9504 371.938 53.3095L372.525 52.5ZM366.155 35.28H367.155C367.155 28.0003 369.264 23.0187 373.261 20.0531L372.665 19.25L372.069 18.4469C367.387 21.9213 365.155 27.6263 365.155 35.28H366.155ZM372.665 19.25L373.258 20.0555C377.104 17.2264 382.129 15.77 388.415 15.77V14.77V13.77C381.822 13.77 376.347 15.3002 372.073 18.4445L372.665 19.25ZM388.415 14.77V15.77C391.138 15.77 393.445 15.9087 395.344 16.1799L395.485 15.19L395.627 14.2001C393.606 13.9113 391.199 13.77 388.415 13.77V14.77ZM395.485 15.19L395.367 16.183C397.226 16.4043 399.119 16.9147 401.049 17.7224L401.435 16.8L401.821 15.8776C399.738 15.0053 397.665 14.4424 395.603 14.197L395.485 15.19ZM401.435 16.8L401.057 17.7255C402.986 18.5148 404.477 19.5704 405.569 20.8726L406.335 20.23L407.101 19.5874C405.767 17.9963 403.991 16.7652 401.814 15.8745L401.435 16.8ZM406.335 20.23L405.581 20.8868C406.721 22.1951 407.692 24.0621 408.46 26.5453L409.415 26.25L410.371 25.9547C409.552 23.3045 408.47 21.1582 407.089 19.5732L406.335 20.23ZM409.415 26.25L408.461 26.5503C409.216 28.9474 409.605 31.8509 409.605 35.28H410.605H411.605C411.605 31.7091 411.201 28.5926 410.369 25.9497L409.415 26.25ZM410.605 35.28H409.605C409.605 42.1841 407.658 47.2167 403.918 50.565L404.585 51.31L405.252 52.055C409.539 48.2166 411.605 42.5626 411.605 35.28H410.605ZM404.585 51.31L403.923 50.5607C400.137 53.9067 395.004 55.63 388.415 55.63V56.63V57.63C395.359 57.63 401.007 55.8066 405.247 52.0593L404.585 51.31ZM385.965 42.98L384.984 43.1709C385.151 44.0297 385.323 44.7452 385.504 45.3021C385.669 45.8082 385.891 46.3495 386.238 46.6971L386.945 45.99L387.652 45.2829C387.673 45.3038 387.568 45.1801 387.406 44.6829C387.261 44.2365 387.107 43.6103 386.947 42.7891L385.965 42.98ZM386.945 45.99L386.287 46.7426C386.866 47.2494 387.576 47.48 388.345 47.48V46.48V45.48C387.994 45.48 387.771 45.3839 387.604 45.2374L386.945 45.99ZM388.345 46.48V47.48C389.131 47.48 389.885 47.2646 390.452 46.6971L389.745 45.99L389.038 45.2829C388.952 45.3687 388.773 45.48 388.345 45.48V46.48ZM389.745 45.99L390.404 46.7426C390.81 46.3869 391.052 45.8219 391.221 45.3021C391.406 44.7332 391.568 44.0077 391.712 43.1444L390.725 42.98L389.739 42.8156C389.603 43.6323 389.461 44.2484 389.319 44.6829C389.162 45.1664 389.054 45.2665 389.087 45.2374L389.745 45.99ZM390.725 42.98L391.707 43.1709C392.05 41.4061 392.215 39.2371 392.215 36.68H391.215H390.215C390.215 39.1629 390.054 41.1939 389.744 42.7891L390.725 42.98ZM391.215 36.68H392.215C392.215 34.1034 392.145 32.1024 392 30.6971L391.005 30.8L390.011 30.9029C390.145 32.2042 390.215 34.1233 390.215 36.68H391.215ZM391.005 30.8L392.003 30.7335C391.908 29.314 391.764 28.1708 391.555 27.3375L390.585 27.58L389.615 27.8225C389.78 28.4825 389.915 29.486 390.007 30.8665L391.005 30.8ZM390.585 27.58L391.568 27.3957C391.415 26.5772 391.17 25.8492 390.787 25.2753L389.955 25.83L389.123 26.3847C389.301 26.6508 389.476 27.0895 389.602 27.7643L390.585 27.58ZM389.955 25.83L390.777 25.2608C390.217 24.4506 389.423 23.92 388.415 23.92V24.92V25.92C388.621 25.92 388.854 25.9961 389.133 26.3992L389.955 25.83ZM388.415 24.92V23.92C387.608 23.92 386.881 24.1998 386.308 24.7729L387.015 25.48L387.722 26.1871C387.896 26.0136 388.103 25.92 388.415 25.92V24.92ZM387.015 25.48L386.357 24.7274C385.954 25.0798 385.705 25.6466 385.526 26.1723C385.33 26.7491 385.15 27.489 384.983 28.3741L385.965 28.56L386.948 28.7459C387.107 27.9043 387.266 27.2676 387.419 26.8177C387.59 26.3167 387.703 26.2069 387.674 26.2326L387.015 25.48ZM385.965 28.56L384.984 28.3691C384.639 30.1436 384.475 32.6225 384.475 35.77H385.475H386.475C386.475 32.6642 386.639 30.3364 386.947 28.7509L385.965 28.56ZM385.475 35.77H384.475C384.475 38.9175 384.639 41.3964 384.984 43.1709L385.965 42.98L386.947 42.7891C386.639 41.2036 386.475 38.8758 386.475 35.77H385.475ZM437.385 32.9V31.9H436.385V32.9H437.385ZM433.535 55.58L433.644 56.5741L433.653 56.5731L433.661 56.572L433.535 55.58ZM418.485 32.9H419.485V31.9H418.485V32.9ZM413.865 21.84L412.939 21.4636L412.936 21.4713L412.933 21.479L413.865 21.84ZM418.485 19.6V20.6H419.485V19.6H418.485ZM419.815 11.41L418.887 11.0386L418.883 11.0467L418.88 11.0548L419.815 11.41ZM423.105 6.09L423.799 6.81032L423.799 6.80984L423.105 6.09ZM427.795 3.08L428.175 4.00517L428.178 4.00401L427.795 3.08ZM449.145 13.23L450.1 13.5257L450.1 13.5257L449.145 13.23ZM444.315 15.75L444.035 16.71L444.058 16.7168L444.082 16.7224L444.315 15.75ZM437.385 19.6L436.462 19.9846L436.719 20.6H437.385V19.6ZM447.745 30.73L446.809 30.3789L446.806 30.3872L446.803 30.3956L447.745 30.73ZM437.385 32.9H436.385V54.32H437.385H438.385V32.9H437.385ZM437.385 54.32H436.385C436.385 53.9834 436.603 53.8446 436.556 53.8788C436.519 53.9058 436.393 53.9777 436.112 54.0696C435.562 54.2494 434.675 54.4268 433.409 54.588L433.535 55.58L433.661 56.572C434.962 56.4065 436 56.2106 436.734 55.9704C437.095 55.8523 437.449 55.7025 437.733 55.4962C438.007 55.2971 438.385 54.9133 438.385 54.32H437.385ZM433.535 55.58L433.427 54.5859C430.908 54.8607 427.797 55 424.085 55V56V57C427.84 57 431.029 56.8593 433.644 56.5741L433.535 55.58ZM424.085 56V55C422.244 55 420.963 54.8592 420.173 54.6222C419.777 54.5035 419.584 54.3834 419.504 54.3117C419.47 54.2811 419.469 54.2703 419.476 54.2838C419.478 54.29 419.481 54.2979 419.483 54.3065C419.485 54.315 419.485 54.32 419.485 54.32H418.485H417.485C417.485 54.9195 417.751 55.4242 418.166 55.7983C418.553 56.1466 419.06 56.3765 419.598 56.5378C420.675 56.8608 422.193 57 424.085 57V56ZM418.485 54.32H419.485V32.9H418.485H417.485V54.32H418.485ZM418.485 32.9V31.9H414.915V32.9V33.9H418.485V32.9ZM414.915 32.9V31.9C414.907 31.9 414.905 31.8992 414.906 31.8994C414.907 31.8997 414.907 31.9 414.906 31.8995C414.905 31.8989 414.88 31.8868 414.835 31.837C414.736 31.7255 414.593 31.4837 414.456 31.0231C414.184 30.1034 414.025 28.6281 414.025 26.53H413.025H412.025C412.025 28.6785 412.182 30.3883 412.539 31.5919C412.717 32.193 412.968 32.7474 413.341 33.1667C413.74 33.615 414.277 33.9 414.915 33.9V32.9ZM413.025 26.53H414.025C414.025 24.9632 414.286 23.5233 414.798 22.201L413.865 21.84L412.933 21.479C412.324 23.05 412.025 24.7368 412.025 26.53H413.025ZM413.865 21.84L414.792 22.2164C415.366 20.8023 415.895 20.6 416.175 20.6V19.6V18.6C414.589 18.6 413.578 19.8911 412.939 21.4636L413.865 21.84ZM416.175 19.6V20.6H418.485V19.6V18.6H416.175V19.6ZM418.485 19.6H419.485C419.485 16.5652 419.916 13.9605 420.75 11.7652L419.815 11.41L418.88 11.0548C417.941 13.5262 417.485 16.3814 417.485 19.6H418.485ZM419.815 11.41L420.744 11.7814C421.646 9.52655 422.675 7.89213 423.799 6.81032L423.105 6.09L422.412 5.36968C421.015 6.71453 419.851 8.62678 418.887 11.0386L419.815 11.41ZM423.105 6.09L423.799 6.80984C425.008 5.64464 426.462 4.70792 428.175 4.00517L427.795 3.08L427.416 2.15483C425.489 2.94541 423.816 4.01536 422.411 5.37015L423.105 6.09ZM427.795 3.08L428.178 4.00401C430.743 2.94231 433.69 2.4 437.035 2.4V1.4V0.399998C433.474 0.399998 430.26 0.977683 427.413 2.15598L427.795 3.08ZM437.035 1.4V2.4C441.347 2.4 444.473 2.75664 446.489 3.4177C448.537 4.08956 449.055 4.92042 449.055 5.67H450.055H451.055C451.055 3.57291 449.403 2.26877 447.112 1.51729C444.788 0.755025 441.404 0.399998 437.035 0.399998V1.4ZM450.055 5.67H449.055C449.055 8.69468 448.756 11.1052 448.19 12.9343L449.145 13.23L450.1 13.5257C450.748 11.4348 451.055 8.80531 451.055 5.67H450.055ZM449.145 13.23L448.19 12.9343C447.905 13.8558 447.598 14.4492 447.309 14.7948C447.041 15.1171 446.841 15.17 446.695 15.17V16.17V17.17C447.576 17.17 448.298 16.7329 448.846 16.0752C449.375 15.4408 449.779 14.5642 450.1 13.5257L449.145 13.23ZM446.695 16.17V15.17C446.412 15.17 445.731 15.0614 444.549 14.7776L444.315 15.75L444.082 16.7224C445.233 16.9986 446.139 17.17 446.695 17.17V16.17ZM444.315 15.75L444.595 14.79C443.396 14.4403 442.229 14.26 441.095 14.26V15.26V16.26C442.015 16.26 442.994 16.4063 444.035 16.71L444.315 15.75ZM441.095 15.26V14.26C439.658 14.26 438.403 14.5022 437.482 15.1368C436.495 15.8177 436.035 16.8496 436.035 18.06H437.035H438.035C438.035 17.4037 438.252 17.0357 438.618 16.7832C439.051 16.4845 439.826 16.26 441.095 16.26V15.26ZM437.035 18.06H436.035C436.035 18.6918 436.193 19.3376 436.462 19.9846L437.385 19.6L438.308 19.2154C438.111 18.7424 438.035 18.3615 438.035 18.06H437.035ZM437.385 19.6V20.6H446.695V19.6V18.6H437.385V19.6ZM446.695 19.6V20.6C446.699 20.6 446.717 20.5867 446.786 20.6622C446.882 20.7657 447.022 20.9932 447.157 21.4333C447.427 22.3139 447.585 23.7329 447.585 25.76H448.585H449.585C449.585 23.6804 449.429 22.0194 449.069 20.8467C448.729 19.7385 448.038 18.6 446.695 18.6V19.6ZM448.585 25.76H447.585C447.585 27.4768 447.321 29.0125 446.809 30.3789L447.745 30.73L448.682 31.0811C449.289 29.4608 449.585 27.6832 449.585 25.76H448.585ZM447.745 30.73L446.803 30.3956C446.316 31.767 445.845 31.9 445.645 31.9V32.9V33.9C447.218 33.9 448.148 32.5863 448.688 31.0644L447.745 30.73ZM445.645 32.9V31.9H437.385V32.9V33.9H445.645V32.9ZM469.067 55.58L469.171 56.5745L469.179 56.5737L469.187 56.5728L469.067 55.58ZM455.347 55.65L455.014 56.593L455.046 56.6044L455.079 56.6135L455.347 55.65ZM458.077 18.06L458.428 18.9964L458.437 18.9929L458.077 18.06ZM470.817 2.8L470.341 3.6797L470.355 3.68729L470.37 3.69442L470.817 2.8ZM473.127 19.81H472.127V54.32H473.127H474.127V19.81H473.127ZM473.127 54.32H472.127C472.127 53.959 472.37 53.8194 472.305 53.8643C472.258 53.8966 472.116 53.9716 471.815 54.0649C471.227 54.2475 470.284 54.4258 468.947 54.5872L469.067 55.58L469.187 56.5728C470.556 56.4076 471.643 56.2125 472.408 55.9751C472.784 55.8584 473.149 55.7117 473.441 55.5107C473.714 55.3223 474.127 54.9377 474.127 54.32H473.127ZM469.067 55.58L468.962 54.5855C466.339 54.8616 463.621 55 460.807 55V56V57C463.686 57 466.475 56.8584 469.171 56.5745L469.067 55.58ZM460.807 56V55C459.418 55 458.286 54.971 457.406 54.9145C456.507 54.8569 455.929 54.7738 455.614 54.6865L455.347 55.65L455.079 56.6135C455.605 56.7595 456.357 56.8514 457.278 56.9105C458.217 56.9707 459.395 57 460.807 57V56ZM455.347 55.65L455.68 54.707C455.38 54.6011 455.249 54.4959 455.199 54.4407C455.169 54.4064 455.157 54.3827 455.157 54.32H454.157H453.157C453.157 54.864 453.343 55.3653 453.709 55.7743C454.056 56.1624 454.521 56.4189 455.014 56.593L455.347 55.65ZM454.157 54.32H455.157V21.07H454.157H453.157V54.32H454.157ZM454.157 21.07H455.157C455.157 21.0169 455.189 20.7679 455.746 20.3406C456.285 19.9267 457.159 19.4721 458.428 18.9963L458.077 18.06L457.726 17.1237C456.381 17.6279 455.295 18.165 454.528 18.7543C453.777 19.3304 453.157 20.0964 453.157 21.07H454.157ZM458.077 18.06L458.437 18.9929C460.971 18.0147 463.741 17.52 466.757 17.52V16.52V15.52C463.519 15.52 460.502 16.052 457.717 17.1271L458.077 18.06ZM466.757 16.52V17.52C468.826 17.52 470.227 17.7927 471.075 18.231C471.485 18.4426 471.737 18.6775 471.888 18.9129C472.037 19.1435 472.127 19.4301 472.127 19.81H473.127H474.127C474.127 19.0932 473.951 18.4202 473.569 17.8284C473.19 17.2412 472.645 16.7907 471.993 16.454C470.718 15.7957 468.934 15.52 466.757 15.52V16.52ZM463.607 1.4V2.4C466.606 2.4 468.821 2.85787 470.341 3.6797L470.817 2.8L471.292 1.92029C469.359 0.87546 466.767 0.399998 463.607 0.399998V1.4ZM470.817 2.8L470.37 3.69442C471.086 4.0526 471.594 4.54276 471.933 5.16709C472.278 5.80187 472.477 6.63103 472.477 7.7H473.477H474.477C474.477 6.38896 474.233 5.21146 473.691 4.2129C473.143 3.2039 472.321 2.43406 471.264 1.90557L470.817 2.8ZM473.477 7.7H472.477C472.477 9.49284 471.806 10.735 470.486 11.5838C469.09 12.4813 466.868 13 463.677 13V14V15C467.018 15 469.697 14.4687 471.568 13.2662C473.514 12.015 474.477 10.1072 474.477 7.7H473.477ZM463.677 14V13C460.485 13 458.264 12.4813 456.868 11.5838C455.547 10.735 454.877 9.49284 454.877 7.7H453.877H452.877C452.877 10.1072 453.84 12.015 455.786 13.2662C457.657 14.4687 460.335 15 463.677 15V14ZM453.877 7.7H454.877C454.877 5.90398 455.544 4.66179 456.853 3.81441C458.236 2.91851 460.439 2.4 463.607 2.4V1.4V0.399998C460.288 0.399998 457.625 0.931487 455.766 2.13559C453.831 3.3882 452.877 5.29601 452.877 7.7H453.877ZM493.259 55.58L493.364 56.5745L493.373 56.5736L493.381 56.5725L493.259 55.58ZM479.539 55.65L479.207 56.593L479.239 56.6044L479.272 56.6135L479.539 55.65ZM482.269 2.87L481.924 1.93164L481.918 1.93367L482.269 2.87ZM497.249 4.62H496.249V54.32H497.249H498.249V4.62H497.249ZM497.249 54.32H496.249C496.249 53.9671 496.484 53.8276 496.426 53.8689C496.382 53.8995 496.245 53.9735 495.951 54.0664C495.375 54.2481 494.451 54.4261 493.138 54.5875L493.259 55.58L493.381 56.5725C494.727 56.4072 495.798 56.2119 496.553 55.9736C496.924 55.8565 497.286 55.7088 497.574 55.5061C497.848 55.314 498.249 54.9296 498.249 54.32H497.249ZM493.259 55.58L493.155 54.5855C490.532 54.8616 487.813 55 484.999 55V56V57C487.879 57 490.667 56.8584 493.364 56.5745L493.259 55.58ZM484.999 56V55C483.611 55 482.479 54.971 481.598 54.9145C480.7 54.8569 480.122 54.7738 479.807 54.6865L479.539 55.65L479.272 56.6135C479.797 56.7595 480.549 56.8514 481.47 56.9105C482.41 56.9707 483.588 57 484.999 57V56ZM479.539 55.65L479.872 54.707C479.572 54.6011 479.442 54.4959 479.392 54.4407C479.361 54.4064 479.349 54.3827 479.349 54.32H478.349H477.349C477.349 54.864 477.536 55.3653 477.902 55.7743C478.249 56.1624 478.713 56.4189 479.207 56.593L479.539 55.65ZM478.349 54.32H479.349V5.88H478.349H477.349V54.32H478.349ZM478.349 5.88H479.349C479.349 5.82689 479.382 5.57788 479.938 5.15065C480.478 4.73666 481.352 4.28212 482.621 3.80632L482.269 2.87L481.918 1.93367C480.574 2.43787 479.488 2.975 478.72 3.56435C477.97 4.14045 477.349 4.90644 477.349 5.88H478.349ZM482.269 2.87L482.615 3.80834C485.157 2.8719 487.886 2.4 490.809 2.4V1.4V0.399998C487.666 0.399998 484.702 0.908093 481.924 1.93165L482.269 2.87ZM490.809 1.4V2.4C492.905 2.4 494.328 2.66724 495.192 3.09943C495.61 3.30844 495.864 3.53918 496.015 3.76595C496.162 3.98645 496.249 4.25832 496.249 4.62H497.249H498.249C498.249 3.90835 498.069 3.24104 497.679 2.65655C497.293 2.07831 496.742 1.63822 496.087 1.31057C494.804 0.669423 493.007 0.399998 490.809 0.399998V1.4ZM520.548 40.18V39.18H519.548V40.18H520.548ZM531.468 43.05L531.851 43.974L531.858 43.9712L531.864 43.9683L531.468 43.05ZM539.238 45.29L538.36 45.7678L538.36 45.7678L539.238 45.29ZM535.808 55.3L536.051 56.2701L536.051 56.2701L535.808 55.3ZM515.858 55.86L515.629 56.8334L515.634 56.8344L515.858 55.86ZM509.978 53.76L509.468 54.6199L509.484 54.6292L509.5 54.6379L509.978 53.76ZM505.988 50.54L505.241 51.2044L505.248 51.212L505.255 51.2194L505.988 50.54ZM503.468 46.97L502.567 47.4027L502.57 47.41L502.574 47.4172L503.468 46.97ZM502.138 43.12L501.163 43.3416L501.165 43.3472L502.138 43.12ZM508.088 19.18L508.676 19.9892L508.686 19.982L508.088 19.18ZM515.438 15.75L515.204 14.7779L515.204 14.7779L515.438 15.75ZM520.408 34.58H519.408V35.58H520.408V34.58ZM523.698 32.97L522.928 32.3331L522.919 32.3433L522.911 32.3537L523.698 32.97ZM520.548 40.18H519.548C519.548 41.8393 519.943 43.2694 520.91 44.2827C521.885 45.3048 523.275 45.73 524.888 45.73V44.73V43.73C523.608 43.73 522.829 43.3969 522.357 42.9023C521.877 42.3989 521.548 41.554 521.548 40.18H520.548ZM524.888 44.73V45.73C526.763 45.73 529.1 45.1124 531.851 43.974L531.468 43.05L531.086 42.126C528.424 43.2276 526.374 43.73 524.888 43.73V44.73ZM531.468 43.05L531.864 43.9683C533.216 43.3856 534.242 42.951 534.945 42.6628C535.298 42.5183 535.562 42.4136 535.742 42.3463C535.834 42.3122 535.893 42.2915 535.928 42.2807C535.945 42.2751 535.945 42.2757 535.933 42.2786C535.927 42.2801 535.91 42.2842 535.885 42.2883C535.866 42.2915 535.811 42.3 535.738 42.3V41.3V40.3C535.601 40.3 535.488 40.3287 535.461 40.3351C535.412 40.3471 535.364 40.3613 535.324 40.3739C535.243 40.3996 535.147 40.4337 535.043 40.4725C534.833 40.551 534.546 40.6651 534.187 40.8122C533.467 41.1073 532.427 41.5477 531.073 42.1317L531.468 43.05ZM535.738 41.3V42.3C535.712 42.3 535.966 42.3175 536.527 42.9569C537.039 43.5406 537.651 44.4639 538.36 45.7678L539.238 45.29L540.117 44.8122C539.379 43.4561 538.685 42.3843 538.03 41.6381C537.424 40.9475 536.652 40.3 535.738 40.3V41.3ZM539.238 45.29L538.36 45.7678C539.07 47.0724 539.588 48.1816 539.928 49.1012C540.272 50.0335 540.408 50.7106 540.408 51.17H541.408H542.408C542.408 50.3694 542.183 49.4365 541.804 48.4088C541.42 47.3684 540.854 46.1676 540.117 44.8122L539.238 45.29ZM541.408 51.17H540.408C540.408 51.677 540.17 52.2057 539.415 52.7627C538.634 53.3389 537.378 53.8767 535.566 54.3299L535.808 55.3L536.051 56.2701C537.972 55.7899 539.517 55.1727 540.602 54.3723C541.713 53.5526 542.408 52.483 542.408 51.17H541.408ZM535.808 55.3L535.566 54.3299C531.906 55.2448 528.324 55.7 524.818 55.7V56.7V57.7C528.499 57.7 532.244 57.2219 536.051 56.2701L535.808 55.3ZM524.818 56.7V55.7C521.318 55.7 518.412 55.4231 516.083 54.8856L515.858 55.86L515.634 56.8344C518.158 57.4169 521.225 57.7 524.818 57.7V56.7ZM515.858 55.86L516.088 54.8866C513.763 54.3397 511.895 53.6661 510.457 52.8821L509.978 53.76L509.5 54.6379C511.142 55.5339 513.194 56.2603 515.629 56.8334L515.858 55.86ZM509.978 53.76L510.489 52.9001C509.077 52.062 507.823 51.0492 506.722 49.8606L505.988 50.54L505.255 51.2194C506.487 52.5508 507.893 53.6847 509.468 54.6199L509.978 53.76ZM505.988 50.54L506.736 49.8756C505.655 48.6602 504.873 47.5425 504.363 46.5228L503.468 46.97L502.574 47.4172C503.184 48.6375 504.081 49.8998 505.241 51.2044L505.988 50.54ZM503.468 46.97L504.37 46.5373C503.845 45.443 503.424 44.2296 503.112 42.8928L502.138 43.12L501.165 43.3472C501.506 44.8104 501.972 46.1636 502.567 47.4027L503.468 46.97ZM502.138 43.12L503.114 42.8984C502.664 40.9207 502.438 38.8719 502.438 36.75H501.438H500.438C500.438 39.0148 500.679 41.2126 501.163 43.3416L502.138 43.12ZM501.438 36.75H502.438C502.438 28.3957 504.62 22.9352 508.676 19.9891L508.088 19.18L507.501 18.3709C502.69 21.8648 500.438 28.1176 500.438 36.75H501.438ZM508.088 19.18L508.686 19.982C510.769 18.4308 513.095 17.3444 515.673 16.7221L515.438 15.75L515.204 14.7779C512.369 15.4623 509.795 16.6626 507.491 18.378L508.088 19.18ZM515.438 15.75L515.673 16.7221C518.283 16.0922 521.397 15.77 525.028 15.77V14.77V13.77C521.287 13.77 518.007 14.1012 515.204 14.7779L515.438 15.75ZM525.028 14.77V15.77C530.847 15.77 535.032 16.7874 537.74 18.6709C540.381 20.5085 541.738 23.2568 541.738 27.09H542.738H543.738C543.738 22.7098 542.144 19.2981 538.882 17.0291C535.686 14.8059 531.017 13.77 525.028 13.77V14.77ZM542.738 27.09H541.738C541.738 31.1567 540.219 34.0965 537.219 36.0723C534.145 38.0962 529.407 39.18 522.858 39.18V40.18V41.18C529.563 41.18 534.766 40.0821 538.318 37.7427C541.944 35.3552 543.738 31.75 543.738 27.09H542.738ZM522.858 40.18V39.18H520.548V40.18V41.18H522.858V40.18ZM520.408 29.96H519.408V34.58H520.408H521.408V29.96H520.408ZM520.408 34.58V35.58C522.072 35.58 523.458 34.8998 524.486 33.5863L523.698 32.97L522.911 32.3537C522.259 33.1869 521.452 33.58 520.408 33.58V34.58ZM523.698 32.97L524.469 33.6069C525.52 32.335 526.028 30.7961 526.028 29.05H525.028H524.028C524.028 30.3839 523.65 31.4583 522.928 32.3331L523.698 32.97ZM525.028 29.05H526.028C526.028 27.5964 525.846 26.354 525.374 25.441C525.131 24.9699 524.797 24.5607 524.35 24.2722C523.898 23.9807 523.389 23.85 522.858 23.85V24.85V25.85C523.052 25.85 523.175 25.8943 523.266 25.9528C523.361 26.0143 523.479 26.1301 523.598 26.359C523.849 26.846 524.028 27.7036 524.028 29.05H525.028ZM522.858 24.85V23.85C522.266 23.85 521.705 24.0078 521.216 24.3483C520.734 24.683 520.379 25.1541 520.119 25.6952C519.613 26.7505 519.408 28.2086 519.408 29.96H520.408H521.408C521.408 28.3047 521.612 27.2079 521.923 26.5598C522.072 26.2492 522.226 26.0816 522.357 25.9904C522.48 25.9051 522.634 25.85 522.858 25.85V24.85Z" fill="white" mask="url(#path-1-outside-1_310_16)"/>
</g>
<defs>
<filter id="filter0_d_310_16" x="0.286133" y="0.399902" width="547.452" height="65.3003" filterUnits="userSpaceOnUse" color-interpolation-filters="sRGB">
<feFlood flood-opacity="0" result="BackgroundImageFix"/>
<feColorMatrix in="SourceAlpha" type="matrix" values="0 0 0 0 0 0 0 0 0 0 0 0 0 0 0 0 0 0 127 0" result="hardAlpha"/>
<feOffset dy="4"/>
<feGaussianBlur stdDeviation="2"/>
<feComposite in2="hardAlpha" operator="out"/>
<feColorMatrix type="matrix" values="0 0 0 0 0 0 0 0 0 0 0 0 0 0 0 0 0 0 0.25 0"/>
<feBlend mode="normal" in2="BackgroundImageFix" result="effect1_dropShadow_310_16"/>
<feBlend mode="normal" in="SourceGraphic" in2="effect1_dropShadow_310_16" result="shape"/>
</filter>
</defs>
</svg>
