<svg width="355" height="29" viewBox="0 0 355 29" fill="none" xmlns="http://www.w3.org/2000/svg">
<path d="M10.3257 22.76C9.9257 22.9 9.3957 23.01 8.7357 23.09C8.0957 23.19 7.4857 23.24 6.9057 23.24C5.0457 23.24 3.6857 22.95 2.8257 22.37C1.9657 21.77 1.3957 20.76 1.1157 19.34C0.835703 17.9 0.695703 15.68 0.695703 12.68C0.695703 9.72 0.835703 7.52 1.1157 6.08C1.4157 4.64 1.9957 3.62 2.8557 3.02C3.7157 2.42 5.0657 2.12 6.9057 2.12C7.5257 2.12 8.1557 2.17 8.7957 2.27C9.4357 2.35 9.9257 2.46 10.2657 2.6V5.45C9.2057 5.29 8.3057 5.21 7.5657 5.21C6.4257 5.21 5.6257 5.36 5.1657 5.66C4.7257 5.96 4.4357 6.59 4.2957 7.55C4.1757 8.51 4.1157 10.22 4.1157 12.68C4.1157 15.14 4.1757 16.85 4.2957 17.81C4.4357 18.77 4.7257 19.4 5.1657 19.7C5.6257 20 6.4257 20.15 7.5657 20.15C8.5657 20.15 9.4857 20.07 10.3257 19.91V22.76ZM12.8302 7.7H15.8002L15.9202 10.31H16.1302C16.4302 9.23 16.8702 8.49 17.4502 8.09C18.0502 7.67 18.8302 7.46 19.7902 7.46V10.91C18.8702 10.91 18.1402 11.07 17.6002 11.39C17.0602 11.71 16.6702 12.23 16.4302 12.95C16.1902 13.67 16.0702 14.67 16.0702 15.95V23H12.8302V7.7ZM31.6665 16.46H24.5565C24.5565 17.76 24.6165 18.67 24.7365 19.19C24.8565 19.69 25.1165 20.03 25.5165 20.21C25.9165 20.37 26.6165 20.45 27.6165 20.45C28.5765 20.45 29.8065 20.37 31.3065 20.21V22.76C30.8065 22.9 30.1365 23.01 29.2965 23.09C28.4765 23.19 27.6765 23.24 26.8965 23.24C25.2165 23.24 23.9765 22.99 23.1765 22.49C22.3965 21.97 21.8865 21.19 21.6465 20.15C21.4265 19.09 21.3165 17.5 21.3165 15.38C21.3165 13.28 21.4265 11.7 21.6465 10.64C21.8665 9.58 22.3565 8.79 23.1165 8.27C23.8765 7.73 25.0665 7.46 26.6865 7.46C28.2865 7.46 29.4265 7.72 30.1065 8.24C30.8065 8.74 31.2365 9.5 31.3965 10.52C31.5765 11.52 31.6665 13.13 31.6665 15.35V16.46ZM26.6265 10.25C26.0065 10.25 25.5565 10.34 25.2765 10.52C24.9965 10.7 24.8065 11.04 24.7065 11.54C24.6265 12.04 24.5765 12.88 24.5565 14.06H28.5765V14.03C28.5765 12.87 28.5265 12.03 28.4265 11.51C28.3265 10.99 28.1465 10.65 27.8865 10.49C27.6265 10.33 27.2065 10.25 26.6265 10.25ZM37.3006 23.24C36.0406 23.24 35.1306 22.88 34.5706 22.16C34.0306 21.44 33.7606 20.28 33.7606 18.68C33.7606 17.5 33.8806 16.57 34.1206 15.89C34.3606 15.21 34.7506 14.72 35.2906 14.42C35.8506 14.12 36.6206 13.97 37.6006 13.97C38.3606 13.97 39.4206 14.01 40.7806 14.09V13.34C40.7806 12.36 40.7006 11.66 40.5406 11.24C40.4006 10.82 40.1406 10.55 39.7606 10.43C39.4006 10.31 38.7906 10.25 37.9306 10.25C37.0706 10.25 35.9206 10.33 34.4806 10.49V7.94C35.8806 7.62 37.3406 7.46 38.8606 7.46C40.3006 7.46 41.3806 7.65 42.1006 8.03C42.8406 8.41 43.3406 9.03 43.6006 9.89C43.8806 10.73 44.0206 11.94 44.0206 13.52V23H41.0206L40.9006 21.11H40.7206C40.2406 22.53 39.1006 23.24 37.3006 23.24ZM38.7106 20.3C39.0906 20.3 39.4106 20.26 39.6706 20.18C39.9306 20.1 40.1606 19.94 40.3606 19.7C40.6406 19.32 40.7806 18.48 40.7806 17.18V16.37H38.5306C38.0906 16.37 37.7606 16.42 37.5406 16.52C37.3406 16.62 37.1906 16.81 37.0906 17.09C37.0106 17.37 36.9706 17.8 36.9706 18.38C36.9706 19.16 37.0806 19.68 37.3006 19.94C37.5206 20.18 37.9906 20.3 38.7106 20.3ZM47.8904 23V10.49H45.8804V7.7H47.8904V3.26H51.1304V7.7H53.5904V10.49H51.1304V23H47.8904ZM65.5044 16.46H58.3944C58.3944 17.76 58.4544 18.67 58.5744 19.19C58.6944 19.69 58.9544 20.03 59.3544 20.21C59.7544 20.37 60.4544 20.45 61.4544 20.45C62.4144 20.45 63.6444 20.37 65.1444 20.21V22.76C64.6444 22.9 63.9744 23.01 63.1344 23.09C62.3144 23.19 61.5144 23.24 60.7344 23.24C59.0544 23.24 57.8144 22.99 57.0144 22.49C56.2344 21.97 55.7244 21.19 55.4844 20.15C55.2644 19.09 55.1544 17.5 55.1544 15.38C55.1544 13.28 55.2644 11.7 55.4844 10.64C55.7044 9.58 56.1944 8.79 56.9544 8.27C57.7144 7.73 58.9044 7.46 60.5244 7.46C62.1244 7.46 63.2644 7.72 63.9444 8.24C64.6444 8.74 65.0744 9.5 65.2344 10.52C65.4144 11.52 65.5044 13.13 65.5044 15.35V16.46ZM60.4644 10.25C59.8444 10.25 59.3944 10.34 59.1144 10.52C58.8344 10.7 58.6444 11.04 58.5444 11.54C58.4644 12.04 58.4144 12.88 58.3944 14.06H62.4144V14.03C62.4144 12.87 62.3644 12.03 62.2644 11.51C62.1644 10.99 61.9844 10.65 61.7244 10.49C61.4644 10.33 61.0444 10.25 60.4644 10.25ZM76.7049 23.24C75.4449 23.24 74.5349 22.88 73.9749 22.16C73.4349 21.44 73.1649 20.28 73.1649 18.68C73.1649 17.5 73.2849 16.57 73.5249 15.89C73.7649 15.21 74.1549 14.72 74.6949 14.42C75.2549 14.12 76.0249 13.97 77.0049 13.97C77.7649 13.97 78.8249 14.01 80.1849 14.09V13.34C80.1849 12.36 80.1049 11.66 79.9449 11.24C79.8049 10.82 79.5449 10.55 79.1649 10.43C78.8049 10.31 78.1949 10.25 77.3349 10.25C76.4749 10.25 75.3249 10.33 73.8849 10.49V7.94C75.2849 7.62 76.7449 7.46 78.2649 7.46C79.7049 7.46 80.7849 7.65 81.5049 8.03C82.2449 8.41 82.7449 9.03 83.0049 9.89C83.2849 10.73 83.4249 11.94 83.4249 13.52V23H80.4249L80.3049 21.11H80.1249C79.6449 22.53 78.5049 23.24 76.7049 23.24ZM78.1149 20.3C78.4949 20.3 78.8149 20.26 79.0749 20.18C79.3349 20.1 79.5649 19.94 79.7649 19.7C80.0449 19.32 80.1849 18.48 80.1849 17.18V16.37H77.9349C77.4949 16.37 77.1649 16.42 76.9449 16.52C76.7449 16.62 76.5949 16.81 76.4949 17.09C76.4149 17.37 76.3749 17.8 76.3749 18.38C76.3749 19.16 76.4849 19.68 76.7049 19.94C76.9249 20.18 77.3949 20.3 78.1149 20.3ZM99.2776 21.08H99.0976C98.8376 21.84 98.4176 22.39 97.8376 22.73C97.2576 23.07 96.5176 23.24 95.6176 23.24C94.6176 23.24 93.8576 23.05 93.3376 22.67C92.8176 22.27 92.4676 21.68 92.2876 20.9C92.1276 20.1 92.0476 19.01 92.0476 17.63V7.7H95.2876V16.13C95.2876 17.49 95.3176 18.44 95.3776 18.98C95.4576 19.5 95.6176 19.84 95.8576 20C96.0976 20.14 96.5176 20.21 97.1176 20.21C97.7576 20.21 98.2176 20.08 98.4976 19.82C98.7776 19.56 98.9576 19.13 99.0376 18.53C99.1176 17.93 99.1576 16.98 99.1576 15.68V7.7H102.398V23H99.3976L99.2776 21.08ZM109.604 23.24C108.944 23.24 108.204 23.2 107.384 23.12C106.584 23.04 105.884 22.94 105.284 22.82V20.21C106.724 20.37 107.934 20.45 108.914 20.45C109.534 20.45 109.994 20.4 110.294 20.3C110.594 20.18 110.794 20 110.894 19.76C110.994 19.52 111.044 19.16 111.044 18.68C111.044 18.12 111.014 17.73 110.954 17.51C110.894 17.27 110.784 17.11 110.624 17.03C110.464 16.93 110.184 16.85 109.784 16.79L107.114 16.4C106.294 16.28 105.724 15.9 105.404 15.26C105.084 14.62 104.924 13.55 104.924 12.05C104.924 10.33 105.334 9.14 106.154 8.48C106.974 7.8 108.184 7.46 109.784 7.46C110.444 7.46 111.124 7.51 111.824 7.61C112.544 7.69 113.124 7.8 113.564 7.94V10.52C112.444 10.34 111.324 10.25 110.204 10.25C109.424 10.25 108.884 10.37 108.584 10.61C108.304 10.83 108.164 11.29 108.164 11.99C108.164 12.49 108.184 12.85 108.224 13.07C108.284 13.29 108.384 13.45 108.524 13.55C108.684 13.63 108.944 13.69 109.304 13.73L111.584 14.03C112.164 14.11 112.644 14.27 113.024 14.51C113.404 14.75 113.704 15.18 113.924 15.8C114.144 16.42 114.254 17.3 114.254 18.44C114.254 20.26 113.874 21.52 113.114 22.22C112.374 22.9 111.204 23.24 109.604 23.24ZM126.706 16.46H119.596C119.596 17.76 119.656 18.67 119.776 19.19C119.896 19.69 120.156 20.03 120.556 20.21C120.956 20.37 121.656 20.45 122.656 20.45C123.616 20.45 124.846 20.37 126.346 20.21V22.76C125.846 22.9 125.176 23.01 124.336 23.09C123.516 23.19 122.716 23.24 121.936 23.24C120.256 23.24 119.016 22.99 118.216 22.49C117.436 21.97 116.926 21.19 116.686 20.15C116.466 19.09 116.356 17.5 116.356 15.38C116.356 13.28 116.466 11.7 116.686 10.64C116.906 9.58 117.396 8.79 118.156 8.27C118.916 7.73 120.106 7.46 121.726 7.46C123.326 7.46 124.466 7.72 125.146 8.24C125.846 8.74 126.276 9.5 126.436 10.52C126.616 11.52 126.706 13.13 126.706 15.35V16.46ZM121.666 10.25C121.046 10.25 120.596 10.34 120.316 10.52C120.036 10.7 119.846 11.04 119.746 11.54C119.666 12.04 119.616 12.88 119.596 14.06H123.616V14.03C123.616 12.87 123.566 12.03 123.466 11.51C123.366 10.99 123.186 10.65 122.926 10.49C122.666 10.33 122.246 10.25 121.666 10.25ZM129.52 7.7H132.49L132.61 10.31H132.82C133.12 9.23 133.56 8.49 134.14 8.09C134.74 7.67 135.52 7.46 136.48 7.46V10.91C135.56 10.91 134.83 11.07 134.29 11.39C133.75 11.71 133.36 12.23 133.12 12.95C132.88 13.67 132.76 14.67 132.76 15.95V23H129.52V7.7ZM145.682 14.57C145.682 13.23 145.642 12.29 145.562 11.75C145.482 11.21 145.322 10.87 145.082 10.73C144.842 10.57 144.422 10.49 143.822 10.49C143.182 10.49 142.722 10.63 142.442 10.91C142.162 11.17 141.982 11.59 141.902 12.17C141.842 12.75 141.812 13.7 141.812 15.02V23H138.572V7.7H141.542L141.662 9.62H141.842C142.102 8.86 142.522 8.31 143.102 7.97C143.682 7.63 144.432 7.46 145.352 7.46C146.352 7.46 147.102 7.66 147.602 8.06C148.122 8.44 148.472 9.03 148.652 9.83C148.832 10.61 148.922 11.69 148.922 13.07V23H145.682V14.57ZM154.869 23.24C153.609 23.24 152.699 22.88 152.139 22.16C151.599 21.44 151.329 20.28 151.329 18.68C151.329 17.5 151.449 16.57 151.689 15.89C151.929 15.21 152.319 14.72 152.859 14.42C153.419 14.12 154.189 13.97 155.169 13.97C155.929 13.97 156.989 14.01 158.349 14.09V13.34C158.349 12.36 158.269 11.66 158.109 11.24C157.969 10.82 157.709 10.55 157.329 10.43C156.969 10.31 156.359 10.25 155.499 10.25C154.639 10.25 153.489 10.33 152.049 10.49V7.94C153.449 7.62 154.909 7.46 156.429 7.46C157.869 7.46 158.949 7.65 159.669 8.03C160.409 8.41 160.909 9.03 161.169 9.89C161.449 10.73 161.589 11.94 161.589 13.52V23H158.589L158.469 21.11H158.289C157.809 22.53 156.669 23.24 154.869 23.24ZM156.279 20.3C156.659 20.3 156.979 20.26 157.239 20.18C157.499 20.1 157.729 19.94 157.929 19.7C158.209 19.32 158.349 18.48 158.349 17.18V16.37H156.099C155.659 16.37 155.329 16.42 155.109 16.52C154.909 16.62 154.759 16.81 154.659 17.09C154.579 17.37 154.539 17.8 154.539 18.38C154.539 19.16 154.649 19.68 154.869 19.94C155.089 20.18 155.559 20.3 156.279 20.3ZM178.475 14.57C178.475 13.21 178.435 12.27 178.355 11.75C178.295 11.21 178.155 10.87 177.935 10.73C177.715 10.57 177.315 10.49 176.735 10.49C176.135 10.49 175.695 10.62 175.415 10.88C175.155 11.14 174.985 11.57 174.905 12.17C174.845 12.75 174.815 13.7 174.815 15.02V23H171.575V14.57C171.575 13.21 171.535 12.27 171.455 11.75C171.395 11.21 171.255 10.87 171.035 10.73C170.815 10.57 170.415 10.49 169.835 10.49C169.235 10.49 168.805 10.62 168.545 10.88C168.285 11.14 168.115 11.57 168.035 12.17C167.975 12.75 167.945 13.7 167.945 15.02V23H164.705V7.7H167.675L167.795 9.62H167.975C168.255 8.86 168.665 8.31 169.205 7.97C169.745 7.63 170.475 7.46 171.395 7.46C172.375 7.46 173.105 7.63 173.585 7.97C174.085 8.31 174.425 8.86 174.605 9.62H174.785C175.045 8.86 175.455 8.31 176.015 7.97C176.575 7.63 177.325 7.46 178.265 7.46C179.205 7.46 179.915 7.65 180.395 8.03C180.895 8.41 181.235 8.99 181.415 9.77C181.615 10.53 181.715 11.58 181.715 12.92V23H178.475V14.57ZM194.762 16.46H187.652C187.652 17.76 187.712 18.67 187.832 19.19C187.952 19.69 188.212 20.03 188.612 20.21C189.012 20.37 189.712 20.45 190.712 20.45C191.672 20.45 192.902 20.37 194.402 20.21V22.76C193.902 22.9 193.232 23.01 192.392 23.09C191.572 23.19 190.772 23.24 189.992 23.24C188.312 23.24 187.072 22.99 186.272 22.49C185.492 21.97 184.982 21.19 184.742 20.15C184.522 19.09 184.412 17.5 184.412 15.38C184.412 13.28 184.522 11.7 184.742 10.64C184.962 9.58 185.452 8.79 186.212 8.27C186.972 7.73 188.162 7.46 189.782 7.46C191.382 7.46 192.522 7.72 193.202 8.24C193.902 8.74 194.332 9.5 194.492 10.52C194.672 11.52 194.762 13.13 194.762 15.35V16.46ZM189.722 10.25C189.102 10.25 188.652 10.34 188.372 10.52C188.092 10.7 187.902 11.04 187.802 11.54C187.722 12.04 187.672 12.88 187.652 14.06H191.672V14.03C191.672 12.87 191.622 12.03 191.522 11.51C191.422 10.99 191.242 10.65 190.982 10.49C190.722 10.33 190.302 10.25 189.722 10.25ZM205.963 23.24C204.703 23.24 203.793 22.88 203.233 22.16C202.693 21.44 202.423 20.28 202.423 18.68C202.423 17.5 202.543 16.57 202.783 15.89C203.023 15.21 203.413 14.72 203.953 14.42C204.513 14.12 205.283 13.97 206.263 13.97C207.023 13.97 208.083 14.01 209.443 14.09V13.34C209.443 12.36 209.363 11.66 209.203 11.24C209.063 10.82 208.803 10.55 208.423 10.43C208.063 10.31 207.453 10.25 206.593 10.25C205.733 10.25 204.583 10.33 203.143 10.49V7.94C204.543 7.62 206.003 7.46 207.523 7.46C208.963 7.46 210.043 7.65 210.763 8.03C211.503 8.41 212.003 9.03 212.263 9.89C212.543 10.73 212.683 11.94 212.683 13.52V23H209.683L209.563 21.11H209.383C208.903 22.53 207.763 23.24 205.963 23.24ZM207.373 20.3C207.753 20.3 208.073 20.26 208.333 20.18C208.593 20.1 208.823 19.94 209.023 19.7C209.303 19.32 209.443 18.48 209.443 17.18V16.37H207.193C206.753 16.37 206.423 16.42 206.203 16.52C206.003 16.62 205.853 16.81 205.753 17.09C205.673 17.37 205.633 17.8 205.633 18.38C205.633 19.16 205.743 19.68 205.963 19.94C206.183 20.18 206.653 20.3 207.373 20.3ZM222.909 14.57C222.909 13.23 222.869 12.29 222.789 11.75C222.709 11.21 222.549 10.87 222.309 10.73C222.069 10.57 221.649 10.49 221.049 10.49C220.409 10.49 219.949 10.63 219.669 10.91C219.389 11.17 219.209 11.59 219.129 12.17C219.069 12.75 219.039 13.7 219.039 15.02V23H215.799V7.7H218.769L218.889 9.62H219.069C219.329 8.86 219.749 8.31 220.329 7.97C220.909 7.63 221.659 7.46 222.579 7.46C223.579 7.46 224.329 7.66 224.829 8.06C225.349 8.44 225.699 9.03 225.879 9.83C226.059 10.61 226.149 11.69 226.149 13.07V23H222.909V14.57ZM232.846 23.24C231.806 23.24 230.996 23.02 230.416 22.58C229.856 22.12 229.456 21.33 229.216 20.21C228.976 19.09 228.856 17.49 228.856 15.41C228.856 13.35 228.966 11.76 229.186 10.64C229.426 9.5 229.826 8.69 230.386 8.21C230.946 7.71 231.746 7.46 232.786 7.46C234.446 7.46 235.526 8.09 236.026 9.35H236.206V0.709999H239.446V23H236.446L236.326 21.11H236.116C235.696 22.53 234.606 23.24 232.846 23.24ZM234.196 20.24C234.696 20.24 235.076 20.16 235.336 20C235.596 19.82 235.796 19.52 235.936 19.1C236.116 18.46 236.206 17.21 236.206 15.35C236.206 13.81 236.156 12.74 236.056 12.14C235.956 11.5 235.766 11.06 235.486 10.82C235.206 10.58 234.776 10.46 234.196 10.46C233.516 10.46 233.036 10.56 232.756 10.76C232.496 10.94 232.316 11.35 232.216 11.99C232.136 12.63 232.096 13.75 232.096 15.35C232.096 16.95 232.136 18.07 232.216 18.71C232.316 19.35 232.496 19.77 232.756 19.97C233.036 20.15 233.516 20.24 234.196 20.24ZM248.201 7.7H251.171L251.291 9.59H251.501C251.921 8.17 253.021 7.46 254.801 7.46C255.841 7.46 256.641 7.69 257.201 8.15C257.761 8.59 258.161 9.37 258.401 10.49C258.641 11.61 258.761 13.21 258.761 15.29C258.761 17.35 258.641 18.95 258.401 20.09C258.181 21.21 257.791 22.02 257.231 22.52C256.691 23 255.901 23.24 254.861 23.24C253.181 23.24 252.101 22.59 251.621 21.29H251.441V28.79H248.201V7.7ZM253.421 20.24C254.101 20.24 254.571 20.15 254.831 19.97C255.111 19.77 255.291 19.36 255.371 18.74C255.471 18.1 255.521 16.97 255.521 15.35C255.521 13.73 255.471 12.61 255.371 11.99C255.291 11.35 255.111 10.94 254.831 10.76C254.571 10.56 254.101 10.46 253.421 10.46C252.881 10.46 252.471 10.57 252.191 10.79C251.931 10.99 251.741 11.35 251.621 11.87C251.501 12.45 251.441 13.61 251.441 15.35C251.441 16.79 251.481 17.82 251.561 18.44C251.661 19.14 251.841 19.62 252.101 19.88C252.381 20.12 252.821 20.24 253.421 20.24ZM264.381 23.24C263.121 23.24 262.211 22.88 261.651 22.16C261.111 21.44 260.841 20.28 260.841 18.68C260.841 17.5 260.961 16.57 261.201 15.89C261.441 15.21 261.831 14.72 262.371 14.42C262.931 14.12 263.701 13.97 264.681 13.97C265.441 13.97 266.501 14.01 267.861 14.09V13.34C267.861 12.36 267.781 11.66 267.621 11.24C267.481 10.82 267.221 10.55 266.841 10.43C266.481 10.31 265.871 10.25 265.011 10.25C264.151 10.25 263.001 10.33 261.561 10.49V7.94C262.961 7.62 264.421 7.46 265.941 7.46C267.381 7.46 268.461 7.65 269.181 8.03C269.921 8.41 270.421 9.03 270.681 9.89C270.961 10.73 271.101 11.94 271.101 13.52V23H268.101L267.981 21.11H267.801C267.321 22.53 266.181 23.24 264.381 23.24ZM265.791 20.3C266.171 20.3 266.491 20.26 266.751 20.18C267.011 20.1 267.241 19.94 267.441 19.7C267.721 19.32 267.861 18.48 267.861 17.18V16.37H265.611C265.171 16.37 264.841 16.42 264.621 16.52C264.421 16.62 264.271 16.81 264.171 17.09C264.091 17.37 264.051 17.8 264.051 18.38C264.051 19.16 264.161 19.68 264.381 19.94C264.601 20.18 265.071 20.3 265.791 20.3ZM278.237 23.24C277.577 23.24 276.837 23.2 276.017 23.12C275.217 23.04 274.517 22.94 273.917 22.82V20.21C275.357 20.37 276.567 20.45 277.547 20.45C278.167 20.45 278.627 20.4 278.927 20.3C279.227 20.18 279.427 20 279.527 19.76C279.627 19.52 279.677 19.16 279.677 18.68C279.677 18.12 279.647 17.73 279.587 17.51C279.527 17.27 279.417 17.11 279.257 17.03C279.097 16.93 278.817 16.85 278.417 16.79L275.747 16.4C274.927 16.28 274.357 15.9 274.037 15.26C273.717 14.62 273.557 13.55 273.557 12.05C273.557 10.33 273.967 9.14 274.787 8.48C275.607 7.8 276.817 7.46 278.417 7.46C279.077 7.46 279.757 7.51 280.457 7.61C281.177 7.69 281.757 7.8 282.197 7.94V10.52C281.077 10.34 279.957 10.25 278.837 10.25C278.057 10.25 277.517 10.37 277.217 10.61C276.937 10.83 276.797 11.29 276.797 11.99C276.797 12.49 276.817 12.85 276.857 13.07C276.917 13.29 277.017 13.45 277.157 13.55C277.317 13.63 277.577 13.69 277.937 13.73L280.217 14.03C280.797 14.11 281.277 14.27 281.657 14.51C282.037 14.75 282.337 15.18 282.557 15.8C282.777 16.42 282.887 17.3 282.887 18.44C282.887 20.26 282.507 21.52 281.747 22.22C281.007 22.9 279.837 23.24 278.237 23.24ZM289.428 23.24C288.768 23.24 288.028 23.2 287.208 23.12C286.408 23.04 285.708 22.94 285.108 22.82V20.21C286.548 20.37 287.758 20.45 288.738 20.45C289.358 20.45 289.818 20.4 290.118 20.3C290.418 20.18 290.618 20 290.718 19.76C290.818 19.52 290.868 19.16 290.868 18.68C290.868 18.12 290.838 17.73 290.778 17.51C290.718 17.27 290.608 17.11 290.448 17.03C290.288 16.93 290.008 16.85 289.608 16.79L286.938 16.4C286.118 16.28 285.548 15.9 285.228 15.26C284.908 14.62 284.748 13.55 284.748 12.05C284.748 10.33 285.158 9.14 285.978 8.48C286.798 7.8 288.008 7.46 289.608 7.46C290.268 7.46 290.948 7.51 291.648 7.61C292.368 7.69 292.948 7.8 293.388 7.94V10.52C292.268 10.34 291.148 10.25 290.028 10.25C289.248 10.25 288.708 10.37 288.408 10.61C288.128 10.83 287.988 11.29 287.988 11.99C287.988 12.49 288.008 12.85 288.048 13.07C288.108 13.29 288.208 13.45 288.348 13.55C288.508 13.63 288.768 13.69 289.128 13.73L291.408 14.03C291.988 14.11 292.468 14.27 292.848 14.51C293.228 14.75 293.528 15.18 293.748 15.8C293.968 16.42 294.078 17.3 294.078 18.44C294.078 20.26 293.698 21.52 292.938 22.22C292.198 22.9 291.028 23.24 289.428 23.24ZM306.44 23L304.61 13.58H304.37L302.54 23H298.49L295.52 7.7H298.76L300.56 18.89H300.77L302.93 7.7H306.14L308.33 18.89H308.54L310.31 7.7H313.4L310.46 23H306.44ZM320.153 23.24C318.493 23.24 317.293 23.02 316.553 22.58C315.813 22.14 315.333 21.4 315.113 20.36C314.913 19.32 314.813 17.65 314.813 15.35C314.813 13.03 314.913 11.35 315.113 10.31C315.333 9.27 315.813 8.54 316.553 8.12C317.293 7.68 318.493 7.46 320.153 7.46C321.813 7.46 323.013 7.68 323.753 8.12C324.493 8.54 324.963 9.27 325.163 10.31C325.383 11.35 325.493 13.03 325.493 15.35C325.493 17.65 325.383 19.32 325.163 20.36C324.963 21.4 324.493 22.14 323.753 22.58C323.013 23.02 321.813 23.24 320.153 23.24ZM320.153 20.45C320.873 20.45 321.363 20.35 321.623 20.15C321.903 19.93 322.073 19.5 322.133 18.86C322.213 18.22 322.253 17.05 322.253 15.35C322.253 13.63 322.213 12.46 322.133 11.84C322.073 11.2 321.903 10.78 321.623 10.58C321.363 10.36 320.873 10.25 320.153 10.25C319.433 10.25 318.933 10.36 318.653 10.58C318.393 10.78 318.223 11.2 318.143 11.84C318.083 12.46 318.053 13.63 318.053 15.35C318.053 17.05 318.083 18.22 318.143 18.86C318.223 19.5 318.393 19.93 318.653 20.15C318.933 20.35 319.433 20.45 320.153 20.45ZM328.27 7.7H331.24L331.36 10.31H331.57C331.87 9.23 332.31 8.49 332.89 8.09C333.49 7.67 334.27 7.46 335.23 7.46V10.91C334.31 10.91 333.58 11.07 333.04 11.39C332.5 11.71 332.11 12.23 331.87 12.95C331.63 13.67 331.51 14.67 331.51 15.95V23H328.27V7.7ZM340.746 23.24C339.706 23.24 338.896 23.02 338.316 22.58C337.756 22.12 337.356 21.33 337.116 20.21C336.876 19.09 336.756 17.49 336.756 15.41C336.756 13.35 336.866 11.76 337.086 10.64C337.326 9.5 337.726 8.69 338.286 8.21C338.846 7.71 339.646 7.46 340.686 7.46C342.346 7.46 343.426 8.09 343.926 9.35H344.106V0.709999H347.346V23H344.346L344.226 21.11H344.016C343.596 22.53 342.506 23.24 340.746 23.24ZM342.096 20.24C342.596 20.24 342.976 20.16 343.236 20C343.496 19.82 343.696 19.52 343.836 19.1C344.016 18.46 344.106 17.21 344.106 15.35C344.106 13.81 344.056 12.74 343.956 12.14C343.856 11.5 343.666 11.06 343.386 10.82C343.106 10.58 342.676 10.46 342.096 10.46C341.416 10.46 340.936 10.56 340.656 10.76C340.396 10.94 340.216 11.35 340.116 11.99C340.036 12.63 339.996 13.75 339.996 15.35C339.996 16.95 340.036 18.07 340.116 18.71C340.216 19.35 340.396 19.77 340.656 19.97C340.936 20.15 341.416 20.24 342.096 20.24ZM350.505 23V19.46H354.135V23H350.505Z" fill="white"/>
</svg>
