<svg width="648" height="104" viewBox="0 0 648 104" fill="none" xmlns="http://www.w3.org/2000/svg">
<path d="M30.98 82.81C30.98 83.7633 28.7433 84.5333 24.27 85.12C19.7967 85.7067 15.3233 86 10.85 86C6.37667 86 3.51667 85.7433 2.27 85.23C1.02333 84.7167 0.4 83.91 0.4 82.81V12.08C0.4 8.56 10.96 6.8 32.08 6.8C44.84 6.8 53.2733 7.68 57.38 9.44C62.3667 11.4933 65.74 14.28 67.5 17.8C69.8467 22.3467 71.02 28.1767 71.02 35.29C71.02 45.0433 69.3333 52.12 65.96 56.52C63.54 59.7467 61.12 61.8367 58.7 62.79C56.28 63.7433 54.2633 64.44 52.65 64.88C51.11 65.2467 49.1667 65.54 46.82 65.76C43.5933 66.0533 39.1933 66.2 33.62 66.2L30.98 66.09V82.81ZM31.09 47.83H33.73C35.1233 47.83 36.2233 47.6467 37.03 47.28C37.8367 46.84 38.5333 45.74 39.12 43.98C39.78 42.1467 40.11 39.6167 40.11 36.39C40.11 33.09 39.7433 30.5967 39.01 28.91C38.35 27.15 37.6533 26.1233 36.92 25.83C36.26 25.4633 35.4533 25.28 34.5 25.28H31.09V47.83ZM106.553 61.14C106.553 65.9067 108.827 68.29 113.373 68.29C116.013 68.29 119.46 67.41 123.713 65.65C127.967 63.8167 130.203 62.9 130.423 62.9C131.817 62.9 133.65 64.99 135.923 69.17C138.197 73.35 139.333 76.43 139.333 78.41C139.333 81.27 136.4 83.4333 130.533 84.9C124.667 86.3667 118.91 87.1 113.263 87.1C107.69 87.1 102.997 86.66 99.1834 85.78C95.4434 84.9 92.3634 83.8 89.9434 82.48C87.5968 81.0867 85.5068 79.4 83.6734 77.42C81.9134 75.44 80.5934 73.57 79.7134 71.81C78.8334 69.9767 78.1368 67.96 77.6234 65.76C76.8901 62.5333 76.5234 59.1967 76.5234 55.75C76.5234 42.4033 80.0068 33.2 86.9734 28.14C90.4201 25.5733 94.2701 23.7767 98.5234 22.75C102.777 21.7233 107.8 21.21 113.593 21.21C132.147 21.21 141.423 27.6633 141.423 40.57C141.423 54.2833 131.01 61.14 110.183 61.14H106.553ZM106.333 45.08V52.34C108.46 52.34 110.183 51.4967 111.503 49.81C112.897 48.1233 113.593 46.07 113.593 43.65C113.593 39.25 112.457 37.05 110.183 37.05C107.617 37.05 106.333 39.7267 106.333 45.08ZM191.215 85.01C189.895 86.2567 186.888 86.88 182.195 86.88C177.501 86.88 173.615 86.5867 170.535 86C167.455 85.34 164.521 84.0933 161.735 82.26C156.381 78.6667 153.705 71.1867 153.705 59.82V42.66H148.205C147.398 42.66 146.701 41.8167 146.115 40.13C145.528 38.4433 145.235 36.1333 145.235 33.2C145.235 30.2667 145.675 27.7 146.555 25.5C147.508 23.2267 148.718 22.09 150.185 22.09H153.705V8.78C153.705 6.50666 155.905 4.67333 160.305 3.28C164.778 1.88666 169.141 1.19 173.395 1.19C180.068 1.19 183.405 2.84 183.405 6.14V22.09H191.545C193.451 22.09 194.405 24.84 194.405 30.34C194.405 33.9333 193.965 36.9033 193.085 39.25C192.278 41.5233 191.215 42.66 189.895 42.66H183.405V62.79C183.405 64.77 184.248 66.2 185.935 67.08C187.621 67.8867 189.088 68.29 190.335 68.29C191.655 68.29 192.461 68.9133 192.755 70.16C193.048 71.4067 193.195 73.2767 193.195 75.77C193.195 80.6833 192.535 83.7633 191.215 85.01ZM250.178 86.88C247.685 86.88 245.375 86.6233 243.248 86.11C241.122 85.5967 238.885 84.5333 236.538 82.92C234.265 81.2333 232.322 79.0333 230.708 76.32C227.042 70.16 225.208 60.8833 225.208 48.49C225.208 41.67 226.125 35.6567 227.958 30.45C229.792 25.2433 232.102 21.21 234.888 18.35C237.675 15.4167 241.012 13.0333 244.898 11.2C248.785 9.36666 252.415 8.19333 255.788 7.68C259.162 7.09333 262.755 6.8 266.568 6.8C275.368 6.8 281.565 7.57 285.158 9.10999C288.752 10.5767 290.548 13.4367 290.548 17.69C290.548 21.0633 289.925 24.73 288.678 28.69C287.432 32.5767 285.598 34.52 283.178 34.52C282.592 34.52 280.098 33.97 275.698 32.87C271.298 31.6967 267.998 31.11 265.798 31.11C259.492 31.11 256.338 36.4267 256.338 47.06C256.338 52.4133 257.072 56.41 258.538 59.05C260.005 61.6167 261.838 63.0467 264.038 63.34V53.44C264.038 51.6067 265.908 49.92 269.648 48.38C273.388 46.84 276.982 46.07 280.428 46.07C283.875 46.07 286.368 46.29 287.908 46.73C289.522 47.17 290.622 47.7933 291.208 48.6C292.235 49.92 292.748 51.0933 292.748 52.12V82.59C292.748 83.5433 290.805 84.3133 286.918 84.9C283.105 85.4867 279.108 85.78 274.928 85.78C270.822 85.78 268.218 85.5967 267.118 85.23C266.018 84.79 265.395 83.6533 265.248 81.82L264.478 75.33H263.598C263.085 78.4833 261.765 81.1967 259.638 83.47C257.585 85.7433 254.432 86.88 250.178 86.88ZM320.779 86.99C314.106 86.99 308.863 85.4133 305.049 82.26C303.509 80.94 302.153 78.9967 300.979 76.43C299.879 73.8633 299.329 70.8567 299.329 67.41C299.329 63.9633 300.136 60.9567 301.749 58.39C303.436 55.8233 305.453 53.8433 307.799 52.45C310.146 51.0567 312.896 49.92 316.049 49.04C320.816 47.7933 326.059 47.17 331.779 47.17H335.409C335.409 44.1633 334.383 42.0367 332.329 40.79C331.449 40.2767 330.093 40.02 328.259 40.02C326.499 40.02 324.336 40.4967 321.769 41.45C319.276 42.4033 317.186 43.3933 315.499 44.42C313.813 45.3733 312.676 45.85 312.089 45.85C310.769 45.85 308.973 44.1267 306.699 40.68C304.426 37.16 303.289 33.97 303.289 31.11C303.289 30.1567 304.646 28.91 307.359 27.37C310.073 25.83 313.886 24.4367 318.799 23.19C323.786 21.87 328.626 21.21 333.319 21.21C338.013 21.21 342.046 21.6133 345.419 22.42C348.866 23.1533 351.653 24.07 353.779 25.17C355.979 26.27 357.813 27.7367 359.279 29.57C360.819 31.4033 361.956 33.0533 362.689 34.52C363.496 35.9867 364.083 37.8933 364.449 40.24C364.963 42.9533 365.219 46.29 365.219 50.25V83.36C365.219 84.1667 363.239 84.8267 359.279 85.34C355.393 85.78 351.506 86 347.619 86C343.806 86 341.313 85.89 340.139 85.67C339.039 85.45 338.379 85.1933 338.159 84.9C337.939 84.6067 337.756 84.0933 337.609 83.36L336.729 77.09H335.849C334.016 83.69 328.993 86.99 320.779 86.99ZM335.519 68.73V55.86C333.613 55.86 332.073 56.6667 330.899 58.28C329.726 59.8933 329.139 61.7267 329.139 63.78C329.139 68.62 330.239 71.04 332.439 71.04C333.393 71.04 334.126 70.82 334.639 70.38C335.226 69.8667 335.519 69.3167 335.519 68.73ZM402.626 5.26V83.36C402.626 84.1667 400.536 84.8267 396.356 85.34C392.176 85.78 387.85 86 383.376 86C378.976 86 376.116 85.8167 374.796 85.45C373.55 85.01 372.926 84.3133 372.926 83.36V7.24C372.926 5.62666 374.98 4.05 379.086 2.50999C383.266 0.969995 387.74 0.199997 392.506 0.199997C399.253 0.199997 402.626 1.88666 402.626 5.26ZM440.009 5.26V83.36C440.009 84.1667 437.919 84.8267 433.739 85.34C429.559 85.78 425.232 86 420.759 86C416.359 86 413.499 85.8167 412.179 85.45C410.932 85.01 410.309 84.3133 410.309 83.36V7.24C410.309 5.62666 412.362 4.05 416.469 2.50999C420.649 0.969995 425.122 0.199997 429.889 0.199997C436.636 0.199997 440.009 1.88666 440.009 5.26ZM476.622 61.14C476.622 65.9067 478.895 68.29 483.442 68.29C486.082 68.29 489.528 67.41 493.782 65.65C498.035 63.8167 500.272 62.9 500.492 62.9C501.885 62.9 503.718 64.99 505.992 69.17C508.265 73.35 509.402 76.43 509.402 78.41C509.402 81.27 506.468 83.4333 500.602 84.9C494.735 86.3667 488.978 87.1 483.332 87.1C477.758 87.1 473.065 86.66 469.252 85.78C465.512 84.9 462.432 83.8 460.012 82.48C457.665 81.0867 455.575 79.4 453.742 77.42C451.982 75.44 450.662 73.57 449.782 71.81C448.902 69.9767 448.205 67.96 447.692 65.76C446.958 62.5333 446.592 59.1967 446.592 55.75C446.592 42.4033 450.075 33.2 457.042 28.14C460.488 25.5733 464.338 23.7767 468.592 22.75C472.845 21.7233 477.868 21.21 483.662 21.21C502.215 21.21 511.492 27.6633 511.492 40.57C511.492 54.2833 501.078 61.14 480.252 61.14H476.622ZM476.402 45.08V52.34C478.528 52.34 480.252 51.4967 481.572 49.81C482.965 48.1233 483.662 46.07 483.662 43.65C483.662 39.25 482.525 37.05 480.252 37.05C477.685 37.05 476.402 39.7267 476.402 45.08ZM547.753 51.24V83.36C547.753 84.1667 545.663 84.8267 541.483 85.34C537.376 85.78 533.086 86 528.613 86C524.213 86 521.353 85.8167 520.033 85.45C518.713 85.01 518.053 84.3133 518.053 83.36V29.13C518.053 27.7367 520.07 26.2333 524.103 24.62C528.21 23.0067 532.646 22.2 537.413 22.2C542.253 22.2 544.966 23.52 545.553 26.16L546.653 31.22H547.423C548.45 28.4333 550.906 26.0867 554.793 24.18C558.68 22.2 562.566 21.21 566.453 21.21C570.34 21.21 573.053 21.8333 574.593 23.08C576.206 24.3267 577.013 25.94 577.013 27.92C577.013 29.8267 576.866 32.2833 576.573 35.29C576.28 38.2967 575.546 41.56 574.373 45.08C573.273 48.6 571.806 50.36 569.973 50.36C569.24 50.36 566.93 49.81 563.043 48.71C559.156 47.61 555.93 47.06 553.363 47.06C550.87 47.06 549.293 47.4267 548.633 48.16C548.046 48.8933 547.753 49.92 547.753 51.24ZM619.576 78.85V72.36H618.696C618.33 72.7267 617.78 73.2033 617.046 73.79C616.313 74.3767 614.59 75.1467 611.876 76.1C609.163 77.0533 606.12 77.53 602.746 77.53C599.446 77.53 596.513 77.0167 593.946 75.99C591.453 74.89 589.473 73.46 588.006 71.7C586.54 69.8667 585.403 67.4467 584.596 64.44C583.203 59.6733 582.506 52.9267 582.506 44.2V29.02C582.506 27.48 584.67 25.9767 588.996 24.51C593.323 22.97 597.87 22.2 602.636 22.2C609.016 22.2 612.206 23.85 612.206 27.15V41.01C612.206 55.6767 613.38 63.01 615.726 63.01C617.12 63.01 617.816 62.02 617.816 60.04V29.02C617.816 27.48 620.126 25.9767 624.746 24.51C629.366 22.97 634.316 22.2 639.596 22.2C644.876 22.2 647.516 23.63 647.516 26.49V78.52C647.516 94.8733 636.443 103.05 614.296 103.05C602.636 103.05 594.716 101.913 590.536 99.64C588.703 98.6133 587.786 97.55 587.786 96.45C587.786 94.69 588.52 91.72 589.986 87.54C591.453 83.4333 592.81 81.38 594.056 81.38C594.35 81.38 595.376 81.6 597.136 82.04C602.563 83.5067 607.073 84.24 610.666 84.24C614.333 84.24 616.716 83.8367 617.816 83.03C618.99 82.2233 619.576 80.83 619.576 78.85Z" fill="#A06EB1"/>
</svg>
