<svg width="177" height="75" viewBox="0 0 177 75" fill="none" xmlns="http://www.w3.org/2000/svg">
<rect width="177" height="75" fill="#724319" fill-opacity="0.5"/>
<path d="M49.1116 50.28C48.1783 50.28 47.1516 50.2333 46.0316 50.14C44.9116 50.0467 43.92 49.93 43.0566 49.79V47.025C45.0633 47.2817 46.755 47.41 48.1316 47.41C49.0183 47.41 49.7183 47.3517 50.2316 47.235C50.7683 47.095 51.1883 46.8733 51.4916 46.57C51.7716 46.29 51.9583 45.8933 52.0516 45.38C52.145 44.8667 52.1916 44.19 52.1916 43.35C52.1916 42.2067 52.1333 41.4017 52.0166 40.935C51.9233 40.445 51.69 40.1067 51.3166 39.92C50.9666 39.71 50.3483 39.535 49.4616 39.395L45.6816 38.765C44.4216 38.555 43.5816 37.96 43.1616 36.98C42.765 35.9767 42.5666 34.4717 42.5666 32.465C42.5666 29.945 43.1033 28.1833 44.1766 27.18C45.2733 26.1533 46.9533 25.64 49.2166 25.64C50.1966 25.64 51.1766 25.6983 52.1566 25.815C53.16 25.9083 53.965 26.0367 54.5716 26.2V28.895C53.0783 28.6383 51.5616 28.51 50.0216 28.51C49.065 28.51 48.3183 28.58 47.7816 28.72C47.245 28.86 46.8366 29.0817 46.5566 29.385C46.2766 29.6883 46.09 30.0733 45.9966 30.54C45.9033 31.0067 45.8566 31.625 45.8566 32.395C45.8566 33.375 45.9033 34.0867 45.9966 34.53C46.09 34.95 46.265 35.2533 46.5216 35.44C46.8016 35.6033 47.2566 35.7317 47.8866 35.825L51.4566 36.42C52.39 36.5833 53.1366 36.8517 53.6966 37.225C54.28 37.575 54.735 38.17 55.0616 39.01C55.3416 39.8033 55.4816 41.1217 55.4816 42.965C55.4816 44.855 55.26 46.3367 54.8166 47.41C54.3966 48.46 53.7316 49.2067 52.8216 49.65C51.9116 50.07 50.675 50.28 49.1116 50.28ZM72.575 25.92V39.465C72.575 42.615 72.435 44.9017 72.155 46.325C71.8984 47.7483 71.2917 48.7633 70.335 49.37C69.4017 49.9767 67.8617 50.28 65.715 50.28C63.5917 50.28 62.0517 49.9767 61.095 49.37C60.1617 48.7633 59.555 47.7483 59.275 46.325C58.995 44.8783 58.855 42.5917 58.855 39.465V25.92H62.18V40.76C62.18 42.8367 62.2384 44.3067 62.355 45.17C62.495 46.01 62.7984 46.5933 63.265 46.92C63.755 47.2467 64.5717 47.41 65.715 47.41C66.8584 47.41 67.6634 47.2467 68.13 46.92C68.62 46.5933 68.9234 46.01 69.04 45.17C69.18 44.3067 69.25 42.8367 69.25 40.76V25.92H72.575ZM76.8718 25.92H84.4668C86.4268 25.92 87.8502 26.4333 88.7368 27.46C89.6235 28.4633 90.0668 29.9683 90.0668 31.975C90.0668 33.6317 89.7868 34.915 89.2268 35.825C88.6668 36.735 87.7918 37.3417 86.6018 37.645V37.785C87.9785 38.0883 88.9352 38.7183 89.4718 39.675C90.0085 40.6083 90.2768 41.9267 90.2768 43.63C90.2768 45.6367 89.8335 47.2 88.9468 48.32C88.0835 49.44 86.5552 50 84.3618 50H76.8718V25.92ZM83.5218 36.385C84.6652 36.385 85.4818 36.105 85.9718 35.545C86.4852 34.9617 86.7418 33.9817 86.7418 32.605C86.7418 31.6017 86.6485 30.8317 86.4618 30.295C86.2985 29.7583 85.9835 29.3733 85.5168 29.14C85.0502 28.9067 84.3852 28.79 83.5218 28.79H80.1618V36.385H83.5218ZM83.6268 47.165C84.5135 47.165 85.1902 47.0483 85.6568 46.815C86.1468 46.5583 86.4852 46.15 86.6718 45.59C86.8585 45.03 86.9518 44.2367 86.9518 43.21C86.9518 41.7167 86.7068 40.6783 86.2168 40.095C85.7268 39.5117 84.8635 39.22 83.6268 39.22H80.1618V47.165H83.6268ZM109.851 50V31.135H109.676L104.986 50H101.941L97.3209 31.135H97.1109V50H93.9959V25.92H98.8609L103.446 44.505H103.656L108.241 25.92H113.036V50H109.851ZM117.581 50V25.92H120.906V50H117.581ZM128.801 50V28.86H123.691V25.92H137.201V28.86H132.091V50H128.801Z" fill="white"/>
</svg>
