<svg width="744" height="166" viewBox="0 0 744 166" fill="none" xmlns="http://www.w3.org/2000/svg">
<path d="M178.42 116.64C176.82 117.813 174.58 118.8 171.7 119.6C168.873 120.347 165.193 120.72 160.66 120.72C156.18 120.72 151.913 120.347 147.86 119.6C143.807 118.853 140.9 118.027 139.14 117.12C137.38 116.213 136.5 115.333 136.5 114.48C136.5 111.493 136.927 108.4 137.78 105.2C138.633 101.947 139.647 100.32 140.82 100.32C141.033 100.32 143.247 101.04 147.46 102.48C151.673 103.92 154.847 104.64 156.98 104.64C159.113 104.64 160.5 104.427 161.14 104C161.78 103.52 162.1 102.853 162.1 102C162.1 101.147 161.513 100.4 160.34 99.76C159.167 99.0667 157.7 98.48 155.94 98C154.18 97.4667 152.26 96.72 150.18 95.76C148.153 94.8 146.26 93.7333 144.5 92.56C142.74 91.3867 141.273 89.7333 140.1 87.6C138.927 85.4133 138.34 82.9333 138.34 80.16C138.34 68.32 145.407 62.4 159.54 62.4C164.82 62.4 169.38 62.7467 173.22 63.44C177.06 64.08 179.753 64.8267 181.3 65.68C182.9 66.48 183.7 67.28 183.7 68.08C183.7 70.8533 183.033 73.84 181.7 77.04C180.42 80.24 179.167 81.84 177.94 81.84C177.727 81.84 177.033 81.6 175.86 81.12C172.34 79.5733 169.407 78.8 167.06 78.8C164.767 78.8 163.193 79.0133 162.34 79.44C161.54 79.8667 161.14 80.5333 161.14 81.44C161.14 82.2933 161.727 83.0133 162.9 83.6C164.073 84.1333 165.513 84.64 167.22 85.12C168.98 85.5467 170.873 86.24 172.9 87.2C174.98 88.1067 176.9 89.2 178.66 90.48C180.42 91.7067 181.887 93.4667 183.06 95.76C184.233 98.0533 184.82 100.72 184.82 103.76C184.82 106.96 183.993 109.867 182.34 112.48C181.327 114.08 180.02 115.467 178.42 116.64ZM204.844 120.72C199.99 120.72 196.177 119.573 193.404 117.28C192.284 116.32 191.297 114.907 190.444 113.04C189.644 111.173 189.244 108.987 189.244 106.48C189.244 103.973 189.83 101.787 191.004 99.92C192.23 98.0533 193.697 96.6133 195.404 95.6C197.11 94.5867 199.11 93.76 201.404 93.12C204.87 92.2133 208.684 91.76 212.844 91.76H215.484C215.484 89.5733 214.737 88.0267 213.244 87.12C212.604 86.7467 211.617 86.56 210.284 86.56C209.004 86.56 207.43 86.9067 205.564 87.6C203.75 88.2933 202.23 89.0133 201.004 89.76C199.777 90.4533 198.95 90.8 198.524 90.8C197.564 90.8 196.257 89.5467 194.604 87.04C192.95 84.48 192.124 82.16 192.124 80.08C192.124 79.3867 193.11 78.48 195.084 77.36C197.057 76.24 199.83 75.2267 203.404 74.32C207.03 73.36 210.55 72.88 213.964 72.88C217.377 72.88 220.31 73.1733 222.764 73.76C225.27 74.2933 227.297 74.96 228.844 75.76C230.444 76.56 231.777 77.6267 232.844 78.96C233.964 80.2933 234.79 81.4933 235.324 82.56C235.91 83.6267 236.337 85.0133 236.604 86.72C236.977 88.6933 237.164 91.12 237.164 94V118.08C237.164 118.667 235.724 119.147 232.844 119.52C230.017 119.84 227.19 120 224.364 120C221.59 120 219.777 119.92 218.924 119.76C218.124 119.6 217.644 119.413 217.484 119.2C217.324 118.987 217.19 118.613 217.084 118.08L216.444 113.52H215.804C214.47 118.32 210.817 120.72 204.844 120.72ZM215.564 107.44V98.08C214.177 98.08 213.057 98.6667 212.204 99.84C211.35 101.013 210.924 102.347 210.924 103.84C210.924 107.36 211.724 109.12 213.324 109.12C214.017 109.12 214.55 108.96 214.924 108.64C215.35 108.267 215.564 107.867 215.564 107.44ZM240.369 79.28C240.369 78.7467 241.142 78.0533 242.689 77.2C244.235 76.2933 246.342 75.4667 249.009 74.72C251.675 73.9733 254.289 73.6 256.849 73.6C262.022 73.6 264.689 74.8533 264.849 77.36L266.849 102.8H267.889L269.649 78.64C269.755 77.3067 271.595 76.1333 275.169 75.12C278.742 74.1067 281.889 73.6 284.609 73.6C287.329 73.6 289.355 73.84 290.689 74.32C292.075 74.8 292.955 75.3067 293.329 75.84C293.702 76.32 293.889 76.7467 293.889 77.12C293.889 77.4933 292.742 80.24 290.449 85.36C288.209 90.48 283.702 101.387 276.929 118.08C276.395 119.36 272.049 120 263.889 120C261.329 120 259.649 119.867 258.849 119.6C258.049 119.28 257.515 118.773 257.249 118.08C253.569 108.8 249.835 100.08 246.049 91.92C242.262 83.7067 240.369 79.4933 240.369 79.28ZM318.106 101.92C318.106 105.387 319.759 107.12 323.066 107.12C324.986 107.12 327.492 106.48 330.586 105.2C333.679 103.867 335.306 103.2 335.466 103.2C336.479 103.2 337.812 104.72 339.466 107.76C341.119 110.8 341.946 113.04 341.946 114.48C341.946 116.56 339.812 118.133 335.546 119.2C331.279 120.267 327.092 120.8 322.986 120.8C318.932 120.8 315.519 120.48 312.746 119.84C310.026 119.2 307.786 118.4 306.026 117.44C304.319 116.427 302.799 115.2 301.466 113.76C300.186 112.32 299.226 110.96 298.586 109.68C297.946 108.347 297.439 106.88 297.066 105.28C296.532 102.933 296.266 100.507 296.266 98C296.266 88.2933 298.799 81.6 303.866 77.92C306.372 76.0533 309.172 74.7467 312.266 74C315.359 73.2533 319.012 72.88 323.226 72.88C336.719 72.88 343.466 77.5733 343.466 86.96C343.466 96.9333 335.892 101.92 320.746 101.92H318.106ZM317.946 90.24V95.52C319.492 95.52 320.746 94.9067 321.706 93.68C322.719 92.4533 323.226 90.96 323.226 89.2C323.226 86 322.399 84.4 320.746 84.4C318.879 84.4 317.946 86.3467 317.946 90.24ZM381.406 120.72C376.553 120.72 372.74 119.573 369.966 117.28C368.846 116.32 367.86 114.907 367.006 113.04C366.206 111.173 365.806 108.987 365.806 106.48C365.806 103.973 366.393 101.787 367.566 99.92C368.793 98.0533 370.26 96.6133 371.966 95.6C373.673 94.5867 375.673 93.76 377.966 93.12C381.433 92.2133 385.246 91.76 389.406 91.76H392.046C392.046 89.5733 391.3 88.0267 389.806 87.12C389.166 86.7467 388.18 86.56 386.846 86.56C385.566 86.56 383.993 86.9067 382.126 87.6C380.313 88.2933 378.793 89.0133 377.566 89.76C376.34 90.4533 375.513 90.8 375.086 90.8C374.126 90.8 372.82 89.5467 371.166 87.04C369.513 84.48 368.686 82.16 368.686 80.08C368.686 79.3867 369.673 78.48 371.646 77.36C373.62 76.24 376.393 75.2267 379.966 74.32C383.593 73.36 387.113 72.88 390.526 72.88C393.94 72.88 396.873 73.1733 399.326 73.76C401.833 74.2933 403.86 74.96 405.406 75.76C407.006 76.56 408.34 77.6267 409.406 78.96C410.526 80.2933 411.353 81.4933 411.886 82.56C412.473 83.6267 412.9 85.0133 413.166 86.72C413.54 88.6933 413.726 91.12 413.726 94V118.08C413.726 118.667 412.286 119.147 409.406 119.52C406.58 119.84 403.753 120 400.926 120C398.153 120 396.34 119.92 395.486 119.76C394.686 119.6 394.206 119.413 394.046 119.2C393.886 118.987 393.753 118.613 393.646 118.08L393.006 113.52H392.366C391.033 118.32 387.38 120.72 381.406 120.72ZM392.126 107.44V98.08C390.74 98.08 389.62 98.6667 388.766 99.84C387.913 101.013 387.486 102.347 387.486 103.84C387.486 107.36 388.286 109.12 389.886 109.12C390.58 109.12 391.113 108.96 391.486 108.64C391.913 108.267 392.126 107.867 392.126 107.44ZM458.9 61.28V118.08C458.9 118.667 457.38 119.147 454.34 119.52C451.3 119.84 448.153 120 444.9 120C441.7 120 439.62 119.867 438.66 119.6C437.753 119.28 437.3 118.773 437.3 118.08V62.72C437.3 61.5467 438.793 60.4 441.78 59.28C444.82 58.16 448.073 57.6 451.54 57.6C456.447 57.6 458.9 58.8267 458.9 61.28ZM486.488 78.64V118.08C486.488 118.667 484.941 119.147 481.848 119.52C478.808 119.84 475.661 120 472.408 120C469.208 120 467.128 119.867 466.168 119.6C465.261 119.28 464.808 118.773 464.808 118.08V80.08C464.808 78.9067 466.301 77.76 469.288 76.64C472.328 75.4667 475.634 74.88 479.208 74.88C484.061 74.88 486.488 76.1333 486.488 78.64ZM475.608 57.6C479.128 57.6 481.874 58.1333 483.848 59.2C485.874 60.2133 486.888 62.08 486.888 64.8C486.888 69.6 483.154 72 475.688 72C468.221 72 464.488 69.6 464.488 64.8C464.488 60 468.194 57.6 475.608 57.6ZM518.296 93.6V118.08C518.296 118.667 516.83 119.147 513.896 119.52C510.963 119.84 507.363 120 503.096 120C498.83 120 496.696 119.36 496.696 118.08V93.6H492.616C491.176 93.6 490.456 91.1733 490.456 86.32C490.456 84.4 490.776 82.6133 491.416 80.96C492.11 79.2533 492.99 78.4 494.056 78.4H496.696C496.696 74.8267 497.203 71.7067 498.216 69.04C499.283 66.3733 500.536 64.3467 501.976 62.96C503.47 61.52 505.256 60.3733 507.336 59.52C510.43 58.24 513.95 57.6 517.896 57.6C527.816 57.6 532.776 59.2267 532.776 62.48C532.776 66 532.43 68.88 531.736 71.12C531.043 73.36 530.11 74.48 528.936 74.48C528.456 74.48 527.55 74.32 526.216 74C524.936 73.6267 523.71 73.44 522.536 73.44C519.443 73.44 517.896 74.5067 517.896 76.64C517.896 77.1733 518.03 77.76 518.296 78.4H528.936C530.376 78.4 531.096 80.7467 531.096 85.44C531.096 87.52 530.776 89.4133 530.136 91.12C529.55 92.7733 528.75 93.6 527.736 93.6H518.296ZM558.184 101.92C558.184 105.387 559.837 107.12 563.144 107.12C565.064 107.12 567.57 106.48 570.664 105.2C573.757 103.867 575.384 103.2 575.544 103.2C576.557 103.2 577.89 104.72 579.544 107.76C581.197 110.8 582.024 113.04 582.024 114.48C582.024 116.56 579.89 118.133 575.624 119.2C571.357 120.267 567.17 120.8 563.064 120.8C559.01 120.8 555.597 120.48 552.824 119.84C550.104 119.2 547.864 118.4 546.104 117.44C544.397 116.427 542.877 115.2 541.544 113.76C540.264 112.32 539.304 110.96 538.664 109.68C538.024 108.347 537.517 106.88 537.144 105.28C536.61 102.933 536.344 100.507 536.344 98C536.344 88.2933 538.877 81.6 543.944 77.92C546.45 76.0533 549.25 74.7467 552.344 74C555.437 73.2533 559.09 72.88 563.304 72.88C576.797 72.88 583.544 77.5733 583.544 86.96C583.544 96.9333 575.97 101.92 560.824 101.92H558.184ZM558.024 90.24V95.52C559.57 95.52 560.824 94.9067 561.784 93.68C562.797 92.4533 563.304 90.96 563.304 89.2C563.304 86 562.477 84.4 560.824 84.4C558.957 84.4 558.024 86.3467 558.024 90.24ZM605.756 112.48C605.756 115.627 605.036 117.787 603.596 118.96C602.156 120.133 600.022 120.72 597.196 120.72C594.422 120.72 592.316 120.133 590.876 118.96C589.436 117.787 588.716 115.627 588.716 112.48C588.716 109.333 589.436 107.253 590.876 106.24C592.369 105.173 594.502 104.64 597.276 104.64C600.049 104.64 602.156 105.173 603.596 106.24C605.036 107.253 605.756 109.333 605.756 112.48Z" fill="#A06EB1"/>
</svg>
