<svg width="298" height="982" viewBox="0 0 298 982" fill="none" xmlns="http://www.w3.org/2000/svg">
<path d="M275.983 114.828C290.204 131.511 294.111 149.32 289.266 163.635C284.578 177.95 271.139 188.771 256.918 201.17C242.698 213.456 227.696 227.321 202.067 234.873C176.595 242.312 140.653 243.552 116.899 231.153C93.1463 218.867 81.5822 192.942 82.0511 167.468C82.6761 141.993 95.4904 116.857 119.244 100.175C142.997 83.4929 177.845 75.1518 207.38 78.7587C237.072 82.4784 261.763 98.1462 275.983 114.828Z" fill="#F4A3B0"/>
<ellipse cx="24.926" cy="111.647" rx="24.2473" ry="22.0049" fill="#F4A3B0"/>
<ellipse cx="88.2498" cy="44.5674" rx="24.2473" ry="22.0049" fill="#F4A3B0"/>
<ellipse cx="273.01" cy="50.9556" rx="24.2473" ry="22.0049" fill="#F4A3B0"/>
<ellipse cx="170.811" cy="22.5625" rx="24.2473" ry="22.0049" fill="#F4A3B0"/>
<path d="M104.745 225.224C100.507 231.045 99.3431 237.259 100.787 242.254C102.184 247.249 106.189 251.025 110.426 255.351C114.664 259.639 119.134 264.476 126.772 267.111C134.362 269.707 145.073 270.14 152.151 265.814C159.229 261.526 162.675 252.48 162.536 243.591C162.349 234.702 158.531 225.932 151.453 220.111C144.374 214.29 133.99 211.379 125.188 212.638C116.34 213.936 108.983 219.403 104.745 225.224Z" fill="#89264D"/>
<ellipse cx="7.22556" cy="7.67832" rx="7.22556" ry="7.67832" transform="matrix(-1 0 0 1 186.784 216.435)" fill="#89264D"/>
<ellipse cx="7.22556" cy="7.67832" rx="7.22556" ry="7.67832" transform="matrix(-1 0 0 1 167.914 193.028)" fill="#89264D"/>
<ellipse cx="7.22556" cy="7.67832" rx="7.22556" ry="7.67832" transform="matrix(-1 0 0 1 112.856 195.258)" fill="#89264D"/>
<ellipse cx="7.22556" cy="7.67832" rx="7.22556" ry="7.67832" transform="matrix(-1 0 0 1 143.311 185.35)" fill="#89264D"/>
<path d="M201.34 367.873C197.102 373.694 195.938 379.908 197.381 384.904C198.778 389.899 202.783 393.674 207.021 398.001C211.259 402.288 215.729 407.126 223.366 409.761C230.957 412.357 241.667 412.789 248.746 408.463C255.824 404.176 259.27 395.13 259.13 386.241C258.944 377.352 255.126 368.581 248.047 362.76C240.969 356.939 230.584 354.028 221.783 355.287C212.935 356.585 205.577 362.052 201.34 367.873Z" fill="#89264D"/>
<ellipse cx="7.22556" cy="7.67832" rx="7.22556" ry="7.67832" transform="matrix(-1 0 0 1 283.379 359.084)" fill="#89264D"/>
<ellipse cx="7.22556" cy="7.67832" rx="7.22556" ry="7.67832" transform="matrix(-1 0 0 1 264.509 335.678)" fill="#89264D"/>
<ellipse cx="7.22556" cy="7.67832" rx="7.22556" ry="7.67832" transform="matrix(-1 0 0 1 209.451 337.907)" fill="#89264D"/>
<ellipse cx="7.22556" cy="7.67832" rx="7.22556" ry="7.67832" transform="matrix(-1 0 0 1 239.906 328)" fill="#89264D"/>
<path d="M70.3397 481.874C66.1021 487.695 64.9379 493.909 66.3815 498.904C67.7785 503.899 71.7833 507.675 76.021 512.001C80.2587 516.288 84.7292 521.126 92.3663 523.761C99.9569 526.357 110.667 526.79 117.746 522.463C124.824 518.176 128.27 509.13 128.13 500.241C127.944 491.352 124.126 482.581 117.047 476.76C109.969 470.939 99.5843 468.029 90.783 469.287C81.9351 470.585 74.5774 476.052 70.3397 481.874Z" fill="#89264D"/>
<ellipse cx="7.22556" cy="7.67832" rx="7.22556" ry="7.67832" transform="matrix(-1 0 0 1 152.379 473.085)" fill="#89264D"/>
<ellipse cx="7.22556" cy="7.67832" rx="7.22556" ry="7.67832" transform="matrix(-1 0 0 1 133.509 449.678)" fill="#89264D"/>
<ellipse cx="7.22556" cy="7.67832" rx="7.22556" ry="7.67832" transform="matrix(-1 0 0 1 78.4512 451.908)" fill="#89264D"/>
<ellipse cx="7.22556" cy="7.67832" rx="7.22556" ry="7.67832" transform="matrix(-1 0 0 1 108.906 442)" fill="#89264D"/>
<path d="M183.34 652.874C179.102 658.695 177.938 664.909 179.381 669.904C180.778 674.899 184.783 678.675 189.021 683.001C193.259 687.288 197.729 692.126 205.366 694.761C212.957 697.357 223.667 697.79 230.746 693.463C237.824 689.176 241.27 680.13 241.13 671.241C240.944 662.352 237.126 653.581 230.047 647.76C222.969 641.939 212.584 639.029 203.783 640.287C194.935 641.585 187.577 647.052 183.34 652.874Z" fill="#89264D"/>
<ellipse cx="7.22556" cy="7.67832" rx="7.22556" ry="7.67832" transform="matrix(-1 0 0 1 265.379 644.085)" fill="#89264D"/>
<ellipse cx="7.22556" cy="7.67832" rx="7.22556" ry="7.67832" transform="matrix(-1 0 0 1 246.509 620.678)" fill="#89264D"/>
<ellipse cx="7.22556" cy="7.67832" rx="7.22556" ry="7.67832" transform="matrix(-1 0 0 1 191.451 622.908)" fill="#89264D"/>
<ellipse cx="7.22556" cy="7.67832" rx="7.22556" ry="7.67832" transform="matrix(-1 0 0 1 221.906 613)" fill="#89264D"/>
<path d="M60.3395 791.874C56.1018 797.695 54.9376 803.909 56.3812 808.904C57.7783 813.899 61.7831 817.675 66.0208 822.001C70.2584 826.288 74.729 831.126 82.3661 833.761C89.9566 836.357 100.667 836.79 107.746 832.463C114.824 828.176 118.27 819.13 118.13 810.241C117.944 801.352 114.125 792.581 107.047 786.76C99.9687 780.939 89.5841 778.029 80.7828 779.287C71.9349 780.585 64.5772 786.052 60.3395 791.874Z" fill="#89264D"/>
<ellipse cx="7.22556" cy="7.67832" rx="7.22556" ry="7.67832" transform="matrix(-1 0 0 1 142.379 783.085)" fill="#89264D"/>
<ellipse cx="7.22556" cy="7.67832" rx="7.22556" ry="7.67832" transform="matrix(-1 0 0 1 123.509 759.678)" fill="#89264D"/>
<ellipse cx="7.22556" cy="7.67832" rx="7.22556" ry="7.67832" transform="matrix(-1 0 0 1 68.4509 761.908)" fill="#89264D"/>
<ellipse cx="7.22556" cy="7.67832" rx="7.22556" ry="7.67832" transform="matrix(-1 0 0 1 98.9058 752)" fill="#89264D"/>
<path d="M183.34 937.873C179.103 943.694 177.938 949.908 179.382 954.904C180.779 959.899 184.784 963.674 189.021 968.001C193.259 972.288 197.73 977.126 205.367 979.761C212.957 982.357 223.668 982.789 230.746 978.463C237.825 974.176 241.271 965.13 241.131 956.241C240.945 947.352 237.126 938.581 230.048 932.76C222.969 926.939 212.585 924.028 203.784 925.287C194.936 926.585 187.578 932.052 183.34 937.873Z" fill="#89264D"/>
<path d="M183.34 937.873C179.103 943.694 177.938 949.908 179.382 954.904C180.779 959.899 184.784 963.674 189.021 968.001C193.259 972.288 197.73 977.126 205.367 979.761C212.957 982.357 223.668 982.789 230.746 978.463C237.825 974.176 241.271 965.13 241.131 956.241C240.945 947.352 237.126 938.581 230.048 932.76C222.969 926.939 212.585 924.028 203.784 925.287C194.936 926.585 187.578 932.052 183.34 937.873Z" fill="#89264D"/>
<path d="M250.928 936.763C250.928 941.003 254.163 944.441 258.154 944.441C262.144 944.441 265.379 941.003 265.379 936.763C265.379 932.522 262.144 929.084 258.154 929.084C254.163 929.084 250.928 932.522 250.928 936.763Z" fill="#89264D"/>
<path d="M232.058 913.356C232.058 917.596 235.293 921.034 239.284 921.034C243.275 921.034 246.51 917.596 246.51 913.356C246.51 909.115 243.275 905.677 239.284 905.677C235.293 905.677 232.058 909.115 232.058 913.356Z" fill="#89264D"/>
<path d="M177 915.586C177 919.826 180.235 923.264 184.226 923.264C188.216 923.264 191.451 919.826 191.451 915.586C191.451 911.345 188.216 907.907 184.226 907.907C180.235 907.907 177 911.345 177 915.586Z" fill="#89264D"/>
<path d="M207.455 905.678C207.455 909.918 210.69 913.356 214.681 913.356C218.672 913.356 221.906 909.918 221.906 905.678C221.906 901.437 218.672 898 214.681 898C210.69 898 207.455 901.437 207.455 905.678Z" fill="#89264D"/>
<path d="M250.928 936.763C250.928 941.003 254.163 944.441 258.154 944.441C262.144 944.441 265.379 941.003 265.379 936.763C265.379 932.522 262.144 929.084 258.154 929.084C254.163 929.084 250.928 932.522 250.928 936.763Z" fill="#89264D"/>
<path d="M232.058 913.356C232.058 917.596 235.293 921.034 239.284 921.034C243.275 921.034 246.51 917.596 246.51 913.356C246.51 909.115 243.275 905.677 239.284 905.677C235.293 905.677 232.058 909.115 232.058 913.356Z" fill="#89264D"/>
<path d="M177 915.586C177 919.826 180.235 923.264 184.226 923.264C188.216 923.264 191.451 919.826 191.451 915.586C191.451 911.345 188.216 907.907 184.226 907.907C180.235 907.907 177 911.345 177 915.586Z" fill="#89264D"/>
<path d="M207.455 905.678C207.455 909.918 210.69 913.356 214.681 913.356C218.672 913.356 221.906 909.918 221.906 905.678C221.906 901.437 218.672 898 214.681 898C210.69 898 207.455 901.437 207.455 905.678Z" fill="#89264D"/>
</svg>
