<svg width="469" height="34" viewBox="0 0 469 34" fill="none" xmlns="http://www.w3.org/2000/svg">
<path d="M10.13 26.985C10.13 27.2883 9.41833 27.5333 7.995 27.72C6.57167 27.9067 5.14833 28 3.725 28C2.30167 28 1.39167 27.9183 0.995 27.755C0.598333 27.5917 0.4 27.335 0.4 26.985V4.48C0.4 3.36 3.76 2.8 10.48 2.8C14.54 2.8 17.2233 3.08 18.53 3.64C20.1167 4.29333 21.19 5.18 21.75 6.3C22.4967 7.74667 22.87 9.60167 22.87 11.865C22.87 14.9683 22.3333 17.22 21.26 18.62C20.49 19.6467 19.72 20.3117 18.95 20.615C18.18 20.9183 17.5383 21.14 17.025 21.28C16.535 21.3967 15.9167 21.49 15.17 21.56C14.1433 21.6533 12.7433 21.7 10.97 21.7L10.13 21.665V26.985ZM10.165 15.855H11.005C11.4483 15.855 11.7983 15.7967 12.055 15.68C12.3117 15.54 12.5333 15.19 12.72 14.63C12.93 14.0467 13.035 13.2417 13.035 12.215C13.035 11.165 12.9183 10.3717 12.685 9.835C12.475 9.275 12.2533 8.94833 12.02 8.855C11.81 8.73833 11.5533 8.68 11.25 8.68H10.165V15.855ZM34.4211 2.31V27.16C34.4211 27.4167 33.7561 27.6267 32.4261 27.79C31.0961 27.93 29.7194 28 28.2961 28C26.8961 28 25.9861 27.9417 25.5661 27.825C25.1694 27.685 24.9711 27.4633 24.9711 27.16V2.94C24.9711 2.42667 25.6244 1.925 26.9311 1.435C28.2611 0.944999 29.6844 0.699999 31.2011 0.699999C33.3478 0.699999 34.4211 1.23667 34.4211 2.31ZM43.5156 28.315C41.3923 28.315 39.724 27.8133 38.5106 26.81C38.0206 26.39 37.589 25.7717 37.2156 24.955C36.8656 24.1383 36.6906 23.1817 36.6906 22.085C36.6906 20.9883 36.9473 20.0317 37.4606 19.215C37.9973 18.3983 38.639 17.7683 39.3856 17.325C40.1323 16.8817 41.0073 16.52 42.0106 16.24C43.5273 15.8433 45.1956 15.645 47.0156 15.645H48.1706C48.1706 14.6883 47.844 14.0117 47.1906 13.615C46.9106 13.4517 46.479 13.37 45.8956 13.37C45.3356 13.37 44.6473 13.5217 43.8306 13.825C43.0373 14.1283 42.3723 14.4433 41.8356 14.77C41.299 15.0733 40.9373 15.225 40.7506 15.225C40.3306 15.225 39.759 14.6767 39.0356 13.58C38.3123 12.46 37.9506 11.445 37.9506 10.535C37.9506 10.2317 38.3823 9.835 39.2456 9.345C40.109 8.855 41.3223 8.41167 42.8856 8.015C44.4723 7.595 46.0123 7.385 47.5056 7.385C48.999 7.385 50.2823 7.51333 51.3556 7.77C52.4523 8.00333 53.339 8.295 54.0156 8.645C54.7156 8.995 55.299 9.46167 55.7656 10.045C56.2556 10.6283 56.6173 11.1533 56.8506 11.62C57.1073 12.0867 57.294 12.6933 57.4106 13.44C57.574 14.3033 57.6556 15.365 57.6556 16.625V27.16C57.6556 27.4167 57.0256 27.6267 55.7656 27.79C54.529 27.93 53.2923 28 52.0556 28C50.8423 28 50.049 27.965 49.6756 27.895C49.3256 27.825 49.1156 27.7433 49.0456 27.65C48.9756 27.5567 48.9173 27.3933 48.8706 27.16L48.5906 25.165H48.3106C47.7273 27.265 46.129 28.315 43.5156 28.315ZM48.2056 22.505V18.41C47.599 18.41 47.109 18.6667 46.7356 19.18C46.3623 19.6933 46.1756 20.2767 46.1756 20.93C46.1756 22.47 46.5256 23.24 47.2256 23.24C47.529 23.24 47.7623 23.17 47.9256 23.03C48.1123 22.8667 48.2056 22.6917 48.2056 22.505ZM81.2128 16.38V27.16C81.2128 27.4167 80.5478 27.6267 79.2178 27.79C77.8878 27.93 76.5111 28 75.0878 28C73.6878 28 72.7778 27.9417 72.3578 27.825C71.9611 27.685 71.7628 27.4633 71.7628 27.16V16.03C71.7628 14.98 71.7161 14.2917 71.6228 13.965C71.5528 13.6383 71.4828 13.3467 71.4128 13.09C71.2495 12.6467 70.9578 12.425 70.5378 12.425C69.8845 12.425 69.5578 12.74 69.5578 13.37V27.16C69.5578 27.4167 68.8928 27.6267 67.5628 27.79C66.2561 27.93 64.8911 28 63.4678 28C62.0678 28 61.1578 27.9417 60.7378 27.825C60.3178 27.685 60.1078 27.4633 60.1078 27.16V9.905C60.1078 9.415 60.7728 8.925 62.1028 8.435C63.4561 7.945 64.8795 7.7 66.3728 7.7C67.8661 7.7 68.7061 8.13167 68.8928 8.995L69.2078 10.535H69.4528C70.1295 9.18167 71.2961 8.23667 72.9528 7.7C73.6295 7.49 74.3761 7.385 75.1928 7.385C77.5495 7.385 79.1361 8.09667 79.9528 9.52C80.7928 10.92 81.2128 13.2067 81.2128 16.38ZM91.2876 24.71C91.2876 26.0867 90.9726 27.0317 90.3426 27.545C89.7126 28.0583 88.7793 28.315 87.5426 28.315C86.3293 28.315 85.4076 28.0583 84.7776 27.545C84.1476 27.0317 83.8326 26.0867 83.8326 24.71C83.8326 23.3333 84.1476 22.4233 84.7776 21.98C85.431 21.5133 86.3643 21.28 87.5776 21.28C88.791 21.28 89.7126 21.5133 90.3426 21.98C90.9726 22.4233 91.2876 23.3333 91.2876 24.71ZM111.678 26.985C111.678 27.2883 110.966 27.5333 109.543 27.72C108.12 27.9067 106.696 28 105.273 28C103.85 28 102.94 27.9183 102.543 27.755C102.146 27.5917 101.948 27.335 101.948 26.985V4.48C101.948 3.36 105.308 2.8 112.028 2.8C116.088 2.8 118.771 3.08 120.078 3.64C121.665 4.29333 122.738 5.18 123.298 6.3C124.045 7.74667 124.418 9.60167 124.418 11.865C124.418 14.9683 123.881 17.22 122.808 18.62C122.038 19.6467 121.268 20.3117 120.498 20.615C119.728 20.9183 119.086 21.14 118.573 21.28C118.083 21.3967 117.465 21.49 116.718 21.56C115.691 21.6533 114.291 21.7 112.518 21.7L111.678 21.665V26.985ZM111.713 15.855H112.553C112.996 15.855 113.346 15.7967 113.603 15.68C113.86 15.54 114.081 15.19 114.268 14.63C114.478 14.0467 114.583 13.2417 114.583 12.215C114.583 11.165 114.466 10.3717 114.233 9.835C114.023 9.275 113.801 8.94833 113.568 8.855C113.358 8.73833 113.101 8.68 112.798 8.68H111.713V15.855ZM135.969 2.31V27.16C135.969 27.4167 135.304 27.6267 133.974 27.79C132.644 27.93 131.267 28 129.844 28C128.444 28 127.534 27.9417 127.114 27.825C126.717 27.685 126.519 27.4633 126.519 27.16V2.94C126.519 2.42667 127.172 1.925 128.479 1.435C129.809 0.944999 131.232 0.699999 132.749 0.699999C134.896 0.699999 135.969 1.23667 135.969 2.31ZM145.063 28.315C142.94 28.315 141.272 27.8133 140.058 26.81C139.568 26.39 139.137 25.7717 138.763 24.955C138.413 24.1383 138.238 23.1817 138.238 22.085C138.238 20.9883 138.495 20.0317 139.008 19.215C139.545 18.3983 140.187 17.7683 140.933 17.325C141.68 16.8817 142.555 16.52 143.558 16.24C145.075 15.8433 146.743 15.645 148.563 15.645H149.718C149.718 14.6883 149.392 14.0117 148.738 13.615C148.458 13.4517 148.027 13.37 147.443 13.37C146.883 13.37 146.195 13.5217 145.378 13.825C144.585 14.1283 143.92 14.4433 143.383 14.77C142.847 15.0733 142.485 15.225 142.298 15.225C141.878 15.225 141.307 14.6767 140.583 13.58C139.86 12.46 139.498 11.445 139.498 10.535C139.498 10.2317 139.93 9.835 140.793 9.345C141.657 8.855 142.87 8.41167 144.433 8.015C146.02 7.595 147.56 7.385 149.053 7.385C150.547 7.385 151.83 7.51333 152.903 7.77C154 8.00333 154.887 8.295 155.563 8.645C156.263 8.995 156.847 9.46167 157.313 10.045C157.803 10.6283 158.165 11.1533 158.398 11.62C158.655 12.0867 158.842 12.6933 158.958 13.44C159.122 14.3033 159.203 15.365 159.203 16.625V27.16C159.203 27.4167 158.573 27.6267 157.313 27.79C156.077 27.93 154.84 28 153.603 28C152.39 28 151.597 27.965 151.223 27.895C150.873 27.825 150.663 27.7433 150.593 27.65C150.523 27.5567 150.465 27.3933 150.418 27.16L150.138 25.165H149.858C149.275 27.265 147.677 28.315 145.063 28.315ZM149.753 22.505V18.41C149.147 18.41 148.657 18.6667 148.283 19.18C147.91 19.6933 147.723 20.2767 147.723 20.93C147.723 22.47 148.073 23.24 148.773 23.24C149.077 23.24 149.31 23.17 149.473 23.03C149.66 22.8667 149.753 22.6917 149.753 22.505ZM173.451 25.725V23.66H173.171C173.054 23.7767 172.879 23.9283 172.646 24.115C172.412 24.3017 171.864 24.5467 171.001 24.85C170.137 25.1533 169.169 25.305 168.096 25.305C167.046 25.305 166.112 25.1417 165.296 24.815C164.502 24.465 163.872 24.01 163.406 23.45C162.939 22.8667 162.577 22.0967 162.321 21.14C161.877 19.6233 161.656 17.4767 161.656 14.7V9.87C161.656 9.38 162.344 8.90167 163.721 8.435C165.097 7.945 166.544 7.7 168.061 7.7C170.091 7.7 171.106 8.225 171.106 9.275V13.685C171.106 18.3517 171.479 20.685 172.226 20.685C172.669 20.685 172.891 20.37 172.891 19.74V9.87C172.891 9.38 173.626 8.90167 175.096 8.435C176.566 7.945 178.141 7.7 179.821 7.7C181.501 7.7 182.341 8.155 182.341 9.065V25.62C182.341 30.8233 178.817 33.425 171.771 33.425C168.061 33.425 165.541 33.0633 164.211 32.34C163.627 32.0133 163.336 31.675 163.336 31.325C163.336 30.765 163.569 29.82 164.036 28.49C164.502 27.1833 164.934 26.53 165.331 26.53C165.424 26.53 165.751 26.6 166.311 26.74C168.037 27.2067 169.472 27.44 170.616 27.44C171.782 27.44 172.541 27.3117 172.891 27.055C173.264 26.7983 173.451 26.355 173.451 25.725ZM192.425 24.71C192.425 26.0867 192.11 27.0317 191.48 27.545C190.85 28.0583 189.917 28.315 188.68 28.315C187.467 28.315 186.545 28.0583 185.915 27.545C185.285 27.0317 184.97 26.0867 184.97 24.71C184.97 23.3333 185.285 22.4233 185.915 21.98C186.569 21.5133 187.502 21.28 188.715 21.28C189.929 21.28 190.85 21.5133 191.48 21.98C192.11 22.4233 192.425 23.3333 192.425 24.71ZM212.816 26.985C212.816 27.2883 212.104 27.5333 210.681 27.72C209.257 27.9067 207.834 28 206.411 28C204.987 28 204.077 27.9183 203.681 27.755C203.284 27.5917 203.086 27.335 203.086 26.985V4.48C203.086 3.36 206.446 2.8 213.166 2.8C217.226 2.8 219.909 3.08 221.216 3.64C222.802 4.29333 223.876 5.18 224.436 6.3C225.182 7.74667 225.556 9.60167 225.556 11.865C225.556 14.9683 225.019 17.22 223.946 18.62C223.176 19.6467 222.406 20.3117 221.636 20.615C220.866 20.9183 220.224 21.14 219.711 21.28C219.221 21.3967 218.602 21.49 217.856 21.56C216.829 21.6533 215.429 21.7 213.656 21.7L212.816 21.665V26.985ZM212.851 15.855H213.691C214.134 15.855 214.484 15.7967 214.741 15.68C214.997 15.54 215.219 15.19 215.406 14.63C215.616 14.0467 215.721 13.2417 215.721 12.215C215.721 11.165 215.604 10.3717 215.371 9.835C215.161 9.275 214.939 8.94833 214.706 8.855C214.496 8.73833 214.239 8.68 213.936 8.68H212.851V15.855ZM234.307 28.315C232.183 28.315 230.515 27.8133 229.302 26.81C228.812 26.39 228.38 25.7717 228.007 24.955C227.657 24.1383 227.482 23.1817 227.482 22.085C227.482 20.9883 227.738 20.0317 228.252 19.215C228.788 18.3983 229.43 17.7683 230.177 17.325C230.923 16.8817 231.798 16.52 232.802 16.24C234.318 15.8433 235.987 15.645 237.807 15.645H238.962C238.962 14.6883 238.635 14.0117 237.982 13.615C237.702 13.4517 237.27 13.37 236.687 13.37C236.127 13.37 235.438 13.5217 234.622 13.825C233.828 14.1283 233.163 14.4433 232.627 14.77C232.09 15.0733 231.728 15.225 231.542 15.225C231.122 15.225 230.55 14.6767 229.827 13.58C229.103 12.46 228.742 11.445 228.742 10.535C228.742 10.2317 229.173 9.835 230.037 9.345C230.9 8.855 232.113 8.41167 233.677 8.015C235.263 7.595 236.803 7.385 238.297 7.385C239.79 7.385 241.073 7.51333 242.147 7.77C243.243 8.00333 244.13 8.295 244.807 8.645C245.507 8.995 246.09 9.46167 246.557 10.045C247.047 10.6283 247.408 11.1533 247.642 11.62C247.898 12.0867 248.085 12.6933 248.202 13.44C248.365 14.3033 248.447 15.365 248.447 16.625V27.16C248.447 27.4167 247.817 27.6267 246.557 27.79C245.32 27.93 244.083 28 242.847 28C241.633 28 240.84 27.965 240.467 27.895C240.117 27.825 239.907 27.7433 239.837 27.65C239.767 27.5567 239.708 27.3933 239.662 27.16L239.382 25.165H239.102C238.518 27.265 236.92 28.315 234.307 28.315ZM238.997 22.505V18.41C238.39 18.41 237.9 18.6667 237.527 19.18C237.153 19.6933 236.967 20.2767 236.967 20.93C236.967 22.47 237.317 23.24 238.017 23.24C238.32 23.24 238.553 23.17 238.717 23.03C238.903 22.8667 238.997 22.6917 238.997 22.505ZM277.464 27.16C277.16 27.72 275.574 28 272.704 28C269.857 28 268.375 27.72 268.259 27.16L267.069 20.79H266.579L265.459 27.16C265.389 27.72 263.347 28 259.334 28C258.214 28 257.467 27.9417 257.094 27.825C256.744 27.685 256.499 27.4633 256.359 27.16C252.019 16.4967 249.849 10.885 249.849 10.325C249.849 9.765 250.689 9.19333 252.369 8.61C254.072 8.00333 255.705 7.7 257.269 7.7C259.275 7.7 260.314 8.23667 260.384 9.31L261.574 18.9H261.994L262.414 11.165C262.437 10.5817 263.032 10.0683 264.199 9.625C265.365 9.18167 266.544 8.96 267.734 8.96C268.924 8.96 269.81 9.11167 270.394 9.415C271 9.695 271.315 10.045 271.339 10.465L271.724 18.9H272.109L273.264 9.905C273.334 9.345 274.115 8.84333 275.609 8.4C277.125 7.93333 278.455 7.7 279.599 7.7C280.742 7.7 281.64 7.86333 282.294 8.19C283.367 8.70333 283.904 9.31 283.904 10.01C283.904 10.08 282.842 12.9267 280.719 18.55C278.619 24.1733 277.534 27.0433 277.464 27.16ZM300.263 21.35H286.088C285.831 21.35 285.609 21.14 285.423 20.72C285.236 20.2767 285.143 19.6583 285.143 18.865C285.143 18.0483 285.399 17.2317 285.913 16.415C286.426 15.575 286.928 15.155 287.418 15.155H301.488C302.094 15.155 302.398 15.9133 302.398 17.43C302.398 18.2 302.153 19.0517 301.663 19.985C301.173 20.895 300.706 21.35 300.263 21.35ZM314.183 28.315C310.31 28.315 307.475 27.9417 305.678 27.195C304.768 26.7983 304.313 26.4133 304.313 26.04C304.313 25.0833 304.593 23.9633 305.153 22.68C305.713 21.3967 306.203 20.755 306.623 20.755C306.857 20.755 307.638 21.0117 308.968 21.525C310.322 22.0383 311.453 22.295 312.363 22.295C313.297 22.295 313.903 22.2367 314.183 22.12C314.487 22.0033 314.638 21.7817 314.638 21.455C314.638 21.105 314.405 20.8367 313.938 20.65C313.472 20.44 312.888 20.3 312.188 20.23C311.488 20.16 310.73 20.02 309.913 19.81C309.12 19.6 308.373 19.3317 307.673 19.005C306.973 18.6783 306.39 18.1417 305.923 17.395C305.457 16.625 305.223 15.8083 305.223 14.945C305.223 14.0583 305.247 13.405 305.293 12.985C305.34 12.5417 305.527 11.935 305.853 11.165C306.203 10.3717 306.682 9.73 307.288 9.24C307.918 8.75 308.875 8.30667 310.158 7.91C311.465 7.51333 312.923 7.315 314.533 7.315C316.143 7.315 317.485 7.37333 318.558 7.49C319.655 7.58333 320.507 7.71167 321.113 7.875C321.743 8.03833 322.257 8.225 322.653 8.435C323.33 8.785 323.668 9.17 323.668 9.59C323.668 10.5 323.342 11.55 322.688 12.74C322.035 13.93 321.51 14.525 321.113 14.525C320.74 14.525 319.912 14.3267 318.628 13.93C317.345 13.51 316.4 13.3 315.793 13.3C314.813 13.3 314.323 13.58 314.323 14.14C314.323 14.49 314.65 14.7583 315.303 14.945C315.98 15.1083 316.785 15.2833 317.718 15.47C318.652 15.6567 319.585 15.925 320.518 16.275C321.475 16.6017 322.28 17.2083 322.933 18.095C323.61 18.9817 323.948 20.1017 323.948 21.455C323.948 26.0283 320.693 28.315 314.183 28.315ZM335.685 9.905V27.16C335.685 27.4167 335.008 27.6267 333.655 27.79C332.325 27.93 330.948 28 329.525 28C328.125 28 327.215 27.9417 326.795 27.825C326.398 27.685 326.2 27.4633 326.2 27.16V10.535C326.2 10.0217 326.853 9.52 328.16 9.03C329.49 8.51667 330.937 8.26 332.5 8.26C334.623 8.26 335.685 8.80833 335.685 9.905ZM330.925 0.699999C332.465 0.699999 333.667 0.933332 334.53 1.4C335.417 1.84333 335.86 2.66 335.86 3.85C335.86 5.95 334.227 7 330.96 7C327.693 7 326.06 5.95 326.06 3.85C326.06 1.75 327.682 0.699999 330.925 0.699999ZM340.221 27.65C338.938 27.3233 338.296 26.8333 338.296 26.18V3.99C338.296 3.47667 338.985 2.975 340.361 2.485C341.738 1.995 343.185 1.75 344.701 1.75C346.755 1.75 347.781 2.28666 347.781 3.36V7.315L347.396 9.73H347.676C347.816 9.52 348.073 9.26333 348.446 8.96C348.843 8.65667 349.251 8.4 349.671 8.19C350.698 7.65333 351.83 7.385 353.066 7.385C354.303 7.385 355.271 7.54833 355.971 7.875C356.695 8.17833 357.266 8.58667 357.686 9.1C358.13 9.59 358.48 10.22 358.736 10.99C359.18 12.32 359.401 13.9767 359.401 15.96C359.401 19.25 359.028 21.77 358.281 23.52C357.535 25.27 356.321 26.5067 354.641 27.23C352.961 27.9533 350.593 28.315 347.536 28.315C344.48 28.315 342.041 28.0933 340.221 27.65ZM347.746 23.17H348.831C349.578 23.17 349.951 21.385 349.951 17.815C349.951 14.2217 349.566 12.425 348.796 12.425H347.746V23.17ZM371.3 9.905V27.16C371.3 27.4167 370.624 27.6267 369.27 27.79C367.94 27.93 366.564 28 365.14 28C363.74 28 362.83 27.9417 362.41 27.825C362.014 27.685 361.815 27.4633 361.815 27.16V10.535C361.815 10.0217 362.469 9.52 363.775 9.03C365.105 8.51667 366.552 8.26 368.115 8.26C370.239 8.26 371.3 8.80833 371.3 9.905ZM366.54 0.699999C368.08 0.699999 369.282 0.933332 370.145 1.4C371.032 1.84333 371.475 2.66 371.475 3.85C371.475 5.95 369.842 7 366.575 7C363.309 7 361.675 5.95 361.675 3.85C361.675 1.75 363.297 0.699999 366.54 0.699999ZM383.362 2.31V27.16C383.362 27.4167 382.697 27.6267 381.367 27.79C380.037 27.93 378.66 28 377.237 28C375.837 28 374.927 27.9417 374.507 27.825C374.11 27.685 373.912 27.4633 373.912 27.16V2.94C373.912 2.42667 374.565 1.925 375.872 1.435C377.202 0.944999 378.625 0.699999 380.142 0.699999C382.288 0.699999 383.362 1.23667 383.362 2.31ZM395.431 9.905V27.16C395.431 27.4167 394.754 27.6267 393.401 27.79C392.071 27.93 390.694 28 389.271 28C387.871 28 386.961 27.9417 386.541 27.825C386.144 27.685 385.946 27.4633 385.946 27.16V10.535C385.946 10.0217 386.599 9.52 387.906 9.03C389.236 8.51667 390.683 8.26 392.246 8.26C394.369 8.26 395.431 8.80833 395.431 9.905ZM390.671 0.699999C392.211 0.699999 393.413 0.933332 394.276 1.4C395.163 1.84333 395.606 2.66 395.606 3.85C395.606 5.95 393.973 7 390.706 7C387.439 7 385.806 5.95 385.806 3.85C385.806 1.75 387.428 0.699999 390.671 0.699999ZM411.797 27.685C411.377 28.0817 410.421 28.28 408.927 28.28C407.434 28.28 406.197 28.1867 405.217 28C404.237 27.79 403.304 27.3933 402.417 26.81C400.714 25.6667 399.862 23.2867 399.862 19.67V14.21H398.112C397.856 14.21 397.634 13.9417 397.447 13.405C397.261 12.8683 397.167 12.1333 397.167 11.2C397.167 10.2667 397.307 9.45 397.587 8.75C397.891 8.02667 398.276 7.665 398.742 7.665H399.862V3.43C399.862 2.70667 400.562 2.12333 401.962 1.68C403.386 1.23667 404.774 1.015 406.127 1.015C408.251 1.015 409.312 1.54 409.312 2.59V7.665H411.902C412.509 7.665 412.812 8.54 412.812 10.29C412.812 11.4333 412.672 12.3783 412.392 13.125C412.136 13.8483 411.797 14.21 411.377 14.21H409.312V20.615C409.312 21.245 409.581 21.7 410.117 21.98C410.654 22.2367 411.121 22.365 411.517 22.365C411.937 22.365 412.194 22.5633 412.287 22.96C412.381 23.3567 412.427 23.9517 412.427 24.745C412.427 26.3083 412.217 27.2883 411.797 27.685ZM424.552 9.905V27.16C424.552 27.4167 423.875 27.6267 422.522 27.79C421.192 27.93 419.815 28 418.392 28C416.992 28 416.082 27.9417 415.662 27.825C415.265 27.685 415.067 27.4633 415.067 27.16V10.535C415.067 10.0217 415.72 9.52 417.027 9.03C418.357 8.51667 419.804 8.26 421.367 8.26C423.49 8.26 424.552 8.80833 424.552 9.905ZM419.792 0.699999C421.332 0.699999 422.534 0.933332 423.397 1.4C424.284 1.84333 424.727 2.66 424.727 3.85C424.727 5.95 423.094 7 419.827 7C416.56 7 414.927 5.95 414.927 3.85C414.927 1.75 416.549 0.699999 419.792 0.699999ZM436.368 20.09C436.368 21.6067 437.092 22.365 438.538 22.365C439.378 22.365 440.475 22.085 441.828 21.525C443.182 20.9417 443.893 20.65 443.963 20.65C444.407 20.65 444.99 21.315 445.713 22.645C446.437 23.975 446.798 24.955 446.798 25.585C446.798 26.495 445.865 27.1833 443.998 27.65C442.132 28.1167 440.3 28.35 438.503 28.35C436.73 28.35 435.237 28.21 434.023 27.93C432.833 27.65 431.853 27.3 431.083 26.88C430.337 26.4367 429.672 25.9 429.088 25.27C428.528 24.64 428.108 24.045 427.828 23.485C427.548 22.9017 427.327 22.26 427.163 21.56C426.93 20.5333 426.813 19.4717 426.813 18.375C426.813 14.1283 427.922 11.2 430.138 9.59C431.235 8.77333 432.46 8.20166 433.813 7.875C435.167 7.54833 436.765 7.385 438.608 7.385C444.512 7.385 447.463 9.43833 447.463 13.545C447.463 17.9083 444.15 20.09 437.523 20.09H436.368ZM436.298 14.98V17.29C436.975 17.29 437.523 17.0217 437.943 16.485C438.387 15.9483 438.608 15.295 438.608 14.525C438.608 13.125 438.247 12.425 437.523 12.425C436.707 12.425 436.298 13.2767 436.298 14.98ZM459.071 28.315C455.198 28.315 452.363 27.9417 450.566 27.195C449.656 26.7983 449.201 26.4133 449.201 26.04C449.201 25.0833 449.481 23.9633 450.041 22.68C450.601 21.3967 451.091 20.755 451.511 20.755C451.745 20.755 452.526 21.0117 453.856 21.525C455.21 22.0383 456.341 22.295 457.251 22.295C458.185 22.295 458.791 22.2367 459.071 22.12C459.375 22.0033 459.526 21.7817 459.526 21.455C459.526 21.105 459.293 20.8367 458.826 20.65C458.36 20.44 457.776 20.3 457.076 20.23C456.376 20.16 455.618 20.02 454.801 19.81C454.008 19.6 453.261 19.3317 452.561 19.005C451.861 18.6783 451.278 18.1417 450.811 17.395C450.345 16.625 450.111 15.8083 450.111 14.945C450.111 14.0583 450.135 13.405 450.181 12.985C450.228 12.5417 450.415 11.935 450.741 11.165C451.091 10.3717 451.57 9.73 452.176 9.24C452.806 8.75 453.763 8.30667 455.046 7.91C456.353 7.51333 457.811 7.315 459.421 7.315C461.031 7.315 462.373 7.37333 463.446 7.49C464.543 7.58333 465.395 7.71167 466.001 7.875C466.631 8.03833 467.145 8.225 467.541 8.435C468.218 8.785 468.556 9.17 468.556 9.59C468.556 10.5 468.23 11.55 467.576 12.74C466.923 13.93 466.398 14.525 466.001 14.525C465.628 14.525 464.8 14.3267 463.516 13.93C462.233 13.51 461.288 13.3 460.681 13.3C459.701 13.3 459.211 13.58 459.211 14.14C459.211 14.49 459.538 14.7583 460.191 14.945C460.868 15.1083 461.673 15.2833 462.606 15.47C463.54 15.6567 464.473 15.925 465.406 16.275C466.363 16.6017 467.168 17.2083 467.821 18.095C468.498 18.9817 468.836 20.1017 468.836 21.455C468.836 26.0283 465.581 28.315 459.071 28.315Z" fill="#A06EB1"/>
</svg>
