<svg width="153" height="80" viewBox="0 0 153 80" fill="none" xmlns="http://www.w3.org/2000/svg">
<path d="M11.165 32.985C11.165 33.335 10.4067 33.5917 8.89 33.755C7.39667 33.9183 5.97333 34 4.62 34C3.26667 34 2.39167 33.9183 1.995 33.755C1.59833 33.5917 1.4 33.335 1.4 32.985V10.795C1.4 10.1883 1.70333 9.75667 2.31 9.5C2.91667 9.24333 4.06 9.115 5.74 9.115H18.725C19.215 9.115 19.46 10.0017 19.46 11.775C19.46 13.525 19.3433 14.8667 19.11 15.8C18.9 16.71 18.62 17.165 18.27 17.165L11.165 16.815V19.195C14.2683 19.055 16.345 18.985 17.395 18.985C17.745 18.985 17.9783 19.1717 18.095 19.545C18.235 19.9183 18.305 20.6417 18.305 21.715C18.305 22.765 18.1883 23.78 17.955 24.76C17.7217 25.7167 17.395 26.195 16.975 26.195L11.165 25.985V32.985ZM28.7678 34.315C26.1545 34.315 24.3228 33.6383 23.2728 32.285C22.2461 30.9317 21.7328 28.575 21.7328 25.215V15.695C21.7328 15.2283 22.4211 14.785 23.7978 14.365C25.1745 13.9217 26.6211 13.7 28.1378 13.7C30.1678 13.7 31.1828 14.225 31.1828 15.275V24.165C31.1828 25.9383 31.2528 27.2333 31.3928 28.05C31.5328 28.8433 31.8828 29.24 32.4428 29.24C33.1895 29.24 33.5628 28.925 33.5628 28.295V15.695C33.5628 15.205 34.2861 14.75 35.7328 14.33C37.1795 13.91 38.7545 13.7 40.4578 13.7C42.1611 13.7 43.0128 14.155 43.0128 15.065V33.09C43.0128 33.4167 42.2778 33.65 40.8078 33.79C39.3378 33.93 37.8911 34 36.4678 34C35.0445 34 34.3211 33.8133 34.2978 33.44L33.9478 31.165H33.6678C33.4578 32.005 33.0378 32.6933 32.4078 33.23C32.0811 33.51 31.5911 33.7667 30.9378 34C30.3078 34.21 29.5845 34.315 28.7678 34.315ZM54.9035 22.94V33.16C54.9035 33.4167 54.2385 33.6267 52.9085 33.79C51.6018 33.93 50.2368 34 48.8135 34C47.4135 34 46.5035 33.9417 46.0835 33.825C45.6635 33.685 45.4535 33.4633 45.4535 33.16V15.905C45.4535 15.4617 46.0952 14.9833 47.3785 14.47C48.6852 13.9567 50.0968 13.7 51.6135 13.7C53.1535 13.7 54.0168 14.12 54.2035 14.96L54.5535 16.57H54.7985C55.1252 15.6833 55.9068 14.9367 57.1435 14.33C58.3802 13.7 59.6168 13.385 60.8535 13.385C62.0902 13.385 62.9535 13.5833 63.4435 13.98C63.9569 14.3767 64.2135 14.89 64.2135 15.52C64.2135 16.1267 64.1669 16.9083 64.0735 17.865C63.9802 18.8217 63.7469 19.86 63.3735 20.98C63.0235 22.1 62.5568 22.66 61.9735 22.66C61.7402 22.66 61.0052 22.485 59.7685 22.135C58.5319 21.785 57.5052 21.61 56.6885 21.61C55.8952 21.61 55.3935 21.7267 55.1835 21.96C54.9968 22.1933 54.9035 22.52 54.9035 22.94Z" fill="#A06EB1"/>
<path d="M83.8813 34H69.0413C67.898 34 67.128 33.9183 66.7313 33.755C66.3347 33.5917 66.1363 33.335 66.1363 32.985V10.83C66.1363 10.2233 66.4047 9.79167 66.9413 9.535C67.5013 9.27833 68.493 9.15 69.9163 9.15H83.9863C84.4763 9.15 84.7213 9.96667 84.7213 11.6C84.7213 13.21 84.6163 14.4467 84.4063 15.31C84.1963 16.15 83.9163 16.57 83.5663 16.57C82.0497 16.57 79.4947 16.4183 75.9013 16.115V18.46C79.3547 18.32 81.6063 18.25 82.6563 18.25C83.2863 18.25 83.6013 18.985 83.6013 20.455C83.6013 21.925 83.473 23.045 83.2163 23.815C82.983 24.5617 82.6563 24.935 82.2363 24.935L75.9013 24.795V27.035C79.9613 26.7317 82.7613 26.58 84.3013 26.58C84.7913 26.58 85.0363 27.3967 85.0363 29.03C85.0363 30.6633 84.9313 31.9 84.7213 32.74C84.5113 33.58 84.2313 34 83.8813 34ZM86.2736 16.185C86.2736 15.9517 86.612 15.6483 87.2886 15.275C87.9653 14.8783 88.887 14.5167 90.0536 14.19C91.2203 13.8633 92.3636 13.7 93.4836 13.7C95.747 13.7 96.9136 14.2483 96.9836 15.345L97.8586 26.475H98.3136L99.0836 15.905C99.1303 15.3217 99.9353 14.8083 101.499 14.365C103.062 13.9217 104.439 13.7 105.629 13.7C106.819 13.7 107.705 13.805 108.289 14.015C108.895 14.225 109.28 14.4467 109.444 14.68C109.607 14.89 109.689 15.0767 109.689 15.24C109.689 15.4033 109.187 16.605 108.184 18.845C107.204 21.085 105.232 25.8567 102.269 33.16C102.035 33.72 100.134 34 96.5636 34C95.4436 34 94.7086 33.9417 94.3586 33.825C94.0086 33.685 93.7753 33.4633 93.6586 33.16C92.0486 29.1 90.4153 25.285 88.7586 21.715C87.102 18.1217 86.2736 16.2783 86.2736 16.185ZM120.284 26.09C120.284 27.6067 121.007 28.365 122.454 28.365C123.294 28.365 124.39 28.085 125.744 27.525C127.097 26.9417 127.809 26.65 127.879 26.65C128.322 26.65 128.905 27.315 129.629 28.645C130.352 29.975 130.714 30.955 130.714 31.585C130.714 32.495 129.78 33.1833 127.914 33.65C126.047 34.1167 124.215 34.35 122.419 34.35C120.645 34.35 119.152 34.21 117.939 33.93C116.749 33.65 115.769 33.3 114.999 32.88C114.252 32.4367 113.587 31.9 113.004 31.27C112.444 30.64 112.024 30.045 111.744 29.485C111.464 28.9017 111.242 28.26 111.079 27.56C110.845 26.5333 110.729 25.4717 110.729 24.375C110.729 20.1283 111.837 17.2 114.054 15.59C115.15 14.7733 116.375 14.2017 117.729 13.875C119.082 13.5483 120.68 13.385 122.524 13.385C128.427 13.385 131.379 15.4383 131.379 19.545C131.379 23.9083 128.065 26.09 121.439 26.09H120.284ZM120.214 20.98V23.29C120.89 23.29 121.439 23.0217 121.859 22.485C122.302 21.9483 122.524 21.295 122.524 20.525C122.524 19.125 122.162 18.425 121.439 18.425C120.622 18.425 120.214 19.2767 120.214 20.98ZM142.916 22.94V33.16C142.916 33.4167 142.251 33.6267 140.921 33.79C139.615 33.93 138.25 34 136.826 34C135.426 34 134.516 33.9417 134.096 33.825C133.676 33.685 133.466 33.4633 133.466 33.16V15.905C133.466 15.4617 134.108 14.9833 135.391 14.47C136.698 13.9567 138.11 13.7 139.626 13.7C141.166 13.7 142.03 14.12 142.216 14.96L142.566 16.57H142.811C143.138 15.6833 143.92 14.9367 145.156 14.33C146.393 13.7 147.63 13.385 148.866 13.385C150.103 13.385 150.966 13.5833 151.456 13.98C151.97 14.3767 152.226 14.89 152.226 15.52C152.226 16.1267 152.18 16.9083 152.086 17.865C151.993 18.8217 151.76 19.86 151.386 20.98C151.036 22.1 150.57 22.66 149.986 22.66C149.753 22.66 149.018 22.485 147.781 22.135C146.545 21.785 145.518 21.61 144.701 21.61C143.908 21.61 143.406 21.7267 143.196 21.96C143.01 22.1933 142.916 22.52 142.916 22.94ZM11.165 72.985C11.165 73.2883 10.4533 73.5333 9.03 73.72C7.63 73.9067 6.20667 74 4.76 74C3.33667 74 2.415 73.9183 1.995 73.755C1.59833 73.5917 1.4 73.335 1.4 72.985V51.46C1.4 50.8767 2.07667 50.3517 3.43 49.885C4.78333 49.395 6.25333 49.15 7.84 49.15C10.0567 49.15 11.165 49.675 11.165 50.725V58.425H14.28V51.46C14.28 50.8767 14.9567 50.3517 16.31 49.885C17.6867 49.395 19.1683 49.15 20.755 49.15C22.9483 49.15 24.045 49.675 24.045 50.725V72.985C24.045 73.2883 23.3333 73.5333 21.91 73.72C20.4867 73.9067 19.0633 74 17.64 74C16.2167 74 15.295 73.9183 14.875 73.755C14.4783 73.5917 14.28 73.335 14.28 72.985V64.97H11.165V72.985ZM37.4347 74.315C35.6847 74.315 34.1797 74.1633 32.9197 73.86C31.6597 73.5567 30.5164 73.02 29.4897 72.25C27.3664 70.71 26.3047 67.84 26.3047 63.64C26.3047 59.9067 27.3897 57.235 29.5597 55.625C31.5897 54.1317 34.2147 53.385 37.4347 53.385C38.8114 53.385 39.9897 53.455 40.9697 53.595C41.9497 53.7117 42.9414 53.98 43.9447 54.4C44.9714 54.82 45.788 55.3917 46.3947 56.115C47.0247 56.8383 47.538 57.8417 47.9347 59.125C48.3314 60.385 48.5297 61.89 48.5297 63.64C48.5297 67.1867 47.5264 69.8583 45.5197 71.655C43.513 73.4283 40.818 74.315 37.4347 74.315ZM36.2097 67.49C36.373 68.33 36.5364 68.8317 36.6997 68.995C36.8864 69.1583 37.1197 69.24 37.3997 69.24C37.703 69.24 37.9364 69.1583 38.0997 68.995C38.2864 68.8317 38.4497 68.33 38.5897 67.49C38.753 66.65 38.8347 65.6 38.8347 64.34C38.8347 63.0567 38.7997 62.0767 38.7297 61.4C38.683 60.7 38.613 60.1633 38.5197 59.79C38.4497 59.4167 38.3447 59.125 38.2047 58.915C37.9947 58.6117 37.738 58.46 37.4347 58.46C37.1547 58.46 36.9214 58.5533 36.7347 58.74C36.548 58.9033 36.373 59.4167 36.2097 60.28C36.0464 61.12 35.9647 62.3217 35.9647 63.885C35.9647 65.4483 36.0464 66.65 36.2097 67.49ZM82.4996 62.45V73.16C82.4996 73.4167 81.8347 73.6267 80.5047 73.79C79.198 73.93 77.833 74 76.4096 74C75.0096 74 74.0996 73.9417 73.6796 73.825C73.2596 73.685 73.0497 73.4633 73.0497 73.16V63.465C73.0497 60.1283 72.7113 58.46 72.0346 58.46C71.8713 58.46 71.708 58.53 71.5446 58.67C71.3813 58.81 71.2997 59.055 71.2997 59.405V73.16C71.2997 73.4167 70.6346 73.6267 69.3046 73.79C67.998 73.93 66.633 74 65.2096 74C63.7863 74 62.8646 73.9417 62.4446 73.825C62.048 73.685 61.8496 73.4633 61.8496 73.16V63.465C61.8496 60.875 61.6863 59.3233 61.3596 58.81C61.1963 58.5767 60.9863 58.46 60.7296 58.46C60.2863 58.46 60.0646 58.775 60.0646 59.405V73.16C60.0646 73.4167 59.3996 73.6267 58.0696 73.79C56.7396 73.93 55.363 74 53.9396 74C52.5396 74 51.6296 73.9417 51.2096 73.825C50.813 73.685 50.6146 73.4633 50.6146 73.16V55.905C50.6146 55.415 51.2796 54.925 52.6096 54.435C53.963 53.945 55.3863 53.7 56.8796 53.7C58.373 53.7 59.213 54.1317 59.3996 54.995L59.7146 56.535H59.9596C60.6363 55.205 61.7563 54.26 63.3196 53.7C63.973 53.49 64.813 53.385 65.8396 53.385C67.893 53.385 69.3863 54.435 70.3197 56.535C70.623 55.835 71.3813 55.135 72.5947 54.435C73.808 53.735 75.1496 53.385 76.6197 53.385C78.9296 53.385 80.4813 54.1083 81.2747 55.555C82.0913 56.9783 82.4996 59.2767 82.4996 62.45ZM94.1702 66.09C94.1702 67.6067 94.8936 68.365 96.3402 68.365C97.1802 68.365 98.2769 68.085 99.6302 67.525C100.984 66.9417 101.695 66.65 101.765 66.65C102.209 66.65 102.792 67.315 103.515 68.645C104.239 69.975 104.6 70.955 104.6 71.585C104.6 72.495 103.667 73.1833 101.8 73.65C99.9336 74.1167 98.1019 74.35 96.3052 74.35C94.5319 74.35 93.0386 74.21 91.8252 73.93C90.6352 73.65 89.6552 73.3 88.8852 72.88C88.1386 72.4367 87.4736 71.9 86.8902 71.27C86.3302 70.64 85.9102 70.045 85.6302 69.485C85.3502 68.9017 85.1286 68.26 84.9652 67.56C84.7319 66.5333 84.6152 65.4717 84.6152 64.375C84.6152 60.1283 85.7236 57.2 87.9402 55.59C89.0369 54.7733 90.2619 54.2017 91.6152 53.875C92.9686 53.5483 94.5669 53.385 96.4102 53.385C102.314 53.385 105.265 55.4383 105.265 59.545C105.265 63.9083 101.952 66.09 95.3252 66.09H94.1702ZM94.1002 60.98V63.29C94.7769 63.29 95.3252 63.0217 95.7452 62.485C96.1886 61.9483 96.4102 61.295 96.4102 60.525C96.4102 59.125 96.0486 58.425 95.3252 58.425C94.5086 58.425 94.1002 59.2767 94.1002 60.98Z" fill="#DEAF51"/>
<path d="M132.791 40.7217C132.316 40.2596 131.672 40 131 40C130.328 40 129.684 40.2596 129.209 40.7217L112.371 57.1045C112.254 57.2191 112.16 57.3551 112.097 57.5049C112.033 57.6546 112 57.8151 112 57.9771C112 58.1392 112.033 58.2997 112.097 58.4494C112.16 58.5991 112.254 58.7352 112.371 58.8498C112.609 59.0812 112.932 59.2112 113.268 59.2112C113.435 59.2112 113.6 59.1793 113.753 59.1173C113.907 59.0553 114.047 58.9644 114.165 58.8498L131 42.4645L147.835 58.8498C148.073 59.0812 148.396 59.2112 148.732 59.2112C149.068 59.2112 149.391 59.0812 149.629 58.8498C149.866 58.6183 150 58.3044 150 57.9771C150 57.6498 149.866 57.3359 149.629 57.1045L143.666 51.3042V43.1868C143.666 42.8599 143.532 42.5464 143.295 42.3153C143.057 42.0841 142.735 41.9543 142.399 41.9543H139.866C139.53 41.9543 139.208 42.0841 138.97 42.3153C138.733 42.5464 138.599 42.8599 138.599 43.1868V46.3741L132.791 40.7217Z" fill="#A06EB1"/>
<path d="M131 45.1416L146.199 59.9319V70.3024C146.199 71.2831 145.798 72.2236 145.086 72.917C144.373 73.6105 143.407 74 142.399 74H119.601C118.593 74 117.627 73.6105 116.914 72.917C116.202 72.2236 115.801 71.2831 115.801 70.3024V59.9319L131 45.1416Z" fill="#A06EB1"/>
<path d="M132.951 66.5C133.483 66.2657 134.137 66.1617 134.796 66.2705L135.078 66.3301C135.832 66.5266 136.443 66.9723 136.83 67.4883C137.172 67.9444 137.324 68.4323 137.277 68.8398L137.245 69.0098C137.215 69.1207 137.18 69.179 137.153 69.209C137.131 69.2341 137.108 69.2463 137.077 69.252C136.99 69.2674 136.838 69.235 136.579 69.123C136.167 68.9449 135.552 68.5915 134.847 68.3604L134.539 68.2695C133.705 68.0521 132.858 68.0676 132.348 68.0156C132.068 67.9871 131.919 67.9425 131.851 67.8877C131.826 67.8682 131.814 67.8485 131.807 67.8193C131.799 67.7839 131.797 67.7205 131.823 67.6143C131.928 67.1961 132.336 66.7715 132.951 66.5ZM138.746 65.0332C138.964 64.9316 139.158 64.9329 139.301 65.0088C139.432 65.086 139.538 65.2509 139.565 65.4893C139.587 65.6957 139.547 65.9427 139.419 66.1885L139.359 66.2939C139.175 66.5872 138.89 66.8777 138.604 67.0615C138.461 67.1532 138.327 67.212 138.215 67.2363C138.131 67.2544 138.069 67.2516 138.024 67.2383L137.983 67.2217C137.94 67.1981 137.894 67.1477 137.861 67.0449C137.828 66.9409 137.815 66.8005 137.826 66.6338C137.846 66.3409 137.94 66.0088 138.076 65.7354L138.137 65.6221C138.303 65.3369 138.527 65.1358 138.746 65.0332ZM132.072 63.1553C132.227 63.1553 132.398 63.2477 132.541 63.4502C132.683 63.651 132.778 63.9378 132.778 64.2568C132.778 64.5804 132.68 64.9636 132.525 65.2607C132.447 65.4087 132.36 65.5243 132.276 65.5996C132.191 65.6747 132.122 65.6973 132.072 65.6973C132.022 65.6971 131.954 65.6746 131.869 65.5996C131.785 65.5243 131.699 65.4086 131.621 65.2607C131.465 64.9635 131.367 64.5804 131.367 64.2568C131.367 63.9225 131.463 63.6369 131.603 63.4414C131.743 63.2454 131.913 63.1554 132.072 63.1553ZM137.318 62.957L137.376 62.9727C137.521 63.0223 137.642 63.1571 137.7 63.3857C137.751 63.5859 137.746 63.8407 137.667 64.1104L137.628 64.2266C137.512 64.5413 137.288 64.8753 137.041 65.1064C136.918 65.2216 136.798 65.303 136.693 65.3467C136.614 65.3794 136.553 65.3869 136.508 65.3818L136.468 65.373C136.423 65.3575 136.369 65.3164 136.318 65.2207C136.266 65.1241 136.227 64.9883 136.207 64.8232C136.168 64.4922 136.215 64.095 136.331 63.7803C136.446 63.4703 136.634 63.2319 136.834 63.0918C137.01 62.9686 137.179 62.9303 137.318 62.957ZM134.651 62.2803C134.808 62.2972 134.964 62.4055 135.082 62.6182C135.185 62.8038 135.248 63.0527 135.245 63.3291L135.239 63.4482C135.214 63.771 135.083 64.148 134.901 64.4326C134.811 64.5741 134.715 64.682 134.624 64.749C134.534 64.8157 134.465 64.8303 134.416 64.8252L134.373 64.8164C134.328 64.8013 134.275 64.7676 134.217 64.7051C134.139 64.6217 134.064 64.4991 134.001 64.3457C133.891 64.0756 133.833 63.7455 133.846 63.4521L133.856 63.3291L133.857 63.3193C133.882 63.0008 134.001 62.7197 134.16 62.5303C134.301 62.363 134.455 62.2845 134.593 62.2783L134.651 62.2803ZM127.155 60.1035C127.921 59.9074 128.681 60.0135 129.28 60.2871C129.811 60.5294 130.19 60.8903 130.356 61.2627L130.413 61.4219C130.443 61.5291 130.442 61.5926 130.435 61.627C130.429 61.6543 130.418 61.6721 130.396 61.6904C130.329 61.7441 130.181 61.7897 129.899 61.8184C129.449 61.8638 128.738 61.8566 128.009 62L127.696 62.0713C126.863 62.2886 126.127 62.7222 125.655 62.9258C125.396 63.0378 125.244 63.0693 125.157 63.0537C125.126 63.0481 125.104 63.036 125.081 63.0107C125.068 62.9957 125.053 62.9735 125.037 62.9414L124.989 62.8115C124.871 62.3741 125.014 61.8042 125.405 61.2754C125.793 60.7521 126.404 60.3007 127.156 60.1045L127.155 60.1035ZM122.929 58.7861C123.072 58.7077 123.275 58.7032 123.505 58.8076C123.704 58.8983 123.905 59.0644 124.063 59.2939L124.127 59.3965C124.296 59.6875 124.415 60.0728 124.438 60.4072C124.449 60.5742 124.436 60.7152 124.402 60.8193C124.378 60.8965 124.346 60.9439 124.314 60.9727L124.281 60.9951C124.235 61.0207 124.159 61.0344 124.044 61.0098C123.929 60.9852 123.793 60.9256 123.649 60.834C123.395 60.673 123.146 60.4328 122.977 60.1826L122.909 60.0752L122.905 60.0674L122.843 59.9609C122.71 59.7103 122.66 59.4601 122.675 59.2539C122.69 59.0482 122.767 58.9024 122.879 58.8184L122.929 58.7861ZM130.162 56.9004C130.321 56.9004 130.492 56.9905 130.632 57.1865C130.772 57.3821 130.867 57.6682 130.867 58.0029C130.867 58.3265 130.769 58.7096 130.613 59.0068C130.536 59.1547 130.45 59.2705 130.365 59.3457C130.281 59.4208 130.212 59.4433 130.162 59.4434C130.11 59.4434 130.041 59.4204 129.957 59.3477C129.873 59.2746 129.787 59.162 129.71 59.0166C129.555 58.7244 129.457 58.3415 129.457 58.0029C129.457 57.6682 129.553 57.3821 129.693 57.1865C129.833 56.9906 130.003 56.9004 130.162 56.9004ZM124.859 56.7178C125.008 56.6664 125.2 56.6969 125.401 56.8379C125.576 56.9605 125.742 57.1581 125.858 57.4131L125.903 57.5264C126.02 57.8411 126.066 58.2383 126.027 58.5693C126.008 58.7342 125.969 58.8693 125.917 58.9658C125.879 59.0376 125.839 59.0789 125.803 59.1016L125.768 59.1182L125.756 59.123C125.711 59.1411 125.643 59.1447 125.541 59.1035C125.438 59.0617 125.319 58.9811 125.195 58.8643C124.979 58.6592 124.78 58.3721 124.655 58.0918L124.607 57.9727C124.491 57.6604 124.477 57.3597 124.535 57.1309C124.586 56.9311 124.685 56.8034 124.806 56.7412L124.859 56.7178ZM127.576 56.0273C127.737 56.021 127.917 56.1032 128.075 56.2881C128.234 56.4738 128.353 56.7466 128.378 57.0635V57.0645L128.379 57.0742C128.417 57.3953 128.36 57.783 128.234 58.0918C128.171 58.2452 128.096 58.3678 128.018 58.4512C127.94 58.5345 127.872 58.5655 127.819 58.5713H127.778C127.734 58.566 127.678 58.5442 127.61 58.4941C127.52 58.4271 127.424 58.3192 127.333 58.1777C127.174 57.9287 127.054 57.6095 127.01 57.3174L126.995 57.1943L126.994 57.1855L126.984 57.0625C126.973 56.7805 127.036 56.5359 127.14 56.3564C127.256 56.1543 127.416 56.0474 127.576 56.0273Z" fill="#DEAF51" stroke="#6F467D" stroke-width="0.5"/>
</svg>
