<svg width="531" height="146" viewBox="0 0 531 146" fill="none" xmlns="http://www.w3.org/2000/svg">
<path d="M51.58 117.99C45.4933 117.99 40.25 117.44 35.85 116.34C31.5233 115.167 27.5267 113.113 23.86 110.18C16.4533 104.387 12.75 93.2767 12.75 76.85C12.75 69.9567 13.74 63.9433 15.72 58.81C17.7733 53.6767 20.5967 49.6067 24.19 46.6C31.23 40.7333 40.36 37.8 51.58 37.8C57.3733 37.8 62.3967 38.3133 66.65 39.34C70.9767 40.3667 75.0467 42.2367 78.86 44.95C86.56 50.5233 90.41 61.1567 90.41 76.85C90.41 90.93 86.9267 101.307 79.96 107.98C72.9933 114.653 63.5333 117.99 51.58 117.99ZM47.95 99.18C48.83 100.207 50.04 100.72 51.58 100.72C53.12 100.72 54.33 100.207 55.21 99.18C56.09 98.08 56.8233 95.8067 57.41 92.36C57.9967 88.84 58.29 83.9633 58.29 77.73C58.29 71.4967 57.9967 66.6933 57.41 63.32C56.8233 59.9467 56.09 57.7467 55.21 56.72C54.33 55.6933 53.12 55.18 51.58 55.18C50.04 55.18 48.83 55.6933 47.95 56.72C47.07 57.7467 46.3367 59.9467 45.75 63.32C45.1633 66.6933 44.87 71.4967 44.87 77.73C44.87 83.9633 45.1633 88.84 45.75 92.36C46.3367 95.8067 47.07 98.08 47.95 99.18ZM119.105 117.99C110.891 117.99 105.135 115.863 101.835 111.61C98.6079 107.357 96.9945 99.95 96.9945 89.39V59.47C96.9945 58.0033 99.1579 56.61 103.485 55.29C107.811 53.8967 112.358 53.2 117.125 53.2C123.505 53.2 126.695 54.85 126.695 58.15V86.09C126.695 91.6633 126.915 95.7333 127.355 98.3C127.795 100.793 128.895 102.04 130.655 102.04C133.001 102.04 134.175 101.05 134.175 99.07V59.47C134.175 57.93 136.448 56.5 140.995 55.18C145.541 53.86 150.491 53.2 155.845 53.2C161.198 53.2 163.875 54.63 163.875 57.49V114.14C163.875 115.167 161.565 115.9 156.945 116.34C152.325 116.78 147.778 117 143.305 117C138.831 117 136.558 116.413 136.485 115.24L135.385 108.09H134.505C133.845 110.73 132.525 112.893 130.545 114.58C129.518 115.46 127.978 116.267 125.925 117C123.945 117.66 121.671 117.99 119.105 117.99ZM201.245 82.24V114.36C201.245 115.167 199.155 115.827 194.975 116.34C190.869 116.78 186.579 117 182.105 117C177.705 117 174.845 116.817 173.525 116.45C172.205 116.01 171.545 115.313 171.545 114.36V60.13C171.545 58.7367 173.562 57.2333 177.595 55.62C181.702 54.0067 186.139 53.2 190.905 53.2C195.745 53.2 198.459 54.52 199.045 57.16L200.145 62.22H200.915C201.942 59.4333 204.399 57.0867 208.285 55.18C212.172 53.2 216.059 52.21 219.945 52.21C223.832 52.21 226.545 52.8333 228.085 54.08C229.699 55.3267 230.505 56.94 230.505 58.92C230.505 60.8267 230.359 63.2833 230.065 66.29C229.772 69.2967 229.039 72.56 227.865 76.08C226.765 79.6 225.299 81.36 223.465 81.36C222.732 81.36 220.422 80.81 216.535 79.71C212.649 78.61 209.422 78.06 206.855 78.06C204.362 78.06 202.785 78.4267 202.125 79.16C201.539 79.8933 201.245 80.92 201.245 82.24ZM260.705 130.31V60.35C260.705 58.81 262.759 57.2333 266.865 55.62C270.972 54.0067 275.409 53.2 280.175 53.2C282.375 53.2 284.099 53.4567 285.345 53.97C286.592 54.4833 287.362 54.9967 287.655 55.51C287.949 56.0233 288.499 58.2233 289.305 62.11H290.185C290.332 61.45 290.992 60.4233 292.165 59.03C293.339 57.6367 294.512 56.5 295.685 55.62C296.932 54.74 298.692 53.97 300.965 53.31C303.239 52.5767 305.879 52.21 308.885 52.21C311.965 52.21 314.752 52.9067 317.245 54.3C319.739 55.62 321.572 57.1967 322.745 59.03C323.992 60.79 324.945 63.0633 325.605 65.85C326.339 68.5633 326.742 70.7633 326.815 72.45C326.962 74.0633 327.035 76.4467 327.035 79.6C327.035 82.68 326.925 85.76 326.705 88.84C326.485 91.8467 326.082 94.9267 325.495 98.08C324.909 101.233 324.065 103.947 322.965 106.22C321.865 108.493 320.472 110.547 318.785 112.38C315.412 116.047 310.462 117.88 303.935 117.88C301.589 117.88 299.499 117.55 297.665 116.89C295.905 116.157 294.585 115.313 293.705 114.36C291.872 112.38 290.809 110.62 290.515 109.08L290.405 107.98H289.525L291.065 117.88V130.31C291.065 131.117 288.939 131.74 284.685 132.18C280.505 132.693 276.179 132.95 271.705 132.95C267.305 132.95 264.372 132.73 262.905 132.29C261.439 131.923 260.705 131.263 260.705 130.31ZM297.225 84.77C297.225 78.5367 296.895 74.1733 296.235 71.68C295.575 69.1867 294.585 67.94 293.265 67.94C291.945 67.94 290.992 68.6733 290.405 70.14V98.96C290.405 100.867 291.395 101.82 293.375 101.82C295.942 101.82 297.225 96.1367 297.225 84.77ZM362.575 92.14C362.575 96.9067 364.848 99.29 369.395 99.29C372.035 99.29 375.482 98.41 379.735 96.65C383.988 94.8167 386.225 93.9 386.445 93.9C387.838 93.9 389.672 95.99 391.945 100.17C394.218 104.35 395.355 107.43 395.355 109.41C395.355 112.27 392.422 114.433 386.555 115.9C380.688 117.367 374.932 118.1 369.285 118.1C363.712 118.1 359.018 117.66 355.205 116.78C351.465 115.9 348.385 114.8 345.965 113.48C343.618 112.087 341.528 110.4 339.695 108.42C337.935 106.44 336.615 104.57 335.735 102.81C334.855 100.977 334.158 98.96 333.645 96.76C332.912 93.5333 332.545 90.1967 332.545 86.75C332.545 73.4033 336.028 64.2 342.995 59.14C346.442 56.5733 350.292 54.7767 354.545 53.75C358.798 52.7233 363.822 52.21 369.615 52.21C388.168 52.21 397.445 58.6633 397.445 71.57C397.445 85.2833 387.032 92.14 366.205 92.14H362.575ZM362.355 76.08V83.34C364.482 83.34 366.205 82.4967 367.525 80.81C368.918 79.1233 369.615 77.07 369.615 74.65C369.615 70.25 368.478 68.05 366.205 68.05C363.638 68.05 362.355 70.7267 362.355 76.08ZM447.236 116.01C445.916 117.257 442.91 117.88 438.216 117.88C433.523 117.88 429.636 117.587 426.556 117C423.476 116.34 420.543 115.093 417.756 113.26C412.403 109.667 409.726 102.187 409.726 90.82V73.66H404.226C403.42 73.66 402.723 72.8167 402.136 71.13C401.55 69.4433 401.256 67.1333 401.256 64.2C401.256 61.2667 401.696 58.7 402.576 56.5C403.53 54.2267 404.74 53.09 406.206 53.09H409.726V39.78C409.726 37.5067 411.926 35.6733 416.326 34.28C420.8 32.8867 425.163 32.19 429.416 32.19C436.09 32.19 439.426 33.84 439.426 37.14V53.09H447.566C449.473 53.09 450.426 55.84 450.426 61.34C450.426 64.9333 449.986 67.9033 449.106 70.25C448.3 72.5233 447.236 73.66 445.916 73.66H439.426V93.79C439.426 95.77 440.27 97.2 441.956 98.08C443.643 98.8867 445.11 99.29 446.356 99.29C447.676 99.29 448.483 99.9133 448.776 101.16C449.07 102.407 449.216 104.277 449.216 106.77C449.216 111.683 448.556 114.763 447.236 116.01ZM486.993 117.99C474.819 117.99 465.909 116.817 460.263 114.47C457.403 113.223 455.973 112.013 455.973 110.84C455.973 107.833 456.853 104.313 458.613 100.28C460.373 96.2467 461.913 94.23 463.233 94.23C463.966 94.23 466.423 95.0367 470.603 96.65C474.856 98.2633 478.413 99.07 481.273 99.07C484.206 99.07 486.113 98.8867 486.993 98.52C487.946 98.1533 488.423 97.4567 488.423 96.43C488.423 95.33 487.689 94.4867 486.223 93.9C484.756 93.24 482.923 92.8 480.723 92.58C478.523 92.36 476.139 91.92 473.573 91.26C471.079 90.6 468.733 89.7567 466.533 88.73C464.333 87.7033 462.499 86.0167 461.033 83.67C459.566 81.25 458.833 78.6833 458.833 75.97C458.833 73.1833 458.906 71.13 459.053 69.81C459.199 68.4167 459.786 66.51 460.813 64.09C461.913 61.5967 463.416 59.58 465.323 58.04C467.303 56.5 470.309 55.1067 474.343 53.86C478.449 52.6133 483.033 51.99 488.093 51.99C493.153 51.99 497.369 52.1733 500.743 52.54C504.189 52.8333 506.866 53.2367 508.773 53.75C510.753 54.2633 512.366 54.85 513.613 55.51C515.739 56.61 516.803 57.82 516.803 59.14C516.803 62 515.776 65.3 513.723 69.04C511.669 72.78 510.019 74.65 508.773 74.65C507.599 74.65 504.996 74.0267 500.963 72.78C496.929 71.46 493.959 70.8 492.053 70.8C488.973 70.8 487.433 71.68 487.433 73.44C487.433 74.54 488.459 75.3833 490.513 75.97C492.639 76.4833 495.169 77.0333 498.103 77.62C501.036 78.2067 503.969 79.05 506.903 80.15C509.909 81.1767 512.439 83.0833 514.493 85.87C516.619 88.6567 517.683 92.1767 517.683 96.43C517.683 110.803 507.453 117.99 486.993 117.99Z" fill="#A06EB1"/>
</svg>
