<svg width="404" height="357" viewBox="0 0 404 357" fill="none" xmlns="http://www.w3.org/2000/svg">
<g filter="url(#filter0_d_10_108)">
<path d="M365.596 166.507C383.964 189.939 389.01 214.954 382.753 235.061C376.697 255.168 359.338 270.367 340.97 287.783C322.602 305.04 303.225 324.514 270.122 335.122C237.221 345.571 190.797 347.313 160.116 329.897C129.435 312.64 114.499 276.225 115.104 240.444C115.912 204.663 132.463 169.357 163.144 145.925C193.824 122.493 238.836 110.777 276.985 115.843C315.336 121.068 347.228 143.075 365.596 166.507Z" fill="#F4A3B0"/>
<ellipse cx="41.3189" cy="162.037" rx="31.3189" ry="30.9083" fill="#F4A3B0"/>
<ellipse cx="123.11" cy="67.817" rx="31.3189" ry="30.9083" fill="#F4A3B0"/>
<ellipse cx="361.755" cy="76.7901" rx="31.3189" ry="30.9083" fill="#F4A3B0"/>
<ellipse cx="229.75" cy="36.9083" rx="31.3189" ry="30.9083" fill="#F4A3B0"/>
</g>
<defs>
<filter id="filter0_d_10_108" x="0" y="0" width="403.074" height="357" filterUnits="userSpaceOnUse" color-interpolation-filters="sRGB">
<feFlood flood-opacity="0" result="BackgroundImageFix"/>
<feColorMatrix in="SourceAlpha" type="matrix" values="0 0 0 0 0 0 0 0 0 0 0 0 0 0 0 0 0 0 127 0" result="hardAlpha"/>
<feOffset dy="4"/>
<feGaussianBlur stdDeviation="5"/>
<feComposite in2="hardAlpha" operator="out"/>
<feColorMatrix type="matrix" values="0 0 0 0 0 0 0 0 0 0 0 0 0 0 0 0 0 0 0.25 0"/>
<feBlend mode="normal" in2="BackgroundImageFix" result="effect1_dropShadow_10_108"/>
<feBlend mode="normal" in="SourceGraphic" in2="effect1_dropShadow_10_108" result="shape"/>
</filter>
</defs>
</svg>
