<svg width="724" height="146" viewBox="0 0 724 146" fill="none" xmlns="http://www.w3.org/2000/svg">
<path d="M132.02 103.08C132.02 103.667 130.393 104.147 127.14 104.52C123.887 104.84 120.607 105 117.3 105C114.047 105 111.967 104.867 111.06 104.6C110.153 104.28 109.7 103.773 109.7 103.08V53.32C109.7 52.1467 111.247 51 114.34 49.88C117.433 48.7067 120.9 48.12 124.74 48.12C128.153 48.12 130.393 48.84 131.46 50.28C131.833 50.8133 132.02 51.3467 132.02 51.88V103.08ZM186.29 78.44V103.08C186.29 103.667 184.77 104.147 181.73 104.52C178.69 104.84 175.543 105 172.29 105C169.09 105 167.01 104.867 166.05 104.6C165.143 104.28 164.69 103.773 164.69 103.08V77.64C164.69 75.24 164.583 73.6667 164.37 72.92C164.21 72.1733 164.05 71.5067 163.89 70.92C163.517 69.9067 162.85 69.4 161.89 69.4C160.397 69.4 159.65 70.12 159.65 71.56V103.08C159.65 103.667 158.13 104.147 155.09 104.52C152.103 104.84 148.983 105 145.73 105C142.53 105 140.45 104.867 139.49 104.6C138.53 104.28 138.05 103.773 138.05 103.08V63.64C138.05 62.52 139.57 61.4 142.61 60.28C145.703 59.16 148.957 58.6 152.37 58.6C155.783 58.6 157.703 59.5867 158.13 61.56L158.85 65.08H159.41C160.957 61.9867 163.623 59.8267 167.41 58.6C168.957 58.12 170.663 57.88 172.53 57.88C177.917 57.88 181.543 59.5067 183.41 62.76C185.33 65.96 186.29 71.1867 186.29 78.44ZM223.318 104.28C222.358 105.187 220.171 105.64 216.758 105.64C213.345 105.64 210.518 105.427 208.278 105C206.038 104.52 203.905 103.613 201.878 102.28C197.985 99.6667 196.038 94.2267 196.038 85.96V73.48H192.038C191.451 73.48 190.945 72.8667 190.518 71.64C190.091 70.4133 189.878 68.7333 189.878 66.6C189.878 64.4667 190.198 62.6 190.838 61C191.531 59.3467 192.411 58.52 193.478 58.52H196.038V48.84C196.038 47.1867 197.638 45.8533 200.838 44.84C204.091 43.8267 207.265 43.32 210.358 43.32C215.211 43.32 217.638 44.52 217.638 46.92V58.52H223.558C224.945 58.52 225.638 60.52 225.638 64.52C225.638 67.1333 225.318 69.2933 224.678 71C224.091 72.6533 223.318 73.48 222.358 73.48H217.638V88.12C217.638 89.56 218.251 90.6 219.478 91.24C220.705 91.8267 221.771 92.12 222.678 92.12C223.638 92.12 224.225 92.5733 224.438 93.48C224.651 94.3867 224.758 95.7467 224.758 97.56C224.758 101.133 224.278 103.373 223.318 104.28ZM251.512 86.92C251.512 90.3867 253.165 92.12 256.472 92.12C258.392 92.12 260.899 91.48 263.992 90.2C267.085 88.8667 268.712 88.2 268.872 88.2C269.885 88.2 271.219 89.72 272.872 92.76C274.525 95.8 275.352 98.04 275.352 99.48C275.352 101.56 273.219 103.133 268.952 104.2C264.685 105.267 260.499 105.8 256.392 105.8C252.339 105.8 248.925 105.48 246.152 104.84C243.432 104.2 241.192 103.4 239.432 102.44C237.725 101.427 236.205 100.2 234.872 98.76C233.592 97.32 232.632 95.96 231.992 94.68C231.352 93.3467 230.845 91.88 230.472 90.28C229.939 87.9333 229.672 85.5067 229.672 83C229.672 73.2933 232.205 66.6 237.272 62.92C239.779 61.0533 242.579 59.7467 245.672 59C248.765 58.2533 252.419 57.88 256.632 57.88C270.125 57.88 276.872 62.5733 276.872 71.96C276.872 81.9333 269.299 86.92 254.152 86.92H251.512ZM251.352 75.24V80.52C252.899 80.52 254.152 79.9067 255.112 78.68C256.125 77.4533 256.632 75.96 256.632 74.2C256.632 71 255.805 69.4 254.152 69.4C252.285 69.4 251.352 71.3467 251.352 75.24ZM303.244 79.72V103.08C303.244 103.667 301.724 104.147 298.684 104.52C295.697 104.84 292.577 105 289.324 105C286.124 105 284.044 104.867 283.084 104.6C282.124 104.28 281.644 103.773 281.644 103.08V63.64C281.644 62.6267 283.11 61.5333 286.044 60.36C289.03 59.1867 292.257 58.6 295.724 58.6C299.244 58.6 301.217 59.56 301.644 61.48L302.444 65.16H303.004C303.75 63.1333 305.537 61.4267 308.364 60.04C311.19 58.6 314.017 57.88 316.844 57.88C319.67 57.88 321.644 58.3333 322.764 59.24C323.937 60.1467 324.524 61.32 324.524 62.76C324.524 64.1467 324.417 65.9333 324.204 68.12C323.99 70.3067 323.457 72.68 322.604 75.24C321.804 77.8 320.737 79.08 319.404 79.08C318.87 79.08 317.19 78.68 314.364 77.88C311.537 77.08 309.19 76.68 307.324 76.68C305.51 76.68 304.364 76.9467 303.884 77.48C303.457 78.0133 303.244 78.76 303.244 79.72ZM349.559 86.92C349.559 90.3867 351.212 92.12 354.519 92.12C356.439 92.12 358.945 91.48 362.039 90.2C365.132 88.8667 366.759 88.2 366.919 88.2C367.932 88.2 369.265 89.72 370.919 92.76C372.572 95.8 373.399 98.04 373.399 99.48C373.399 101.56 371.265 103.133 366.999 104.2C362.732 105.267 358.545 105.8 354.439 105.8C350.385 105.8 346.972 105.48 344.199 104.84C341.479 104.2 339.239 103.4 337.479 102.44C335.772 101.427 334.252 100.2 332.919 98.76C331.639 97.32 330.679 95.96 330.039 94.68C329.399 93.3467 328.892 91.88 328.519 90.28C327.985 87.9333 327.719 85.5067 327.719 83C327.719 73.2933 330.252 66.6 335.319 62.92C337.825 61.0533 340.625 59.7467 343.719 59C346.812 58.2533 350.465 57.88 354.679 57.88C368.172 57.88 374.919 62.5733 374.919 71.96C374.919 81.9333 367.345 86.92 352.199 86.92H349.559ZM349.399 75.24V80.52C350.945 80.52 352.199 79.9067 353.159 78.68C354.172 77.4533 354.679 75.96 354.679 74.2C354.679 71 353.852 69.4 352.199 69.4C350.332 69.4 349.399 71.3467 349.399 75.24ZM401.451 105.72C392.597 105.72 386.117 104.867 382.011 103.16C379.931 102.253 378.891 101.373 378.891 100.52C378.891 98.3333 379.531 95.7733 380.811 92.84C382.091 89.9067 383.211 88.44 384.171 88.44C384.704 88.44 386.491 89.0267 389.531 90.2C392.624 91.3733 395.211 91.96 397.291 91.96C399.424 91.96 400.811 91.8267 401.451 91.56C402.144 91.2933 402.491 90.7867 402.491 90.04C402.491 89.24 401.957 88.6267 400.891 88.2C399.824 87.72 398.491 87.4 396.891 87.24C395.291 87.08 393.557 86.76 391.691 86.28C389.877 85.8 388.171 85.1867 386.571 84.44C384.971 83.6933 383.637 82.4667 382.571 80.76C381.504 79 380.971 77.1333 380.971 75.16C380.971 73.1333 381.024 71.64 381.131 70.68C381.237 69.6667 381.664 68.28 382.411 66.52C383.211 64.7067 384.304 63.24 385.691 62.12C387.131 61 389.317 59.9867 392.251 59.08C395.237 58.1733 398.571 57.72 402.251 57.72C405.931 57.72 408.997 57.8533 411.451 58.12C413.957 58.3333 415.904 58.6267 417.291 59C418.731 59.3733 419.904 59.8 420.811 60.28C422.357 61.08 423.131 61.96 423.131 62.92C423.131 65 422.384 67.4 420.891 70.12C419.397 72.84 418.197 74.2 417.291 74.2C416.437 74.2 414.544 73.7467 411.611 72.84C408.677 71.88 406.517 71.4 405.131 71.4C402.891 71.4 401.771 72.04 401.771 73.32C401.771 74.12 402.517 74.7333 404.011 75.16C405.557 75.5333 407.397 75.9333 409.531 76.36C411.664 76.7867 413.797 77.4 415.931 78.2C418.117 78.9467 419.957 80.3333 421.451 82.36C422.997 84.3867 423.771 86.9467 423.771 90.04C423.771 100.493 416.331 105.72 401.451 105.72ZM460.037 104.28C459.077 105.187 456.89 105.64 453.477 105.64C450.064 105.64 447.237 105.427 444.997 105C442.757 104.52 440.624 103.613 438.597 102.28C434.704 99.6667 432.757 94.2267 432.757 85.96V73.48H428.757C428.17 73.48 427.664 72.8667 427.237 71.64C426.81 70.4133 426.597 68.7333 426.597 66.6C426.597 64.4667 426.917 62.6 427.557 61C428.25 59.3467 429.13 58.52 430.197 58.52H432.757V48.84C432.757 47.1867 434.357 45.8533 437.557 44.84C440.81 43.8267 443.984 43.32 447.077 43.32C451.93 43.32 454.357 44.52 454.357 46.92V58.52H460.277C461.664 58.52 462.357 60.52 462.357 64.52C462.357 67.1333 462.037 69.2933 461.397 71C460.81 72.6533 460.037 73.48 459.077 73.48H454.357V88.12C454.357 89.56 454.97 90.6 456.197 91.24C457.424 91.8267 458.49 92.12 459.397 92.12C460.357 92.12 460.944 92.5733 461.157 93.48C461.37 94.3867 461.477 95.7467 461.477 97.56C461.477 101.133 460.997 103.373 460.037 104.28ZM488.231 86.92C488.231 90.3867 489.884 92.12 493.191 92.12C495.111 92.12 497.617 91.48 500.711 90.2C503.804 88.8667 505.431 88.2 505.591 88.2C506.604 88.2 507.937 89.72 509.591 92.76C511.244 95.8 512.071 98.04 512.071 99.48C512.071 101.56 509.937 103.133 505.671 104.2C501.404 105.267 497.217 105.8 493.111 105.8C489.057 105.8 485.644 105.48 482.871 104.84C480.151 104.2 477.911 103.4 476.151 102.44C474.444 101.427 472.924 100.2 471.591 98.76C470.311 97.32 469.351 95.96 468.711 94.68C468.071 93.3467 467.564 91.88 467.191 90.28C466.657 87.9333 466.391 85.5067 466.391 83C466.391 73.2933 468.924 66.6 473.991 62.92C476.497 61.0533 479.297 59.7467 482.391 59C485.484 58.2533 489.137 57.88 493.351 57.88C506.844 57.88 513.591 62.5733 513.591 71.96C513.591 81.9333 506.017 86.92 490.871 86.92H488.231ZM488.071 75.24V80.52C489.617 80.52 490.871 79.9067 491.831 78.68C492.844 77.4533 493.351 75.96 493.351 74.2C493.351 71 492.524 69.4 490.871 69.4C489.004 69.4 488.071 71.3467 488.071 75.24ZM533.403 105.72C531.429 105.72 529.589 105.427 527.883 104.84C526.176 104.253 524.763 103.533 523.643 102.68C522.576 101.827 521.643 100.68 520.842 99.24C520.043 97.8 519.429 96.44 519.003 95.16C518.576 93.8267 518.256 92.2 518.043 90.28C517.723 87.4533 517.563 84.2267 517.563 80.6C517.563 73.1867 518.923 67.56 521.643 63.72C524.363 59.8267 528.096 57.88 532.843 57.88C537.696 57.88 541.216 59.0267 543.403 61.32C543.883 61.8533 544.256 62.4933 544.523 63.24H545.163L544.203 57.72V47.72C544.203 46.5467 545.696 45.4 548.683 44.28C551.669 43.16 554.896 42.6 558.363 42.6C561.989 42.6 564.309 43.2933 565.323 44.68C565.696 45.2133 565.883 45.7467 565.883 46.28V103.08C565.883 103.667 564.389 104.147 561.403 104.52C558.469 104.84 555.616 105 552.843 105C550.123 105 548.363 104.92 547.563 104.76C546.816 104.547 546.336 104.333 546.123 104.12C545.963 103.907 545.856 103.56 545.803 103.08L545.163 98.52H544.523C544.043 100.387 543.083 101.96 541.643 103.24C539.829 104.893 537.083 105.72 533.403 105.72ZM542.363 94.04C543.216 94.04 543.856 93.5067 544.283 92.44V71.08C544.283 70.5467 543.989 70.1467 543.403 69.88C542.869 69.56 542.389 69.4 541.963 69.4C540.149 69.4 539.243 73.56 539.243 81.88C539.243 86.3067 539.483 89.4533 539.963 91.32C540.496 93.1333 541.296 94.04 542.363 94.04ZM575.808 69.72C574.314 69.72 573.008 67.96 571.888 64.44C570.821 60.8667 570.288 57.4533 570.288 54.2C570.288 53.4533 571.114 52.6267 572.768 51.72C574.421 50.76 576.928 49.9333 580.288 49.24C583.648 48.4933 587.301 48.12 591.248 48.12C606.554 48.12 614.208 53.4533 614.208 64.12C614.208 67.16 613.568 69.8 612.288 72.04C611.061 74.2267 609.568 75.8267 607.808 76.84C604.234 78.8133 600.954 79.8267 597.968 79.88L596.128 79.96C596.128 80.5467 596.261 81.48 596.528 82.76C596.794 84.04 596.928 85.16 596.928 86.12C596.928 86.9733 595.461 87.64 592.528 88.12C589.648 88.5467 587.141 88.76 585.008 88.76C581.754 88.76 579.728 87.96 578.928 86.36C578.181 84.76 577.808 81.3733 577.808 76.2C577.808 74.9733 580.101 74.0667 584.688 73.48C586.394 73.2133 587.941 72.6533 589.328 71.8C590.768 70.9467 591.488 69.7733 591.488 68.28C591.488 66.7867 590.288 66.04 587.888 66.04C585.488 66.04 582.954 66.6533 580.288 67.88C577.674 69.1067 576.181 69.72 575.808 69.72ZM588.368 91.48C591.994 91.48 594.768 91.96 596.688 92.92C598.608 93.8267 599.568 95.7467 599.568 98.68C599.568 103.48 595.834 105.88 588.368 105.88C580.901 105.88 577.168 103.48 577.168 98.68C577.168 93.88 580.901 91.48 588.368 91.48Z" fill="#89264D"/>
</svg>
